<svg width="72" height="72" viewBox="0 0 72 72" fill="none" xmlns="http://www.w3.org/2000/svg">
<rect width="72" height="72" rx="16" fill="#F5FFEB"/>
<path fill-rule="evenodd" clip-rule="evenodd" d="M51 24.5C51 24.1022 50.842 23.7206 50.5607 23.4393C50.2793 23.158 49.8978 23 49.5 23L42.5 23C41.6716 23 41 23.6716 41 24.5C41 25.3285 41.6716 26 42.5 26L45.8787 26L38 33.8788L35.0607 30.9395C34.4749 30.3537 33.5251 30.3537 32.9393 30.9395L23.4393 40.4395C22.8536 41.0253 22.8536 41.975 23.4393 42.5608C24.0251 43.1466 24.9749 43.1466 25.5607 42.5608L34 34.1215L36.9393 37.0608C37.2206 37.3421 37.6022 37.5001 38 37.5001C38.3978 37.5001 38.7794 37.3421 39.0607 37.0608L48 28.1214V31.5C48 32.3285 48.6716 33 49.5 33C50.3284 33 51 32.3285 51 31.5V24.5ZM21 49.5001C21 48.6717 21.6716 48.0001 22.5 48.0001H51.5C52.3284 48.0001 53 48.6717 53 49.5001C53 50.3286 52.3284 51.0001 51.5 51.0001H22.5C21.6716 51.0001 21 50.3286 21 49.5001Z" fill="#019939"/>
</svg>
