<svg width="73" height="72" viewBox="0 0 73 72" fill="none" xmlns="http://www.w3.org/2000/svg">
<rect x="0.5" width="72" height="72" rx="16" fill="#F5FFEB"/>
<path fill-rule="evenodd" clip-rule="evenodd" d="M37.1295 22.8774C33.5587 20.7627 30.0232 19.9405 25.2145 20.0033L24.9672 20.0063C23.7212 20.0203 22.6032 20.0329 21.5814 20.5654C20.7227 21.0128 19.9508 21.7949 19.5146 22.6594C19.2175 23.2482 19.1014 23.8459 19.0488 24.4544C18.9999 25.0202 19 25.6965 19 26.4663L19 26.5284L19 40.4051V40.4663V40.4664C19 41.6697 19 42.6608 19.0591 43.4592C19.1198 44.2787 19.2506 45.0529 19.6022 45.7678C20.1694 46.921 20.9068 47.6939 22.032 48.3147C22.7535 48.7128 23.602 48.8756 24.4964 48.9756C25.3957 49.0761 26.5471 49.1303 27.9773 49.1977L28.0344 49.2004C31.2481 49.3517 33.6848 50.0723 36.2529 51.738C36.2735 51.7516 36.2946 51.7647 36.316 51.7774C36.391 51.8217 36.4687 51.8594 36.5484 51.8905C36.631 51.9228 36.7158 51.948 36.8018 51.966C36.8547 51.9771 36.9081 51.9854 36.9617 51.9911C37.2783 52.0246 37.6036 51.9635 37.8935 51.8061L37.927 51.7874L37.9442 51.7774C37.9656 51.7647 37.9867 51.7516 38.0073 51.738C40.5777 50.0707 43.016 49.3427 46.2286 49.1854L46.2855 49.1827C47.7181 49.1125 48.871 49.0561 49.771 48.9541C50.6656 48.8526 51.5143 48.6886 52.2349 48.2899C53.3589 47.6678 54.093 46.8969 54.6594 45.7437C55.0103 45.0294 55.1407 44.2556 55.2012 43.4366C55.2602 42.6385 55.2602 41.6476 55.2602 40.4445V40.4443V26.5353L55.2602 26.4733V26.4731C55.2602 25.7033 55.2603 25.0271 55.2114 24.4612C55.1589 23.8529 55.0429 23.2552 54.7459 22.6665C54.3099 21.8021 53.5385 21.0202 52.6801 20.5726C51.6587 20.04 50.5404 20.0269 49.294 20.0123L49.0464 20.0093C44.238 19.9445 40.7017 20.7623 37.1295 22.8774ZM38.7298 25.648V47.6844C41.005 46.6306 43.3452 46.1234 46.0721 45.9898C47.5749 45.9163 48.6248 45.8641 49.4106 45.775C50.2137 45.6839 50.539 45.5717 50.6856 45.4906C51.2372 45.1853 51.5097 44.8991 51.7877 44.3332C51.8737 44.158 51.9618 43.8594 52.0105 43.2007C52.0597 42.5347 52.0608 41.6627 52.0608 40.3831V26.5353C52.0608 25.6851 52.0594 25.1482 52.0238 24.7364C51.9906 24.352 51.9352 24.1984 51.8893 24.1074C51.7549 23.841 51.4653 23.5474 51.2007 23.4095C50.9393 23.2731 50.6441 23.2305 49.0033 23.2084C44.6838 23.1502 41.7345 23.8612 38.7298 25.648ZM35.5304 25.6486C32.5247 23.8607 29.575 23.1461 25.2563 23.2025C23.6164 23.2239 23.3215 23.2664 23.0599 23.4027C22.7954 23.5406 22.5053 23.8344 22.371 24.1007C22.325 24.1917 22.2696 24.3453 22.2364 24.7297C22.2008 25.1415 22.1994 25.6783 22.1994 26.5284L22.1994 40.4051C22.1994 41.6849 22.2005 42.5568 22.2498 43.2229C22.2986 43.8814 22.3868 44.1802 22.4732 44.3557C22.7512 44.9211 23.026 45.209 23.5776 45.5134C23.7249 45.5947 24.0502 45.7064 24.8517 45.7959C25.6364 45.8836 26.6843 45.9338 28.185 46.0045C30.9119 46.1329 33.2532 46.6341 35.5304 47.686V25.6486ZM49.3937 38.5993C49.3641 37.7163 48.6243 37.0245 47.7413 37.0541C45.9641 37.1136 44.1413 37.3404 42.5347 37.8349C41.6903 38.0948 41.2165 38.9901 41.4764 39.8345C41.7363 40.6789 42.6315 41.1527 43.4759 40.8928C44.7231 40.5089 46.2433 40.3055 47.8484 40.2517C48.7314 40.2221 49.4233 39.4823 49.3937 38.5993ZM26.5189 37.0541C25.6359 37.0245 24.8961 37.7163 24.8665 38.5993C24.8369 39.4823 25.5288 40.2221 26.4118 40.2517C28.0169 40.3055 29.5371 40.5089 30.7843 40.8928C31.6287 41.1527 32.5239 40.6789 32.7838 39.8345C33.0437 38.9901 32.5699 38.0948 31.7255 37.8349C30.1189 37.3404 28.2961 37.1136 26.5189 37.0541ZM49.3937 30.4625C49.3641 29.5795 48.6243 28.8877 47.7413 28.9173C45.9641 28.9768 44.1413 29.2036 42.5347 29.6981C41.6903 29.958 41.2165 30.8532 41.4764 31.6976C41.7363 32.542 42.6315 33.0159 43.4759 32.7559C44.7231 32.372 46.2433 32.1687 47.8484 32.1149C48.7314 32.0853 49.4233 31.3455 49.3937 30.4625ZM26.5189 28.9173C25.6359 28.8877 24.8961 29.5795 24.8665 30.4625C24.8369 31.3455 25.5288 32.0853 26.4118 32.1149C28.0169 32.1687 29.5371 32.372 30.7843 32.7559C31.6287 33.0159 32.5239 32.542 32.7838 31.6976C33.0437 30.8532 32.5699 29.958 31.7255 29.6981C30.1189 29.2036 28.2961 28.9768 26.5189 28.9173Z" fill="#019939"/>
</svg>
