<svg width="500" height="487" viewBox="0 0 500 487" fill="none" xmlns="http://www.w3.org/2000/svg">
<path d="M22.1515 290.302H52.7021V277.391H22.1515V290.302Z" fill="#EBEBEB"/>
<path d="M39.2035 261.112L54.3404 260.789L62.0242 260.662C64.597 260.605 67.1814 260.662 69.7542 260.605H70.2618V261.124L70.3311 274.034V274.611H69.7773L54.5019 274.542C49.414 274.542 44.3145 274.403 39.2266 274.346H38.9036V274.034C38.9036 271.842 38.9959 269.661 39.0536 267.516L39.2035 261.112ZM39.2035 261.112L39.3651 267.631C39.3651 269.788 39.492 271.911 39.515 274.023L39.2035 273.711C44.2915 273.653 49.3909 273.526 54.4789 273.515L69.7773 273.446L69.2004 274.023V261.112L69.7773 261.678C67.2621 261.678 64.747 261.678 62.2204 261.608L54.6288 261.482L39.2035 261.112Z" fill="#EBEBEB"/>
<path d="M5.1685 261.112L20.3054 260.789L27.9892 260.662C30.562 260.605 33.1348 260.662 35.7192 260.605H36.2268V261.124L36.296 274.034V274.611H35.7192L20.4438 274.542C15.3444 274.542 10.2564 274.403 5.1685 274.346H4.84546V274.034C4.84546 271.842 4.94929 269.661 4.99544 267.516L5.1685 261.112ZM5.1685 261.112L5.33002 267.631C5.33002 269.788 5.45693 271.911 5.48001 274.023L5.1685 273.711C10.2564 273.653 15.3444 273.526 20.4438 273.515L35.7192 273.446L35.1423 274.023V261.112L35.6615 261.632C33.1348 261.632 30.6312 261.632 28.1046 261.562L20.513 261.435L5.1685 261.112Z" fill="#EBEBEB"/>
<path d="M475.046 21.6335L459.91 21.9566L452.226 22.0835C449.653 22.1412 447.069 22.0835 444.496 22.1527H443.988V21.6335L443.919 8.72335V8.14648H444.496L459.771 8.22724C464.871 8.22724 469.959 8.35415 475.046 8.41184H475.369V8.72335C475.369 10.9154 475.266 13.096 475.22 15.2534L475.046 21.6335ZM475.046 21.6335L474.885 15.115C474.885 12.9691 474.758 10.8462 474.735 8.72335L475.046 9.04639C469.959 9.04639 464.871 9.23098 459.771 9.23098L444.496 9.30021L445.073 8.72335L445.015 21.6335L444.496 21.1259C447.011 21.1259 449.526 21.1259 452.053 21.1259L459.644 21.2643L475.046 21.6335Z" fill="#EBEBEB"/>
<path d="M492.087 25.0024H461.536V37.9126H492.087V25.0024Z" fill="#EBEBEB"/>
<path d="M35.6731 21.7028L20.5247 22.0143L12.8409 22.1528C10.2681 22.1528 7.69526 22.1528 5.12245 22.1528H4.60327V21.7028V8.79263V8.20422H5.1686L20.4439 8.27345C25.5319 8.27345 30.6198 8.40036 35.7193 8.45804H36.0308V8.76955C36.0308 10.9501 35.9269 13.1306 35.8808 15.2881L35.6731 21.7028ZM35.6731 21.7028L35.5 15.1727C35.5 13.0268 35.3731 10.9039 35.3501 8.79263L35.6731 9.10413C30.5736 9.16182 25.4857 9.28873 20.3978 9.28873L5.1686 9.32334L5.73393 8.74648L5.63009 21.7028L5.1686 21.1375C7.68372 21.1375 10.1873 21.1375 12.714 21.2067L20.3055 21.3336L35.6731 21.7028Z" fill="#EBEBEB"/>
<path d="M219.842 103.098H250.393V90.188H219.842V103.098Z" fill="#EBEBEB"/>
<path d="M461.536 265.935L476.685 265.612L484.369 265.485C486.941 265.427 489.514 265.485 492.087 265.416H492.606V265.935L492.664 278.845V279.422H492.041L476.766 279.353C471.678 279.353 466.59 279.214 461.49 279.157H461.179V278.845C461.179 276.653 461.283 274.473 461.329 272.327L461.536 265.935ZM461.536 265.935L461.709 272.454C461.709 274.611 461.836 276.734 461.859 278.845L461.536 278.534C466.636 278.476 471.724 278.349 476.812 278.338L492.087 278.268L491.522 278.845L491.579 265.935L492.087 266.454C489.572 266.454 487.068 266.454 484.542 266.385L476.95 266.258L461.536 265.935Z" fill="#EBEBEB"/>
<path d="M261.78 386.107H292.331V373.197H261.78V386.107Z" fill="#EBEBEB"/>
<path d="M236.871 73.9089L252.066 73.6204L259.75 73.4935C262.322 73.4935 264.895 73.4935 267.479 73.4935H267.987V74.0127L268.045 86.9229V87.4998H267.468L252.193 87.4305C247.093 87.4305 242.005 87.3036 236.917 87.2344H236.594V86.9229C236.594 84.7308 236.698 82.5503 236.744 80.4043L236.871 73.9089ZM236.871 73.9089L237.044 80.439C237.044 82.5849 237.171 84.7077 237.194 86.8191L236.883 86.5076C241.971 86.5076 247.059 86.323 252.158 86.323L267.433 86.2422L266.856 86.8191L266.914 73.9089L267.433 74.428C264.907 74.428 262.403 74.428 259.876 74.3588L252.285 74.2319L236.871 73.9089Z" fill="#EBEBEB"/>
<path d="M84.2219 373.589H45.5028L23.3513 263.12L58.7938 246.829L84.2219 373.589Z" fill="#DBDBDB"/>
<path d="M195.049 373.589H84.2218L58.7937 246.829H169.621L195.049 373.589Z" fill="#EBEBEB"/>
<path d="M64.3432 314.322H5.00708V436.075H64.3432V314.322Z" fill="#DBDBDB"/>
<path d="M223.523 436.075H207.313L183.154 314.322H223.523V436.075Z" fill="#DBDBDB"/>
<path d="M96.9475 314.322H64.3433V436.075H96.9475V314.322Z" fill="#EBEBEB"/>
<path d="M256.127 314.322H223.522V436.075H256.127V314.322Z" fill="#EBEBEB"/>
<path d="M223.523 373.589H96.9475V436.063H223.523V373.589Z" fill="#EBEBEB"/>
<path d="M223.523 346.58H96.9475V373.843H223.523V346.58Z" fill="#EBEBEB"/>
<path d="M72.3384 314.322L84.6486 314.103L96.9473 313.941H97.3165V314.322L97.4665 328.594V342.842C97.4665 352.337 97.5357 361.833 97.4665 371.339C97.3973 380.846 97.4665 390.33 97.305 399.836C97.1435 409.343 97.0973 418.827 96.8897 428.333C96.6897 418.827 96.5551 409.328 96.4859 399.836C96.3589 390.33 96.3474 380.834 96.3128 371.339C96.2782 361.844 96.3128 352.337 96.3128 342.842V328.594L96.4512 314.345L96.8204 314.714L84.5217 314.564L72.3384 314.322Z" fill="#DBDBDB"/>
<path d="M223.523 314.322C223.776 323.852 223.892 333.382 223.996 342.923L224.134 371.524L223.996 400.125L223.823 414.431L223.523 428.726L223.223 414.431L223.05 400.125L222.911 371.524L223.05 342.923C223.153 333.382 223.223 323.852 223.523 314.322Z" fill="#DBDBDB"/>
<path d="M223.523 373.589C212.978 373.843 202.433 373.958 191.876 374.062L160.241 374.2L128.617 374.062L112.8 373.889L96.9475 373.589L112.777 373.289L128.594 373.116L160.241 372.978L191.876 373.116C202.456 373.22 212.978 373.335 223.523 373.589Z" fill="#DBDBDB"/>
<path d="M223.523 346.58C212.978 346.834 202.433 346.949 191.876 347.053L160.241 347.192L128.617 347.053L112.8 346.88L96.9705 346.58L112.8 346.28L128.617 346.107L160.264 345.969L191.899 346.107C202.456 346.211 212.978 346.326 223.523 346.58Z" fill="#DBDBDB"/>
<path d="M27.5623 436.063L26.7547 445.928L24.8857 468.725H16.2904L14.4214 445.928L13.6138 436.063H27.5623Z" fill="#C7C7C7"/>
<path d="M13.6138 436.063H27.5623L26.7547 445.928H14.4214L13.6138 436.063Z" fill="#A6A6A6"/>
<path d="M87.6253 436.063L86.8177 445.928L84.9487 468.725H76.3534L74.4844 445.928L73.6768 436.063H87.6253Z" fill="#C7C7C7"/>
<path d="M73.6768 436.063H87.6253L86.8177 445.928H74.4844L73.6768 436.063Z" fill="#A6A6A6"/>
<path d="M187.238 436.063L186.442 445.928L184.573 468.725H175.977L174.108 445.928L173.301 436.063H187.238Z" fill="#C7C7C7"/>
<path d="M173.301 436.063H187.238L186.442 445.928H174.108L173.301 436.063Z" fill="#A6A6A6"/>
<path d="M247.324 436.063L246.516 445.928L244.647 468.725H236.052L234.183 445.928L233.375 436.063H247.324Z" fill="#C7C7C7"/>
<path d="M247.324 436.063L246.516 445.928H234.183L233.375 436.063H247.324Z" fill="#A6A6A6"/>
<path d="M226.592 80.4966H28.5547V88.9995H226.592V80.4966Z" fill="#EBEBEB"/>
<path d="M57.3517 122.469H49.6332L46.5413 88.9996H57.3517V122.469Z" fill="#EBEBEB"/>
<path d="M197.794 122.469H205.513L208.605 88.9996H197.794V122.469Z" fill="#EBEBEB"/>
<path d="M46.5413 88.9996H57.3401V100.525H47.6027L46.5413 88.9996Z" fill="#DBDBDB"/>
<path d="M208.605 88.9996L207.543 100.525H197.794V88.9996H208.605Z" fill="#DBDBDB"/>
<path d="M100.27 29.4905C91.4788 41.3854 82.3183 55.1609 80.0916 70.1593C80.0909 70.2057 80.1067 70.2509 80.1361 70.2868C80.1656 70.3227 80.2069 70.347 80.2526 70.3553C80.2983 70.3636 80.3455 70.3554 80.3857 70.3322C80.4259 70.309 80.4566 70.2722 80.4723 70.2285C81.4858 66.1616 82.785 62.1714 84.3604 58.2874C90.129 56.6953 95.8053 55.3916 98.8396 49.6576C101.874 43.9236 101.539 36.0782 100.951 29.652C100.928 29.2713 100.443 29.2597 100.27 29.4905Z" fill="#EBEBEB"/>
<path d="M84.4526 58.1374C88.3173 49.0646 93.5251 40.6249 99.9009 33.1016L99.9702 33.1708C95.9366 38.3608 92.3948 43.915 89.3905 49.7614C92.2979 46.8078 95.4822 44.1543 98.2396 41.0277C98.2396 41.0277 98.378 41.0277 98.3319 41.12C95.5975 44.3965 92.5632 47.9616 89.1021 50.3498C88.1483 52.1188 87.1792 53.8879 86.1947 55.6569C86.437 55.5184 86.6908 55.4031 86.9331 55.2762V55.3454L86.1139 55.7492C85.6524 56.5799 85.1909 57.4221 84.7179 58.2528C84.6256 58.4835 84.3603 58.322 84.4526 58.1374Z" fill="#A6A6A6"/>
<path d="M87.383 55.0454C89.7448 53.7209 92.0013 52.2166 94.1323 50.5459C94.1323 50.5459 94.2708 50.5459 94.2131 50.6267C92.1485 52.4143 89.8882 53.9625 87.4753 55.2416C87.4625 55.2476 87.4485 55.2511 87.4343 55.2518C87.4201 55.2524 87.4059 55.2503 87.3925 55.2455C87.3791 55.2406 87.3668 55.2332 87.3562 55.2237C87.3457 55.2141 87.3372 55.2025 87.3311 55.1896C87.3251 55.1768 87.3216 55.1628 87.3209 55.1486C87.3203 55.1344 87.3224 55.1202 87.3272 55.1068C87.332 55.0934 87.3394 55.0811 87.349 55.0706C87.3586 55.06 87.3702 55.0515 87.383 55.0454Z" fill="#A6A6A6"/>
<path d="M79.1223 69.9861C79.1223 70.1707 79.4454 70.1592 79.4454 69.9861C79.4454 65.0713 79.4453 60.1333 79.5261 55.1954C80.7837 52.6572 83.4834 51.2496 85.364 49.2075C86.703 47.7205 87.8645 46.0827 88.8251 44.3273C91.0859 40.1314 92.4677 35.5188 92.8863 30.771C93.4054 25.51 91.4095 8.16953 89.1943 8.76946C88.0406 9.08097 84.3256 17.6762 83.3449 20.5144C81.7561 25.1987 80.5975 30.0182 79.8838 34.9129C78.0955 46.4732 78.2455 58.345 79.1223 69.9861Z" fill="#EBEBEB"/>
<path d="M79.0878 48.7807C79.555 42.5307 80.5547 36.3319 82.0759 30.2519C83.4835 23.7449 85.1333 17.6301 88.4791 11.7923C88.4791 11.6769 88.6983 11.7923 88.6406 11.8846C86.4124 16.3927 84.6868 21.1323 83.495 26.0177C83.7258 25.6716 83.9911 25.337 84.2219 25.0024C84.3142 24.8755 84.5334 25.0024 84.4411 25.1294C84.1457 25.6554 83.7978 26.1502 83.4027 26.6061C82.249 31.221 81.4183 35.9974 80.7145 40.7393L80.8761 40.5547C80.8761 40.5547 80.9684 40.5547 80.9453 40.5547L80.6684 41.0277C80.3107 43.4274 79.9762 45.8272 79.6416 48.2039C84.0369 44.6817 87.4765 40.1114 89.6444 34.9129C87.8144 40.4567 84.2715 45.2762 79.5262 48.6769C79.4454 49.323 79.3531 49.9575 79.2608 50.6036C79.2608 50.7305 79.0301 50.6959 79.0301 50.6036C79.0301 50.0383 79.0301 49.4499 79.0301 48.8961C79.0285 48.8735 79.033 48.8508 79.0432 48.8305C79.0533 48.8102 79.0687 48.793 79.0878 48.7807Z" fill="#A6A6A6"/>
<path d="M81.1067 39.7702C84.4521 35.0386 87.3709 30.0194 89.8289 24.7717C89.8289 24.7717 89.9673 24.7717 89.9443 24.7717C88.0025 30.2923 85.0789 35.4165 81.3144 39.8971C81.3061 39.9107 81.2951 39.9226 81.2822 39.932C81.2693 39.9414 81.2546 39.9482 81.2391 39.9519C81.2236 39.9557 81.2075 39.9563 81.1917 39.9538C81.1759 39.9513 81.1607 39.9458 81.1471 39.9374C81.1335 39.9291 81.1216 39.9182 81.1122 39.9053C81.1028 39.8923 81.096 39.8777 81.0923 39.8622C81.0885 39.8466 81.0879 39.8305 81.0903 39.8147C81.0928 39.7989 81.0984 39.7838 81.1067 39.7702Z" fill="#A6A6A6"/>
<path d="M85.4564 23.5372C86.8178 21.1374 88.2369 18.8069 89.5176 16.361C89.5176 16.2918 89.6445 16.361 89.6214 16.4187C88.5739 18.9725 87.2467 21.4025 85.6641 23.6641C85.6438 23.6824 85.6181 23.6937 85.5908 23.6963C85.5636 23.6988 85.5362 23.6925 85.5129 23.6782C85.4895 23.6639 85.4714 23.6425 85.4612 23.6171C85.4511 23.5916 85.4494 23.5636 85.4564 23.5372Z" fill="#A6A6A6"/>
<path d="M76.6995 57.3875C76.6344 60.648 76.248 63.8941 75.5458 67.0788C75.5458 67.4249 75.6497 67.771 75.6958 68.1402C76.6996 64.6217 77.2844 60.997 77.4379 57.3414C77.4634 57.2893 77.4766 57.2321 77.4766 57.1741C77.4766 57.1161 77.4634 57.0589 77.4379 57.0068C77.5779 52.1099 77.2145 47.2117 76.3534 42.3891C74.8305 33.3554 71.5078 24.6794 65.2084 17.9186C65.1557 17.8745 65.0937 17.8428 65.0271 17.8257C64.9605 17.8087 64.891 17.8067 64.8235 17.82C64.7561 17.8332 64.6924 17.8614 64.6373 17.9024C64.5821 17.9434 64.5368 17.9962 64.5047 18.057C61.9665 24.5179 62.8548 32.2363 65.0238 38.6856C66.1974 42.1789 67.8808 45.4796 70.0195 48.4807C72.2116 51.5035 74.969 54.0763 76.6995 57.3875Z" fill="#EBEBEB"/>
<path d="M65.9815 20.9298C71.9578 30.6211 76.1112 42.1007 76.6189 53.5456C76.6189 53.7533 76.2843 53.811 76.2497 53.6033C76.1112 52.5765 75.9613 51.5497 75.7882 50.5344C73.1971 48.2356 70.92 45.6056 69.0158 42.7121C69.0158 42.7121 69.0158 42.5968 69.1081 42.7121C71.1601 45.2216 73.3559 47.61 75.6844 49.8652C75.2536 47.3424 74.7422 44.8504 74.1499 42.3891C73.9884 42.216 73.8384 42.0199 73.6769 41.8353C73.5154 41.6507 73.7461 41.5353 73.8499 41.6623L73.9999 41.8238C73.1605 38.4597 72.1164 35.15 70.8733 31.9133C69.2146 30.2231 67.7588 28.3452 66.5353 26.3177C66.5353 26.3177 66.5353 26.2139 66.6161 26.3177C67.4759 27.5833 68.4001 28.8041 69.385 29.975C69.7773 30.4365 70.2272 30.8749 70.6426 31.3249C69.264 27.8137 67.629 24.4087 65.7508 21.1375C65.7232 21.1069 65.709 21.0666 65.7112 21.0255C65.7133 20.9844 65.7317 20.9458 65.7623 20.9183C65.7929 20.8907 65.8332 20.8765 65.8743 20.8786C65.9154 20.8808 65.954 20.8992 65.9815 20.9298Z" fill="#A6A6A6"/>
<path d="M67.1929 32.8823C69.1196 35.4782 71.3232 37.9587 73.1115 40.6354C73.1115 40.7161 73.1115 40.7969 72.9846 40.7392C70.7021 38.3938 68.7145 35.7786 67.066 32.9515C67.0083 32.8708 67.1352 32.8016 67.1929 32.8823Z" fill="#A6A6A6"/>
<path d="M73.3884 41.2353L73.4691 41.3276C73.4691 41.3276 73.4692 41.4661 73.3769 41.4084L73.2961 41.3161C73.2384 41.3161 73.3307 41.1892 73.3884 41.2353Z" fill="#A6A6A6"/>
<path d="M55.7133 37.105C56.4101 42.5181 58.5902 47.633 62.0126 51.8842C63.4157 53.5557 65.1526 54.9155 67.1121 55.8761C69.3273 56.9722 71.6462 58.1836 73.9306 59.1296C75.0191 61.9001 75.8306 64.7715 76.3534 67.7018C76.4227 67.448 76.4919 67.1942 76.5727 66.9404C75.0959 54.3186 66.939 43.5313 56.4863 36.6089C56.4047 36.5578 56.3102 36.5309 56.2139 36.5314C56.1176 36.5319 56.0235 36.5598 55.9424 36.6118C55.8614 36.6638 55.7968 36.7378 55.7562 36.8251C55.7157 36.9125 55.7008 37.0095 55.7133 37.105Z" fill="#EBEBEB"/>
<path d="M59.5437 45.1926C59.6836 45.281 59.8185 45.3773 59.9475 45.4811C59.9475 45.4811 59.9475 45.5618 59.9475 45.5503C59.8028 45.4808 59.6639 45.3997 59.5322 45.308C59.5232 45.3008 59.5162 45.2914 59.5117 45.2808C59.5073 45.2702 59.5055 45.2586 59.5067 45.2472C59.5078 45.2357 59.5118 45.2247 59.5183 45.2152C59.5247 45.2057 59.5335 45.1979 59.5437 45.1926Z" fill="#A6A6A6"/>
<path d="M89.4137 80.4966H67.8967L68.9582 66.398L69.362 61.7947H87.7523L88.1677 66.398L89.4137 80.4966Z" fill="#DBDBDB"/>
<path d="M88.1675 66.398H68.958L69.3618 61.7947H87.7522L88.1675 66.398Z" fill="#C7C7C7"/>
<path d="M89.2176 58.0221H67.8967V62.7408H89.2176V58.0221Z" fill="#DBDBDB"/>
<path d="M141.677 80.4736V29.2712H128.779V80.4736H141.677Z" fill="#C7C7C7"/>
<path d="M141.689 32.1556V26.5254H128.79V32.1556H141.689Z" fill="#DBDBDB"/>
<path d="M141.677 41.443V39.3547H128.779V41.443H141.677Z" fill="#DBDBDB"/>
<path d="M141.677 73.7474V68.1172H128.779V73.7474H141.677Z" fill="#DBDBDB"/>
<path d="M150.688 80.4736V20.7452H141.677V80.4736H150.688Z" fill="#DBDBDB"/>
<path d="M148.854 49.323V26.3523H143.443V49.323H148.854Z" fill="#EBEBEB"/>
<path d="M214.856 74.0034L172.379 32.0131L166.045 38.4211L208.522 80.4115L214.856 74.0034Z" fill="#C7C7C7"/>
<path d="M203.649 65.4116L187.312 49.2627L183.508 53.1108L199.844 69.2597L203.649 65.4116Z" fill="#DBDBDB"/>
<path d="M165.998 80.4735V35.109H150.7V80.4735H165.998Z" fill="#A6A6A6"/>
<path d="M165.986 75.6626V71.4399H150.688V75.6626H165.986Z" fill="#C7C7C7"/>
<path d="M165.998 68.6594V67.0211H150.7V68.6594H165.998Z" fill="#C7C7C7"/>
<path d="M112.73 81.1427L129.356 41.923L119.634 37.8014L103.008 77.0211L112.73 81.1427Z" fill="#A6A6A6"/>
<path d="M113.836 76.3515L115.401 72.7045L105.69 68.5362L104.125 72.1832L113.836 76.3515Z" fill="#C7C7C7"/>
<path d="M123.843 53.0583L125.408 49.4113L115.697 45.2429L114.132 48.89L123.843 53.0583Z" fill="#C7C7C7"/>
<path d="M122.164 56.9777L122.774 55.557L113.063 51.3887L112.453 52.8094L122.164 56.9777Z" fill="#C7C7C7"/>
<path d="M449.468 329.274H336.646V468.725H449.468V329.274Z" fill="#EBEBEB"/>
<path d="M454.925 323.483H331.177V329.274H454.925V323.483Z" fill="#DBDBDB"/>
<path d="M493.852 323.483H454.937V329.274H493.852V323.483Z" fill="#EBEBEB"/>
<path d="M487.691 329.274H449.468V468.725H487.691V329.274Z" fill="#DBDBDB"/>
<path d="M437.319 394.022H348.794V343.973H437.319V394.022ZM349.082 393.733H437.031V344.261H349.082V393.733Z" fill="#C7C7C7"/>
<path d="M397.943 358.602H380.706V368.513H397.943V358.602Z" fill="#C7C7C7"/>
<path d="M403.204 367.901H385.656V359.202H403.204V367.901ZM385.898 367.613H402.846V359.537H385.898V367.613Z" fill="#C7C7C7"/>
<path d="M437.319 456.876H348.794V406.828H437.319V456.876ZM349.082 456.588H437.031V407.116H349.082V456.588Z" fill="#C7C7C7"/>
<path d="M397.943 421.457H380.706V431.368H397.943V421.457Z" fill="#C7C7C7"/>
<path d="M403.204 430.756H385.656V422.046H403.204V430.756ZM385.898 430.468H402.846V422.392H385.898V430.468Z" fill="#C7C7C7"/>
<path d="M494.418 468.725L432.624 469.002L370.819 469.106L247.209 469.302L123.599 469.106L61.8051 469.002L0 468.725L61.8051 468.437L123.599 468.344L247.209 468.148L370.819 468.344L432.624 468.437L494.418 468.725Z" fill="#263238"/>
<path d="M465.378 468.725H471.989L425.69 224.066H409.227L465.378 468.725Z" fill="#455A64"/>
<path d="M409.227 224.066L417.533 260.247H432.532L425.702 224.101L425.69 224.066H409.227Z" fill="#37474F"/>
<path d="M397.839 468.725H404.45L402.973 224.066H386.521L397.839 468.725Z" fill="#455A64"/>
<path d="M386.521 224.066L388.194 260.247H403.192L402.973 224.101V224.066H386.521Z" fill="#37474F"/>
<path d="M336.911 468.725H330.312L366.758 224.066H383.221L336.911 468.725Z" fill="#455A64"/>
<path d="M361.37 260.247H376.368L383.221 224.066H366.758L366.746 224.101L361.37 260.247Z" fill="#37474F"/>
<path d="M350.467 368.686H446.538V363.909H350.467V368.686Z" fill="#455A64"/>
<path d="M493.89 133.454C497.264 65.1932 460.698 7.91379 412.216 5.5172C363.735 3.12061 321.697 56.5144 318.323 124.775C314.948 193.037 351.515 250.316 399.997 252.713C448.478 255.109 490.516 201.715 493.89 133.454Z" fill="#FFC727"/>
<path d="M393.04 4.29297L413.668 5.5736L397.955 252.598L377.314 251.317L393.04 4.29297Z" fill="#FFC727"/>
<g opacity="0.1">
<path d="M393.04 4.29297L413.668 5.5736L397.955 252.598L377.314 251.317L393.04 4.29297Z" fill="black"/>
</g>
<path d="M474.899 132.276C478.273 64.0154 441.706 6.73599 393.225 4.3394C344.743 1.94281 302.706 55.3366 299.331 123.598C295.957 191.859 332.524 249.138 381.005 251.535C429.487 253.931 471.524 200.538 474.899 132.276Z" fill="#FFC727"/>
<path d="M455.597 131.322C458.23 78.0742 429.703 33.3923 391.881 31.5226C354.059 29.653 321.265 71.3036 318.633 124.552C316.001 177.8 344.527 222.482 382.349 224.352C420.171 226.221 452.965 184.571 455.597 131.322Z" fill="white"/>
<path d="M436.48 130.377C438.378 91.9828 417.815 59.7654 390.551 58.4177C363.288 57.0699 339.647 87.1023 337.75 125.497C335.852 163.891 356.415 196.109 383.678 197.456C410.942 198.804 434.582 168.772 436.48 130.377Z" fill="#FFC727"/>
<path d="M417.167 129.423C418.323 106.047 405.805 86.4329 389.207 85.6124C372.61 84.7919 358.218 103.076 357.062 126.451C355.907 149.827 368.425 169.441 385.023 170.262C401.62 171.082 416.012 152.798 417.167 129.423Z" fill="white"/>
<path d="M400.458 125.538C401.174 135.922 395.774 145.324 388.39 146.674C381.006 148.024 374.465 140.767 373.761 130.441C373.057 120.115 378.445 110.655 385.817 109.294C393.19 107.932 399.743 115.154 400.458 125.538Z" fill="#FFC727"/>
<path opacity="0.4" d="M474.899 132.276C478.273 64.0154 441.706 6.73599 393.225 4.3394C344.743 1.94281 302.706 55.3366 299.331 123.598C295.957 191.859 332.524 249.138 381.005 251.535C429.487 253.931 471.524 200.538 474.899 132.276Z" fill="white"/>
<path d="M304.26 400.125C304.658 390.045 304.52 379.951 303.845 369.886C302.359 349.127 299.191 328.523 294.373 308.277C291.731 296.878 288.477 285.664 285.085 274.472C284.981 274.126 284.451 274.23 284.543 274.576C295.019 314.045 303.626 354.783 303.003 395.81C302.841 407.347 301.514 418.573 300.418 429.983C300.418 430.295 300.891 430.41 300.96 430.099C303.153 420.384 303.856 410.151 304.26 400.125Z" fill="#FFC727"/>
<path d="M284.543 274.622C284.543 274.622 268.657 314.934 272.21 324.406C275.764 333.878 283.101 335.943 283.101 335.943C283.101 335.943 273.387 349.788 280.171 362.825C286.955 375.862 302.092 375.227 303.049 389.972C303.049 389.926 303.891 328.248 284.543 274.622Z" fill="#FFC727"/>
<path d="M301.33 364.463C301.352 364.392 301.352 364.315 301.33 364.244C299.241 336.725 294.075 309.528 285.928 283.16C285.928 283.091 285.778 283.16 285.801 283.16C288.939 294.951 291.719 306.804 294.142 318.718C292.009 316.698 289.403 315.246 286.562 314.495C286.504 314.495 286.481 314.553 286.562 314.576C289.548 315.671 292.23 317.463 294.384 319.802C294.857 322.11 295.307 324.417 295.734 326.817C292.192 322.848 287.266 320.887 282.339 319.018C282.27 319.018 282.236 319.099 282.339 319.122C287.474 321.21 292.573 323.898 296.057 328.351C297.265 335.043 298.326 341.754 299.242 348.484C296.675 345.799 293.385 343.915 289.769 343.061C289.666 343.061 289.596 343.2 289.712 343.235C293.441 344.308 296.777 346.445 299.311 349.384H299.38C299.692 351.749 299.991 354.126 300.268 356.491C298.283 354.814 296.043 353.463 293.634 352.487C293.577 352.487 293.542 352.568 293.634 352.591C296.092 353.657 298.342 355.149 300.28 356.998C300.31 357.009 300.342 357.009 300.372 356.998C300.626 359.306 300.891 361.521 301.122 363.782C297.546 359.46 292.905 356.144 287.658 354.16C287.637 354.153 287.613 354.154 287.593 354.164C287.572 354.173 287.556 354.191 287.549 354.212C287.541 354.234 287.542 354.257 287.552 354.278C287.562 354.298 287.579 354.314 287.6 354.322C292.782 356.611 297.333 360.118 300.868 364.544C300.907 364.593 300.96 364.629 301.02 364.647C301.079 364.666 301.143 364.666 301.203 364.648C301.549 368.109 301.861 371.57 302.114 375.031C302.114 375.031 302.195 375.089 302.195 375.031C301.861 371.582 301.676 368.017 301.33 364.463Z" fill="#263238"/>
<path d="M288.57 310.526C285.694 308.739 282.41 307.714 279.028 307.55C279.013 307.55 278.998 307.556 278.988 307.567C278.977 307.578 278.971 307.592 278.971 307.607C278.971 307.623 278.977 307.637 278.988 307.648C278.998 307.659 279.013 307.665 279.028 307.665C282.294 308.278 285.467 309.314 288.466 310.746C288.581 310.803 288.685 310.607 288.57 310.526Z" fill="#263238"/>
<path d="M290.497 353.203C288.286 351.936 285.855 351.102 283.332 350.745C283.24 350.745 283.24 350.872 283.332 350.884C285.797 351.376 288.182 352.211 290.416 353.364C290.508 353.41 290.589 353.249 290.497 353.203Z" fill="#263238"/>
<path d="M346.002 325.063C339.29 329.707 333.125 335.094 327.623 341.123C321.956 347.51 317.579 354.935 314.736 362.986C308.704 379.774 305.461 397.437 305.137 415.273C304.928 425.149 305.877 435.015 307.964 444.67C307.978 444.743 308.02 444.808 308.082 444.851C308.143 444.893 308.219 444.909 308.293 444.895C308.366 444.881 308.431 444.839 308.473 444.777C308.516 444.715 308.531 444.64 308.518 444.566C305.919 427.528 306.017 410.187 308.806 393.179C311.529 376.496 315.821 358.36 326.412 344.804C332.181 337.431 339.38 331.628 346.498 325.629C346.868 325.306 346.395 324.786 346.002 325.063Z" fill="#FFC727"/>
<path d="M307.445 403.263C311.27 397.079 315.766 391.338 320.851 386.142C328.789 378.192 335.48 372.551 336.519 367.301C337.557 362.052 328.558 358.175 328.558 358.175C328.558 358.175 339.553 360.148 342.553 355.533C345.552 350.918 347.018 324.198 347.018 324.198C347.018 324.198 327.058 338.481 317.725 358.498C308.391 378.515 307.445 403.263 307.445 403.263Z" fill="#FFC727"/>
<path d="M339.899 349.269C338.581 349.078 337.246 349.032 335.918 349.13C335.887 349.139 335.859 349.158 335.84 349.184C335.82 349.21 335.81 349.242 335.81 349.274C335.81 349.307 335.82 349.339 335.84 349.365C335.859 349.391 335.887 349.41 335.918 349.418C337.234 349.418 338.56 349.349 339.876 349.418C339.892 349.415 339.907 349.407 339.918 349.395C339.93 349.383 339.937 349.368 339.94 349.352C339.942 349.335 339.94 349.318 339.932 349.304C339.925 349.289 339.913 349.276 339.899 349.269Z" fill="#263238"/>
<path d="M325.5 375.193C323.391 375.244 321.306 375.662 319.339 376.427C319.339 376.427 319.339 376.531 319.339 376.52C321.381 376.035 323.435 375.839 325.5 375.493C325.54 375.493 325.578 375.477 325.606 375.449C325.634 375.421 325.65 375.382 325.65 375.343C325.65 375.303 325.634 375.265 325.606 375.237C325.578 375.209 325.54 375.193 325.5 375.193Z" fill="#263238"/>
<path d="M321.185 366.24C320.307 366.23 319.43 366.307 318.566 366.471C318.486 366.471 318.486 366.632 318.566 366.632C319.441 366.677 320.319 366.634 321.185 366.505C321.347 366.482 321.347 366.24 321.185 366.24Z" fill="#263238"/>
<path d="M248.847 353.422C255.354 355.626 261.59 358.564 267.433 362.179C273.498 366.033 278.757 371.029 282.916 376.889C291.698 389.076 298.425 402.619 302.83 416.981C305.274 424.928 306.788 433.132 307.341 441.428C307.329 441.482 307.299 441.53 307.256 441.565C307.213 441.599 307.159 441.618 307.104 441.618C307.049 441.618 306.996 441.599 306.953 441.565C306.91 441.53 306.88 441.482 306.868 441.428C305.024 427.036 300.936 413.021 294.754 399.894C288.685 387.03 281.036 373.358 269.372 364.821C262.991 360.206 255.827 357.148 248.685 353.941C248.201 353.814 248.466 353.295 248.847 353.422Z" fill="#FFC727"/>
<path d="M298.111 407.797C293.588 403.679 288.624 400.073 283.309 397.044C275.037 392.429 268.31 389.43 266.268 385.415C264.226 381.4 270.606 376.185 270.606 376.185C270.606 376.185 262.161 380.315 258.665 377.281C255.169 374.247 247.809 352.949 247.809 352.949C247.809 352.949 267.295 359.871 279.467 373.935C291.639 387.999 298.111 407.797 298.111 407.797Z" fill="#FFC727"/>
<path d="M264.93 365.94C264.058 365.88 263.182 365.93 262.322 366.09C262.301 366.09 262.281 366.098 262.265 366.114C262.25 366.129 262.242 366.149 262.242 366.171C262.242 366.192 262.25 366.213 262.265 366.228C262.281 366.243 262.301 366.251 262.322 366.251C263.176 366.159 264.018 366.194 264.884 366.171C264.914 366.177 264.946 366.17 264.972 366.153C264.998 366.136 265.016 366.109 265.022 366.078C265.028 366.048 265.022 366.016 265.005 365.99C264.987 365.964 264.96 365.946 264.93 365.94Z" fill="#263238"/>
<path d="M323.239 468.287H279.259L285.524 422.345L287.128 410.577H315.359L316.963 422.345L323.239 468.287Z" fill="#455A64"/>
<path d="M316.963 422.345H285.524L287.128 410.577H315.359L316.963 422.345Z" fill="#263238"/>
<path d="M319.397 406.482H283.089V416.461H319.397V406.482Z" fill="#455A64"/>
<path d="M320.079 103.586L14.084 121.551L17.3223 176.708L323.317 158.743L320.079 103.586Z" fill="#FFC727"/>
<path d="M319.189 88.5034L324.197 173.81L386.186 127.372L319.189 88.5034Z" fill="#FFC727"/>
<g opacity="0.5">
<path d="M386.187 127.372L324.197 173.798L323.308 158.742L17.3174 176.706L14.0754 121.546L320.067 103.583L319.178 88.5034L386.187 127.372Z" fill="white"/>
<path d="M14.6061 179.763L11.0295 118.846L317.009 100.883L315.994 83.3347L391.413 127.072L321.624 179.336L320.597 161.8L14.6061 179.763ZM17.1212 124.269L20.0286 173.671L326.02 155.685L326.758 168.272L380.983 127.672L322.374 93.6952L323.112 106.294L17.1212 124.269Z" fill="#FFC727"/>
</g>
<path d="M169.955 409.885C169.955 409.885 168.801 455.584 168.801 455.619C168.801 464.064 169.009 471.471 169.459 475.232V475.301C169.474 476.207 169.691 477.098 170.093 477.909C172.62 479.605 240.136 481.37 242.513 480.632C244.889 479.893 242.986 473.063 240.425 470.906C237.863 468.748 212.331 456.657 212.331 456.657L213.07 410.981L169.955 409.885Z" fill="#EB9481"/>
<path d="M168.721 446.551C168.721 446.551 168.801 455.584 168.79 455.619C168.79 464.064 168.998 471.471 169.448 475.232V475.301C169.562 476.191 169.775 477.066 170.082 477.909C172.609 479.605 240.125 481.37 242.501 480.632C244.878 479.893 242.974 473.063 240.413 470.906C237.852 468.748 212.332 456.657 212.332 456.657V447.427L168.721 446.551Z" fill="white"/>
<path d="M216.462 456.657C211.974 455.919 206.505 456.726 203.148 459.991C203.021 460.118 203.206 460.291 203.344 460.245C207.596 458.773 211.994 457.759 216.462 457.222C216.527 457.209 216.586 457.174 216.628 457.122C216.67 457.071 216.693 457.006 216.693 456.94C216.693 456.873 216.67 456.809 216.628 456.757C216.586 456.706 216.527 456.67 216.462 456.657Z" fill="#263238"/>
<path d="M219.761 458.526C215.262 457.788 209.805 458.595 206.447 461.849C206.32 461.976 206.505 462.16 206.643 462.114C210.896 460.642 215.293 459.629 219.761 459.092C219.826 459.078 219.885 459.043 219.927 458.991C219.969 458.94 219.992 458.875 219.992 458.809C219.992 458.742 219.969 458.678 219.927 458.626C219.885 458.575 219.826 458.539 219.761 458.526Z" fill="#263238"/>
<path d="M223.015 460.407C218.515 459.668 213.058 460.465 209.701 463.73C209.574 463.856 209.701 464.041 209.897 463.995C214.145 462.521 218.539 461.508 223.003 460.972C223.069 460.96 223.128 460.926 223.171 460.875C223.215 460.825 223.239 460.761 223.24 460.694C223.242 460.628 223.22 460.563 223.179 460.51C223.138 460.458 223.08 460.421 223.015 460.407Z" fill="#263238"/>
<path d="M242.547 480.735C240.171 481.462 172.655 479.709 170.128 478.013C169.159 477.39 168.836 467.537 168.801 455.619V455.238L212.366 455.884V456.623C212.366 456.623 237.909 468.852 240.494 471.021C243.078 473.19 244.924 480.009 242.547 480.735Z" fill="#37474F"/>
<path d="M168.79 455.238V455.619C168.848 467.537 169.159 477.39 170.128 478.013C171.282 478.786 185.911 479.57 201.717 480.135C220.65 480.805 241.256 481.139 242.548 480.735C244.924 480.009 243.009 473.167 240.459 471.009C237.91 468.852 212.332 456.657 212.332 456.657V455.93L197.841 455.676L168.79 455.238Z" fill="#FFC727"/>
<path d="M241.844 478.093C230.48 477.516 184.55 476.27 173.266 476.57C173.174 476.57 173.174 476.64 173.266 476.64C184.527 477.459 230.457 478.336 241.844 478.278C242.086 478.278 242.086 478.105 241.844 478.093Z" fill="#263238"/>
<path opacity="0.1" d="M197.841 455.677C198.902 462.968 200.529 473.721 201.717 480.136C220.65 480.805 241.256 481.139 242.548 480.735C244.924 480.009 243.009 473.167 240.459 471.01C237.91 468.852 212.332 456.657 212.332 456.657V455.93L197.841 455.677Z" fill="black"/>
<path d="M164.867 455.861L213.727 456.334C213.727 456.334 216.496 376.727 216.704 350.261C216.946 319.952 215.227 229.119 215.227 229.119H178.7C178.7 229.119 168.905 249.16 174.501 271.692L176.047 352.787L164.867 455.861Z" fill="#263238"/>
<path d="M168.49 447.312C169.779 447.139 171.077 447.035 172.378 447.001C173.82 446.897 175.262 446.793 176.704 446.735C179.485 446.608 182.265 446.562 185.046 446.551C190.664 446.551 196.272 446.551 201.879 446.747C205.074 446.851 208.259 446.977 211.443 447.162C211.57 447.162 211.558 447.358 211.443 447.358C205.882 447.566 200.31 447.647 194.749 447.762C189.188 447.877 183.627 447.97 178.077 447.866C176.474 447.866 174.881 447.866 173.289 447.727C171.697 447.589 170.07 447.727 168.513 447.497C168.421 447.485 168.374 447.335 168.49 447.312Z" fill="#37474F"/>
<path d="M210.208 403.401C210.774 390.249 211.201 377.085 211.558 363.932C212.274 337.604 212.462 311.272 212.124 284.937C211.939 270.169 211.547 255.401 211.108 240.634C211.108 240.461 211.351 240.472 211.362 240.634C212.758 267.065 213.3 293.555 213.324 320.021C213.347 346.488 212.839 372.701 211.501 398.971C210.774 413.727 209.874 428.506 208.489 443.216C208.489 443.343 208.282 443.343 208.282 443.216C208.882 429.96 209.632 416.692 210.208 403.401Z" fill="#37474F"/>
<path d="M222.219 417.142C222.219 417.142 222.588 461.318 222.588 461.353C222.588 469.798 222.784 477.205 223.234 481.024C223.227 481.042 223.227 481.063 223.234 481.082C223.235 481.989 223.453 482.883 223.869 483.689C223.864 483.708 223.864 483.728 223.869 483.747C226.384 485.443 293.9 487.208 296.276 486.458C298.653 485.708 296.761 478.901 294.188 476.744C291.615 474.586 266.06 462.357 266.06 462.357L265.276 418.204L222.219 417.142Z" fill="#EB9481"/>
<path d="M222.507 452.273C222.507 452.273 222.588 461.318 222.588 461.353C222.588 469.798 222.784 477.205 223.234 481.024C223.227 481.042 223.227 481.063 223.234 481.081C223.341 481.973 223.554 482.848 223.869 483.689C223.864 483.708 223.864 483.728 223.869 483.747C226.384 485.443 293.9 487.208 296.277 486.458C298.653 485.708 296.761 478.901 294.188 476.743C291.615 474.586 266.06 462.356 266.06 462.356L266.118 453.127L222.507 452.273Z" fill="white"/>
<path d="M270.26 462.426C265.76 461.687 260.303 462.483 256.946 465.748C256.819 465.875 256.946 466.06 257.142 466.014C261.39 464.54 265.784 463.527 270.248 462.991C270.314 462.979 270.373 462.945 270.417 462.894C270.46 462.844 270.484 462.78 270.485 462.713C270.487 462.647 270.465 462.582 270.424 462.529C270.383 462.477 270.325 462.44 270.26 462.426Z" fill="#263238"/>
<path d="M273.537 464.26C269.037 463.522 263.58 464.318 260.223 467.583C260.096 467.71 260.223 467.894 260.419 467.848C264.667 466.375 269.061 465.361 273.525 464.826C273.591 464.814 273.65 464.78 273.693 464.729C273.737 464.678 273.761 464.614 273.762 464.548C273.764 464.481 273.742 464.416 273.701 464.364C273.66 464.311 273.602 464.275 273.537 464.26Z" fill="#263238"/>
<path d="M276.813 466.141C272.314 465.402 266.845 466.141 263.499 469.464C263.361 469.59 263.499 469.775 263.695 469.729C267.943 468.255 272.337 467.242 276.802 466.706C276.867 466.694 276.927 466.66 276.97 466.609C277.013 466.559 277.037 466.495 277.039 466.428C277.04 466.362 277.018 466.297 276.977 466.244C276.936 466.192 276.878 466.155 276.813 466.141Z" fill="#263238"/>
<path d="M296.334 486.458C293.957 487.196 226.453 485.443 223.926 483.747C222.957 483.112 222.634 473.259 222.588 461.353C222.588 461.226 222.588 461.099 222.588 460.972L266.153 461.618V462.357C266.153 462.357 291.684 474.586 294.269 476.743C296.853 478.901 298.722 485.743 296.334 486.458Z" fill="#FFC727"/>
<path d="M295.642 483.827C284.266 483.25 238.348 482.004 227.053 482.304C226.972 482.304 226.96 482.304 227.053 482.374C238.313 483.193 284.254 484.058 295.642 484.012C295.907 484.012 295.907 483.839 295.642 483.827Z" fill="#263238"/>
<path d="M199.894 275.822C199.894 275.822 219.934 339 220.303 350.607C220.603 360.506 219.346 462.08 219.346 462.08L270.11 462.38C270.11 462.38 265.829 358.798 265.033 348.484C263.557 329.194 246.655 276.238 234.575 229.062H179.842C179.842 229.062 180.315 253.775 191.553 271.634C191.553 271.634 196.687 273.988 199.894 275.822Z" fill="#263238"/>
<path d="M222.069 452.723C227.93 452.55 234.01 452.377 239.871 452.527C245.732 452.677 251.524 452.758 257.327 453.104C260.615 453.3 263.903 453.415 267.191 453.738C267.295 453.738 267.295 453.911 267.191 453.911C261.33 454.257 255.446 454.188 249.585 454.13C243.725 454.073 237.944 454.015 232.13 453.75C228.83 453.6 225.553 453.438 222.265 453.208C221.873 453.196 221.688 452.734 222.069 452.723Z" fill="#37474F"/>
<path d="M228.541 239.664C230.352 245.698 252.769 328.501 255.077 340.523C257.384 352.545 260.511 431.483 260.292 444.139C260.292 445.708 260.234 447.277 260.176 448.846C260.176 448.877 260.164 448.906 260.142 448.928C260.121 448.95 260.091 448.962 260.061 448.962C260.03 448.962 260.001 448.95 259.979 448.928C259.958 448.906 259.945 448.877 259.945 448.846C259.599 436.271 256.242 353.433 254.085 341.1C252.066 328.986 229.729 246.679 228.172 239.757C228.172 239.713 228.187 239.671 228.213 239.636C228.24 239.602 228.278 239.577 228.32 239.567C228.363 239.556 228.408 239.56 228.448 239.578C228.488 239.595 228.52 239.626 228.541 239.664Z" fill="#37474F"/>
<path d="M212.447 277.045C209.921 277.027 207.401 276.799 204.913 276.365C202.446 275.828 200.008 275.161 197.61 274.369C195.249 273.834 192.856 273.448 190.445 273.215C188.019 272.861 185.656 272.158 183.431 271.127C183.327 271.127 183.246 271.23 183.35 271.277C185.505 272.44 187.755 273.416 190.076 274.196C192.476 274.957 194.991 275.061 197.437 275.661C199.902 276.394 202.411 276.972 204.948 277.391C207.449 277.697 209.981 277.651 212.47 277.253C212.574 277.195 212.539 277.045 212.447 277.045Z" fill="#37474F"/>
<path d="M215.642 327.301C215.158 325.421 214.708 323.552 214.2 321.683C213.173 317.91 212.135 314.137 210.993 310.399C208.685 302.969 206.586 295.493 204.197 288.109C202.836 283.91 201.613 279.676 200.021 275.557C200.013 275.535 199.998 275.518 199.977 275.508C199.956 275.498 199.933 275.497 199.911 275.505C199.89 275.513 199.872 275.528 199.863 275.549C199.853 275.57 199.852 275.593 199.859 275.614C200.667 279.445 201.798 283.194 202.813 286.967C203.828 290.74 204.913 294.501 206.009 298.262C208.166 305.715 210.289 313.191 212.654 320.598C213.308 322.675 213.993 324.744 214.708 326.805C215.435 328.905 216.012 331.074 216.888 333.116C216.946 333.232 217.096 333.185 217.073 333.116C216.738 331.12 216.139 329.217 215.642 327.301Z" fill="#37474F"/>
<path d="M221.642 167.868C217.973 168.353 211.651 161.719 209.678 157.023C210.034 154.547 210.516 152.09 211.12 149.662C211.593 147.355 212.054 144.667 212.274 142.232L227.168 147.516C225.985 150.483 225.167 153.582 224.734 156.746C224.711 157.08 224.711 157.416 224.734 157.75C224.734 157.75 224.734 157.854 224.734 157.923C224.895 159.827 225.195 167.407 221.642 167.868Z" fill="#EB9481"/>
<path d="M209.828 155.812C217.65 158.442 223.315 154.035 225.899 151.335C226.534 149.143 227.203 147.516 227.203 147.516L212.308 142.232C212.054 144.667 211.593 147.309 211.154 149.662C210.601 152.247 210.07 154.496 209.828 155.812Z" fill="#263238"/>
<path d="M231.818 124.28C233.675 129.657 231.379 145.486 227.63 149.132C222.207 154.427 213.035 155.246 208.466 148.659C204.048 142.267 207.405 121.696 211.616 118.35C217.812 113.424 229.072 116.308 231.818 124.28Z" fill="#EB9481"/>
<path d="M216.231 134.352C216.231 134.352 216.312 134.41 216.3 134.456C216.127 135.518 216.116 136.764 217.039 137.248C215.862 136.994 215.896 135.333 216.231 134.352Z" fill="#263238"/>
<path d="M217.327 133.36C219.069 133.441 218.758 136.914 217.154 136.821C215.55 136.729 215.873 133.279 217.327 133.36Z" fill="#263238"/>
<path d="M210.209 133.81C210.209 133.81 210.117 133.81 210.117 133.891C210.117 134.975 209.805 136.198 208.801 136.464V136.533C210.001 136.464 210.324 134.837 210.209 133.81Z" fill="#263238"/>
<path d="M209.378 132.599C207.659 132.322 207.232 135.771 208.812 136.06C210.393 136.348 210.785 132.841 209.378 132.599Z" fill="#263238"/>
<path d="M218.838 131.895C218.377 131.733 217.973 131.503 217.535 131.307C217.096 131.11 216.612 130.937 216.381 130.441C216.313 130.294 216.295 130.128 216.33 129.97C216.366 129.811 216.453 129.669 216.577 129.564C216.858 129.402 217.176 129.317 217.5 129.317C217.824 129.317 218.142 129.402 218.423 129.564C219.044 129.802 219.555 130.262 219.854 130.857C219.916 131 219.933 131.158 219.905 131.311C219.877 131.464 219.803 131.605 219.695 131.717C219.586 131.828 219.446 131.904 219.294 131.936C219.141 131.968 218.983 131.954 218.838 131.895Z" fill="#263238"/>
<path d="M208.155 130.741C208.639 130.741 209.089 130.591 209.562 130.51C210.071 130.489 210.559 130.307 210.958 129.991C211.056 129.861 211.108 129.704 211.108 129.541C211.108 129.379 211.056 129.221 210.958 129.091C210.733 128.858 210.45 128.689 210.137 128.602C209.825 128.515 209.495 128.512 209.182 128.595C208.516 128.663 207.899 128.975 207.451 129.472C207.354 129.594 207.295 129.741 207.282 129.896C207.269 130.051 207.302 130.206 207.378 130.342C207.453 130.478 207.567 130.589 207.706 130.66C207.844 130.731 208 130.759 208.155 130.741Z" fill="#263238"/>
<path d="M216.52 144.205C216.243 144.436 215.954 144.759 215.562 144.759C215.155 144.722 214.761 144.596 214.408 144.39C214.542 144.616 214.736 144.801 214.968 144.925C215.2 145.049 215.461 145.107 215.723 145.094C215.946 145.054 216.153 144.95 216.317 144.794C216.481 144.638 216.596 144.437 216.646 144.217C216.646 144.217 216.554 144.171 216.52 144.205Z" fill="#263238"/>
<path d="M215.666 140.894C215.359 141.295 214.971 141.627 214.528 141.87C214.085 142.112 213.596 142.259 213.093 142.302C212.653 142.366 212.206 142.366 211.766 142.302L211.524 142.244L211.282 142.186C211.228 142.169 211.181 142.135 211.148 142.09C211.115 142.044 211.097 141.989 211.097 141.932C211.092 141.898 211.092 141.863 211.097 141.829V141.69C211.155 140.859 211.339 139.613 211.339 139.613C211.028 139.74 209.424 140.294 209.482 139.867C209.91 136.151 210.711 132.487 211.87 128.93C211.877 128.91 211.891 128.892 211.908 128.879C211.926 128.867 211.947 128.86 211.968 128.86C211.99 128.86 212.011 128.867 212.028 128.879C212.046 128.892 212.059 128.91 212.066 128.93C211.697 132.391 210.728 135.714 210.301 139.163C210.868 138.952 211.463 138.823 212.066 138.783C212.182 138.783 211.663 141.194 211.663 141.563C212.334 141.69 213.024 141.681 213.692 141.536C214.36 141.391 214.992 141.114 215.551 140.721C215.666 140.733 215.735 140.813 215.666 140.894Z" fill="#263238"/>
<path d="M212.297 141.875C212.7 142.503 213.255 143.019 213.912 143.375C214.27 143.549 214.673 143.61 215.066 143.548C215.943 143.398 216.035 142.613 215.931 141.932C215.874 141.565 215.777 141.206 215.643 140.859C214.662 141.541 213.491 141.896 212.297 141.875Z" fill="#263238"/>
<path d="M213.912 143.375C214.27 143.549 214.673 143.61 215.066 143.548C215.943 143.398 216.035 142.613 215.931 141.932C215.482 141.912 215.038 142.043 214.672 142.304C214.306 142.566 214.038 142.943 213.912 143.375Z" fill="#FF98B9"/>
<path d="M227.687 134.768C226.822 131.48 229.037 126.23 227.526 124.684C224.272 121.327 216.75 126.819 211.87 126.519C206.99 126.219 205.767 123.057 206.886 119.285C208.005 115.512 211.443 113.158 216.808 112.732C221.477 112.516 226.074 113.945 229.799 116.77C229.799 116.77 228.737 114.774 229.233 114.208C229.729 113.643 231.91 115.65 232.556 116.516C233.027 117.218 233.367 118 233.56 118.823C234.276 118.696 235.006 118.672 235.729 118.754C236.777 118.903 237.74 119.413 238.452 120.196C238.521 120.496 236.779 120.588 235.567 120.565C235.567 120.565 237.609 123.715 237.39 126.265C237.171 128.814 232.348 140.686 231.391 140.756C230.145 140.802 228.045 136.06 227.687 134.768Z" fill="#263238"/>
<path d="M235.129 120.196C235.129 120.196 235.025 120.196 235.06 120.196C236.169 121.221 236.968 122.536 237.367 123.992C237.738 125.746 237.631 127.567 237.056 129.264C235.898 132.49 234.402 135.584 232.591 138.494C232.585 138.504 232.582 138.515 232.581 138.526C232.58 138.537 232.581 138.548 232.584 138.559C232.587 138.57 232.593 138.58 232.6 138.588C232.607 138.597 232.616 138.604 232.625 138.61C232.635 138.615 232.646 138.618 232.657 138.619C232.668 138.62 232.679 138.619 232.69 138.616C232.701 138.613 232.711 138.608 232.72 138.601C232.728 138.594 232.735 138.585 232.741 138.575C234.858 135.533 236.486 132.177 237.563 128.63C238.325 125.676 237.863 122.077 235.129 120.196Z" fill="#263238"/>
<path d="M227.837 123.404C226.411 123.138 224.948 123.138 223.522 123.404C222.198 123.769 220.923 124.296 219.727 124.973C216.986 126.399 213.899 127.023 210.82 126.772V126.83C213.623 127.27 216.494 126.869 219.069 125.676C220.346 125.009 221.664 124.424 223.015 123.923C224.588 123.592 226.205 123.514 227.803 123.692C227.822 123.694 227.841 123.693 227.859 123.688C227.878 123.682 227.895 123.674 227.91 123.662C227.925 123.65 227.937 123.636 227.947 123.619C227.956 123.602 227.962 123.584 227.964 123.565C227.966 123.546 227.965 123.527 227.96 123.509C227.955 123.49 227.946 123.473 227.934 123.458C227.922 123.443 227.908 123.43 227.891 123.421C227.875 123.412 227.856 123.406 227.837 123.404Z" fill="#263238"/>
<path d="M226.984 115.154C225.135 114.063 223.137 113.247 221.053 112.732C219.072 112.164 217.006 111.949 214.95 112.097C211.408 112.42 208.028 114.404 206.966 117.981C206.388 119.793 206.507 121.756 207.301 123.484C207.315 123.503 207.335 123.516 207.358 123.521C207.38 123.527 207.404 123.525 207.425 123.516C207.446 123.507 207.464 123.491 207.475 123.47C207.486 123.45 207.49 123.426 207.486 123.404C206.846 121.819 206.738 120.069 207.177 118.418C207.616 116.766 208.578 115.301 209.92 114.243C212.966 111.936 217.004 112.028 220.557 112.847C222.77 113.391 224.92 114.165 226.972 115.154C226.972 115.154 226.995 115.154 226.984 115.154Z" fill="#263238"/>
<path d="M228.737 137.214C228.737 137.214 232.199 132.068 234.506 133.302C236.813 134.537 234.287 141.944 231.587 143.005C231.251 143.164 230.887 143.253 230.516 143.267C230.144 143.281 229.774 143.22 229.427 143.087C229.08 142.954 228.764 142.753 228.497 142.495C228.229 142.237 228.017 141.928 227.872 141.586L228.737 137.214Z" fill="#EB9481"/>
<path d="M170.255 241.614C170.405 241.81 240.632 248.167 241.348 247.498C242.328 246.564 238.14 176.29 225.599 161.938C222.519 158.396 211.616 154.15 208.028 156.354C198.718 162.123 192.972 175.056 189.292 182.59C186.557 188.174 183.05 197.784 179.796 207.66C174.432 223.939 169.736 240.911 170.255 241.614Z" fill="#FFC727"/>
<path d="M212.62 177.017C212.809 178.215 213.166 179.38 213.681 180.478C214.178 181.583 214.822 182.616 215.596 183.547C215.413 182.348 215.055 181.182 214.535 180.086C214.039 178.981 213.395 177.948 212.62 177.017ZM224.434 223.039C224.625 224.238 224.987 225.403 225.507 226.5C225.992 227.615 226.637 228.653 227.422 229.581C227.018 227.179 225.987 224.927 224.434 223.051V223.039ZM195.268 220.836C195.458 222.035 195.819 223.2 196.341 224.297C196.823 225.412 197.472 226.447 198.267 227.366C198.077 226.165 197.712 224.999 197.183 223.904C196.693 222.796 196.049 221.762 195.268 220.836ZM175.285 235.349C177.682 234.933 179.928 233.899 181.804 232.35C179.405 232.759 177.157 233.794 175.285 235.349ZM222.853 198.938C224.051 198.749 225.216 198.391 226.314 197.876C227.425 197.386 228.459 196.737 229.383 195.95C228.185 196.141 227.019 196.503 225.922 197.023C224.811 197.508 223.777 198.153 222.853 198.938ZM204.001 163.345C205.199 163.156 206.365 162.799 207.463 162.284C208.576 161.793 209.614 161.144 210.543 160.357C208.147 160.779 205.899 161.808 204.013 163.345H204.001ZM224.065 168.583C224.774 167.603 225.341 166.527 225.749 165.388C226.038 164.6 226.262 163.789 226.418 162.965L226.095 162.526C225.603 163.325 225.193 164.171 224.872 165.053C224.432 166.184 224.16 167.373 224.065 168.583ZM196.064 197.427C196.773 196.442 197.34 195.362 197.748 194.219C198.184 193.091 198.456 191.906 198.556 190.7C197.849 191.682 197.282 192.758 196.871 193.896C196.434 195.036 196.162 196.233 196.064 197.45V197.427ZM191.691 243.576L192.349 243.633C192.445 243.181 192.507 242.722 192.533 242.26C192.213 242.7 191.931 243.167 191.691 243.656V243.576ZM235.094 246.287C235.803 245.306 236.37 244.23 236.779 243.091C237.219 241.96 237.491 240.771 237.586 239.561C236.188 241.549 235.329 243.867 235.094 246.287ZM179.035 209.979C179.312 210.11 179.589 210.225 179.865 210.325C180.998 210.76 182.187 211.032 183.396 211.133C182.413 210.423 181.333 209.859 180.188 209.46L179.312 209.16L179.035 209.979ZM208.639 237.876C210.626 239.279 212.944 240.139 215.366 240.368C214.384 239.663 213.309 239.1 212.17 238.695C211.039 238.252 209.85 237.976 208.639 237.876ZM206.332 210.187C207.315 210.898 208.395 211.465 209.539 211.871C210.648 212.305 211.814 212.577 213 212.679C211.014 211.275 208.695 210.416 206.274 210.187H206.332ZM231.472 179.44C232.059 179.892 232.693 180.279 233.364 180.594C233.294 180.294 233.214 180.005 233.145 179.705C232.583 179.575 232.012 179.494 231.437 179.463L231.472 179.44ZM193.676 173.821C194.681 174.191 195.734 174.416 196.802 174.49C195.977 173.879 195.073 173.382 194.114 173.014L193.676 173.821Z" fill="white"/>
<path d="M219.438 172.991C237.448 177.271 265.484 181.505 274.713 175.667C279.432 172.679 290.393 146.513 293.45 131.826C294.246 128.007 262.922 122.654 261.93 126.692C260.592 132.137 257.454 149.305 255.908 152.004C255.019 153.55 235.141 155.858 219.127 158.396C200.344 161.396 204.821 169.518 219.438 172.991Z" fill="#EB9481"/>
<path d="M267.064 93.5682C267.822 93.6436 268.549 93.9053 269.181 94.33C269.813 94.7548 270.331 95.3294 270.687 96.0026C271.619 94.8242 272.932 94.0081 274.402 93.6951C277.021 93.2452 278.867 97.1563 278.867 97.1563C280.089 96.1261 281.592 95.487 283.182 95.3219C285.731 95.1488 288.166 98.783 288.166 98.783C288.973 98.5303 289.827 98.4686 290.662 98.6028C291.497 98.7369 292.289 99.0633 292.977 99.556C297.834 103.629 296.311 125.861 292.411 134.733L262.749 130.257C262.749 130.257 258.769 113.505 259.426 108.336C259.957 104.079 262.449 93.1298 267.064 93.5682Z" fill="#EB9481"/>
<path d="M270.525 96.0718C269.008 100.599 268.051 105.295 267.676 110.055C267.676 110.159 267.826 110.182 267.837 110.055C268.322 105.44 270.076 100.733 270.745 96.1064C270.802 96.0025 270.606 95.9564 270.525 96.0718Z" fill="#263238"/>
<path d="M278.486 97.2371C278.195 98.2853 278.048 99.3681 278.048 100.456C277.967 101.61 277.921 102.763 277.875 103.917C277.805 106.225 277.786 108.532 277.817 110.839C277.817 110.943 277.978 110.966 277.99 110.839C278.059 108.532 278.175 106.225 278.359 103.917C278.44 102.763 278.544 101.61 278.648 100.456C278.818 99.3843 278.869 98.2969 278.798 97.214C278.786 97.1803 278.764 97.1514 278.734 97.1317C278.704 97.1121 278.669 97.1029 278.633 97.1055C278.597 97.1082 278.564 97.1225 278.537 97.1463C278.511 97.1701 278.493 97.202 278.486 97.2371Z" fill="#263238"/>
<path d="M288.131 98.9099C287.888 99.8586 287.806 100.841 287.889 101.817C287.889 102.867 287.889 103.917 287.889 104.967C287.831 107.067 287.785 109.167 287.658 111.255C287.658 111.37 287.82 111.382 287.82 111.255C287.958 109.132 288.12 106.998 288.235 104.875C288.293 103.825 288.35 102.775 288.397 101.737C288.526 100.783 288.487 99.8149 288.281 98.8753C288.281 98.8753 288.154 98.8638 288.131 98.9099Z" fill="#263238"/>
<path d="M244.624 181.367L243.471 153.158C243.471 153.158 223.788 154.427 212.632 158.523C201.475 162.619 205.271 168.699 216.093 172.921C226.915 177.144 244.624 181.367 244.624 181.367Z" fill="#FFC727"/>
<path d="M239.998 154.623C238.867 154.183 237.677 153.911 236.467 153.816C237.451 154.527 238.531 155.094 239.675 155.5C240.802 155.939 241.987 156.211 243.193 156.308C242.217 155.592 241.14 155.025 239.998 154.623ZM224.872 165.007C224.437 166.139 224.165 167.328 224.065 168.537C224.774 167.552 225.341 166.473 225.749 165.33C226.179 164.22 226.451 163.055 226.557 161.869C225.85 162.851 225.283 163.926 224.872 165.064V165.007ZM244.162 170.429C243.175 170.637 242.215 170.958 241.301 171.387C240.187 171.873 239.15 172.518 238.221 173.302C239.419 173.113 240.584 172.756 241.682 172.241C242.567 171.845 243.407 171.354 244.186 170.775L244.162 170.429ZM207.601 161.2C207.087 161.627 206.653 162.143 206.32 162.722C206.701 162.584 207.082 162.434 207.474 162.272C208.588 161.781 209.625 161.132 210.554 160.346C209.536 160.501 208.542 160.792 207.601 161.211V161.2Z" fill="white"/>
<path d="M238.406 154.819C238.274 162.822 238.687 170.824 239.64 178.771H239.825C239.882 172.218 239.006 159.157 238.671 154.819C238.682 154.739 238.406 154.739 238.406 154.819Z" fill="#263238"/>
<path d="M244.474 177.825C244.659 178.978 244.763 180.132 244.913 181.355V181.724L244.509 181.644C242.04 181.124 239.571 180.628 237.125 180.028C234.679 179.428 232.233 178.805 229.811 178.113C227.388 177.421 224.965 176.706 222.588 175.875C220.212 175.044 217.823 174.214 215.504 173.187L222.819 175.102C225.253 175.737 227.688 176.371 230.111 177.029L237.391 179.013C239.813 179.659 242.225 180.409 244.648 181.09L244.301 181.378C244.394 180.19 244.394 179.013 244.474 177.825Z" fill="#263238"/>
<path d="M221.919 175.379C221.021 175.597 220.091 175.656 219.173 175.552C218.253 175.469 217.358 175.202 216.542 174.767C217.004 174.767 217.454 174.825 217.904 174.86L219.231 174.975C220.133 175.06 221.031 175.195 221.919 175.379Z" fill="#263238"/>
<path d="M50.3715 455.63C46.4027 453.484 41.0263 452.481 36.8383 454.477C36.6768 454.546 36.8383 454.777 36.9306 454.777C41.3787 454.76 45.8155 455.224 50.1638 456.161C50.231 456.176 50.3012 456.166 50.3618 456.134C50.4225 456.102 50.4696 456.049 50.4947 455.985C50.5197 455.921 50.5211 455.85 50.4985 455.785C50.4759 455.72 50.4309 455.665 50.3715 455.63Z" fill="#263238"/>
<path d="M52.829 458.445C48.8602 456.299 43.4838 455.296 39.2958 457.292C39.1343 457.361 39.2958 457.592 39.3881 457.592C43.8435 457.57 48.2881 458.03 52.6444 458.965C52.706 458.967 52.7667 458.95 52.8177 458.915C52.8688 458.881 52.9074 458.831 52.9281 458.773C52.9487 458.715 52.9502 458.652 52.9324 458.593C52.9146 458.534 52.8783 458.482 52.829 458.445Z" fill="#263238"/>
<path d="M55.2865 461.272C51.3176 459.126 45.9413 458.122 41.7533 460.118C41.5917 460.188 41.7533 460.418 41.8571 460.418C46.3099 460.408 50.7506 460.88 55.1019 461.826C55.1753 461.85 55.2554 461.845 55.3247 461.81C55.3939 461.776 55.4466 461.715 55.471 461.641C55.4955 461.568 55.4898 461.488 55.4552 461.419C55.4206 461.349 55.3599 461.297 55.2865 461.272Z" fill="#263238"/>
<path d="M57.7553 464.076C53.7749 461.93 48.4101 460.926 44.2105 462.922C44.049 462.991 44.2105 463.222 44.3144 463.222C48.7671 463.212 53.2079 463.684 57.5591 464.629C57.6326 464.655 57.7133 464.651 57.7837 464.618C57.854 464.584 57.9081 464.524 57.9341 464.451C57.9601 464.377 57.9559 464.296 57.9223 464.226C57.8888 464.156 57.8287 464.102 57.7553 464.076Z" fill="#263238"/>
<path d="M61.3089 448.362C60.3859 445.547 56.9594 445.581 54.7211 446.493C50.9089 448.139 47.5951 450.757 45.1106 454.084C45.0963 454.095 45.0846 454.109 45.0766 454.125C45.0686 454.141 45.0645 454.159 45.0645 454.177C45.0645 454.195 45.0686 454.212 45.0766 454.228C45.0846 454.244 45.0963 454.258 45.1106 454.269C45.0183 454.592 45.1914 455.03 45.5952 455.007C49.5063 454.834 53.6712 455.134 57.4324 453.773C59.6591 452.977 62.1857 451.027 61.3089 448.362ZM51.5138 453.542C49.5986 453.669 47.6949 453.704 45.7451 453.911C47.6257 452.435 49.4255 450.889 51.5138 449.596C52.477 448.962 53.4832 448.395 54.525 447.9C56.1518 447.162 61.9088 446.32 59.6706 450.715C58.4246 453.196 53.7982 453.381 51.5138 453.542Z" fill="#263238"/>
<path d="M34.7271 449.539C37.7383 452.135 41.7648 453.346 45.3529 454.892C45.4349 454.92 45.5223 454.927 45.6078 454.914C45.6933 454.901 45.7745 454.868 45.8445 454.817C45.9145 454.766 45.9713 454.699 46.0102 454.622C46.0492 454.545 46.069 454.459 46.0682 454.373C46.0867 454.374 46.1052 454.37 46.1221 454.362C46.1389 454.354 46.1537 454.343 46.165 454.328C46.1763 454.313 46.1839 454.296 46.1872 454.278C46.1904 454.259 46.1892 454.241 46.1836 454.223C45.045 450.232 42.8765 446.611 39.8958 443.724C38.1306 442.063 34.9463 440.817 33.0772 443.124C31.2082 445.431 32.9734 448.016 34.7271 449.539ZM33.7925 445.916C33.2618 441.013 38.4074 443.839 39.5612 445.108C40.3522 445.948 41.0919 446.834 41.7763 447.762C43.207 449.689 44.3491 451.777 45.5836 453.819C43.8646 452.954 42.1224 452.238 40.3457 451.442C38.3151 450.485 34.081 448.581 33.7925 445.916Z" fill="#263238"/>
<path d="M5.8608 449.585C5.60698 451.119 5.35316 452.619 5.12241 454.073C3.59949 463.407 2.69959 470.606 3.40336 471.263C5.54929 473.306 69.9618 486.262 72.3731 485.939C74.7843 485.616 74.0806 478.763 71.9808 476.271C70.7002 474.759 61.8972 468.252 55.1941 463.395C50.8792 460.28 47.4411 457.823 47.4411 457.823L60.3628 416.058L17.0519 407.509C17.0519 407.509 6.32229 447.116 5.8608 449.585Z" fill="#FFC4C0"/>
<path d="M72.3731 485.939C69.9618 486.227 5.54929 473.305 3.40336 471.263C2.69959 470.594 3.59949 463.406 5.12241 454.073C5.35316 452.631 5.59544 451.119 5.8608 449.585C6.01078 448.719 7.42987 443.32 9.19507 436.663C15.4713 437.909 40.6572 442.974 51.3406 445.12L47.418 457.811C47.418 457.811 50.8792 460.257 55.171 463.383C61.8742 468.241 70.6771 474.736 71.9462 476.259C74.069 478.763 74.7728 485.627 72.3731 485.939Z" fill="#EBEBEB"/>
<path d="M72.9038 486.354C71.3117 486.539 43.38 480.989 23.1321 476.444C18.448 475.394 14.1792 474.39 10.7411 473.536C5.99926 472.383 2.83805 471.436 2.38809 471.01C1.60356 470.248 6.5415 443.839 7.4068 440.782L50.2331 449.643L47.718 457.557C47.718 457.557 70.4002 473.894 72.5577 476.455C74.7151 479.016 75.3612 486.043 72.9038 486.354Z" fill="#FFC727"/>
<path d="M71.9 483.401C60.905 480.885 16.3597 471.656 5.30701 469.971C5.21471 469.971 5.20318 469.971 5.30701 470.04C16.129 472.809 60.7551 481.647 71.8539 483.585C72.0846 483.62 72.0846 483.458 71.9 483.401Z" fill="#263238"/>
<path d="M60.305 439.513C60.7665 439.294 73.319 385.415 79.0415 363.448C87.3022 331.743 95.3091 280.068 97.7088 269.304C102.663 256.91 106.028 243.939 107.723 230.7H55.644C55.644 230.7 41.9954 256.809 49.0101 275.268C49.6561 276.964 39.9187 342.185 34.8769 352.787C30.5274 361.925 10.6487 428.841 10.6487 428.841L60.305 439.513Z" fill="#37474F"/>
<path d="M60.0281 428.472C58.759 428.01 57.3976 427.779 56.0824 427.433C54.7671 427.087 53.3019 426.73 51.9059 426.418C49.1139 425.783 46.3218 425.184 43.5298 424.572C37.9343 423.361 32.3272 422.265 26.72 421.111C25.1817 420.796 23.6434 420.496 22.1051 420.211C20.5904 419.842 19.0462 419.606 17.4902 419.507C17.4758 419.515 17.4638 419.527 17.4554 419.541C17.447 419.555 17.4426 419.571 17.4426 419.588C17.4426 419.604 17.447 419.621 17.4554 419.635C17.4638 419.649 17.4758 419.661 17.4902 419.669C18.7606 420.144 20.069 420.511 21.4014 420.765C22.7858 421.111 24.1818 421.434 25.5779 421.745C28.3237 422.368 31.0696 423.003 33.827 423.603C39.3649 424.757 44.9143 426.037 50.4753 427.168C52.0559 427.479 53.6249 427.803 55.2171 428.068C56.8092 428.333 58.3783 428.749 59.9704 428.864C60.1089 428.852 60.2589 428.552 60.0281 428.472Z" fill="#263238"/>
<path d="M84.0835 266.915C83.0797 272.338 82.249 277.795 81.3491 283.229C80.8992 286.01 80.2877 288.755 79.8262 291.524C79.3647 294.293 78.9378 296.97 78.4994 299.693C76.7304 310.653 74.9806 321.61 73.25 332.562C72.3885 338.008 71.5155 343.446 70.631 348.876C69.8183 354.234 68.7207 359.545 67.3429 364.786C65.9123 370.024 64.2279 375.17 62.6242 380.373L57.7208 396.317C54.4789 406.885 54.9404 408.685 52.033 419.392C51.6753 420.719 51.3061 422.045 50.8793 423.372C50.8781 423.402 50.8872 423.43 50.9049 423.454C50.9227 423.477 50.9481 423.494 50.9767 423.501C51.0053 423.507 51.0354 423.504 51.0618 423.491C51.0882 423.478 51.1093 423.457 51.1215 423.43C54.7096 412.954 54.2135 411.154 57.5478 400.586C60.882 390.018 64.2971 379.542 67.4698 368.974C69.0074 363.829 70.2364 358.598 71.1502 353.306C72.0732 347.861 72.8808 342.404 73.7576 336.947C75.4805 325.994 77.2303 315.037 79.0071 304.077C79.8608 298.701 80.8069 293.313 81.476 287.925C82.1683 282.318 83.1374 276.745 83.9681 271.161C84.1758 269.788 84.3719 268.427 84.5565 267.054C84.5565 266.742 84.1412 266.615 84.0835 266.915Z" fill="#263238"/>
<path d="M128.871 459.218C124.429 458.365 119.007 459.011 115.592 462.149C115.465 462.276 115.592 462.46 115.788 462.414C120.034 461.071 124.413 460.189 128.848 459.784C128.914 459.773 128.974 459.74 129.019 459.691C129.063 459.641 129.089 459.577 129.092 459.51C129.094 459.444 129.074 459.378 129.034 459.325C128.993 459.272 128.936 459.234 128.871 459.218Z" fill="#263238"/>
<path d="M132.078 461.168C127.648 460.315 122.214 460.961 118.811 464.099C118.672 464.226 118.811 464.41 118.995 464.364C123.249 463.02 127.636 462.138 132.078 461.734C132.144 461.72 132.202 461.685 132.244 461.633C132.287 461.582 132.31 461.518 132.31 461.451C132.31 461.384 132.287 461.32 132.244 461.268C132.202 461.217 132.144 461.182 132.078 461.168Z" fill="#263238"/>
<path d="M135.24 463.118C130.809 462.264 125.387 462.91 121.972 466.048C121.845 466.175 121.972 466.36 122.168 466.314C126.414 464.97 130.793 464.088 135.228 463.683C135.294 463.671 135.353 463.637 135.396 463.587C135.44 463.536 135.464 463.472 135.465 463.405C135.467 463.339 135.445 463.274 135.404 463.221C135.363 463.169 135.305 463.133 135.24 463.118Z" fill="#263238"/>
<path d="M138.435 465.068C134.005 464.214 128.571 464.86 125.168 467.998C125.029 468.125 125.168 468.31 125.352 468.264C129.599 466.921 133.977 466.039 138.412 465.633C138.478 465.623 138.539 465.59 138.583 465.54C138.627 465.49 138.653 465.427 138.656 465.36C138.659 465.293 138.638 465.228 138.598 465.174C138.558 465.121 138.5 465.084 138.435 465.068Z" fill="#263238"/>
<path d="M137.12 449.02C135.39 446.608 132.136 447.658 130.279 449.204C127.122 451.91 124.735 455.4 123.356 459.322C123.349 459.339 123.345 459.357 123.346 459.375C123.347 459.393 123.352 459.411 123.361 459.426C123.37 459.442 123.383 459.456 123.398 459.465C123.413 459.475 123.43 459.482 123.448 459.484C123.448 459.818 123.76 460.188 124.141 460.049C127.821 458.711 131.905 457.742 135.055 455.319C136.936 453.911 138.758 451.292 137.12 449.02ZM129.332 456.888C127.544 457.58 125.733 458.192 123.968 458.953C125.317 456.992 126.575 454.973 128.121 453.184C128.849 452.288 129.639 451.443 130.486 450.658C131.813 449.504 137.062 446.943 136.255 451.812C135.793 454.442 131.467 456.046 129.332 456.888Z" fill="#263238"/>
<path d="M112.119 458.099C115.765 459.68 119.964 459.622 123.852 460.026C123.939 460.027 124.024 460.009 124.102 459.971C124.18 459.934 124.248 459.879 124.3 459.81C124.353 459.742 124.389 459.662 124.405 459.578C124.422 459.493 124.418 459.405 124.395 459.322C124.407 459.31 124.417 459.296 124.424 459.28C124.431 459.264 124.434 459.247 124.434 459.23C124.434 459.213 124.431 459.196 124.424 459.18C124.417 459.164 124.407 459.15 124.395 459.138C122.109 455.67 118.955 452.861 115.246 450.992C113.065 449.954 109.65 449.712 108.566 452.469C107.481 455.227 109.985 457.176 112.119 458.099ZM110.158 454.927C108.185 450.404 113.884 451.581 115.465 452.411C116.476 452.966 117.448 453.591 118.372 454.28C120.322 455.688 122.029 457.338 123.818 458.895C121.926 458.584 120.022 458.434 118.107 458.192C115.811 457.926 111.219 457.419 110.158 454.927Z" fill="#263238"/>
<path d="M84.4295 454.108C84.4295 456.738 85.5832 483.054 86.3793 483.562C88.8829 485.154 154.588 485.339 156.883 484.589C159.179 483.839 157.172 477.217 154.576 475.186C153.03 473.94 143.143 469.267 135.62 465.806C130.786 463.58 126.933 461.849 126.933 461.849L127.14 454.131L127.74 419.023H84.3603C84.3603 419.023 84.1411 437.044 84.4295 454.108Z" fill="#FFC4C0"/>
<path d="M156.895 484.589C154.588 485.339 88.883 485.143 86.3909 483.562C85.5718 483.043 84.4642 456.738 84.4296 454.119C84.4296 452.377 84.4296 450.658 84.3604 448.881H127.267L127.175 454.119L126.956 461.814L135.643 465.783C143.154 469.244 153.042 473.94 154.599 475.174C157.172 477.217 159.179 483.827 156.895 484.589Z" fill="#EBEBEB"/>
<path d="M158.441 485.12C156.918 485.627 128.444 485.627 107.677 485.12C102.878 485.004 98.4472 484.854 94.986 484.693C90.1058 484.45 86.8292 484.173 86.2985 483.827C85.3755 483.239 84.0718 456.369 84.3256 453.208L127.729 453.427L127.89 461.699C127.89 461.699 153.561 473.386 156.18 475.474C158.799 477.563 160.795 484.347 158.441 485.12Z" fill="#FFC727"/>
<path d="M156.872 482.431C145.6 482.085 100.109 481.751 88.9405 482.258C88.8597 482.258 88.8482 482.328 88.9405 482.328C100.109 482.916 145.6 482.881 156.872 482.616C157.114 482.605 157.114 482.431 156.872 482.431Z" fill="#263238"/>
<path d="M76.6997 277.288C76.6997 277.288 84.1181 350.088 84.2335 351.795C84.2335 352.476 81.0492 441.44 81.0492 441.44H130.117C130.117 441.44 128.363 358.071 127.614 347.792C127.533 346.638 124.36 272.592 110.077 230.7H55.575C55.575 230.7 56.048 255.309 67.2391 273.111C70.467 274.328 73.6253 275.722 76.6997 277.288Z" fill="#37474F"/>
<path d="M127.014 432.244C125.664 432.048 124.291 432.094 122.929 432.025C121.568 431.956 120.08 431.887 118.649 431.852C115.788 431.794 112.88 431.771 110.065 431.737C104.297 431.667 98.6204 431.737 92.8979 431.737H88.2138C86.6368 431.679 85.0578 431.76 83.495 431.979C83.4143 431.979 83.4258 432.129 83.495 432.152C84.8307 432.362 86.1812 432.462 87.5331 432.452C88.9637 432.51 90.3943 432.544 91.8249 432.567C94.64 432.625 97.4551 432.694 100.282 432.729C105.947 432.798 111.623 432.902 117.299 432.879C118.914 432.879 120.518 432.879 122.133 432.821C123.749 432.764 125.364 432.821 126.956 432.637C127.164 432.602 127.256 432.279 127.014 432.244Z" fill="#263238"/>
<path d="M115.926 355.868C114.634 329.644 111.877 303.535 108.404 277.53C106.512 263.281 104.285 249.056 100.432 235.188C100.432 235.188 100.328 235.188 100.339 235.188C103.344 247.875 105.609 260.726 107.123 273.676C108.738 286.483 110.284 299.312 111.588 312.165C114.23 338.239 115.407 364.405 115.568 390.618C115.661 405.363 115.268 412.308 114.853 427.041C114.853 427.18 115.061 427.168 115.072 427.041C117.207 400.828 117.172 382.127 115.926 355.868Z" fill="#263238"/>
<path d="M113.261 240.841C113.261 240.82 113.253 240.799 113.238 240.784C113.222 240.769 113.202 240.76 113.18 240.76C113.159 240.76 113.138 240.769 113.123 240.784C113.108 240.799 113.1 240.82 113.1 240.841C113.307 243.945 113.838 247.325 112.454 250.256C111.242 252.828 108.923 254.282 106.789 256.024C106.789 256.082 106.789 256.186 106.881 256.163C109.708 255.309 112.534 253.74 113.653 250.833C114.9 247.614 114.219 244.072 113.261 240.841Z" fill="#263238"/>
<path d="M89.6328 275.684C87.3573 275.617 85.0799 275.694 82.8142 275.915C80.5953 276.032 78.3708 275.993 76.1572 275.799C75.0468 275.684 73.9448 275.499 72.8576 275.245C71.7039 274.98 70.6655 274.565 69.5464 274.253C68.5301 274.031 67.4742 274.071 66.4775 274.369C65.3238 274.634 64.17 274.818 62.9125 274.98C60.1809 275.378 57.4115 275.448 54.6633 275.188C54.5595 275.188 54.5134 275.338 54.6633 275.361C56.9741 275.844 59.3287 276.088 61.6895 276.088C62.8991 276.061 64.1055 275.953 65.3007 275.765C66.3978 275.443 67.5384 275.295 68.6811 275.326C69.8019 275.625 70.9037 275.991 71.9808 276.422C73.0781 276.73 74.1963 276.957 75.3266 277.103C77.5904 277.403 79.8788 277.472 82.1566 277.31C84.7261 277.253 87.2775 276.865 89.7481 276.157C89.8109 276.141 89.8649 276.102 89.8985 276.047C89.932 275.992 89.9423 275.925 89.927 275.863C89.9117 275.8 89.8721 275.746 89.8169 275.712C89.7617 275.679 89.6955 275.668 89.6328 275.684Z" fill="#263238"/>
<path d="M84.3488 347.792C84.3379 347.786 84.3261 347.784 84.3142 347.784C84.3022 347.784 84.2904 347.786 84.2795 347.792C84.2735 347.802 84.2703 347.814 84.2703 347.826C84.2703 347.838 84.2735 347.85 84.2795 347.861V348.034C84.3017 348.043 84.3266 348.043 84.3488 348.034V347.861C84.3539 347.85 84.3566 347.838 84.3566 347.826C84.3566 347.814 84.3539 347.802 84.3488 347.792Z" fill="#263238"/>
<path d="M83.045 335.251C82.6143 330.536 82.1528 325.821 81.6606 321.106C80.6684 311.669 79.7339 302.231 78.7647 292.794C78.2109 287.44 77.8187 282.041 76.9418 276.734C76.9418 276.595 76.6996 276.595 76.7111 276.734C76.7803 281.464 77.288 286.194 77.6918 290.913C78.0956 295.632 78.5109 300.35 78.9493 305.069C79.8377 314.507 80.6799 323.956 81.7875 333.382C82.1028 336.051 82.4336 338.743 82.7797 341.458C83.1373 344.134 83.6104 346.799 83.9334 349.476C83.9334 349.501 83.9431 349.524 83.9604 349.541C83.9778 349.559 84.0012 349.568 84.0257 349.568C84.0502 349.568 84.0737 349.559 84.091 349.541C84.1083 349.524 84.118 349.501 84.118 349.476C83.7027 344.746 83.4835 339.969 83.045 335.251Z" fill="#263238"/>
<path d="M83.4257 171.525C83.7948 172.541 89.6212 178.702 94.363 177.883C95.909 177.617 94.8245 169.114 94.8245 169.114L94.8822 168.468L95.7705 159.434L84.614 154.081L83.0103 153.389C83.0103 153.389 82.9296 155.881 82.8719 158.973C82.8719 159.123 82.8719 159.261 82.8719 159.423C82.8719 159.584 82.8719 159.757 82.8719 159.919V161.327C82.8719 161.696 82.8719 162.042 82.8719 162.411C82.8719 162.78 82.8719 163.161 82.8719 163.565C82.8687 166.228 83.0538 168.888 83.4257 171.525Z" fill="#FFC4C0"/>
<path d="M82.8721 158.996C84.0632 161.357 85.7548 163.429 87.8291 165.069C89.9034 166.709 92.3104 167.877 94.8824 168.491L95.7707 159.457L84.6142 154.104L83.0105 153.412C83.0105 153.412 82.9298 155.881 82.8721 158.996Z" fill="#263238"/>
<path d="M109.638 216.475L110.077 230.7H55.644C55.644 230.7 62.0588 188.531 76.4111 173.014C83.5873 165.215 91.2134 166.68 96.5898 172.125C97.9396 173.51 112.811 192.892 114.519 201.084C116.007 208.237 109.638 216.475 109.638 216.475Z" fill="#FFC727"/>
<path opacity="0.1" d="M110.019 229.004H55.9324C56.0016 228.566 56.0939 228.058 56.1977 227.481H109.984L110.019 229.004ZM109.846 223.235H56.9938C56.89 223.766 56.7861 224.274 56.6938 224.758H109.892L109.846 223.235ZM109.719 218.978H57.8822C57.7668 219.497 57.663 220.005 57.5591 220.501H109.765L109.719 218.978ZM58.8513 214.709C58.7359 215.229 58.609 215.736 58.4936 216.232H109.823C110.042 215.944 110.411 215.413 110.85 214.709H58.8513ZM59.9012 210.452L59.5205 211.975H112.384C112.638 211.491 112.869 210.983 113.099 210.452H59.9012ZM61.0549 206.195L60.6396 207.718H114.08C114.219 207.222 114.345 206.714 114.449 206.195H61.0549ZM114.68 201.938H62.3009C62.1394 202.445 61.9894 202.953 61.8395 203.461H114.772C114.767 202.948 114.732 202.435 114.669 201.926L114.68 201.938ZM113.411 197.68H63.6623C63.4893 198.188 63.3278 198.696 63.1547 199.203H113.988C113.826 198.707 113.619 198.223 113.399 197.669L113.411 197.68ZM111.288 193.412H65.1622C64.966 193.919 64.7815 194.427 64.5969 194.946H112.084C111.842 194.427 111.565 193.919 111.311 193.4L111.288 193.412ZM108.785 189.154H66.8582C66.6428 189.662 66.4351 190.17 66.2351 190.677H109.708C109.408 190.162 109.096 189.651 108.773 189.143L108.785 189.154ZM106.039 184.897H68.7618C68.5195 185.405 68.2772 185.912 68.0465 186.42H107.031L106.039 184.897ZM103.108 180.64H70.9885C70.7001 181.136 70.4116 181.644 70.1463 182.163H104.147C103.8 181.632 103.443 181.124 103.097 180.628L103.108 180.64ZM100.005 176.383H73.6651C73.3075 176.879 72.9729 177.386 72.6383 177.906H101.112L100.005 176.383ZM96.6473 172.125H77.2071C76.9456 172.387 76.6802 172.664 76.411 172.956C76.1418 173.248 75.9341 173.479 75.788 173.648H97.8934C97.2934 172.841 96.855 172.345 96.6358 172.114L96.6473 172.125ZM89.5865 167.857H84.3717C83.0809 168.171 81.847 168.685 80.7144 169.38H93.2208C92.0888 168.689 90.86 168.172 89.575 167.845L89.5865 167.857Z" fill="#030402"/>
<path d="M91.848 184.02C101.597 187.758 137.928 196.077 145.577 189.72C157.587 179.74 166.979 161.857 171.824 147.193C173.497 142.094 141.481 137.698 139.728 143.455C137.42 150.955 131.652 164.603 130.117 166.945C128.583 169.287 106.858 169.68 92.2057 171.052C79.9762 172.195 79.4801 179.29 91.848 184.02Z" fill="#FFC4C0"/>
<path d="M143.535 109.386C144.41 109.091 145.355 109.071 146.242 109.329C147.128 109.587 147.915 110.11 148.496 110.828C149.446 109.584 150.801 108.711 152.326 108.359C155.049 107.874 157.01 111.924 157.01 111.924C158.263 110.836 159.815 110.152 161.464 109.963C164.117 109.755 166.679 113.562 166.679 113.562C168.382 113.198 170.16 113.461 171.686 114.301C175.666 116.723 175.758 123.83 175.874 128.353C175.989 132.876 172.055 145.797 171.559 148.336L143.731 151.024C143.731 151.024 135.193 139.025 136.924 123.819C137.443 119.296 140.235 110.62 143.535 109.386Z" fill="#FFC4C0"/>
<path d="M148.034 111.024C146.327 115.639 146.085 120.554 145.565 125.423C145.572 125.44 145.584 125.456 145.599 125.466C145.615 125.477 145.633 125.483 145.652 125.483C145.671 125.483 145.689 125.477 145.705 125.466C145.72 125.456 145.732 125.44 145.738 125.423C146.2 120.565 147.608 115.87 148.265 111.047C148.288 110.943 148.081 110.897 148.034 111.024Z" fill="#263238"/>
<path d="M156.63 112.005C156.341 113.096 156.202 114.222 156.214 115.351C156.145 116.504 156.099 117.739 156.064 118.927C156.064 121.315 156.064 123.715 156.064 126.103C156.064 126.207 156.226 126.23 156.226 126.103C156.288 123.719 156.391 121.335 156.537 118.95C156.614 117.758 156.707 116.57 156.814 115.385C156.979 114.27 157.018 113.14 156.93 112.016C156.916 111.989 156.895 111.967 156.869 111.95C156.843 111.934 156.814 111.925 156.783 111.924C156.753 111.923 156.722 111.929 156.696 111.944C156.669 111.958 156.646 111.979 156.63 112.005Z" fill="#263238"/>
<path d="M166.69 113.632C166.45 114.624 166.376 115.649 166.471 116.666C166.471 117.762 166.471 118.846 166.471 119.942C166.471 122.123 166.413 124.292 166.31 126.472C166.31 126.588 166.471 126.599 166.471 126.472C166.598 124.257 166.748 122.042 166.84 119.839C166.84 118.685 166.933 117.658 166.967 116.574C167.095 115.585 167.048 114.581 166.829 113.608C166.826 113.59 166.815 113.574 166.8 113.563C166.785 113.552 166.766 113.548 166.748 113.551C166.73 113.554 166.713 113.564 166.702 113.579C166.692 113.594 166.687 113.613 166.69 113.632Z" fill="#263238"/>
<path d="M133.001 158.996L158.903 180.075C158.903 180.075 149.05 191.208 143.696 192.35C138.343 193.492 109.373 191.831 92.9325 185.186C76.4919 178.54 80.6915 172.091 92.7018 170.683C104.712 169.276 126.967 166.634 127.694 166.195C128.421 165.757 133.001 158.996 133.001 158.996Z" fill="#FFC727"/>
<path opacity="0.1" d="M95.3437 186.097C94.5284 185.812 93.7323 185.512 92.9554 185.197C92.1132 184.851 91.3172 184.516 90.5788 184.182L82.2373 177.363C82.0614 176.735 82.0979 176.065 82.3412 175.46L95.3437 186.097ZM85.5024 172.564C85.0131 172.794 84.5459 173.068 84.1064 173.383L102.162 188.139C103.316 188.428 104.47 188.704 105.554 188.947L85.5024 172.564ZM90.3942 171.052C89.725 171.179 89.102 171.318 88.5021 171.479L111.311 190.147C112.326 190.331 113.342 190.504 114.357 190.666L90.3942 171.052ZM96.1628 170.291L94.0515 170.533L119.514 191.3C120.46 191.427 121.406 191.543 122.329 191.635L96.1628 170.291ZM102.035 169.599L99.947 169.853L127.256 192.166L129.898 192.373L102.035 169.599ZM107.908 168.895L105.819 169.149L134.536 192.616L137.016 192.685L107.908 168.895ZM113.757 168.168L111.669 168.433L141.262 192.662C141.981 192.635 142.698 192.562 143.408 192.443L113.757 168.168ZM119.526 167.43L117.449 167.707L146.292 191.254C146.742 191 147.192 190.712 147.654 190.4L119.526 167.43ZM125.294 166.645L123.241 166.934L149.869 188.704C150.273 188.393 150.676 188.058 151.022 187.724L125.294 166.645ZM129.182 164.338C128.836 164.811 128.525 165.226 128.259 165.491L153.134 185.832L154.287 184.77L129.182 164.338ZM131.663 160.877L130.786 162.123L156.168 182.89L157.218 181.736L131.663 160.877Z" fill="#030402"/>
<path d="M152.996 182.682C146.073 176.579 139.059 170.487 131.559 165.088C131.544 165.077 131.525 165.073 131.507 165.076C131.488 165.079 131.472 165.09 131.461 165.105C131.451 165.12 131.446 165.139 131.45 165.158C131.453 165.176 131.463 165.192 131.479 165.203C138.216 171.514 145.554 177.19 152.869 182.809C152.961 182.878 153.076 182.751 152.996 182.682Z" fill="#263238"/>
<path d="M79.0877 134.202C78.6208 134.556 78.0607 134.765 77.4764 134.804C76.8922 134.843 76.3092 134.71 75.7996 134.422C74.3459 133.845 72.4884 132.345 70.9078 133.395C69.1311 134.549 69.7541 137.121 70.5963 138.644C71.4115 139.927 72.1363 141.264 72.7653 142.648C73.2644 143.984 73.5222 145.398 73.5267 146.824C73.5267 149.697 71.9577 152.351 72.1423 155.212C72.3846 158.673 75.6035 161.165 78.3493 162.734C81.0952 164.303 84.441 164.938 87.5791 166.034C90.2134 167.042 92.5515 168.697 94.3782 170.846C96.2049 172.996 97.4613 175.57 98.0319 178.332C98.3442 179.689 98.5257 181.072 98.5741 182.463C98.5741 183.951 98.4703 185.451 98.5741 186.939C98.62 187.783 98.867 188.603 99.2945 189.332C99.722 190.06 100.318 190.676 101.032 191.127C102.395 191.844 103.876 192.309 105.404 192.5C105.453 192.514 105.496 192.541 105.53 192.578C105.564 192.615 105.586 192.662 105.594 192.711C105.603 192.761 105.597 192.812 105.578 192.858C105.558 192.904 105.526 192.944 105.485 192.973C104.653 193.548 103.781 194.065 102.878 194.519C102.098 194.97 101.236 195.26 100.342 195.373C99.4487 195.486 98.5416 195.419 97.6742 195.177C95.7129 194.485 94.5361 192.65 93.4631 190.989C92.2844 189 90.6265 187.338 88.6405 186.155C86.5899 185.07 84.3702 184.34 82.0759 183.997C77.634 183.236 73.0883 183.467 68.6696 182.532C66.5271 182.152 64.4836 181.343 62.6616 180.153C60.8396 178.964 59.2767 177.418 58.0668 175.61C56.879 173.772 56.0927 171.704 55.7594 169.541C55.5125 167.179 55.6371 164.792 56.1286 162.469C57.0543 157.488 57.3835 152.414 57.1092 147.355C56.9365 144.972 56.6361 142.599 56.2093 140.248C55.7605 138.054 55.5401 135.819 55.5517 133.579C55.5983 131.638 56.1562 129.743 57.169 128.086C58.1818 126.429 59.6138 125.069 61.3203 124.142C62.9992 123.158 64.9028 122.622 66.8484 122.586C68.794 122.549 70.7163 123.014 72.4307 123.934C77.9917 127.107 79.8146 133.487 79.0877 134.202Z" fill="#263238"/>
<path d="M72.8923 157.739C73.527 159.273 74.4684 160.663 75.6586 161.821C76.8489 162.98 78.2631 163.883 79.8147 164.476C82.9874 165.63 86.4717 165.699 89.7021 166.784C92.7052 167.669 95.3814 169.419 97.3975 171.814C99.1034 174.209 99.9934 177.089 99.9357 180.028C100.051 183.351 99.7165 186.662 100.074 189.974C100.074 190.031 99.9818 190.054 99.9703 189.974C98.8165 184.205 101.043 177.744 97.4321 172.587C95.2295 169.727 92.1083 167.714 88.5945 166.888C85.5372 166.022 82.2375 165.942 79.2955 164.684C77.8189 164.012 76.4916 163.051 75.3919 161.858C74.2922 160.666 73.4424 159.265 72.8923 157.739Z" fill="#263238"/>
<path d="M55.194 173.694C54.8973 171.758 54.9599 169.782 55.3786 167.868C55.8055 165.561 56.3478 163.253 56.8439 160.946C56.4401 162.919 56.1055 164.915 55.7594 166.911C55.3681 168.787 55.24 170.709 55.3786 172.621C55.6387 174.509 56.3203 176.313 57.3729 177.901C58.4254 179.489 59.8219 180.819 61.4588 181.794C64.7815 183.836 68.5657 184.228 72.373 184.24C75.7569 184.18 79.1409 184.345 82.5027 184.736C86.2707 185.149 89.9102 186.348 93.1862 188.254C93.1862 188.254 93.1862 188.37 93.1862 188.335C86.5869 184.47 79.0185 184.666 71.6346 184.678C67.9819 184.852 64.3555 183.98 61.1819 182.163C59.6535 181.241 58.3324 180.013 57.3019 178.555C56.2714 177.098 55.5537 175.443 55.194 173.694Z" fill="#263238"/>
<path d="M76.7803 137.906C76.988 137.906 79.8031 134.952 80.103 134.664C80.403 134.375 83.3796 131.618 83.4258 131.422C82.461 130.455 81.327 129.673 80.08 129.114C79.33 128.953 77.0918 130.822 76.7226 131.168C76.3534 131.514 74.4152 133.729 74.5998 134.491C75.1153 135.751 75.854 136.908 76.7803 137.906Z" fill="#FFC727"/>
<path d="M107.516 143.801C111.692 159.181 103.028 163.565 99.6242 164.315C96.5783 164.995 86.2525 167.51 80.5185 152.639C74.7845 137.767 80.6108 130.972 87.4408 128.745C94.2709 126.519 103.351 128.411 107.516 143.801Z" fill="#FFC4C0"/>
<path d="M105.854 140.686C105.485 140.686 105.139 140.686 104.7 140.686C104.301 140.743 103.894 140.661 103.547 140.456C103.454 140.374 103.39 140.265 103.365 140.144C103.34 140.023 103.355 139.898 103.408 139.786C103.554 139.58 103.751 139.417 103.98 139.311C104.208 139.206 104.461 139.163 104.712 139.187C105.224 139.164 105.725 139.333 106.12 139.66C106.196 139.735 106.252 139.829 106.281 139.933C106.31 140.036 106.311 140.146 106.284 140.25C106.257 140.354 106.203 140.449 106.128 140.526C106.052 140.602 105.958 140.658 105.854 140.686Z" fill="#263238"/>
<path d="M95.8744 143.225C96.2168 143.101 96.5519 142.959 96.8782 142.798C97.2601 142.694 97.5968 142.467 97.8358 142.152C97.8909 142.041 97.9072 141.914 97.8821 141.793C97.857 141.672 97.7919 141.562 97.6973 141.482C97.4828 141.354 97.2376 141.287 96.9878 141.287C96.7379 141.287 96.4928 141.354 96.2782 141.482C95.7818 141.642 95.3677 141.99 95.1245 142.452C95.0867 142.557 95.0792 142.671 95.1029 142.781C95.1266 142.89 95.1806 142.991 95.2587 143.072C95.3368 143.152 95.4359 143.209 95.5447 143.236C95.6535 143.263 95.7678 143.259 95.8744 143.225Z" fill="#263238"/>
<path d="M98.9318 146.617C98.9318 146.617 98.8626 146.686 98.9318 146.732C99.1972 147.782 99.3241 149.039 98.4473 149.593C98.4473 149.593 98.4473 149.662 98.4473 149.651C99.5433 149.236 99.3587 147.574 98.9318 146.617Z" fill="#263238"/>
<path d="M97.7436 145.728C96.013 145.97 96.5898 149.42 98.2397 149.189C99.8895 148.959 99.1973 145.509 97.7436 145.728Z" fill="#263238"/>
<path d="M97.0973 146.028C96.832 146.282 96.6012 146.674 96.2436 146.778C95.8859 146.882 95.4475 146.593 95.0898 146.293C95.2052 146.963 95.5744 147.586 96.2436 147.563C96.9127 147.54 97.2704 146.87 97.3165 146.167C97.3396 146.086 97.2012 145.924 97.0973 146.028Z" fill="#263238"/>
<path d="M104.562 144.99C104.562 144.99 104.654 144.99 104.666 145.07C104.816 146.143 105.174 147.378 106.2 147.539V147.597C104.989 147.632 104.539 146.028 104.562 144.99Z" fill="#263238"/>
<path d="M105.323 143.709C107.031 143.271 107.758 146.697 106.189 147.101C104.62 147.505 103.904 144.067 105.323 143.709Z" fill="#263238"/>
<path d="M106.097 143.778C106.397 143.905 106.743 144.171 107.066 144.124C107.389 144.078 107.643 143.64 107.804 143.236C107.804 143.236 107.804 143.236 107.873 143.236C108.023 143.894 107.954 144.621 107.354 144.874C106.754 145.128 106.258 144.644 105.97 144.021C105.912 143.928 105.97 143.732 106.097 143.778Z" fill="#263238"/>
<path d="M104.124 150.159C104.124 150.159 104.643 151.705 104.793 152.466C104.793 152.535 104.631 152.604 104.378 152.674C103.756 152.916 103.079 152.982 102.422 152.866C101.765 152.75 101.152 152.456 100.651 152.016C100.639 152.002 100.633 151.985 100.632 151.967C100.631 151.949 100.637 151.931 100.647 151.916C100.658 151.902 100.673 151.891 100.691 151.886C100.708 151.881 100.727 151.882 100.743 151.889C101.834 152.36 103.049 152.465 104.204 152.189C104.204 151.97 103.212 149.57 103.328 149.536C103.92 149.476 104.517 149.495 105.104 149.593C104.101 146.34 102.589 143.259 101.643 140.006C101.634 139.982 101.635 139.955 101.644 139.932C101.654 139.908 101.671 139.888 101.694 139.877C101.717 139.866 101.743 139.863 101.768 139.87C101.793 139.876 101.814 139.892 101.828 139.913C103.557 143.159 104.96 146.567 106.016 150.089C106.097 150.493 104.447 150.228 104.124 150.159Z" fill="#263238"/>
<path d="M104.204 152.074C103.941 152.788 103.5 153.423 102.924 153.92C102.594 154.181 102.191 154.334 101.77 154.358C100.87 154.358 100.616 153.643 100.547 152.939C100.501 152.556 100.501 152.168 100.547 151.785C101.702 152.277 102.986 152.378 104.204 152.074Z" fill="#263238"/>
<path d="M102.924 153.943C102.594 154.204 102.191 154.358 101.77 154.381C100.87 154.381 100.616 153.666 100.547 152.962C100.996 152.833 101.475 152.859 101.907 153.037C102.338 153.216 102.697 153.535 102.924 153.943Z" fill="#FF98B9"/>
<path d="M82.8027 157.577C84.1526 157.335 82.8027 148.843 82.8027 148.843C82.8027 148.843 88.0868 146.017 88.329 137.987C88.6158 140.323 88.2149 142.693 87.1753 144.805C87.1753 144.805 96.4051 141.932 98.7933 133.268C98.7933 133.268 98.0088 137.594 96.8089 139.313C99.0529 138.112 100.822 136.184 101.828 133.845C101.828 133.845 104.377 138.067 105.9 139.071C105.9 139.071 104.158 123.057 87.3253 127.453C84.301 128.188 81.5369 129.739 79.3353 131.939C77.1336 134.139 75.5792 136.901 74.842 139.925C73.6306 145.082 75.3496 151.208 77.4725 154.646C78.7993 156.689 82.8027 157.577 82.8027 157.577Z" fill="#263238"/>
<path d="M87.0831 150.124C87.0831 150.124 83.1719 145.509 81.026 146.916C78.8801 148.324 82.1797 155.304 84.8795 156.042C85.2223 156.16 85.5855 156.208 85.9472 156.183C86.3089 156.157 86.6618 156.06 86.9849 155.895C87.3079 155.73 87.5944 155.502 87.8274 155.224C88.0603 154.946 88.2349 154.624 88.3406 154.277L87.0831 150.124Z" fill="#FFC4C0"/>
</svg>
