<svg width="500" height="547" viewBox="0 0 500 547" fill="none" xmlns="http://www.w3.org/2000/svg">
<path d="M12.6485 457.89H216.002L220.237 374.445H8.41315L12.6485 457.89Z" fill="#EBEBEB"/>
<path d="M206.362 412.632H121.343L119.758 383.703H208.225L206.362 412.632ZM122.315 411.614H205.402L207.137 384.698H120.834L122.315 411.614Z" fill="#DBDBDB"/>
<path d="M204.823 445.96H124.676L123.38 419.819H206.432L204.823 445.96ZM125.671 444.942H203.851L205.355 420.837H124.456L125.671 444.942Z" fill="#DBDBDB"/>
<path d="M172.04 401.291H157.76L156.857 394.348H172.942L172.04 401.291ZM158.663 400.273H171.137L171.774 395.332H158.026L158.663 400.273Z" fill="#DBDBDB"/>
<path d="M172.04 436.377H157.76L156.857 429.434H172.942L172.04 436.377ZM158.663 435.359H171.137L171.774 430.417H158.026L158.663 435.359Z" fill="#DBDBDB"/>
<path d="M106.358 412.632H21.3386L19.7533 383.703H108.221L106.358 412.632ZM22.3107 411.614H105.397L107.133 384.698H20.8295L22.3107 411.614Z" fill="#DBDBDB"/>
<path d="M104.796 445.96H24.6716L23.3755 419.819H106.462L104.796 445.96ZM25.6552 444.942H103.835L105.34 420.837H24.4517L25.6552 444.942Z" fill="#DBDBDB"/>
<path d="M72.0356 401.291H57.7558L56.8532 394.348H72.9035L72.0356 401.291ZM58.6584 400.273H71.133L71.7694 395.332H58.022L58.6584 400.273Z" fill="#DBDBDB"/>
<path d="M72.0356 436.377H57.7558L56.8532 429.434H72.9035L72.0356 436.377ZM58.6584 435.359H71.133L71.7463 430.475H58.022L58.6584 435.359Z" fill="#DBDBDB"/>
<path d="M30.8854 457.878L29.6009 466.973L27.0319 485.234H22.0097V457.878H30.8854Z" fill="#EBEBEB"/>
<path d="M30.8854 457.878L29.6009 466.973H22.0097V457.878H30.8854Z" fill="#DBDBDB"/>
<path d="M197.765 457.878L199.049 466.973L201.606 485.234H206.629V457.878H197.765Z" fill="#EBEBEB"/>
<path d="M197.765 457.878L199.049 466.973H206.629V457.878H197.765Z" fill="#DBDBDB"/>
<path d="M464.845 352.041L449.662 352.365L441.955 352.492C439.375 352.55 436.783 352.492 434.202 352.562H433.693V352.041L433.624 339.057V338.479H434.202L449.523 338.548C454.638 338.548 459.741 338.675 464.845 338.733H465.192V339.057C465.192 341.256 465.088 343.443 465.041 345.607L464.845 352.041ZM464.845 352.041L464.683 345.503C464.683 343.351 464.555 341.221 464.532 339.092L464.845 339.416C459.741 339.474 454.638 339.601 449.523 339.601L434.202 339.671L434.781 339.092L434.723 352.041L434.202 351.532C436.725 351.532 439.247 351.532 441.782 351.59L449.396 351.729L464.845 352.041Z" fill="#EBEBEB"/>
<path d="M447.753 368.369L432.57 368.693L424.864 368.821C422.283 368.821 419.691 368.821 417.11 368.89H416.59V368.369V355.42V354.842H417.168L432.489 354.923C437.593 354.923 442.707 355.05 447.811 355.108H448.135V355.42C448.135 357.619 448.042 359.806 447.984 361.97L447.753 368.369ZM447.753 368.369L447.591 361.831C447.533 359.679 447.464 357.55 447.44 355.42L447.753 355.744C442.65 355.802 437.535 355.929 432.432 355.929L417.11 355.999L417.689 355.42L417.631 368.369L417.11 367.86C419.633 367.86 422.156 367.86 424.69 367.918L432.304 368.057L447.753 368.369Z" fill="#EBEBEB"/>
<path d="M481.936 368.369L466.754 368.693L459.047 368.821C456.466 368.821 453.886 368.821 451.293 368.89H450.784V368.369L450.715 355.42V354.842H451.293L466.615 354.923C471.729 354.923 476.833 355.05 481.936 355.108H482.26V355.42C482.26 357.619 482.156 359.806 482.109 361.97L481.936 368.369ZM481.936 368.369L481.774 361.831C481.774 359.679 481.647 357.55 481.623 355.42L481.936 355.744C476.833 355.802 471.729 355.929 466.615 355.929L451.293 355.999L451.872 355.42L451.814 368.369L451.293 367.86C453.828 367.86 456.339 367.86 458.873 367.918L466.487 368.057L481.936 368.369Z" fill="#EBEBEB"/>
<path d="M55.7997 241.46L40.6174 241.784L32.9105 241.911C30.3299 241.911 27.7378 241.911 25.1573 241.981H24.6481V241.46L24.5787 228.511V227.967H25.1573H40.5017C45.6164 227.967 50.7197 228.106 55.8229 228.164H56.1469V228.476C56.1469 230.675 56.0428 232.862 55.9849 235.014L55.7997 241.46ZM55.7997 241.46L55.6377 234.91C55.6377 232.746 55.5104 230.617 55.4873 228.499L55.7997 228.812C50.6965 228.812 45.5933 228.997 40.4785 229.008L25.1573 229.124L25.7359 228.546L25.678 241.495L25.1573 240.974C27.68 240.974 30.2026 240.974 32.7369 241.043L40.3512 241.17L55.7997 241.46Z" fill="#EBEBEB"/>
<path d="M38.7082 257.788L23.5258 258.112L15.8073 258.24C13.2383 258.298 10.6462 258.24 8.06568 258.309H7.55652V257.788L7.49866 244.839V244.261H8.1004L23.4216 244.33C28.5249 244.33 33.6397 244.469 38.7429 244.527H39.0669V244.839C39.0669 247.038 38.9743 249.225 38.9164 251.378L38.7082 257.788ZM38.7082 257.788L38.5461 251.25C38.5461 249.086 38.4189 246.957 38.3957 244.839L38.7082 245.152C33.6049 245.21 28.4901 245.337 23.3869 245.349L8.1004 245.418L8.67899 244.839V257.788L8.15826 257.268C10.6809 257.268 13.2036 257.268 15.7379 257.337L23.3522 257.464L38.7082 257.788Z" fill="#EBEBEB"/>
<path d="M72.9033 257.788L57.7209 258.112L50.014 258.24C47.4335 258.298 44.8529 258.24 42.2608 258.309H41.7516V257.788L41.6591 244.839V244.261H42.2377L57.5589 244.33C62.6737 244.33 67.7769 244.469 72.8801 244.527H73.2041V244.839C73.2041 247.038 73.1 249.225 73.0537 251.378L72.9033 257.788ZM72.9033 257.788L72.7413 251.25C72.7413 249.086 72.614 246.957 72.5908 244.839L72.9033 245.152C67.8 245.21 62.6968 245.337 57.582 245.349L42.2608 245.418L42.8394 244.839L42.8163 257.788L42.2955 257.268C44.8298 257.268 47.3409 257.268 49.8751 257.337L57.4895 257.464L72.9033 257.788Z" fill="#EBEBEB"/>
<path d="M70.7274 368.369L55.5451 368.693L47.8266 368.821C45.2576 368.821 42.6655 368.821 40.085 368.89H39.5758V368.369V355.42V354.842H40.1544L55.4756 354.923C60.5789 354.923 65.6937 355.05 70.7969 355.108H71.1209V355.42C71.1209 357.619 71.0283 359.806 70.9705 361.97L70.7274 368.369ZM70.7274 368.369L70.5886 361.831C70.5886 359.679 70.4613 357.55 70.4382 355.42L70.7506 355.744C65.6474 355.802 60.5326 355.929 55.4294 355.929L40.1081 355.999L40.6867 355.42V368.369L40.166 367.86C42.6887 367.86 45.2113 367.86 47.7456 367.918L55.3484 368.057L70.7274 368.369Z" fill="#EBEBEB"/>
<path d="M359.193 421.219L344.011 421.543L336.304 421.682C333.723 421.682 331.131 421.682 328.55 421.74H328.041V421.219L327.972 408.281V407.691H328.55L343.872 407.761C348.975 407.761 354.09 407.888 359.193 407.946H359.517V408.258C359.517 410.445 359.424 412.632 359.366 414.796L359.193 421.219ZM359.193 421.219L359.031 414.681C358.973 412.528 358.904 410.399 358.88 408.281L359.193 408.594C354.09 408.652 348.975 408.779 343.872 408.779L328.55 408.848L329.129 408.281L329.071 421.219L328.55 420.71C331.073 420.71 333.596 420.71 336.13 420.71L343.744 420.848L359.193 421.219Z" fill="#EBEBEB"/>
<path d="M463.074 72.1863L447.892 72.5103L440.185 72.6376C437.605 72.6376 435.012 72.6376 432.432 72.707H431.923V72.1863L431.853 59.2373V58.6587H432.432L447.753 58.7281C452.856 58.7281 457.971 58.867 463.074 58.9248H463.398V59.2373C463.398 61.436 463.306 63.6231 463.248 65.7754L463.074 72.1863ZM463.074 72.1863L462.878 65.6481C462.878 63.4842 462.75 61.355 462.727 59.2373L463.04 59.5497C457.936 59.5497 452.822 59.7349 447.718 59.7465L432.397 59.8159L432.976 59.2373L432.918 72.1863L432.397 71.6655C434.92 71.6655 437.443 71.6656 439.977 71.735L447.591 71.8623L463.074 72.1863Z" fill="#EBEBEB"/>
<path d="M480.166 88.5143L464.984 88.8383L457.277 88.9656C454.696 89.0234 452.104 88.9656 449.524 89.0235H448.991V88.5027V75.5653V74.9867H449.57L464.891 75.0561C470.006 75.0561 475.109 75.195 480.213 75.2528H480.537V75.5653C480.537 77.764 480.432 79.951 480.386 82.1034L480.166 88.5143ZM480.166 88.5143L480.004 81.9761C480.004 79.8122 479.877 77.683 479.854 75.5653L480.166 75.8777C475.063 75.9356 469.96 76.0629 464.845 76.0745L449.524 76.1439L450.102 75.5653V88.5143L449.582 87.9936C452.104 87.9936 454.627 87.9935 457.161 88.063L464.776 88.1903L480.166 88.5143Z" fill="#EBEBEB"/>
<path d="M48.6022 72.1968L33.4083 72.5208L25.7014 72.6481C23.1209 72.6481 20.5403 72.6481 17.9598 72.7175H17.439V72.1968L17.358 59.2478V58.6692H17.9482L33.2694 58.7502C38.3727 58.7502 43.4759 58.8775 48.5907 58.9353H48.9031V59.2478C48.9031 61.4465 48.799 63.6335 48.7527 65.7975L48.6022 72.1968ZM48.6022 72.1968L48.4287 65.6586C48.4287 63.4947 48.3014 61.3655 48.2782 59.2478L48.6022 59.5602C43.4875 59.6297 38.3842 59.7454 33.281 59.7569L17.9598 59.8264L18.5268 59.2478L18.5152 72.1968L17.9713 71.7455C20.494 71.7455 23.0051 71.7455 25.5394 71.7455L33.1537 71.8728L48.6022 72.1968Z" fill="#EBEBEB"/>
<path d="M455.633 0H454.754V106.971H455.633V0Z" fill="#C7C7C7"/>
<path d="M418.765 142.092L421.693 148.526H488.706L491.622 142.092L463.097 122.338H447.29L418.765 142.092Z" fill="#EBEBEB"/>
<path d="M445.311 103.314L447.29 122.339H463.097L465.076 103.314H445.311Z" fill="#DBDBDB"/>
<path d="M418.765 142.091L421.704 148.525H488.706L491.633 142.091H418.765Z" fill="#DBDBDB"/>
<path d="M377.418 0H376.539V86.1878H377.418V0Z" fill="#C7C7C7"/>
<path d="M340.539 121.309L343.478 127.743H410.48L413.407 121.309L384.871 101.556H369.075L340.539 121.309Z" fill="#EBEBEB"/>
<path d="M367.096 82.5312L369.075 101.556H384.871L386.861 82.5312H367.096Z" fill="#DBDBDB"/>
<path d="M340.551 121.308L343.478 127.754H410.491L413.408 121.308H340.551Z" fill="#DBDBDB"/>
<path d="M200.692 546.774C306.955 546.774 393.099 539.272 393.099 530.017C393.099 520.763 306.955 513.261 200.692 513.261C94.4288 513.261 8.28552 520.763 8.28552 530.017C8.28552 539.272 94.4288 546.774 200.692 546.774Z" fill="#EBEBEB"/>
<path d="M439.282 88.7919H60.4169V355.571H439.282V88.7919Z" fill="white"/>
<path d="M439.571 355.86H60.1741V88.5487H439.618L439.571 355.86ZM60.7064 355.259H438.993V89.1042H60.7064V355.259Z" fill="#263238"/>
<path opacity="0.1" d="M439.282 88.7919H60.4169V355.571H439.282V88.7919Z" fill="#FFC727"/>
<path d="M61.4585 75.4843L61.2734 74.3386L250.972 43.4069L251.065 43.4184L438.623 74.3386L438.426 75.4843L250.972 44.5756L61.4585 75.4843Z" fill="#263238"/>
<path d="M255.231 43.9737C255.233 44.8192 254.984 45.6464 254.516 46.3504C254.048 47.0543 253.381 47.6034 252.6 47.928C251.819 48.2527 250.96 48.3382 250.131 48.1738C249.301 48.0094 248.539 47.6025 247.941 47.0046C247.343 46.4068 246.937 45.6449 246.772 44.8155C246.608 43.9861 246.693 43.1266 247.018 42.3458C247.343 41.5651 247.892 40.8984 248.596 40.43C249.3 39.9617 250.127 39.7129 250.972 39.7152C252.101 39.7183 253.182 40.1679 253.98 40.9659C254.778 41.7638 255.228 42.8452 255.231 43.9737Z" fill="#EBEBEB"/>
<path d="M449.107 72.4408H50.8007V88.792H449.107V72.4408Z" fill="#37474F"/>
<path opacity="0.1" d="M439.282 88.7919H60.4169V105.768H439.282V88.7919Z" fill="black"/>
<path d="M444.038 355.571H55.8693V359.645H444.038V355.571Z" fill="#37474F"/>
<path d="M251.041 359.644H248.878V373.773H251.041V359.644Z" fill="#37474F"/>
<path d="M249.85 381.711C248.854 381.714 247.879 381.42 247.05 380.869C246.221 380.317 245.574 379.532 245.191 378.612C244.808 377.692 244.707 376.68 244.9 375.703C245.093 374.726 245.571 373.828 246.275 373.122C246.978 372.417 247.875 371.937 248.852 371.741C249.829 371.546 250.842 371.645 251.762 372.026C252.682 372.407 253.469 373.052 254.023 373.88C254.577 374.708 254.872 375.682 254.872 376.678C254.872 378.011 254.343 379.289 253.402 380.233C252.46 381.177 251.183 381.708 249.85 381.711ZM249.85 373.97C249.311 373.968 248.784 374.125 248.335 374.423C247.886 374.721 247.535 375.146 247.328 375.643C247.121 376.141 247.066 376.688 247.171 377.217C247.275 377.746 247.534 378.231 247.915 378.612C248.296 378.993 248.782 379.252 249.311 379.357C249.839 379.462 250.387 379.407 250.884 379.199C251.382 378.992 251.806 378.642 252.104 378.193C252.402 377.744 252.56 377.217 252.558 376.678C252.555 375.96 252.268 375.274 251.761 374.766C251.254 374.259 250.567 373.973 249.85 373.97Z" fill="#37474F"/>
<path d="M388.563 318.738H354.217V321.688H388.563V318.738Z" fill="#C7C7C7"/>
<path d="M400.632 324.905H354.217V327.856H400.632V324.905Z" fill="#C7C7C7"/>
<path d="M378.842 331.073H354.217V334.024H378.842V331.073Z" fill="#C7C7C7"/>
<path d="M346.556 318.738H339.393V325.901H346.556V318.738Z" fill="#FFC727"/>
<path d="M96.5331 143.793L280.909 143.515L404.184 143.793L280.909 144.071L96.5331 143.793Z" fill="#C7C7C7"/>
<path d="M96.5331 154.312L280.909 154.034L404.184 154.312L280.909 154.59L96.5331 154.312Z" fill="#C7C7C7"/>
<path d="M96.5331 164.842L280.909 164.564L404.184 164.842L280.909 165.12L96.5331 164.842Z" fill="#C7C7C7"/>
<path d="M96.5331 175.373L280.909 175.095L404.184 175.373L280.909 175.651L96.5331 175.373Z" fill="#C7C7C7"/>
<path d="M96.5331 185.892L280.909 185.614L404.184 185.892L280.909 186.169L96.5331 185.892Z" fill="#C7C7C7"/>
<path d="M96.5331 196.422L280.909 196.144L404.184 196.422L280.909 196.7L96.5331 196.422Z" fill="#C7C7C7"/>
<path d="M96.5331 206.941L280.909 206.663L404.184 206.941L280.909 207.219L96.5331 206.941Z" fill="#C7C7C7"/>
<path d="M96.5331 217.472L280.909 217.194L404.184 217.472L280.909 217.749L96.5331 217.472Z" fill="#C7C7C7"/>
<path d="M96.5331 228.001L280.909 227.724L404.184 228.001L280.909 228.279L96.5331 228.001Z" fill="#C7C7C7"/>
<path d="M96.5331 238.521L280.909 238.243L404.184 238.521L280.909 238.799L96.5331 238.521Z" fill="#C7C7C7"/>
<path d="M96.5331 249.051L280.909 248.773L404.184 249.051L280.909 249.329L96.5331 249.051Z" fill="#C7C7C7"/>
<path d="M96.5331 259.581L280.909 259.303L404.184 259.581L280.909 259.859L96.5331 259.581Z" fill="#C7C7C7"/>
<path d="M96.5331 270.101L280.909 269.823L404.184 270.101L280.909 270.378L96.5331 270.101Z" fill="#C7C7C7"/>
<path d="M96.5331 280.631L280.909 280.353L404.184 280.631L280.909 280.909L96.5331 280.631Z" fill="#C7C7C7"/>
<path d="M96.5331 291.149L280.909 290.883L404.184 291.149L280.909 291.427L96.5331 291.149Z" fill="#C7C7C7"/>
<path d="M389.256 137.81L389.742 229.819L389.256 309.492L388.759 229.819L389.256 137.81Z" fill="#C7C7C7"/>
<path d="M370.66 137.81L371.146 229.819L370.66 309.492L370.163 229.819L370.66 137.81Z" fill="#C7C7C7"/>
<path d="M352.065 137.81L352.551 229.819L352.065 309.492L351.567 229.819L352.065 137.81Z" fill="#C7C7C7"/>
<path d="M333.469 137.81L333.966 229.819L333.469 309.492L332.983 229.819L333.469 137.81Z" fill="#C7C7C7"/>
<path d="M314.872 137.81L315.358 229.819L314.872 309.492L314.386 229.819L314.872 137.81Z" fill="#C7C7C7"/>
<path d="M296.276 137.81L296.773 229.819L296.276 309.492L295.79 229.819L296.276 137.81Z" fill="#C7C7C7"/>
<path d="M277.68 137.81L278.178 229.819L277.68 309.492L277.194 229.819L277.68 137.81Z" fill="#C7C7C7"/>
<path d="M259.084 137.81L259.581 229.819L259.084 309.492L258.598 229.819L259.084 137.81Z" fill="#C7C7C7"/>
<path d="M240.488 137.81L240.986 229.819L240.488 309.492L240.002 229.819L240.488 137.81Z" fill="#C7C7C7"/>
<path d="M221.892 137.81L222.389 229.819L221.892 309.492L221.406 229.819L221.892 137.81Z" fill="#C7C7C7"/>
<path d="M203.308 137.81L203.794 229.819L203.308 309.492L202.81 229.819L203.308 137.81Z" fill="#C7C7C7"/>
<path d="M184.711 137.81L185.197 229.819L184.711 309.492L184.214 229.819L184.711 137.81Z" fill="#C7C7C7"/>
<path d="M166.115 137.81L166.601 229.819L166.115 309.492L165.618 229.819L166.115 137.81Z" fill="#C7C7C7"/>
<path d="M147.519 137.81L148.005 229.819L147.519 309.492L147.022 229.819L147.519 137.81Z" fill="#C7C7C7"/>
<path d="M128.923 137.81L129.409 229.819L128.923 309.492L128.425 229.819L128.923 137.81Z" fill="#C7C7C7"/>
<path d="M108.915 136.399L109.679 178.162L110.199 219.913C110.558 247.756 110.674 275.586 110.732 303.428L108.915 302.398H219.82L287.088 302.525L398.005 302.861L404.184 303.474L398.005 304.088L287.088 304.423L219.82 304.551H108.915H107.087V303.521C107.156 275.679 107.26 247.848 107.619 220.006L108.151 178.254L108.915 136.399Z" fill="#C7C7C7"/>
<path d="M109.76 303.185L108.07 301.611L128.599 279.52H165.976L184.399 268.943H203.018L221.869 247.709H258.563L295.755 205.506H314.363L332.959 184.896H370.198L393.862 162.493L395.448 164.171L371.123 187.211H333.989L315.393 207.82H296.797L259.616 250.023H222.91L204.059 271.258H185.012L166.601 281.835H129.606L109.76 303.185Z" fill="#FFC727"/>
<path d="M398.989 171.785L404.185 154.311L386.456 158.546L398.989 171.785Z" fill="#FFC727"/>
<path d="M169.923 125.463C169.936 125.57 169.926 125.679 169.894 125.783C169.862 125.886 169.809 125.982 169.737 126.063C169.665 126.144 169.577 126.209 169.478 126.253C169.38 126.298 169.273 126.321 169.165 126.321C169.056 126.321 168.949 126.298 168.851 126.253C168.752 126.209 168.664 126.144 168.592 126.063C168.521 125.982 168.467 125.886 168.435 125.783C168.403 125.679 168.393 125.57 168.407 125.463V117.363C168.401 117.201 168.447 117.041 168.539 116.908C168.631 116.774 168.763 116.674 168.917 116.622C169.07 116.57 169.236 116.569 169.39 116.619C169.545 116.669 169.678 116.768 169.772 116.9L174.25 123.102V117.386C174.253 117.187 174.334 116.998 174.474 116.857C174.614 116.717 174.804 116.637 175.003 116.634C175.203 116.634 175.396 116.713 175.539 116.853C175.682 116.994 175.763 117.185 175.766 117.386V125.486C175.763 125.688 175.682 125.88 175.539 126.023C175.397 126.166 175.204 126.247 175.003 126.25C174.893 126.249 174.786 126.224 174.687 126.176C174.589 126.128 174.503 126.058 174.436 125.972C174.403 125.955 174.379 125.926 174.366 125.891L169.923 119.735V125.463Z" fill="#263238"/>
<path d="M178.208 125.463V117.281C178.206 117.181 178.225 117.081 178.263 116.987C178.301 116.894 178.357 116.809 178.428 116.738C178.499 116.667 178.584 116.61 178.677 116.572C178.771 116.535 178.871 116.516 178.971 116.518H183.508C183.709 116.521 183.902 116.602 184.044 116.745C184.187 116.887 184.268 117.08 184.271 117.281C184.271 117.485 184.191 117.68 184.048 117.825C183.906 117.971 183.711 118.054 183.508 118.057H179.747V120.591H182.987C183.188 120.597 183.379 120.679 183.521 120.821C183.663 120.963 183.745 121.154 183.751 121.355C183.752 121.456 183.734 121.558 183.696 121.652C183.659 121.747 183.603 121.833 183.532 121.906C183.461 121.979 183.376 122.038 183.283 122.078C183.189 122.118 183.089 122.14 182.987 122.142H179.747V124.687H183.508C183.696 124.71 183.868 124.801 183.994 124.943C184.119 125.085 184.188 125.268 184.188 125.457C184.188 125.646 184.119 125.829 183.994 125.971C183.868 126.112 183.696 126.203 183.508 126.226H179.018C178.914 126.233 178.809 126.218 178.711 126.182C178.613 126.147 178.523 126.091 178.448 126.02C178.372 125.948 178.311 125.862 178.27 125.766C178.229 125.67 178.208 125.567 178.208 125.463Z" fill="#263238"/>
<path d="M199.234 117.663L195.832 125.763C195.816 125.806 195.792 125.845 195.762 125.879L195.693 125.96L195.566 126.134C195.528 126.171 195.485 126.202 195.438 126.226H195.323H194.987H194.895C194.849 126.205 194.809 126.173 194.779 126.134L194.686 126.064V125.983C194.68 125.945 194.68 125.906 194.686 125.868L192.615 121.505L190.786 125.81V125.925L190.705 126.006L190.624 126.076L190.52 126.168H190.416H190.069H189.976L189.849 126.076L189.757 126.006C189.74 125.974 189.716 125.947 189.687 125.925C189.687 125.925 189.687 125.844 189.618 125.81L186.204 117.709C186.131 117.523 186.134 117.316 186.212 117.133C186.29 116.949 186.436 116.803 186.621 116.726C186.712 116.686 186.81 116.665 186.909 116.664C187.008 116.663 187.106 116.682 187.198 116.72C187.29 116.758 187.373 116.814 187.443 116.884C187.513 116.955 187.567 117.039 187.604 117.131L190.324 123.553L192.117 119.295C192.177 119.152 192.279 119.03 192.409 118.946C192.539 118.861 192.691 118.817 192.846 118.82C192.999 118.823 193.147 118.868 193.274 118.953C193.401 119.037 193.502 119.155 193.564 119.295L195.357 123.553L198.065 117.131C198.142 116.945 198.289 116.797 198.475 116.72C198.66 116.643 198.869 116.643 199.055 116.72C199.24 116.797 199.388 116.944 199.465 117.13C199.542 117.315 199.542 117.524 199.465 117.709L199.234 117.663Z" fill="#263238"/>
<path d="M212.657 117.825L209.811 121.725V125.463C209.814 125.564 209.796 125.665 209.759 125.759C209.722 125.853 209.666 125.939 209.594 126.01C209.523 126.082 209.437 126.138 209.343 126.175C209.249 126.212 209.148 126.23 209.047 126.227C208.846 126.224 208.655 126.142 208.514 125.999C208.374 125.856 208.295 125.663 208.295 125.463V121.725L205.471 117.825C205.382 117.754 205.31 117.664 205.261 117.561C205.212 117.458 205.187 117.345 205.188 117.231C205.189 117.117 205.216 117.004 205.266 116.902C205.317 116.8 205.391 116.711 205.481 116.641C205.571 116.571 205.677 116.523 205.788 116.5C205.9 116.477 206.016 116.48 206.126 116.508C206.237 116.537 206.339 116.59 206.426 116.663C206.513 116.737 206.583 116.83 206.629 116.934L209.001 120.175L211.385 116.934C211.503 116.77 211.681 116.66 211.881 116.628C212.081 116.595 212.285 116.643 212.449 116.761C212.616 116.876 212.732 117.052 212.771 117.251C212.809 117.45 212.769 117.656 212.657 117.825Z" fill="#263238"/>
<path d="M214.289 125.463V117.281C214.287 117.181 214.306 117.081 214.344 116.987C214.382 116.894 214.438 116.809 214.509 116.738C214.58 116.667 214.665 116.61 214.759 116.572C214.852 116.535 214.952 116.516 215.053 116.518H219.589C219.79 116.521 219.983 116.602 220.126 116.745C220.268 116.887 220.35 117.08 220.353 117.281C220.353 117.485 220.273 117.68 220.13 117.825C219.987 117.971 219.792 118.054 219.589 118.057H215.828V120.591H219.068C219.269 120.597 219.46 120.679 219.602 120.821C219.744 120.963 219.826 121.154 219.832 121.355C219.833 121.456 219.815 121.558 219.777 121.652C219.74 121.747 219.684 121.833 219.613 121.906C219.542 121.979 219.457 122.038 219.364 122.078C219.27 122.118 219.17 122.14 219.068 122.142H215.828V124.687H219.589C219.777 124.71 219.95 124.801 220.075 124.943C220.2 125.085 220.27 125.268 220.27 125.457C220.27 125.646 220.2 125.829 220.075 125.971C219.95 126.112 219.777 126.203 219.589 126.226H215.099C214.995 126.233 214.891 126.218 214.792 126.182C214.694 126.147 214.605 126.091 214.529 126.02C214.453 125.948 214.392 125.862 214.351 125.766C214.31 125.67 214.289 125.567 214.289 125.463Z" fill="#263238"/>
<path d="M227.481 123.936H224.102L223.431 125.741C223.373 125.886 223.272 126.01 223.142 126.097C223.012 126.183 222.858 126.229 222.702 126.227C222.614 126.238 222.524 126.238 222.436 126.227C222.246 126.149 222.092 126.001 222.008 125.814C221.924 125.626 221.916 125.414 221.985 125.22L225.051 117.05C225.112 116.906 225.215 116.783 225.345 116.697C225.476 116.61 225.629 116.564 225.786 116.564C225.943 116.564 226.096 116.61 226.226 116.697C226.357 116.783 226.459 116.906 226.521 117.05L229.587 125.22C229.655 125.415 229.645 125.629 229.559 125.817C229.473 126.005 229.317 126.152 229.124 126.227C229.04 126.24 228.954 126.24 228.87 126.227C228.716 126.233 228.564 126.188 228.436 126.101C228.309 126.013 228.214 125.887 228.164 125.741L227.481 123.936ZM226.914 122.42L225.757 119.434L224.6 122.42H226.914Z" fill="#263238"/>
<path d="M237.919 125.081C237.952 125.177 237.965 125.278 237.958 125.379C237.951 125.48 237.924 125.579 237.879 125.669C237.834 125.759 237.771 125.84 237.695 125.906C237.618 125.972 237.529 126.022 237.433 126.053C237.333 126.064 237.232 126.064 237.132 126.053C236.94 126.057 236.751 126.005 236.588 125.903C236.398 125.783 236.243 125.615 236.137 125.417C235.919 124.89 235.82 124.321 235.848 123.751C235.848 123.543 235.792 123.339 235.686 123.16C235.577 122.998 235.435 122.86 235.269 122.755C235.028 122.606 234.767 122.493 234.494 122.42H232.85V125.429C232.847 125.632 232.764 125.826 232.619 125.969C232.474 126.112 232.279 126.192 232.075 126.192C231.873 126.192 231.678 126.112 231.535 125.969C231.392 125.825 231.311 125.631 231.311 125.429V117.247C231.31 117.147 231.328 117.046 231.366 116.953C231.404 116.86 231.46 116.775 231.532 116.704C231.603 116.632 231.688 116.576 231.781 116.538C231.874 116.501 231.974 116.482 232.075 116.483H234.563C235.175 116.482 235.772 116.669 236.273 117.021C236.773 117.372 237.153 117.869 237.36 118.445C237.566 119.02 237.59 119.646 237.427 120.235C237.264 120.825 236.922 121.349 236.449 121.737C236.637 121.885 236.801 122.06 236.935 122.258C237.234 122.698 237.392 123.219 237.387 123.751C237.377 124.026 237.396 124.301 237.444 124.572C237.559 124.612 237.663 124.679 237.745 124.768C237.828 124.856 237.888 124.964 237.919 125.081ZM235.975 119.504C235.978 119.315 235.943 119.127 235.873 118.952C235.803 118.777 235.699 118.617 235.566 118.482C235.434 118.348 235.276 118.241 235.102 118.168C234.927 118.095 234.74 118.057 234.552 118.057H232.839V120.916H234.552C234.927 120.916 235.287 120.767 235.554 120.503C235.821 120.238 235.972 119.879 235.975 119.504Z" fill="#263238"/>
<path d="M247.639 122.454H245.938V125.462C245.915 125.65 245.824 125.823 245.683 125.949C245.541 126.074 245.358 126.143 245.169 126.143C244.98 126.143 244.797 126.074 244.655 125.949C244.513 125.823 244.422 125.65 244.399 125.462V117.281C244.399 117.079 244.48 116.884 244.623 116.741C244.766 116.598 244.96 116.517 245.163 116.517H247.639C248.045 116.492 248.451 116.55 248.833 116.688C249.215 116.825 249.565 117.04 249.861 117.318C250.157 117.596 250.393 117.932 250.554 118.305C250.716 118.678 250.799 119.079 250.799 119.486C250.799 119.892 250.716 120.294 250.554 120.666C250.393 121.039 250.157 121.375 249.861 121.653C249.565 121.931 249.215 122.146 248.833 122.283C248.451 122.421 248.045 122.479 247.639 122.454ZM245.938 120.915H247.639C247.838 120.933 248.038 120.909 248.227 120.845C248.416 120.782 248.589 120.679 248.736 120.545C248.883 120.41 249.001 120.247 249.081 120.064C249.162 119.882 249.203 119.685 249.203 119.486C249.203 119.286 249.162 119.089 249.081 118.907C249.001 118.724 248.883 118.561 248.736 118.426C248.589 118.292 248.416 118.19 248.227 118.126C248.038 118.062 247.838 118.039 247.639 118.056H245.938V120.915Z" fill="#263238"/>
<path d="M258.865 125.081C258.927 125.275 258.911 125.485 258.82 125.667C258.729 125.849 258.571 125.988 258.378 126.053C258.275 126.064 258.17 126.064 258.066 126.053C257.874 126.057 257.685 126.005 257.522 125.903C257.339 125.779 257.188 125.612 257.082 125.417C256.859 124.891 256.76 124.321 256.793 123.751C256.794 123.541 256.734 123.336 256.62 123.16C256.514 122.995 256.371 122.857 256.203 122.755C255.963 122.604 255.702 122.491 255.428 122.42H253.796V125.429C253.793 125.632 253.71 125.826 253.565 125.969C253.42 126.112 253.224 126.192 253.021 126.192C252.92 126.194 252.82 126.175 252.727 126.137C252.633 126.1 252.548 126.043 252.477 125.972C252.406 125.901 252.35 125.816 252.312 125.723C252.274 125.629 252.255 125.529 252.257 125.429V117.247C252.255 117.147 252.274 117.046 252.312 116.953C252.35 116.86 252.406 116.775 252.477 116.704C252.548 116.632 252.633 116.576 252.727 116.538C252.82 116.501 252.92 116.482 253.021 116.483H255.497C255.889 116.483 256.276 116.561 256.638 116.711C256.999 116.861 257.328 117.081 257.604 117.359C257.88 117.636 258.099 117.965 258.248 118.327C258.397 118.69 258.473 119.078 258.471 119.469C258.477 119.912 258.383 120.351 258.194 120.752C258.006 121.153 257.729 121.506 257.383 121.783C257.574 121.928 257.738 122.104 257.869 122.304C258.171 122.743 258.333 123.264 258.332 123.797C258.297 124.07 258.297 124.346 258.332 124.619C258.452 124.647 258.562 124.704 258.655 124.785C258.748 124.865 258.82 124.967 258.865 125.081ZM256.897 119.504C256.899 119.314 256.863 119.127 256.791 118.951C256.72 118.776 256.614 118.616 256.481 118.482C256.348 118.347 256.189 118.24 256.014 118.168C255.839 118.095 255.652 118.057 255.462 118.057H253.761V120.916H255.462C255.649 120.917 255.835 120.882 256.008 120.812C256.181 120.742 256.339 120.638 256.472 120.507C256.605 120.376 256.712 120.22 256.785 120.048C256.857 119.875 256.896 119.691 256.897 119.504Z" fill="#263238"/>
<path d="M268.538 117.721C269.438 118.67 269.939 119.927 269.939 121.234C269.939 122.54 269.438 123.797 268.538 124.746C268.117 125.208 267.604 125.579 267.033 125.834C266.461 126.088 265.843 126.222 265.217 126.227C264.581 126.226 263.951 126.095 263.368 125.84C262.784 125.585 262.26 125.212 261.827 124.746C260.943 123.79 260.452 122.536 260.452 121.234C260.452 119.931 260.943 118.677 261.827 117.721C262.26 117.255 262.784 116.882 263.368 116.627C263.951 116.372 264.581 116.241 265.217 116.24C265.843 116.243 266.462 116.376 267.034 116.631C267.606 116.886 268.118 117.257 268.538 117.721ZM268.353 121.193C268.355 120.294 268.021 119.428 267.416 118.763C267.137 118.456 266.798 118.21 266.42 118.041C266.041 117.871 265.632 117.782 265.217 117.779C264.795 117.778 264.378 117.865 263.991 118.034C263.604 118.204 263.257 118.452 262.972 118.763C262.363 119.424 262.027 120.293 262.035 121.193C262.026 122.086 262.362 122.948 262.972 123.6C263.256 123.914 263.603 124.166 263.989 124.339C264.375 124.513 264.794 124.604 265.217 124.607C265.633 124.599 266.043 124.506 266.422 124.333C266.8 124.16 267.139 123.91 267.416 123.6C268.015 122.96 268.35 122.116 268.353 121.239V121.193Z" fill="#263238"/>
<path d="M273.005 123.368C273.144 123.8 273.434 124.169 273.82 124.407C274.207 124.645 274.666 124.737 275.115 124.668C275.563 124.598 275.973 124.371 276.269 124.027C276.565 123.682 276.729 123.244 276.731 122.79V117.281C276.754 117.094 276.845 116.921 276.987 116.795C277.129 116.67 277.311 116.601 277.5 116.601C277.69 116.601 277.872 116.67 278.014 116.795C278.156 116.921 278.247 117.094 278.27 117.281V122.79C278.235 123.59 277.923 124.354 277.389 124.951C276.855 125.548 276.131 125.942 275.339 126.066C274.547 126.19 273.737 126.036 273.046 125.631C272.355 125.226 271.825 124.594 271.547 123.843C271.514 123.748 271.501 123.647 271.508 123.547C271.515 123.447 271.542 123.35 271.587 123.26C271.633 123.171 271.695 123.091 271.772 123.026C271.848 122.961 271.937 122.912 272.033 122.882C272.128 122.85 272.23 122.836 272.331 122.843C272.431 122.85 272.53 122.877 272.62 122.922C272.711 122.967 272.791 123.03 272.857 123.107C272.923 123.183 272.973 123.272 273.005 123.368Z" fill="#263238"/>
<path d="M280.515 125.463V117.281C280.514 117.181 280.532 117.081 280.57 116.987C280.608 116.894 280.664 116.809 280.735 116.738C280.807 116.667 280.891 116.61 280.985 116.572C281.078 116.535 281.178 116.516 281.279 116.518H285.827C286.028 116.521 286.221 116.602 286.363 116.745C286.506 116.887 286.587 117.08 286.59 117.281C286.59 117.485 286.51 117.68 286.367 117.825C286.224 117.971 286.03 118.054 285.827 118.057H282.066V120.591H285.294C285.495 120.597 285.686 120.679 285.828 120.821C285.97 120.963 286.052 121.154 286.058 121.355C286.06 121.456 286.041 121.558 286.003 121.652C285.966 121.747 285.91 121.833 285.839 121.906C285.768 121.979 285.684 122.038 285.59 122.078C285.497 122.118 285.396 122.14 285.294 122.142H282.066V124.687H285.827C286.014 124.71 286.187 124.801 286.313 124.943C286.438 125.085 286.507 125.268 286.507 125.457C286.507 125.646 286.438 125.829 286.313 125.971C286.187 126.112 286.014 126.203 285.827 126.226H281.314C281.21 126.231 281.107 126.215 281.011 126.179C280.914 126.142 280.826 126.087 280.751 126.015C280.676 125.944 280.617 125.858 280.576 125.763C280.536 125.668 280.515 125.566 280.515 125.463Z" fill="#263238"/>
<path d="M288.315 121.239C288.339 119.905 288.886 118.634 289.838 117.699C290.791 116.764 292.072 116.24 293.406 116.24C294.565 116.233 295.692 116.612 296.612 117.317C296.781 117.445 296.891 117.636 296.919 117.847C296.948 118.057 296.891 118.27 296.762 118.439C296.633 118.608 296.443 118.718 296.232 118.747C296.022 118.775 295.809 118.718 295.64 118.589C295.011 118.075 294.218 117.804 293.406 117.826C292.478 117.831 291.585 118.187 290.907 118.821C290.268 119.465 289.907 120.333 289.9 121.239C289.898 121.688 289.986 122.132 290.159 122.545C290.332 122.959 290.586 123.333 290.907 123.646C291.584 124.284 292.476 124.643 293.406 124.653C294.217 124.667 295.007 124.397 295.64 123.889C295.814 123.758 296.033 123.7 296.249 123.728C296.465 123.756 296.662 123.868 296.797 124.04C296.866 124.124 296.917 124.221 296.947 124.326C296.977 124.43 296.986 124.54 296.973 124.648C296.96 124.756 296.926 124.86 296.871 124.955C296.817 125.049 296.745 125.131 296.658 125.197C295.741 125.906 294.612 126.285 293.453 126.273C292.784 126.282 292.12 126.159 291.5 125.911C290.879 125.662 290.314 125.294 289.836 124.826C289.358 124.358 288.978 123.8 288.717 123.185C288.456 122.569 288.319 121.908 288.315 121.239Z" fill="#263238"/>
<path d="M305.395 118.034H303.185V125.44C303.185 125.642 303.104 125.836 302.961 125.98C302.818 126.123 302.623 126.203 302.421 126.203C302.218 126.203 302.024 126.123 301.881 125.98C301.738 125.836 301.657 125.642 301.657 125.44V118.034H299.47C299.266 118.031 299.072 117.947 298.929 117.802C298.786 117.657 298.706 117.462 298.706 117.258C298.705 117.157 298.723 117.057 298.761 116.964C298.799 116.871 298.855 116.786 298.926 116.715C298.998 116.643 299.083 116.587 299.176 116.549C299.269 116.512 299.369 116.493 299.47 116.494H305.395C305.597 116.494 305.792 116.575 305.935 116.718C306.078 116.861 306.159 117.056 306.159 117.258C306.159 117.462 306.079 117.657 305.936 117.802C305.793 117.947 305.598 118.031 305.395 118.034Z" fill="#263238"/>
<path d="M308.554 117.281C308.552 117.181 308.571 117.081 308.609 116.987C308.647 116.894 308.703 116.809 308.774 116.738C308.845 116.667 308.93 116.61 309.024 116.572C309.117 116.535 309.217 116.516 309.318 116.518C309.521 116.518 309.717 116.598 309.862 116.741C310.007 116.883 310.09 117.078 310.093 117.281V125.463C310.09 125.666 310.007 125.861 309.862 126.003C309.717 126.146 309.521 126.226 309.318 126.226C309.217 126.23 309.116 126.212 309.022 126.175C308.928 126.138 308.842 126.081 308.77 126.01C308.699 125.938 308.643 125.853 308.606 125.759C308.568 125.665 308.551 125.564 308.554 125.463V117.281Z" fill="#263238"/>
<path d="M320.346 117.721C321.245 118.67 321.747 119.927 321.747 121.234C321.747 122.54 321.245 123.797 320.346 124.746C319.926 125.207 319.415 125.576 318.846 125.831C318.276 126.086 317.66 126.221 317.036 126.227C316.392 126.233 315.753 126.104 315.162 125.849C314.57 125.594 314.038 125.218 313.6 124.746C312.716 123.79 312.224 122.536 312.224 121.234C312.224 119.932 312.716 118.677 313.6 117.721C314.034 117.253 314.56 116.88 315.146 116.625C315.731 116.37 316.363 116.239 317.002 116.24C317.632 116.239 318.255 116.37 318.832 116.625C319.408 116.88 319.924 117.254 320.346 117.721ZM320.172 121.193C320.17 120.293 319.832 119.426 319.224 118.763C318.947 118.456 318.61 118.21 318.234 118.041C317.857 117.872 317.449 117.782 317.036 117.779C316.603 117.769 316.172 117.851 315.773 118.021C315.374 118.191 315.015 118.444 314.722 118.763C314.112 119.424 313.777 120.293 313.785 121.193C313.776 122.086 314.112 122.948 314.722 123.6C315.014 123.922 315.372 124.179 315.771 124.353C316.17 124.526 316.601 124.613 317.036 124.607C317.451 124.599 317.859 124.506 318.236 124.333C318.612 124.159 318.948 123.91 319.224 123.6C319.827 122.962 320.166 122.118 320.172 121.239V121.193Z" fill="#263238"/>
<path d="M325.658 125.463C325.671 125.571 325.661 125.68 325.629 125.783C325.597 125.886 325.544 125.982 325.472 126.063C325.4 126.144 325.312 126.209 325.214 126.253C325.115 126.298 325.008 126.321 324.9 126.321C324.792 126.321 324.685 126.298 324.586 126.253C324.487 126.209 324.399 126.144 324.327 126.063C324.256 125.982 324.202 125.886 324.17 125.783C324.138 125.68 324.128 125.571 324.142 125.463V117.363C324.135 117.239 324.161 117.116 324.215 117.004C324.27 116.893 324.352 116.797 324.454 116.726C324.618 116.612 324.819 116.566 325.016 116.599C325.213 116.631 325.389 116.739 325.507 116.9L329.986 123.103V117.386C329.989 117.188 330.069 116.998 330.209 116.858C330.35 116.717 330.539 116.637 330.738 116.634C330.938 116.634 331.131 116.713 331.274 116.853C331.417 116.994 331.498 117.186 331.502 117.386V125.486C331.499 125.688 331.417 125.881 331.275 126.023C331.132 126.166 330.939 126.247 330.738 126.25C330.628 126.249 330.521 126.224 330.423 126.176C330.324 126.128 330.238 126.058 330.171 125.972C330.139 125.955 330.114 125.926 330.101 125.891L325.658 119.735V125.463Z" fill="#263238"/>
<path d="M425.408 374.63C425.696 369.69 426.392 364.782 427.491 359.957C428.378 355.509 430.183 351.296 432.79 347.586C433.994 345.895 435.521 344.459 437.283 343.36C439.044 342.262 441.006 341.523 443.055 341.187C447.082 340.701 450.854 342.495 453.863 345.029C457.601 348.165 460.447 352.319 463.12 356.358C466.056 360.866 468.726 365.541 471.117 370.36C471.198 370.522 470.955 370.649 470.885 370.487C468.794 366.385 466.384 362.454 463.676 358.73C461.229 355.169 458.472 351.831 455.437 348.755C452.671 346.059 449.165 343.536 445.161 343.409C443.2 343.43 441.27 343.908 439.526 344.806C437.783 345.704 436.273 346.997 435.116 348.581C432.432 352.053 431.066 356.3 430.048 360.466C428.992 365.06 428.303 369.73 427.988 374.433C427.201 384.096 426.993 393.816 426.773 403.502C426.646 408.987 426.576 414.472 426.518 419.957L426.449 428.289C426.56 430.97 426.455 433.656 426.137 436.32C426.044 436.864 425.153 436.806 425.072 436.32C424.74 433.796 424.616 431.25 424.702 428.706C424.702 426.083 424.671 423.448 424.609 420.802C424.609 415.687 424.528 410.572 424.551 405.446C424.574 395.193 424.69 384.883 425.408 374.63Z" fill="#263238"/>
<path d="M439.212 367.339C439.721 364.608 440.647 361.056 442.198 358.938C444.998 355.131 447.984 356.785 445.23 360.998C443.155 364.131 441.811 367.69 441.295 371.412C441.295 371.412 446.005 378.136 451.71 381.445C451.467 378.853 450.738 374.884 451.247 371.031C452.335 362.733 457.345 363.196 456.107 369.792C455.203 374.176 454.815 378.65 454.95 383.123C456.843 384.358 458.879 385.356 461.014 386.097C460.69 385.137 460.343 383.98 459.961 382.626C457.947 375.185 462.912 372.859 463.062 377.048C463.387 380.617 464.033 384.149 464.995 387.602C467.714 388.516 469.97 389.141 471.359 389.627C474.917 390.957 478.096 393.138 480.617 395.98C483.201 393.646 485.345 390.867 486.946 387.775C485.222 386.294 482.48 384.072 478.673 381.387C471.544 376.354 474.044 369.989 479.679 373.947C483.764 376.793 486.923 382.047 488.358 384.801C490.29 380.073 491.386 375.046 491.598 369.943C486.021 364.631 472.134 357.306 476.347 357.306C480.108 357.306 488.52 362.814 491.598 364.944C491.52 363.497 491.362 362.056 491.124 360.627C485.847 357.156 468.709 351.786 471.452 350.213C474.449 348.512 486.414 354.055 490.025 355.802C489.346 353.451 488.274 351.233 486.854 349.241C479.564 339.485 466.418 336.118 460.69 337.981C456.628 339.3 457.808 349.553 456.94 349.241C440.624 342.702 433.218 347.343 439.212 367.339ZM479.17 366.182C480.327 364.782 485.685 368.89 484.135 371.135C482.584 373.38 477.677 367.987 479.17 366.217V366.182ZM451.212 357.399C452.624 358.29 450.541 363.497 448.377 361.923C446.526 360.616 449.801 356.531 451.212 357.434V357.399Z" fill="#FFC727"/>
<path d="M453.354 359.031C454.083 357.573 454.858 356.126 455.668 354.726C456.442 353.344 457.345 352.038 458.364 350.826C458.133 350.537 457.913 350.248 457.67 349.958C457.566 349.854 457.739 349.692 457.843 349.796L458.642 350.745C458.692 350.778 458.729 350.827 458.746 350.884C459.753 352.041 460.702 353.337 461.616 354.599C463.217 354.971 464.797 355.431 466.349 355.976C467.946 356.508 469.531 357.064 471.082 357.723C471.244 357.793 471.163 358.059 471.001 357.989C469.462 357.307 467.899 356.647 466.303 356.103C464.706 355.559 463.259 355.2 461.674 354.772C462.171 355.478 462.657 356.184 463.132 356.902C466.008 357.812 468.806 358.953 471.498 360.315C474.333 361.658 477.053 363.22 479.761 364.794C479.923 364.875 479.761 365.118 479.622 365.025C476.972 363.44 474.206 362.086 471.406 360.767C468.779 359.54 466.071 358.533 463.421 357.364C470.075 367.779 474.079 379.745 479.414 390.842C479.483 391.004 479.24 391.143 479.171 390.981C477.539 387.081 475.699 383.297 473.882 379.467C472.297 375.995 470.735 372.524 469.149 369.133C468.675 368.126 468.2 367.12 467.703 366.124C468.004 371.667 467.876 377.314 468.791 382.8C468.791 382.836 468.776 382.872 468.75 382.898C468.724 382.924 468.688 382.938 468.652 382.938C468.615 382.938 468.58 382.924 468.553 382.898C468.527 382.872 468.513 382.836 468.513 382.8C468.131 376.863 467.089 371.031 467.136 365.06C467.136 365.06 467.136 365.06 467.136 364.99C465.979 362.676 464.821 360.477 463.502 358.302C461.303 363.498 458.978 368.716 457.948 374.352C457.948 374.514 457.647 374.445 457.693 374.271C459.186 368.682 460.574 363.081 463.271 357.908C461.857 355.556 460.291 353.299 458.584 351.15C457.843 352.539 456.895 353.835 456.05 355.154C455.205 356.473 454.43 357.746 453.666 359.077C452.027 361.883 450.633 364.826 449.5 367.872C449.5 368.045 449.165 367.953 449.234 367.791C450.611 364.875 451.895 361.901 453.354 359.031Z" fill="#263238"/>
<path d="M400.863 371.656C405.145 367.374 410.121 361.75 416.705 361.762C423.081 361.762 427.768 366.911 430.464 372.176C433.288 377.708 434.295 383.98 435.093 390.078C436.025 397.374 436.589 404.712 436.783 412.065C436.898 416.15 436.887 420.246 436.783 424.331C436.783 428.472 436.47 432.608 435.845 436.701C435.73 437.361 434.688 437.384 434.63 436.701C434.434 433.23 434.63 429.758 434.63 426.356C434.63 422.954 434.63 419.575 434.468 416.184C434.214 409.322 433.716 402.483 432.918 395.667C432.212 389.708 431.656 383.586 429.874 377.847C428.266 372.662 425.245 366.726 419.992 364.446C412.817 361.333 405.816 367.015 401.118 371.818C400.956 371.956 400.748 371.783 400.863 371.656Z" fill="#263238"/>
<path d="M379.074 381.238C379.074 382.106 379.155 382.973 379.213 383.818C381.271 382.289 383.677 381.295 386.214 380.925C392.277 380.277 391.896 384.883 387.845 385.08C384.993 385.117 382.172 385.682 379.525 386.746C380.509 394.754 382.707 401.188 382.997 401.28C388.396 400.973 393.767 400.289 399.07 399.232C397.554 396.015 394.129 391.745 395.876 391.398C397.624 391.051 399.533 394.869 400.505 398.943C404.468 398.194 408.365 397.13 412.158 395.76C409.497 393.446 405.365 390.588 406.951 389.361C408.536 388.135 411.788 392.185 413.755 395.147C415.544 394.404 417.234 393.444 418.789 392.289C415.201 387.012 406.441 385.936 407.576 382.117C408.71 378.298 416.914 383.598 420.594 390.669C424.922 386.179 426.183 379.837 425.732 374.468C421.971 374.028 414.727 374.827 415.248 372.154C415.768 369.481 421.034 369.967 425.292 371.54C424.893 369.4 424.036 367.371 422.781 365.592C418.812 360.501 406.708 366.969 406.708 366.969C406.708 366.969 408.004 354.807 403.387 352.701C400.725 351.544 396.027 351.544 391.317 354.275C393.955 354.495 397.103 355.328 398.434 357.168C400.077 359.482 397.485 360.778 395.842 359.702C394.684 358.927 392.509 356.52 388.609 356.231C386.926 357.629 385.439 359.248 384.189 361.045C383.749 361.67 383.332 362.341 382.916 363.058C385.149 362.052 387.577 361.553 390.026 361.597C392.475 361.641 394.884 362.227 397.08 363.313C402.333 365.916 399.394 371.413 394.881 369.249C390.368 367.085 386.075 365.049 381.284 366.252C379.593 370.571 378.806 375.191 378.97 379.826C381.309 378.111 383.946 376.844 386.746 376.088C391.965 374.723 393.539 377.835 387.811 378.403C384.736 378.743 381.763 379.708 379.074 381.238ZM385.415 372.86C385.057 371.17 388.76 370.684 389.373 372.05C389.894 373.23 385.774 374.549 385.415 372.86ZM417.076 382.221C417.423 381.295 419.9 382.349 419.68 383.494C419.367 385.033 416.741 383.147 417.076 382.221ZM399.603 388.146C401.408 387.429 404.231 391.919 402.252 392.948C400.274 393.978 398.075 388.748 399.603 388.146Z" fill="#FFC727"/>
<path d="M383.748 400.389C386.468 395.841 389.152 391.27 392.011 386.803C393.345 384.728 394.734 382.692 396.177 380.693L395.529 380.543L394.452 380.335C393.619 380.184 392.774 380.069 391.93 379.976C391.085 379.883 390.344 379.86 389.546 379.849C388.691 379.802 387.833 379.849 386.988 379.988C386.884 379.988 386.873 379.849 386.988 379.849C387.845 379.849 388.713 379.768 389.569 379.756C390.425 379.745 391.212 379.756 392.045 379.814C392.879 379.872 393.584 379.941 394.36 380.057L395.621 380.277C395.876 380.277 396.142 380.369 396.385 380.439C397.858 378.418 399.401 376.435 401.014 374.491C396.309 372.194 391.297 370.592 386.132 369.735C386.04 369.735 386.074 369.584 386.132 369.608C391.375 370.33 396.471 371.872 401.234 374.178C402.101 373.114 402.969 372.049 403.849 370.996C404.728 369.943 405.885 368.682 406.776 367.397C406.834 367.316 406.95 367.397 406.892 367.478C405.663 368.825 404.504 370.235 403.421 371.702C405.361 373.059 407.209 374.544 408.952 376.146C410.757 377.743 412.528 379.409 414.24 381.11C414.24 381.168 414.24 381.272 414.148 381.214C412.447 379.525 410.676 377.916 408.848 376.389C407.019 374.861 405.075 373.461 403.235 371.945L401.963 373.611L401.326 374.445V374.503L399.208 377.28C400.031 378.47 400.736 379.737 401.315 381.064C401.928 382.348 402.472 383.679 402.946 385.01C403.933 387.786 404.706 390.633 405.261 393.527C405.261 393.608 405.145 393.654 405.122 393.527C404.545 390.678 403.717 387.885 402.645 385.183C402.125 383.783 401.488 382.429 400.898 381.087C400.308 379.745 399.648 378.668 399.116 377.43C398.514 378.24 397.901 379.05 397.311 379.872L396.801 380.589C396.801 380.647 396.801 380.717 396.732 380.717C394.869 383.32 393.087 385.993 391.351 388.701C391.462 388.884 391.544 389.083 391.594 389.291C391.71 389.615 391.814 389.951 391.907 390.275C392.067 390.939 392.195 391.611 392.288 392.289C392.404 392.937 392.497 393.573 392.555 394.221C392.568 394.96 392.622 395.698 392.717 396.431C392.717 396.535 392.566 396.547 392.589 396.431C392.637 395.741 392.587 395.047 392.439 394.372C392.335 393.677 392.207 392.971 392.045 392.289C391.883 391.606 391.733 391.039 391.548 390.426C391.455 390.113 391.351 389.812 391.247 389.511C391.143 389.21 391.108 389.176 391.062 389.002C390.252 390.275 389.442 391.548 388.655 392.832L384.026 400.47C383.876 400.609 383.667 400.493 383.748 400.389Z" fill="#263238"/>
<path d="M425.685 435.279C425.754 432.698 426.16 430.106 426.437 427.548C426.715 424.991 427.016 422.399 427.294 419.83C427.643 414.823 428.319 409.844 429.319 404.925C430.182 400.689 432.294 396.807 435.382 393.782C436.98 392.187 439.074 391.187 441.319 390.946C443.582 390.878 445.804 391.562 447.637 392.891C449.717 394.43 451.511 396.321 452.937 398.48C454.477 400.619 455.862 402.865 457.08 405.203C457.08 405.296 456.987 405.353 456.941 405.203C454.645 401.302 451.601 397.892 447.984 395.17C446.369 393.863 444.405 393.058 442.337 392.856C441.326 392.842 440.322 393.028 439.382 393.404C438.443 393.779 437.587 394.336 436.864 395.043C433.982 397.818 431.971 401.373 431.078 405.272C430.022 409.803 429.272 414.4 428.833 419.031C428.474 421.751 428.127 424.482 427.768 427.213C427.409 429.944 427.178 432.698 426.611 435.383C426.604 435.443 426.585 435.502 426.556 435.556C426.526 435.609 426.486 435.657 426.438 435.695C426.391 435.733 426.336 435.761 426.277 435.778C426.218 435.795 426.157 435.8 426.096 435.793C426.035 435.787 425.976 435.768 425.923 435.738C425.869 435.709 425.822 435.669 425.784 435.621C425.746 435.573 425.717 435.518 425.7 435.46C425.683 435.401 425.678 435.339 425.685 435.279Z" fill="#263238"/>
<path d="M438.355 415.27C439.157 416.348 440.103 417.31 441.167 418.128C440.739 415.617 440.23 411.185 441.491 408.767C443.47 405.075 445.796 406.915 444.627 410.132C443.447 413.028 442.804 416.114 442.73 419.239C445.409 420.922 448.28 422.278 451.281 423.278C450.963 421.831 450.869 420.344 451.004 418.869C451.397 414.923 454.417 414.993 453.63 419.101C453.341 420.692 453.205 422.308 453.225 423.926C457.585 425.27 462.042 426.276 466.556 426.935C468.863 423.945 470.722 420.635 472.076 417.11C468.871 416.3 462.356 416.115 462.495 413.824C462.68 410.734 468.986 413.106 472.678 415.351C473.537 412.664 473.928 409.85 473.835 407.031C470.941 406.229 467.969 405.736 464.971 405.561C458.352 404.994 458.676 401.245 463.478 401.326C466.95 401.395 471.486 403.559 473.604 404.682C472.227 395.679 465.364 389.916 459.856 389.696C450.599 389.326 453.931 400.84 453.931 400.84C453.931 400.84 447.659 396.431 441.735 396.547C435.81 396.663 432.026 406.464 438.355 415.27ZM463.085 398.618C462.876 397.322 467.008 397.01 467.227 398.618C467.505 400.539 463.293 399.937 463.085 398.618ZM469.727 412.134C469.646 411.289 471.428 411.139 471.833 412.204C472.134 412.898 469.82 412.967 469.727 412.134ZM447.497 412.921C448.898 413.118 449.696 418.105 447.289 418.001C445.519 417.932 446.317 412.748 447.497 412.921Z" fill="#FFC727"/>
<path d="M449.431 418.464C449.662 417.839 449.871 417.203 450.067 416.578C449.879 417.213 449.725 417.858 449.605 418.51C449.581 418.637 449.385 418.58 449.431 418.464Z" fill="#263238"/>
<path d="M450.067 416.586C450.067 416.437 450.159 416.287 450.193 416.138C450.148 416.276 450.147 416.425 450.067 416.586Z" fill="#263238"/>
<path d="M410.213 430.268L410.861 444.05L412.539 479.564H449.176L450.854 444.05L451.502 430.268H410.213Z" fill="#37474F"/>
<path d="M410.213 430.268L410.861 444.05H450.854L451.502 430.268H410.213Z" fill="#263238"/>
<path d="M407.598 435.834H454.106V424.69H407.598V435.834Z" fill="#37474F"/>
<path d="M446.214 479.564H439.78V485.396H446.214V479.564Z" fill="#37474F"/>
<path d="M446.214 479.564H439.78V482.48H446.214V479.564Z" fill="#263238"/>
<path d="M421.925 479.564H415.502V485.396H421.925V479.564Z" fill="#37474F"/>
<path d="M421.925 479.564H415.502V482.48H421.925V479.564Z" fill="#263238"/>
<path d="M8.41315 485.246L68.7955 484.968L129.189 484.864L249.954 484.667L370.719 484.864L431.113 484.968L491.495 485.246L431.113 485.535L370.719 485.639L249.954 485.824L129.189 485.627L68.7955 485.535L8.41315 485.246Z" fill="#263238"/>
<path opacity="0.1" d="M60.4167 355.42H439.282L322.602 436.377H299.828L60.4167 355.42Z" fill="#FFC727"/>
<path d="M374.364 456.491H241.9V463.688H374.364V456.491Z" fill="#37474F"/>
<path d="M367.119 463.687H249.155V470.885H367.119V463.687Z" fill="#455A64"/>
<path d="M249.167 530.643H246.25L254.721 470.886H262.15L249.167 530.643Z" fill="#455A64"/>
<path d="M262.15 470.897L261.282 477.644H254.154L254.721 470.897H262.15Z" fill="#263238"/>
<path d="M367.108 530.643H370.013L361.542 470.886H354.113L367.108 530.643Z" fill="#455A64"/>
<path d="M354.125 470.897L354.992 477.644H362.109L361.542 470.897H354.125Z" fill="#263238"/>
<path d="M340.932 432.096H274.07C270.21 432.096 267.08 435.225 267.08 439.086V446.121C267.08 449.981 270.21 453.111 274.07 453.111H340.932C344.793 453.111 347.922 449.981 347.922 446.121V439.086C347.922 435.225 344.793 432.096 340.932 432.096Z" fill="#DBDBDB"/>
<path d="M305.858 436.563H275.493V437.963H305.858V436.563Z" fill="#263238"/>
<path d="M305.858 438.901H275.493V440.301H305.858V438.901Z" fill="#263238"/>
<path d="M305.858 441.249H275.493V442.65H305.858V441.249Z" fill="#263238"/>
<path d="M305.858 443.588H275.493V444.988H305.858V443.588Z" fill="#263238"/>
<path d="M339.509 436.563H309.144V437.963H339.509V436.563Z" fill="#263238"/>
<path d="M339.509 438.901H309.144V440.301H339.509V438.901Z" fill="#263238"/>
<path d="M339.509 441.249H309.144V442.65H339.509V441.249Z" fill="#263238"/>
<path d="M339.509 443.588H309.144V444.988H339.509V443.588Z" fill="#263238"/>
<path d="M287.805 447.174H277.009V450.704H287.805V447.174Z" fill="#A6A6A6"/>
<path d="M299.123 447.58H293.487C293.125 447.58 292.778 447.724 292.522 447.98C292.265 448.236 292.122 448.583 292.122 448.945C292.122 449.308 292.265 449.655 292.522 449.911C292.778 450.167 293.125 450.311 293.487 450.311H299.123C299.485 450.311 299.832 450.167 300.088 449.911C300.344 449.655 300.488 449.308 300.488 448.945C300.488 448.583 300.344 448.236 300.088 447.98C299.832 447.724 299.485 447.58 299.123 447.58Z" fill="#A6A6A6"/>
<path d="M330.379 446.792H321.503C320.932 446.792 320.385 447.019 319.981 447.423C319.577 447.826 319.351 448.374 319.351 448.945C319.351 449.516 319.577 450.063 319.981 450.467C320.385 450.87 320.932 451.097 321.503 451.097H330.379C330.95 451.097 331.497 450.87 331.901 450.467C332.304 450.063 332.531 449.516 332.531 448.945C332.531 448.374 332.304 447.826 331.901 447.423C331.497 447.019 330.95 446.792 330.379 446.792Z" fill="#C7C7C7"/>
<path d="M312.083 448.991C312.083 449.472 311.941 449.941 311.674 450.341C311.407 450.741 311.027 451.052 310.583 451.236C310.139 451.42 309.651 451.468 309.179 451.374C308.708 451.281 308.275 451.049 307.935 450.709C307.595 450.369 307.364 449.936 307.27 449.465C307.176 448.994 307.224 448.505 307.408 448.061C307.592 447.617 307.904 447.237 308.303 446.97C308.703 446.703 309.173 446.561 309.653 446.561C309.973 446.559 310.29 446.621 310.585 446.743C310.881 446.864 311.149 447.043 311.375 447.269C311.601 447.495 311.78 447.764 311.902 448.059C312.023 448.355 312.085 448.671 312.083 448.991Z" fill="#A6A6A6"/>
<path d="M323.459 448.991C323.459 449.261 323.379 449.525 323.229 449.75C323.079 449.974 322.865 450.149 322.616 450.253C322.366 450.356 322.092 450.383 321.827 450.33C321.562 450.278 321.319 450.148 321.128 449.957C320.937 449.766 320.807 449.522 320.754 449.257C320.701 448.993 320.728 448.718 320.832 448.469C320.935 448.219 321.11 448.006 321.335 447.856C321.559 447.706 321.823 447.626 322.093 447.626C322.455 447.626 322.803 447.769 323.059 448.026C323.315 448.282 323.459 448.629 323.459 448.991Z" fill="#A6A6A6"/>
<path d="M327.301 448.991C327.301 449.261 327.22 449.525 327.07 449.75C326.92 449.974 326.707 450.149 326.458 450.253C326.208 450.356 325.934 450.383 325.669 450.33C325.404 450.278 325.16 450.148 324.97 449.957C324.779 449.766 324.649 449.522 324.596 449.257C324.543 448.993 324.57 448.718 324.674 448.469C324.777 448.219 324.952 448.006 325.176 447.856C325.401 447.706 325.665 447.626 325.935 447.626C326.297 447.626 326.645 447.769 326.901 448.026C327.157 448.282 327.301 448.629 327.301 448.991Z" fill="#A6A6A6"/>
<path d="M331.142 448.991C331.142 449.261 331.062 449.525 330.912 449.75C330.762 449.974 330.549 450.149 330.299 450.253C330.05 450.356 329.775 450.383 329.51 450.33C329.246 450.278 329.002 450.148 328.811 449.957C328.62 449.766 328.49 449.522 328.438 449.257C328.385 448.993 328.412 448.718 328.515 448.469C328.619 448.219 328.794 448.006 329.018 447.856C329.243 447.706 329.507 447.626 329.777 447.626C330.139 447.626 330.486 447.769 330.742 448.026C330.999 448.282 331.142 448.629 331.142 448.991Z" fill="#A6A6A6"/>
<path d="M286.475 447.742H278.317V450.149H286.475V447.742Z" fill="#455A64"/>
<path d="M298.406 447.926H294.193C293.923 447.926 293.664 448.033 293.473 448.224C293.282 448.415 293.175 448.674 293.175 448.944C293.175 449.215 293.282 449.474 293.473 449.665C293.664 449.856 293.923 449.963 294.193 449.963H298.406C298.676 449.963 298.935 449.856 299.126 449.665C299.317 449.474 299.424 449.215 299.424 448.944C299.424 448.674 299.317 448.415 299.126 448.224C298.935 448.033 298.676 447.926 298.406 447.926Z" fill="#37474F"/>
<path d="M311.285 448.992C311.285 449.319 311.188 449.639 311.006 449.911C310.824 450.183 310.565 450.395 310.263 450.521C309.961 450.646 309.628 450.679 309.307 450.615C308.986 450.551 308.691 450.393 308.46 450.162C308.228 449.931 308.071 449.636 308.007 449.315C307.943 448.994 307.976 448.661 308.101 448.359C308.226 448.056 308.438 447.798 308.71 447.616C308.983 447.434 309.303 447.337 309.63 447.337C309.848 447.336 310.063 447.377 310.265 447.46C310.466 447.543 310.649 447.664 310.803 447.818C310.957 447.972 311.079 448.155 311.162 448.357C311.244 448.558 311.286 448.774 311.285 448.992Z" fill="#263238"/>
<path d="M323.065 448.992C323.062 449.247 322.959 449.492 322.777 449.671C322.595 449.851 322.349 449.952 322.093 449.952C321.839 449.952 321.594 449.851 321.414 449.671C321.234 449.491 321.133 449.246 321.133 448.992C321.133 448.736 321.234 448.49 321.413 448.308C321.593 448.126 321.837 448.023 322.093 448.02C322.35 448.023 322.596 448.126 322.777 448.308C322.959 448.489 323.062 448.735 323.065 448.992Z" fill="#455A64"/>
<path d="M325.935 449.906C326.466 449.906 326.896 449.476 326.896 448.945C326.896 448.415 326.466 447.985 325.935 447.985C325.405 447.985 324.975 448.415 324.975 448.945C324.975 449.476 325.405 449.906 325.935 449.906Z" fill="#FFC727"/>
<path d="M330.749 448.992C330.746 449.247 330.643 449.492 330.461 449.671C330.279 449.851 330.033 449.952 329.777 449.952C329.523 449.952 329.278 449.851 329.098 449.671C328.918 449.491 328.817 449.246 328.817 448.992C328.817 448.736 328.918 448.49 329.097 448.308C329.277 448.126 329.522 448.023 329.777 448.02C330.034 448.023 330.28 448.126 330.461 448.308C330.643 448.489 330.746 448.735 330.749 448.992Z" fill="white"/>
<path d="M322.59 448.992C322.59 449.124 322.538 449.25 322.445 449.344C322.351 449.437 322.225 449.49 322.093 449.49C321.961 449.49 321.834 449.437 321.741 449.344C321.648 449.25 321.595 449.124 321.595 448.992C321.595 448.86 321.648 448.733 321.741 448.64C321.834 448.547 321.961 448.494 322.093 448.494C322.225 448.494 322.351 448.547 322.445 448.64C322.538 448.733 322.59 448.86 322.59 448.992Z" fill="#263238"/>
<path d="M325.935 449.443C326.21 449.443 326.432 449.22 326.432 448.945C326.432 448.671 326.21 448.448 325.935 448.448C325.66 448.448 325.437 448.671 325.437 448.945C325.437 449.22 325.66 449.443 325.935 449.443Z" fill="#263238"/>
<path d="M330.286 448.992C330.283 449.125 330.228 449.251 330.133 449.344C330.037 449.437 329.91 449.489 329.777 449.489C329.645 449.489 329.518 449.437 329.425 449.344C329.331 449.25 329.279 449.124 329.279 448.992C329.279 448.859 329.331 448.731 329.424 448.636C329.517 448.541 329.644 448.486 329.777 448.483C329.912 448.483 330.041 448.536 330.137 448.632C330.232 448.727 330.286 448.857 330.286 448.992Z" fill="#263238"/>
<path d="M283.755 453.099H277.518V455.298H283.755V453.099Z" fill="#37474F"/>
<path d="M282.691 455.298H278.583V456.768H282.691V455.298Z" fill="#263238"/>
<path d="M336.431 455.298H332.323V456.768H336.431V455.298Z" fill="#263238"/>
<path d="M337.496 453.099H331.258V455.298H337.496V453.099Z" fill="#37474F"/>
<path d="M193.436 524.209C190.948 525.008 117.605 524.082 114.932 522.334C113.914 521.686 119.063 452.683 119.063 452.683L166.508 453.157L161.463 499.329C161.463 499.329 188.414 511.804 191.156 514.037C193.899 516.271 195.924 523.376 193.436 524.209Z" fill="#AD6359"/>
<path d="M194.246 525.169C191.631 526.026 117.571 525.331 114.747 523.503C113.659 522.82 115.221 498.392 115.221 498.265H161.035V499.075C161.035 499.075 189.502 512.128 192.395 514.477C195.288 516.826 196.861 524.336 194.246 525.169Z" fill="#FFC727"/>
<path d="M194.05 522.278C181.459 521.849 130.659 521.317 118.184 521.849C118.08 521.849 118.08 521.919 118.184 521.93C130.647 522.625 181.448 522.74 194.038 522.474C194.304 522.474 194.304 522.278 194.05 522.278Z" fill="#263238"/>
<path d="M166.404 498.448C161.452 497.476 155.388 498.182 151.569 501.677C151.419 501.804 151.569 502.013 151.777 501.966C156.524 500.484 161.416 499.514 166.37 499.073C166.452 499.078 166.534 499.049 166.596 498.994C166.657 498.939 166.695 498.861 166.699 498.778C166.704 498.695 166.676 498.614 166.62 498.552C166.565 498.49 166.487 498.453 166.404 498.448Z" fill="#263238"/>
<path d="M169.957 500.638C165.016 499.666 158.941 500.372 155.133 503.866C154.983 503.994 155.133 504.202 155.33 504.156C160.081 502.672 164.977 501.702 169.934 501.263C170.017 501.266 170.097 501.236 170.158 501.179C170.219 501.123 170.255 501.045 170.258 500.962C170.261 500.879 170.231 500.798 170.175 500.738C170.118 500.677 170.04 500.641 169.957 500.638Z" fill="#263238"/>
<path d="M173.509 502.824C168.568 501.852 162.504 502.558 158.686 506.053C158.535 506.192 158.686 506.4 158.894 506.342C163.64 504.858 168.532 503.888 173.486 503.449C173.569 503.452 173.65 503.422 173.711 503.366C173.771 503.31 173.807 503.231 173.81 503.148C173.813 503.066 173.783 502.985 173.727 502.924C173.67 502.863 173.592 502.827 173.509 502.824Z" fill="#263238"/>
<path d="M164.426 498.948H113.405C113.405 498.948 123.82 379.49 123.403 377.442C122.894 374.769 119.932 362.711 115.87 346.95C114.62 342.02 113.266 336.732 111.854 331.247C108.047 316.423 103.858 300.211 100.201 286.116C94.7164 264.998 90.4348 248.589 90.4348 248.589H133.679C133.679 248.589 138.724 264.558 145.077 285.341C155.423 319.131 169.251 365.627 170.617 376.933C172.815 395.159 164.426 498.948 164.426 498.948Z" fill="#37474F"/>
<path d="M162.169 490.246C154.369 490.084 156.614 490.014 148.815 489.945C144.996 489.945 119.943 489.69 116.413 490.281C116.332 490.281 116.332 490.419 116.413 490.443C119.978 491.033 145.031 490.813 148.815 490.767C156.614 490.697 154.369 490.639 162.169 490.466C162.192 490.458 162.212 490.443 162.226 490.424C162.241 490.404 162.248 490.38 162.248 490.356C162.248 490.331 162.241 490.308 162.226 490.288C162.212 490.268 162.192 490.253 162.169 490.246Z" fill="#263238"/>
<path d="M98.2917 254.42L106.23 282.436L113.983 310.509C116.564 319.859 119.052 329.244 121.54 338.629C124.028 348.014 126.481 357.399 128.772 366.842C129.316 369.214 129.929 371.574 130.346 373.97C130.473 374.572 130.554 375.196 130.67 375.798C130.67 376.134 130.728 376.504 130.67 376.817L130.601 377.731L130.323 381.353L129.166 395.864L126.851 424.898L124.537 453.92L122.072 482.931L124.005 453.874L126.053 424.828L128.24 395.76L129.316 381.237L129.594 377.603V376.701C129.594 376.411 129.594 376.18 129.594 375.902C129.49 375.324 129.409 374.745 129.281 374.143C128.818 371.829 128.24 369.422 127.696 367.061C123.148 348.211 118.08 329.464 113.162 310.694L98.2917 254.42Z" fill="#263238"/>
<path d="M132.638 248.565C129.629 271.79 118.751 310.371 114.597 341.963C104.842 303.683 90.4232 248.565 90.4232 248.565H132.638Z" fill="#263238"/>
<path d="M28.409 523.803C30.9085 524.578 92.5175 524.856 95.179 523.074C96.2089 522.414 96.5676 512.023 96.6486 499.455V499.062C96.6486 496.47 102.631 452.959 102.631 452.959L56.089 453.92L50.7081 499.618V500.393C50.7081 500.393 33.3502 511.282 30.6076 513.562C27.8651 515.841 25.8978 523.051 28.409 523.803Z" fill="#AD6359"/>
<path d="M25.3657 525.169C27.981 526.026 94.2303 525.331 97.1117 523.503C98.1995 522.82 96.6373 498.392 96.6373 498.265H50.7661V499.075C50.7661 499.075 30.0871 512.128 27.2288 514.477C24.3705 516.826 22.7505 524.336 25.3657 525.169Z" fill="#FFC727"/>
<path d="M25.5625 522.278C38.1527 521.849 81.1077 521.317 93.617 521.849C93.7212 521.849 93.7212 521.919 93.617 521.93C81.154 522.625 38.1527 522.74 25.5625 522.474C25.2963 522.474 25.2963 522.278 25.5625 522.278Z" fill="#263238"/>
<path d="M48.4746 499.631C53.3349 498.277 59.4333 498.473 63.5182 501.69C63.6686 501.818 63.5182 502.038 63.333 502.003C58.4997 500.893 53.5608 500.307 48.6019 500.256C48.526 500.257 48.4519 500.232 48.3925 500.185C48.3332 500.137 48.2924 500.071 48.2772 499.996C48.2621 499.922 48.2735 499.844 48.3096 499.778C48.3457 499.711 48.4041 499.659 48.4746 499.631Z" fill="#263238"/>
<path d="M45.1303 502.084C49.979 500.73 56.089 500.927 60.1739 504.155C60.3359 504.271 60.1739 504.502 59.9887 504.456C55.112 503.348 50.1311 502.762 45.1303 502.709C45.0619 502.69 45.0015 502.649 44.9585 502.593C44.9155 502.536 44.8922 502.467 44.8922 502.396C44.8922 502.325 44.9155 502.256 44.9585 502.2C45.0015 502.144 45.0619 502.103 45.1303 502.084Z" fill="#263238"/>
<path d="M41.7286 504.538C46.5888 503.184 52.6872 503.38 56.7721 506.597C56.9341 506.725 56.7721 506.945 56.5985 506.91C51.7495 505.799 46.7955 505.209 41.8211 505.151C41.7449 505.153 41.6705 505.127 41.6119 505.078C41.5534 505.029 41.5148 504.961 41.5034 504.885C41.4921 504.81 41.5087 504.733 41.5501 504.669C41.5916 504.605 41.6551 504.558 41.7286 504.538Z" fill="#263238"/>
<path d="M132.638 248.565C132.638 248.565 126.076 288.523 125.625 289.808C125.625 289.808 123.195 290.965 118.798 293.002L99.6692 499.26L48.394 499.468L76.6758 248.565H132.638Z" fill="#37474F"/>
<path d="M97.9098 490.14C90.0756 490.012 92.3321 489.932 84.4979 489.897C80.656 489.897 55.4755 489.758 51.8882 490.371C51.8072 490.371 51.8188 490.51 51.8882 490.533C55.4755 491.112 80.6676 490.776 84.4979 490.73C92.3321 490.614 90.0756 490.568 97.9098 490.371C97.9405 490.371 97.9699 490.359 97.9916 490.337C98.0133 490.316 98.0255 490.286 98.0255 490.256C98.0255 490.225 98.0133 490.195 97.9916 490.174C97.9699 490.152 97.9405 490.14 97.9098 490.14Z" fill="#263238"/>
<path d="M127.765 288.57C122.663 290.694 117.757 293.261 113.104 296.242C113.075 296.267 113.055 296.301 113.047 296.339C113.04 296.377 113.045 296.416 113.062 296.451C113.079 296.485 113.108 296.513 113.142 296.53C113.177 296.546 113.217 296.551 113.254 296.543C118.207 294.136 123.252 291.821 128.055 289.148C128.126 289.107 128.179 289.04 128.203 288.961C128.227 288.882 128.22 288.796 128.183 288.723C128.146 288.649 128.082 288.592 128.004 288.563C127.927 288.535 127.841 288.537 127.765 288.57Z" fill="#263238"/>
<path d="M125.879 265.68C125.069 270.459 124.618 275.32 124.086 280.133C123.947 281.291 123.808 282.448 123.692 283.605C123.657 284.671 123.371 285.713 122.859 286.648C121.818 288.257 119.955 288.963 118.23 289.75C118.034 289.831 118.115 290.143 118.334 290.074C120.15 289.637 121.825 288.75 123.206 287.493C124.745 285.873 124.699 283.408 124.93 281.314C125.622 276.138 126.009 270.925 126.088 265.703C126.134 265.576 125.891 265.553 125.879 265.68Z" fill="#263238"/>
<path d="M120.059 267.139C119.885 270.61 119.503 274.082 119.214 277.473C119.075 279.162 118.96 280.863 118.855 282.564C118.751 284.265 118.543 286.036 118.601 287.795C118.601 287.822 118.612 287.849 118.631 287.868C118.651 287.888 118.677 287.899 118.705 287.899C118.733 287.899 118.759 287.888 118.779 287.868C118.798 287.849 118.809 287.822 118.809 287.795C119.098 286.152 119.133 284.451 119.272 282.796C119.411 281.141 119.527 279.324 119.631 277.577C119.816 274.105 119.92 270.634 120.232 267.162C120.244 267.035 120.059 267.035 120.059 267.139Z" fill="#263238"/>
<path d="M117.744 298.115L115.002 321.572L112.143 345.017L106.242 391.871L100.086 438.703L96.9148 462.101L93.64 485.488L96.3825 462.032L99.2523 438.587L105.154 391.732L111.299 344.901L114.469 321.502L117.744 298.115Z" fill="#263238"/>
<path d="M117.652 201.352C130.381 212.438 153.988 227.62 163.488 229.911C174.053 232.469 193.714 206.316 206.686 190.277C209.267 187.083 185.764 165.513 183.184 169.054C176.437 178.312 163.025 199.141 160.456 199.373C158.35 199.581 137.903 193.182 126.4 189.444C108.082 183.438 108.776 193.483 117.652 201.352Z" fill="#AD6359"/>
<path d="M218.282 176.321C215.643 182.107 205.552 192.013 202.197 193.448C198.841 194.883 181.552 178.289 181.946 174.574C182.339 170.859 192.777 151.858 198.621 148.884C204.465 145.91 221.024 170.258 218.282 176.321Z" fill="#AD6359"/>
<path d="M183.161 171.021C183.386 165.837 182.852 160.648 181.576 155.619C179.851 149.682 176.611 141.061 179.77 140.008C186.251 137.856 194.316 159.368 194.316 159.368C194.316 159.368 196.353 169.424 190.116 172.097C188.97 172.576 187.714 172.73 186.486 172.54C185.259 172.35 184.108 171.824 183.161 171.021Z" fill="#AD6359"/>
<path d="M190.555 155.26C192.557 158.003 194.71 156.221 194.71 156.221C194.71 156.221 190.15 160.988 191.909 164.321C193.668 167.654 198.042 164.448 198.366 164.228C198.123 164.483 194.05 168.973 196.156 172.132C198.262 175.291 202.278 171.565 202.532 171.322C202.382 171.623 200.461 175.777 202.613 177.802C206.305 181.274 211.5 170.859 215.458 169.702C215.458 169.702 218.166 176.182 218.282 176.356C218.282 176.356 223.431 166.496 221.591 161.254C221.335 160.488 220.825 159.832 220.145 159.394C219.466 158.956 218.657 158.764 217.853 158.847C217.853 158.847 219.855 155.85 218.27 153.316C217.46 152.02 214.648 152.159 214.648 152.159C215.076 151.463 215.302 150.662 215.302 149.844C215.302 149.027 215.076 148.226 214.648 147.53C213.421 145.794 210.795 146.211 210.795 146.211C210.795 146.211 223.107 135.009 220.584 132.035C216.257 126.92 193.761 151.603 190.821 151.36C189.305 151.222 189.687 154.057 190.555 155.26Z" fill="#AD6359"/>
<path d="M210.32 146.2C210.378 146.2 210.32 146.084 210.32 146.108C204.133 147.831 198.619 151.399 194.513 156.337C194.385 156.488 194.316 157.494 194.513 157.263C198.25 153.016 204.384 148.954 210.32 146.2Z" fill="#263238"/>
<path d="M214.706 152.055C214.775 152.055 214.706 151.928 214.706 151.94C207.908 153.915 202.04 158.253 198.158 164.171C198.03 164.38 198.158 164.704 198.297 164.472C201.062 160.572 209.348 154.52 214.706 152.055Z" fill="#263238"/>
<path d="M202.417 171.82C206.258 166.034 211.558 162.134 217.587 158.871C217.668 158.871 217.587 158.72 217.529 158.744C214.139 159.53 210.517 162.018 207.855 164.182C205.35 166.151 203.404 168.74 202.208 171.693C202.162 171.808 202.324 171.947 202.417 171.82Z" fill="#263238"/>
<path d="M194.594 156.221C194.443 156.406 195.195 156.406 195.057 156.614C193.494 158.755 190.879 162.748 192.349 164.414C193.506 165.745 196.121 165.097 196.978 164.414L199.292 162.794L197.718 165.108C197.015 166.127 196.48 167.252 196.133 168.441C195.945 168.986 195.874 169.564 195.924 170.138C195.974 170.712 196.144 171.269 196.422 171.774C196.685 172.239 197.1 172.599 197.598 172.793C198.095 172.987 198.645 173.003 199.153 172.838C200.287 172.459 201.303 171.793 202.104 170.906L204.418 168.533L203.018 171.507C202.637 172.339 202.357 173.213 202.185 174.111C201.994 174.959 202.054 175.843 202.359 176.657C202.514 177.016 202.766 177.326 203.087 177.55C203.408 177.775 203.784 177.906 204.175 177.93C205.056 177.843 205.894 177.51 206.594 176.969C208.122 175.818 209.557 174.549 210.887 173.174C211.581 172.503 212.276 171.831 213.016 171.195C213.707 170.503 214.54 169.97 215.458 169.633C214.583 170.064 213.798 170.657 213.144 171.38C212.472 172.075 211.836 172.792 211.188 173.521C209.927 175.015 208.529 176.386 207.01 177.617C206.198 178.299 205.205 178.73 204.152 178.856C203.572 178.862 203.002 178.699 202.513 178.386C202.024 178.074 201.636 177.626 201.398 177.097C200.987 176.101 200.882 175.005 201.097 173.949C201.26 172.941 201.56 171.96 201.988 171.033L202.891 171.635C201.96 172.702 200.762 173.501 199.419 173.949C198.66 174.194 197.839 174.157 197.105 173.845C196.401 173.534 195.808 173.018 195.404 172.364C195.049 171.727 194.834 171.022 194.772 170.296C194.71 169.57 194.803 168.839 195.045 168.152C195.439 166.844 196.049 165.612 196.85 164.506L197.545 165.201C196.387 165.976 193.541 167.029 191.458 165.201C189.178 162.435 193.703 157.135 194.594 156.221Z" fill="#263238"/>
<path d="M179.666 172.098L208.133 195.925C208.133 195.925 174.366 233.221 165.247 231.439C156.129 229.657 128.796 213.873 115.87 201.19C102.944 188.507 114.284 185.499 123.565 188.056C132.846 190.613 158.917 198.806 160.237 198.76C162.771 198.656 179.666 172.098 179.666 172.098Z" fill="#FFC727"/>
<path d="M200.993 199.233C199.952 198.423 199.003 197.428 198.031 196.537C197.059 195.646 196.029 194.766 195.022 193.898C193.07 192.224 191.141 190.539 189.236 188.842C185.302 185.37 181.437 181.898 177.328 178.67C177.328 178.67 177.19 178.67 177.236 178.774C180.82 182.56 184.618 186.138 188.611 189.49C190.59 191.202 192.58 192.892 194.605 194.546C195.624 195.391 196.665 196.224 197.73 197.023C198.794 197.821 199.928 198.539 200.935 199.337C200.97 199.453 201.074 199.303 200.993 199.233Z" fill="#263238"/>
<path opacity="0.1" d="M115.881 201.178C125.336 210.436 142.497 221.406 154.613 227.296L113.66 187.732C109.193 189.097 107.793 193.251 115.881 201.178Z" fill="black"/>
<path d="M145.922 273.491C144.904 274.799 71.642 280.099 71.237 279.671C70.0798 278.514 83.9661 204.048 97.4821 188.16C101.474 183.462 115.129 185.012 116.726 186.181C120.938 189.271 124.827 195.369 128.055 203.296C134.582 219.15 146.813 272.346 145.922 273.491Z" fill="white"/>
<path d="M101.347 185.881C101.347 185.881 110.362 223.513 110.362 233.673C110.362 249.874 109.274 282.981 109.274 282.981H67.5107C67.5107 282.981 76.2823 246.876 77.1965 242.653C78.1106 238.429 86.0027 212.982 86.0027 212.982C86.0027 212.982 93.9989 185.881 101.347 185.881Z" fill="#FFC727"/>
<path d="M116.726 185.881C121.042 195.191 124.576 204.845 127.291 214.741C131.284 229.843 138.586 281.858 138.586 281.858L148.815 274.383C148.815 274.383 134.767 220.064 130.393 208.758C126.018 197.453 120.244 187.478 119.804 187.2C118.875 186.563 117.829 186.115 116.726 185.881Z" fill="#FFC727"/>
<path d="M115.615 196.457C116.182 202.995 116.865 209.522 117.571 216.048C118.277 222.575 119.087 229.078 119.885 235.593C120.684 242.108 121.528 248.612 122.42 255.115L123.785 264.859C124.283 268.099 124.734 271.351 125.266 274.591C125 271.316 124.653 268.053 124.352 264.789L123.311 255C122.605 248.485 121.795 241.97 120.996 235.455C120.198 228.94 119.353 222.436 118.462 215.933C117.571 209.429 116.657 202.937 115.615 196.457Z" fill="#263238"/>
<path d="M113.254 217.032C113.279 217.276 113.375 217.508 113.531 217.697C113.687 217.886 113.896 218.025 114.131 218.095C114.366 218.166 114.616 218.165 114.851 218.093C115.085 218.02 115.293 217.88 115.448 217.69C115.602 217.499 115.697 217.267 115.719 217.023C115.742 216.779 115.691 216.533 115.574 216.318C115.457 216.102 115.278 215.926 115.061 215.812C114.844 215.699 114.598 215.652 114.354 215.678C114.029 215.713 113.731 215.875 113.525 216.129C113.319 216.382 113.222 216.707 113.254 217.032Z" fill="#263238"/>
<path d="M115.048 229.577C115.058 229.743 115.101 229.905 115.175 230.053C115.25 230.202 115.353 230.335 115.479 230.443C115.606 230.551 115.752 230.632 115.911 230.682C116.069 230.732 116.236 230.75 116.402 230.734C116.574 230.731 116.743 230.693 116.9 230.622C117.056 230.55 117.196 230.447 117.31 230.319C117.424 230.19 117.511 230.039 117.563 229.876C117.616 229.712 117.634 229.539 117.616 229.368C117.599 229.197 117.545 229.031 117.46 228.882C117.375 228.733 117.26 228.603 117.121 228.5C116.983 228.398 116.825 228.326 116.657 228.288C116.49 228.25 116.316 228.248 116.147 228.281C115.833 228.316 115.544 228.469 115.34 228.71C115.136 228.951 115.031 229.261 115.048 229.577Z" fill="#263238"/>
<path d="M116.876 242.12C116.899 242.359 116.992 242.586 117.143 242.773C117.294 242.96 117.497 243.099 117.726 243.171C117.955 243.244 118.2 243.248 118.431 243.183C118.663 243.117 118.87 242.985 119.027 242.803C119.183 242.621 119.283 242.397 119.314 242.159C119.345 241.921 119.305 241.678 119.199 241.463C119.093 241.247 118.926 241.067 118.719 240.945C118.512 240.823 118.274 240.765 118.034 240.778C117.868 240.786 117.706 240.828 117.558 240.901C117.409 240.974 117.277 241.076 117.168 241.202C117.06 241.327 116.979 241.473 116.928 241.631C116.878 241.789 116.861 241.955 116.876 242.12Z" fill="#263238"/>
<path d="M118.647 254.675C118.672 254.919 118.768 255.151 118.924 255.34C119.08 255.529 119.289 255.668 119.524 255.738C119.759 255.809 120.009 255.808 120.244 255.736C120.478 255.664 120.686 255.523 120.841 255.333C120.995 255.142 121.09 254.91 121.112 254.666C121.135 254.422 121.084 254.176 120.967 253.961C120.85 253.745 120.671 253.569 120.454 253.456C120.237 253.342 119.99 253.295 119.747 253.321C119.585 253.337 119.428 253.385 119.286 253.462C119.143 253.539 119.017 253.643 118.914 253.769C118.812 253.895 118.736 254.04 118.69 254.195C118.644 254.351 118.63 254.514 118.647 254.675Z" fill="#263238"/>
<path d="M120.441 267.22C120.5 267.523 120.671 267.793 120.919 267.977C121.168 268.161 121.476 268.246 121.784 268.214C122.091 268.182 122.376 268.036 122.581 267.805C122.787 267.574 122.898 267.274 122.894 266.965C122.835 266.662 122.664 266.392 122.415 266.208C122.167 266.024 121.859 265.939 121.551 265.971C121.244 266.003 120.959 266.149 120.754 266.38C120.548 266.611 120.437 266.911 120.441 267.22Z" fill="#263238"/>
<path d="M93.6936 221.882L87.0421 278.589L130.601 283.698L137.253 226.991L93.6936 221.882Z" fill="#455A64"/>
<path d="M104.548 226.578L125.192 228.974L125.918 222.72L105.273 220.324L104.548 226.578Z" fill="#A6A6A6"/>
<path d="M109.979 220.861L112.525 221.15L112.861 218.269L119.04 218.986L118.705 221.868L121.251 222.169L121.852 216.903L110.558 215.596L109.979 220.861Z" fill="#A6A6A6"/>
<path d="M91.4185 192.43C68.4829 214.787 41.1616 257.487 50.3844 264.535C58.8088 270.969 89.729 274.845 102.771 275.03C106.612 275.088 106.439 245.21 102.342 245.152C97.378 245.071 84.9845 243.751 84.51 243.601C83.5033 243.265 94.6818 210.32 99.1833 200.114C104.749 187.466 99.4494 184.596 91.4185 192.43Z" fill="#AD6359"/>
<path d="M141.178 248.171C141.43 249.066 141.407 250.015 141.112 250.897C140.816 251.778 140.263 252.55 139.523 253.112C140.734 254.13 141.552 255.538 141.837 257.093C142.231 259.859 138.065 261.722 138.065 261.722C139.12 263.046 139.746 264.661 139.858 266.351C139.963 269.035 136.028 271.477 136.028 271.477C136.319 273.212 135.978 274.994 135.068 276.499C132.476 280.434 125.289 280.249 120.718 280.179C116.148 280.11 103.245 275.643 100.699 275.041L100.884 245.695C100.884 245.695 121.471 240.163 126.828 241.008C131.423 241.621 140.09 244.781 141.178 248.171Z" fill="#AD6359"/>
<path d="M139.372 252.65C134.744 250.741 129.814 250.336 124.907 249.584C124.89 249.59 124.874 249.602 124.864 249.618C124.853 249.633 124.847 249.652 124.847 249.671C124.847 249.69 124.853 249.708 124.864 249.724C124.874 249.739 124.89 249.751 124.907 249.757C129.791 250.405 134.477 252.072 139.326 252.87C139.352 252.869 139.377 252.86 139.397 252.843C139.416 252.827 139.43 252.804 139.435 252.778C139.441 252.753 139.437 252.727 139.426 252.704C139.415 252.68 139.396 252.662 139.372 252.65Z" fill="#263238"/>
<path d="M138.041 261.294C136.949 260.958 135.816 260.771 134.674 260.738C133.517 260.622 132.267 260.53 131.063 260.449C128.649 260.302 126.23 260.214 123.808 260.183C123.704 260.183 123.669 260.345 123.808 260.356C126.215 260.507 128.622 260.692 131.017 260.946C132.174 261.074 133.412 261.213 134.616 261.363C135.737 261.575 136.878 261.66 138.018 261.618C138.052 261.608 138.082 261.587 138.104 261.56C138.126 261.532 138.139 261.499 138.142 261.464C138.144 261.428 138.136 261.393 138.118 261.363C138.1 261.333 138.073 261.308 138.041 261.294Z" fill="#263238"/>
<path d="M135.993 271.373C135.001 271.089 133.969 270.972 132.938 271.026L129.629 270.876C127.43 270.76 125.232 270.644 123.033 270.447C122.929 270.447 122.906 270.609 123.033 270.621C125.266 270.829 127.488 271.061 129.722 271.257L133.008 271.512C134.003 271.692 135.022 271.692 136.017 271.512L135.993 271.373Z" fill="#263238"/>
<path d="M117.617 302.027C117.627 302.012 117.633 301.993 117.633 301.975C117.633 301.956 117.627 301.938 117.617 301.923C117.602 301.912 117.583 301.907 117.565 301.907C117.546 301.907 117.528 301.912 117.513 301.923C117.513 302.073 117.397 302.224 117.328 302.374C117.323 302.397 117.326 302.421 117.336 302.442C117.347 302.463 117.364 302.48 117.386 302.49C117.396 302.493 117.407 302.495 117.419 302.494C117.43 302.492 117.44 302.489 117.45 302.484C117.46 302.478 117.469 302.471 117.475 302.462C117.482 302.453 117.487 302.443 117.49 302.432L117.617 302.027Z" fill="#263238"/>
<path d="M101.949 243.554L98.2803 278.999C98.2803 278.999 51.0899 271.361 47.7341 262.682C43.6492 252.082 71.5607 211.048 86.5001 196.283C101.439 181.517 105.015 187.488 99.4144 201.594C93.8135 215.7 85.3545 241.575 85.528 242.2C85.7016 242.825 101.949 243.554 101.949 243.554Z" fill="#FFC727"/>
<path d="M91.7999 276.221C91.8809 274.902 92.1586 273.56 92.3322 272.252C92.5058 270.944 92.6562 269.602 92.7951 268.271C93.0574 265.71 93.3351 263.153 93.6283 260.599C94.2069 255.415 94.9128 250.184 95.2252 245.023C95.2252 245.005 95.2179 244.987 95.2049 244.974C95.1918 244.961 95.1742 244.954 95.1558 244.954C95.1374 244.954 95.1197 244.961 95.1067 244.974C95.0937 244.987 95.0863 245.005 95.0863 245.023C94.0138 250.127 93.241 255.289 92.772 260.483C92.4865 263.075 92.2358 265.675 92.0198 268.283C91.9041 269.602 91.8115 270.933 91.7536 272.264C91.6958 273.594 91.7536 274.937 91.6495 276.244C91.6148 276.325 91.7883 276.337 91.7999 276.221Z" fill="#263238"/>
<path d="M58.1371 247.361C61.046 246.073 64.0477 245.005 67.1169 244.167C66.6193 244.167 66.1333 244.237 65.6357 244.306C64.4785 244.445 63.4486 244.619 62.3608 244.85C62.2914 244.85 62.2451 244.746 62.3608 244.723C63.4318 244.349 64.5424 244.101 65.6704 243.982C66.2259 243.982 66.8276 243.901 67.3368 243.89H68.0311C73.9201 242.324 80.0305 241.761 86.1065 242.223C86.131 242.223 86.1546 242.233 86.1719 242.25C86.1893 242.268 86.199 242.291 86.199 242.316C86.199 242.34 86.1893 242.364 86.1719 242.381C86.1546 242.399 86.131 242.408 86.1065 242.408C76.5899 242.48 67.1564 244.186 58.2181 247.454L58.1371 247.361Z" fill="#263238"/>
<path d="M91.2102 242.93C89.7521 242.93 88.3056 242.849 86.8476 242.71C86.4579 242.682 86.0711 242.624 85.6904 242.537C85.583 242.513 85.4783 242.478 85.3779 242.433C85.3779 242.433 85.3779 242.433 85.2506 242.305C85.2294 242.241 85.2294 242.172 85.2506 242.109C85.2506 242.028 85.2506 241.993 85.2506 241.935L85.3548 241.379C85.5168 240.65 85.7135 239.956 85.8987 239.25C86.6856 236.438 87.6113 233.684 88.5023 230.907C89.3934 228.13 90.3886 225.41 91.3953 222.679C92.4021 219.948 93.432 217.24 94.566 214.579C93.7791 217.379 92.9112 220.157 92.0318 222.922L89.324 231.208L86.5235 239.459C86.3037 240.153 86.0722 240.836 85.8755 241.53C85.826 241.693 85.7874 241.859 85.7598 242.027C85.7567 242.062 85.7567 242.097 85.7598 242.132C85.7598 242.132 85.7598 242.132 85.7598 242.062L85.9449 242.143C86.269 242.236 86.6393 242.294 86.9864 242.363C88.3288 242.571 89.7753 242.733 91.2102 242.93Z" fill="#263238"/>
<path d="M94.7627 218.2C94.4736 218.937 94.0842 219.63 93.6055 220.26C93.1658 220.907 92.6358 221.488 92.0317 221.984C92.3208 221.248 92.7103 220.555 93.1889 219.925C93.6287 219.278 94.1586 218.697 94.7627 218.2Z" fill="#263238"/>
<path d="M87.229 276.962C84.2782 276.627 81.3736 276.037 78.4806 275.423C77.0341 275.076 75.5992 274.741 74.1759 274.336C72.7525 273.931 71.3292 273.514 69.9406 272.982C72.8451 273.56 75.7265 274.243 78.6079 274.856C81.4893 275.47 84.3707 276.152 87.229 276.962Z" fill="#263238"/>
<path d="M116.09 195.681C112.433 197.799 105.027 192.916 102.042 188.148C101.845 187.824 101.556 174.389 101.394 171.681C101.394 171.126 118.624 174.817 118.624 174.817C117.851 178.256 117.501 181.777 117.583 185.301C117.609 185.692 117.671 186.079 117.768 186.459C117.768 186.459 117.768 186.574 117.768 186.644C118.277 188.68 117.953 194.605 116.09 195.681Z" fill="#AD6359"/>
<path d="M117.802 186.597C117.23 186.709 116.65 186.771 116.067 186.782C107.145 187.118 103.338 176.367 102.042 171.657C105.189 171.947 118.624 174.805 118.624 174.805C117.85 178.252 117.504 181.781 117.594 185.312C117.609 185.703 117.668 186.091 117.768 186.47C117.768 186.47 117.802 186.527 117.802 186.597Z" fill="#263238"/>
<path d="M98.6277 150.702C96.7183 156.719 99.6923 174.181 103.939 178.116C110.084 183.821 120.256 184.48 125.139 177.063C129.86 169.877 125.579 147.184 120.834 143.597C113.833 138.32 101.451 141.826 98.6277 150.702Z" fill="#AD6359"/>
<path d="M113.648 161.463C113.648 161.463 113.567 161.532 113.579 161.578C113.81 162.736 113.879 164.136 112.873 164.703C114.169 164.321 114.053 162.539 113.648 161.463Z" fill="#263238"/>
<path d="M112.398 160.41C110.477 160.584 110.963 164.402 112.734 164.24C114.504 164.078 114.007 160.271 112.398 160.41Z" fill="#263238"/>
<path d="M120.741 160.307C120.741 160.307 120.845 160.307 120.845 160.399C120.961 161.557 121.285 162.934 122.408 163.2V163.258C121.077 163.246 120.66 161.452 120.741 160.307Z" fill="#263238"/>
<path d="M121.644 158.94C123.53 158.558 124.155 162.412 122.408 162.713C120.66 163.013 120.059 159.264 121.644 158.94Z" fill="#263238"/>
<path d="M111.021 158.258C111.553 158.177 112.028 158.003 112.548 157.876C113.108 157.812 113.632 157.569 114.041 157.182C114.15 157.039 114.209 156.864 114.209 156.684C114.209 156.504 114.15 156.33 114.041 156.187C113.771 155.947 113.442 155.783 113.088 155.714C112.734 155.645 112.368 155.672 112.028 155.793C111.296 155.933 110.646 156.347 110.211 156.95C110.13 157.087 110.088 157.243 110.09 157.401C110.091 157.56 110.136 157.715 110.22 157.849C110.303 157.984 110.422 158.093 110.563 158.165C110.704 158.237 110.863 158.269 111.021 158.258Z" fill="#263238"/>
<path d="M122.963 156.649C122.435 156.678 121.906 156.678 121.378 156.649C120.826 156.751 120.256 156.665 119.758 156.406C119.616 156.294 119.515 156.137 119.471 155.961C119.427 155.786 119.442 155.6 119.515 155.434C119.706 155.13 119.976 154.882 120.295 154.718C120.615 154.553 120.973 154.477 121.332 154.497C122.065 154.419 122.801 154.622 123.391 155.064C123.541 155.165 123.656 155.311 123.719 155.48C123.782 155.65 123.791 155.835 123.744 156.009C123.696 156.184 123.596 156.34 123.456 156.454C123.316 156.569 123.144 156.637 122.963 156.649Z" fill="#263238"/>
<path d="M114.47 172.341C114.794 172.584 115.118 172.931 115.557 172.908C115.993 172.845 116.411 172.691 116.784 172.456C116.784 172.456 116.865 172.456 116.842 172.456C116.705 172.711 116.501 172.923 116.252 173.07C116.003 173.216 115.719 173.292 115.43 173.29C115.18 173.26 114.945 173.156 114.755 172.991C114.565 172.826 114.429 172.607 114.365 172.364C114.331 172.341 114.423 172.306 114.47 172.341Z" fill="#263238"/>
<path d="M115.268 168.638C115.627 169.07 116.071 169.422 116.573 169.673C117.075 169.924 117.623 170.068 118.184 170.096C118.673 170.127 119.164 170.088 119.642 169.981C119.737 169.969 119.83 169.945 119.92 169.911L120.174 169.842C120.236 169.821 120.289 169.78 120.325 169.726C120.361 169.671 120.377 169.606 120.371 169.541C120.376 169.499 120.376 169.456 120.371 169.414V169.309C120.29 168.395 120.024 166.995 120.024 166.995C120.383 167.122 122.176 167.666 122.084 167.192C121.463 163.097 120.427 159.077 118.994 155.192C118.982 155.167 118.963 155.148 118.938 155.137C118.914 155.125 118.886 155.123 118.86 155.13C118.834 155.137 118.811 155.152 118.795 155.174C118.78 155.196 118.772 155.223 118.774 155.25C119.329 159.034 120.545 162.702 121.158 166.497C120.521 166.292 119.859 166.179 119.191 166.162C119.063 166.162 119.746 168.812 119.746 169.228C119.01 169.398 118.248 169.418 117.504 169.287C116.761 169.156 116.051 168.876 115.418 168.465C115.268 168.465 115.187 168.557 115.268 168.638Z" fill="#263238"/>
<path d="M119.04 169.737C118.587 170.429 117.966 170.994 117.235 171.38C116.826 171.567 116.372 171.632 115.927 171.565C114.955 171.392 114.863 170.524 114.978 169.76C115.044 169.362 115.156 168.974 115.314 168.603C116.405 169.365 117.709 169.762 119.04 169.737Z" fill="#263238"/>
<path d="M117.235 171.38C116.826 171.567 116.372 171.632 115.927 171.565C114.955 171.391 114.863 170.524 114.978 169.76C115.482 169.735 115.979 169.882 116.389 170.176C116.799 170.471 117.097 170.895 117.235 171.38Z" fill="#FF99BA"/>
<path d="M99.414 167.353C103.024 166.763 102.735 164.125 103.036 160.815C103.337 157.506 103.175 150.69 106.947 148.329C110.72 145.968 113.809 148.78 116.714 148.329C118.635 148.028 118.855 146.015 120.417 145.737C121.979 145.459 124.328 149.764 124.328 149.764C123.298 146.813 122.072 143.341 120.857 142.393C113.914 137.104 99.0668 141.826 96.2317 150.713C95.1324 154.115 98.0254 161.151 99.414 167.353Z" fill="#263238"/>
<path d="M102.446 165.236C102.446 165.236 98.4656 159.635 95.9197 161.058C93.3739 162.482 96.3942 170.628 99.3913 171.716C99.7678 171.884 100.174 171.974 100.586 171.981C100.999 171.987 101.408 171.91 101.789 171.755C102.171 171.599 102.517 171.368 102.807 171.075C103.097 170.782 103.325 170.433 103.476 170.05L102.446 165.236Z" fill="#AD6359"/>
<path d="M96.8452 163.373C96.8452 163.373 96.8452 163.373 96.8452 163.454C98.9628 164.287 100.085 166.231 100.872 168.245C100.75 168.035 100.583 167.855 100.385 167.716C100.186 167.577 99.9593 167.483 99.7206 167.44C99.482 167.397 99.2368 167.407 99.0021 167.468C98.7674 167.529 98.5487 167.64 98.3611 167.793C98.3611 167.793 98.3611 167.921 98.3611 167.909C98.7297 167.788 99.127 167.784 99.498 167.898C99.8691 168.012 100.196 168.238 100.432 168.545C100.827 169.063 101.165 169.622 101.439 170.212C101.532 170.397 101.879 170.293 101.798 170.073C101.833 167.354 99.7266 163.616 96.8452 163.373Z" fill="#263238"/>
<path d="M117.617 184.885L114.562 194.756L101.694 183.659L98.6509 187.813C98.6509 187.813 111.855 206.051 111.855 205.171L115.106 196.619L121.262 201.873L119.608 187.535L117.617 184.885Z" fill="white"/>
<path d="M120.857 194.732C120.51 192.417 120.221 189.987 119.758 187.65C119.758 187.569 119.608 187.546 119.596 187.65C119.307 189.964 120.753 199.002 120.869 201.177C120.614 200.946 115.187 196.549 115.083 196.653C114.342 198.03 111.947 204.256 111.797 204.823C109.702 201.93 101.752 191.422 99.3336 188.714C99.2642 188.645 99.1485 188.714 99.2064 188.807C101.093 191.897 111.646 206.061 111.785 206.003C113.072 203.048 114.204 200.027 115.176 196.954C116.113 197.937 121.633 202.913 121.621 202.566C121.507 199.943 121.252 197.328 120.857 194.732Z" fill="#263238"/>
</svg>
