<svg width="400" height="457" viewBox="0 0 400 457" fill="none" xmlns="http://www.w3.org/2000/svg">
<path d="M75.7812 274.221C3.72819 315.82 3.73801 383.262 75.7812 424.852C147.824 466.441 264.636 466.451 336.679 424.852C408.722 383.252 408.722 315.82 336.679 274.221C264.636 232.622 147.864 232.632 75.7812 274.221Z" fill="#F5F5F5"/>
<path d="M97.4245 345.372C98.9251 347.505 100.696 349.434 102.693 351.111C109.642 357.085 117.848 361.414 126.701 363.777C135.403 366.103 144.302 365.455 152.131 370.576C157.164 373.873 161.697 377.856 166.652 381.271C175.207 387.157 184.116 392.622 194.045 395.86C199.5 397.636 203.306 397.724 209.007 397.537C212.686 397.42 216.375 397.194 220.005 397.91C228.109 399.529 234.574 405.053 240.942 409.939C247.751 415.178 254.305 418.945 262.713 420.966C269.227 422.536 292.843 424.155 290.714 412.058C290.184 409.056 287.613 406.907 285.21 405.023C279.166 402.002 273.436 395.821 268.089 391.651C262.968 387.648 260.113 382.644 256.316 377.366C253.196 373.039 250.037 368.673 246.053 365.112C237.802 357.9 226.49 353.064 216.983 347.52C206.25 341.261 195.457 335.086 184.606 328.997C172.44 322.129 159.441 315.202 145.479 315.624C141.038 315.911 136.658 316.805 132.46 318.283C127.849 319.735 123.453 321.55 118.636 322.335C113.436 323.189 107.952 323.149 103.115 325.494C98.278 327.839 94.5792 332.843 94.8245 338.19C95.0178 340.777 95.9171 343.261 97.4245 345.372Z" fill="#E0E0E0"/>
<path d="M316.968 73.6232C317.349 73.0351 317.877 72.5577 318.501 72.2391C319.124 71.9204 319.821 71.7718 320.52 71.8081L340.554 74.8496C341.231 75.0186 341.851 75.365 342.349 75.853C342.847 76.341 343.207 76.9531 343.39 77.6261L360.814 122.129C361.425 123.98 361.591 125.948 361.298 127.875C361.005 129.801 360.261 131.631 359.127 133.216L310.356 194.271C309.237 195.674 307.962 196.233 306.804 196.086L286.789 193.054C285.632 192.878 284.592 191.936 283.934 190.268L266.51 145.774C265.901 143.924 265.737 141.956 266.03 140.029C266.323 138.103 267.066 136.273 268.197 134.688L316.968 73.6232Z" fill="#FAFAFA"/>
<path d="M320.079 72.7597H320.334L322.296 73.054C326.976 73.7604 339.426 75.6441 340.378 75.8011C341.329 75.9581 341.957 76.7037 342.458 77.9694L359.882 122.463C360.428 124.156 360.572 125.953 360.305 127.712C360.038 129.47 359.366 131.143 358.342 132.598L309.59 193.682C309.324 194.086 308.973 194.428 308.561 194.682C308.15 194.936 307.687 195.097 307.206 195.154H306.951L289.664 192.505L286.907 192.083C286.053 191.955 285.318 191.18 284.817 189.914L267.393 145.421C266.853 143.729 266.711 141.934 266.978 140.178C267.245 138.422 267.914 136.751 268.933 135.296L317.714 74.2313C317.979 73.8281 318.329 73.4875 318.739 73.2333C319.149 72.9791 319.609 72.8175 320.088 72.7597M320.088 71.7786C319.459 71.8306 318.849 72.0234 318.304 72.3426C317.759 72.6619 317.292 73.0994 316.939 73.623L268.168 134.688C267.036 136.273 266.294 138.103 266 140.029C265.707 141.955 265.872 143.923 266.48 145.774L283.905 190.268C284.562 191.936 285.602 192.877 286.76 193.054L306.775 196.086C306.909 196.095 307.043 196.095 307.177 196.086C307.807 196.037 308.418 195.846 308.964 195.526C309.51 195.207 309.975 194.767 310.326 194.241L359.097 133.186C360.231 131.602 360.975 129.772 361.268 127.845C361.562 125.919 361.396 123.95 360.785 122.1L343.36 77.5966C343.177 76.9235 342.818 76.3115 342.319 75.8235C341.821 75.3355 341.202 74.9891 340.525 74.82L320.491 71.7786C320.357 71.7685 320.222 71.7685 320.088 71.7786Z" fill="#F0F0F0"/>
<path d="M339.122 130.184L290.351 191.239C289.981 191.805 289.476 192.27 288.882 192.592C288.287 192.914 287.622 193.083 286.946 193.083C289.036 193.397 305.676 195.909 306.794 196.095C307.496 196.13 308.194 195.979 308.819 195.659C309.444 195.338 309.974 194.86 310.356 194.271L359.127 133.216C360.262 131.688 360.998 129.901 361.266 128.016C354.094 126.927 347.206 125.867 341.261 124.984C340.993 126.869 340.257 128.657 339.122 130.184Z" fill="#E0E0E0"/>
<path d="M340.8 119.117L323.375 74.5945C322.718 72.9266 321.678 71.9847 320.52 71.8081C319.821 71.7718 319.124 71.9204 318.501 72.2391C317.877 72.5577 317.349 73.0351 316.968 73.6232L268.197 134.688C267.066 136.273 266.323 138.103 266.03 140.029C265.737 141.956 265.901 143.924 266.51 145.774L283.934 190.268C284.592 191.936 285.632 192.878 286.789 193.054C287.947 193.231 289.223 192.642 290.341 191.239L339.112 130.175C340.24 128.593 340.98 126.768 341.273 124.847C341.566 122.926 341.404 120.964 340.8 119.117Z" fill="#F0F0F0"/>
<path opacity="0.1" d="M304.979 172.922L305.607 160.932C312.024 148.492 305.882 135.423 301.016 132.647C315.163 117.636 311.239 96.3457 307.138 85.936L268.197 134.688C267.066 136.273 266.323 138.103 266.03 140.029C265.737 141.955 265.901 143.923 266.51 145.774L283.934 190.268C284.592 191.936 285.632 192.877 286.789 193.054L306.804 196.086C307.962 196.262 309.237 195.674 310.356 194.271L324.533 176.522L304.979 172.922Z" fill="black"/>
<path d="M66.3234 128.575C64.4592 127.869 62.8993 128.026 61.8887 128.85C60.8782 129.674 45.3668 142.301 44.3857 143.145C43.4045 143.989 42.9238 145.46 43.2378 147.423L51.7636 200.069C52.2269 202.193 53.1843 204.177 54.5583 205.862C55.9323 207.546 57.6841 208.882 59.6714 209.763L141.192 240.776C143.056 241.482 144.616 241.325 145.627 240.501L163.1 226.186C164.082 225.352 164.582 223.861 164.258 221.889L155.732 169.243C155.269 167.119 154.312 165.134 152.938 163.45C151.564 161.766 149.812 160.429 147.824 159.549L66.3234 128.575Z" fill="#FAFAFA"/>
<path d="M64.106 129.105C64.7485 129.119 65.3832 129.249 65.9799 129.488L147.52 160.462C149.341 161.29 150.946 162.528 152.211 164.078C153.475 165.628 154.365 167.449 154.81 169.399L163.336 222.046C163.581 223.596 163.336 224.793 162.522 225.421L145.009 239.706C144.551 240.055 143.985 240.233 143.409 240.206C142.758 240.187 142.116 240.048 141.516 239.794L59.9755 208.821C58.1534 207.994 56.5472 206.757 55.2825 205.207C54.0179 203.656 53.1292 201.834 52.6858 199.883L44.1894 147.266C43.9343 145.725 44.1894 144.528 44.9939 143.9C45.7984 143.272 56.6986 134.344 60.7898 131.009L62.5068 129.606C62.9654 129.258 63.5309 129.081 64.106 129.105ZM64.106 128.124C63.3049 128.101 62.5208 128.357 61.8887 128.85C60.9076 129.674 45.3765 142.301 44.366 143.145C43.3554 143.989 42.9041 145.46 43.2181 147.423L51.744 200.069C52.2072 202.193 53.1647 204.177 54.5386 205.861C55.9126 207.546 57.6644 208.882 59.6517 209.762L141.192 240.775C141.898 241.058 142.649 241.211 143.409 241.227C144.211 241.252 144.995 240.995 145.627 240.501L163.1 226.186C164.081 225.352 164.582 223.861 164.258 221.889L155.732 169.242C155.269 167.119 154.312 165.134 152.938 163.45C151.564 161.766 149.812 160.429 147.824 159.549L66.2841 128.575C65.5786 128.291 64.8272 128.138 64.0668 128.124H64.106Z" fill="#F0F0F0"/>
<path d="M77.1645 195.487L158.685 226.461C160.471 227.138 161.972 227.04 163.002 226.294C161.177 227.795 146.618 239.657 145.636 240.471C144.655 241.286 143.056 241.452 141.182 240.736L59.6614 209.762C57.7017 208.941 55.9783 207.642 54.6479 205.985C60.9271 200.864 66.9413 195.939 72.1608 191.71C73.4826 193.372 75.2041 194.671 77.1645 195.487Z" fill="#E0E0E0"/>
<path d="M69.257 185.833L60.7311 133.186C60.4073 131.224 60.8782 129.723 61.8888 128.899C62.8993 128.075 64.4593 127.918 66.3234 128.624L147.864 159.598C149.851 160.478 151.603 161.815 152.977 163.499C154.351 165.183 155.308 167.168 155.772 169.291L164.297 221.938C164.621 223.9 164.15 225.401 163.14 226.235C162.129 227.069 160.569 227.216 158.705 226.51L77.1647 195.536C75.1771 194.654 73.4254 193.315 72.0515 191.629C70.6776 189.944 69.7202 187.958 69.257 185.833Z" fill="#F0F0F0"/>
<path opacity="0.1" d="M155.771 169.242C155.308 167.119 154.351 165.134 152.977 163.45C151.603 161.766 149.851 160.429 147.864 159.549L95.9824 139.838L96.8949 158.166L101.143 160.618C96.4971 166.099 93.1139 172.536 91.2335 179.47C89.3532 186.405 89.0217 193.669 90.2625 200.746L73.3481 214.962L141.192 240.775C143.056 241.482 144.616 241.325 145.627 240.501L163.1 226.186C164.082 225.352 164.582 223.861 164.258 221.889L155.771 169.242Z" fill="black"/>
<path d="M221.761 192.426C207.419 192.426 193.399 188.173 181.475 180.205C169.55 172.237 160.255 160.912 154.767 147.662C149.278 134.412 147.842 119.832 150.64 105.765C153.438 91.6989 160.345 78.7781 170.486 68.6369C180.627 58.4956 193.548 51.5893 207.614 48.7913C221.681 45.9933 236.261 47.4294 249.511 52.9178C262.761 58.4062 274.087 67.7005 282.054 79.6254C290.022 91.5503 294.275 105.57 294.275 119.912C294.252 139.137 286.605 157.568 273.011 171.161C259.417 184.755 240.986 192.403 221.761 192.426ZM221.761 48.5263C207.643 48.5282 193.842 52.7166 182.104 60.5617C170.366 68.4069 161.218 79.5565 155.816 92.6007C150.415 105.645 149.003 119.998 151.758 133.845C154.514 147.692 161.313 160.41 171.297 170.393C181.281 180.375 194.001 187.173 207.848 189.927C221.695 192.681 236.048 191.266 249.091 185.863C262.135 180.46 273.283 171.31 281.127 159.571C288.97 147.832 293.157 134.03 293.157 119.912C293.136 100.984 285.607 82.8374 272.222 69.4542C258.837 56.0709 240.689 48.5444 221.761 48.5263Z" fill="#37474F"/>
<path d="M194.378 196.969C179.967 196.969 165.878 192.695 153.895 184.688C141.912 176.681 132.573 165.301 127.058 151.986C121.543 138.672 120.1 124.02 122.911 109.886C125.723 95.7506 132.663 82.7669 142.853 72.5763C153.044 62.3856 166.028 55.4456 180.163 52.634C194.297 49.8224 208.949 51.2655 222.263 56.7806C235.578 62.2958 246.958 71.6354 254.965 83.6183C262.972 95.6013 267.246 109.689 267.246 124.101C267.225 143.42 259.541 161.942 245.88 175.603C232.22 189.264 213.698 196.948 194.378 196.969ZM194.378 52.3622C180.19 52.3622 166.32 56.5696 154.522 64.4524C142.725 72.3352 133.53 83.5393 128.1 96.6479C122.67 109.756 121.25 124.181 124.018 138.097C126.786 152.013 133.618 164.795 143.651 174.828C153.684 184.861 166.467 191.694 180.383 194.462C194.299 197.23 208.723 195.809 221.832 190.379C234.94 184.95 246.144 175.755 254.027 163.957C261.91 152.16 266.117 138.29 266.117 124.101C266.089 105.087 258.52 86.8608 245.072 73.4195C231.623 59.9783 213.392 52.4196 194.378 52.4014V52.3622Z" fill="#37474F"/>
<path d="M163.454 198.764C149.042 198.764 134.954 194.49 122.971 186.484C110.988 178.477 101.648 167.096 96.1329 153.782C90.6178 140.467 89.1747 125.816 91.9863 111.681C94.7979 97.5461 101.738 84.5623 111.929 74.3717C122.119 64.181 135.103 57.2411 149.238 54.4295C163.373 51.6179 178.024 53.0609 191.339 58.576C204.653 64.0912 216.034 73.4308 224.04 85.4137C232.047 97.3967 236.321 111.485 236.321 125.897C236.3 145.216 228.616 163.738 214.956 177.399C201.295 191.059 182.773 198.743 163.454 198.764ZM163.454 54.1576C149.265 54.1576 135.395 58.365 123.597 66.2478C111.8 74.1306 102.605 85.3347 97.1753 98.4433C91.7455 111.552 90.3249 125.976 93.0929 139.892C95.861 153.808 102.693 166.591 112.726 176.624C122.759 186.657 135.542 193.489 149.458 196.257C163.374 199.025 177.798 197.605 190.907 192.175C204.015 186.745 215.22 177.55 223.102 165.753C230.985 153.955 235.193 140.085 235.193 125.897C235.172 106.877 227.607 88.6416 214.158 75.1924C200.709 61.7432 182.474 54.1784 163.454 54.1576Z" fill="#37474F"/>
<path d="M215.619 169.644C201.208 169.644 187.119 165.371 175.136 157.364C163.153 149.357 153.814 137.977 148.299 124.662C142.784 111.347 141.341 96.6962 144.152 82.5613C146.964 68.4264 153.904 55.4427 164.094 45.252C174.285 35.0614 187.269 28.1214 201.404 25.3098C215.538 22.4982 230.19 23.9412 243.504 29.4564C256.819 34.9715 268.199 44.3111 276.206 56.2941C284.213 68.2771 288.487 82.3652 288.487 96.777C288.468 116.097 280.785 134.621 267.124 148.282C253.463 161.943 234.939 169.626 215.619 169.644ZM215.619 25.0478C201.43 25.0478 187.56 29.2555 175.762 37.1387C163.965 45.0219 154.77 56.2266 149.34 69.3357C143.911 82.4449 142.491 96.8697 145.259 110.786C148.028 124.702 154.862 137.485 164.896 147.517C174.929 157.55 187.713 164.382 201.63 167.149C215.546 169.916 229.971 168.493 243.079 163.062C256.188 157.631 267.391 148.434 275.273 136.636C283.154 124.837 287.36 110.966 287.358 96.777C287.335 77.7587 279.769 59.5262 266.32 46.0791C252.871 32.6321 234.638 25.0686 215.619 25.0478Z" fill="#37474F"/>
<path d="M203.983 174.315C189.571 174.315 175.483 170.041 163.499 162.034C151.516 154.026 142.177 142.646 136.662 129.33C131.147 116.015 129.704 101.363 132.517 87.2281C135.329 73.093 142.27 60.1093 152.462 49.919C162.653 39.7287 175.638 32.7895 189.774 29.979C203.909 27.1685 218.561 28.613 231.875 34.1296C245.19 39.6463 256.569 48.9874 264.575 60.9716C272.581 72.9559 276.853 87.045 276.851 101.457C276.827 120.775 269.142 139.294 255.482 152.953C241.821 166.612 223.301 174.294 203.983 174.315ZM203.983 29.7182C189.795 29.7182 175.925 33.9256 164.127 41.8084C152.33 49.6912 143.135 60.8953 137.705 74.0039C132.275 87.1125 130.855 101.537 133.623 115.453C136.391 129.369 143.223 142.151 153.256 152.184C163.289 162.217 176.072 169.05 189.988 171.818C203.904 174.586 218.328 173.165 231.437 167.735C244.545 162.306 255.749 153.111 263.632 141.313C271.515 129.516 275.722 115.646 275.722 101.457C275.702 82.4372 268.137 64.2022 254.688 50.753C241.238 37.3038 223.003 29.739 203.983 29.7182Z" fill="#37474F"/>
<path d="M203.983 168.732C195.511 168.732 187.23 166.22 180.185 161.513C173.141 156.806 167.651 150.116 164.409 142.289C161.167 134.462 160.318 125.849 161.971 117.54C163.624 109.23 167.704 101.598 173.694 95.6073C179.685 89.6166 187.317 85.5369 195.627 83.8841C203.936 82.2313 212.549 83.0796 220.376 86.3217C228.203 89.5638 234.893 95.0541 239.6 102.098C244.307 109.143 246.819 117.424 246.819 125.896C246.806 137.253 242.289 148.141 234.258 156.171C226.228 164.202 215.34 168.719 203.983 168.732ZM203.983 84.1893C195.734 84.1893 187.671 86.6354 180.812 91.2183C173.953 95.8011 168.608 102.315 165.451 109.936C162.294 117.557 161.468 125.943 163.078 134.033C164.687 142.124 168.659 149.555 174.492 155.388C180.325 161.221 187.756 165.193 195.847 166.802C203.937 168.412 212.323 167.586 219.944 164.429C227.565 161.272 234.079 155.926 238.662 149.068C243.244 142.209 245.691 134.145 245.691 125.896C245.678 114.839 241.279 104.238 233.46 96.4194C225.642 88.6006 215.041 84.2023 203.983 84.1893Z" fill="#37474F"/>
<path d="M179.387 137.758C171.728 137.758 164.241 135.487 157.873 131.232C151.504 126.977 146.541 120.929 143.61 113.853C140.679 106.777 139.912 98.9907 141.406 91.4789C142.901 83.967 146.589 77.067 152.005 71.6513C157.42 66.2355 164.32 62.5474 171.832 61.0532C179.344 59.559 187.13 60.3259 194.206 63.2568C201.282 66.1878 207.33 71.1512 211.585 77.5194C215.84 83.8877 218.111 91.3747 218.111 99.0337C218.101 109.301 214.018 119.145 206.758 126.405C199.498 133.665 189.654 137.748 179.387 137.758ZM179.387 61.4374C171.952 61.4393 164.684 63.646 158.502 67.7783C152.321 71.9106 147.504 77.783 144.659 84.653C141.815 91.523 141.072 99.082 142.524 106.374C143.976 113.667 147.557 120.365 152.816 125.622C158.074 130.879 164.773 134.458 172.066 135.908C179.358 137.358 186.917 136.613 193.786 133.767C200.656 130.921 206.527 126.102 210.658 119.92C214.788 113.738 216.993 106.469 216.993 99.0337C216.985 89.0623 213.021 79.5016 205.97 72.4507C198.919 65.3999 189.358 61.4354 179.387 61.4276V61.4374Z" fill="#37474F"/>
<path d="M189.659 143.252C181.998 143.252 174.509 140.981 168.14 136.725C161.77 132.468 156.805 126.419 153.873 119.341C150.942 112.263 150.175 104.475 151.669 96.9614C153.164 89.4476 156.853 82.5458 162.27 77.1287C167.687 71.7116 174.589 68.0226 182.102 66.528C189.616 65.0334 197.404 65.8005 204.482 68.7322C211.56 71.6639 217.609 76.6286 221.866 82.9984C226.122 89.3682 228.394 96.8571 228.394 104.518C228.383 114.788 224.299 124.634 217.037 131.896C209.775 139.158 199.929 143.242 189.659 143.252ZM189.659 66.9218C182.221 66.9218 174.95 69.1276 168.765 73.2603C162.581 77.3929 157.761 83.2667 154.915 90.1389C152.069 97.0111 151.325 104.573 152.776 111.868C154.228 119.163 157.811 125.864 163.071 131.123C168.331 136.382 175.033 139.963 182.329 141.413C189.624 142.862 197.186 142.116 204.057 139.269C210.929 136.421 216.801 131.599 220.932 125.414C225.063 119.228 227.267 111.956 227.265 104.518C227.255 94.5484 223.289 84.9902 216.239 77.9415C209.188 70.8928 199.629 66.9296 189.659 66.9218Z" fill="#37474F"/>
<path d="M166.132 122.61C158.473 122.61 150.986 120.339 144.618 116.084C138.25 111.828 133.286 105.78 130.355 98.7045C127.424 91.6285 126.657 83.8423 128.152 76.3304C129.646 68.8186 133.334 61.9186 138.75 56.5028C144.165 51.0871 151.065 47.3989 158.577 45.9047C166.089 44.4105 173.875 45.1774 180.951 48.1084C188.027 51.0394 194.075 56.0028 198.33 62.371C202.585 68.7392 204.857 76.2262 204.857 83.8852C204.844 94.1516 200.76 103.994 193.5 111.253C186.241 118.513 176.398 122.597 166.132 122.61ZM166.132 46.2791C158.694 46.2791 151.424 48.4847 145.239 52.6169C139.055 56.7491 134.235 62.6224 131.389 69.494C128.542 76.3656 127.798 83.9269 129.249 91.2218C130.7 98.5167 134.281 105.217 139.541 110.477C144.8 115.736 151.501 119.318 158.795 120.769C166.09 122.22 173.652 121.475 180.523 118.629C187.395 115.782 193.268 110.962 197.4 104.778C201.533 98.5938 203.738 91.323 203.738 83.8852C203.728 73.9146 199.762 64.3554 192.712 57.3052C185.662 50.2549 176.103 46.2895 166.132 46.2791Z" fill="#37474F"/>
<path d="M181.545 123.297C174.289 123.299 167.195 121.149 161.161 117.119C155.127 113.089 150.424 107.359 147.646 100.656C144.868 93.9524 144.141 86.5757 145.556 79.4588C146.971 72.3419 150.465 65.8046 155.596 60.6737C160.727 55.5427 167.264 52.0487 174.381 50.6336C181.498 49.2185 188.875 49.9458 195.578 52.7235C202.282 55.5012 208.011 60.2046 212.041 66.2387C216.071 72.2728 218.221 79.3666 218.219 86.6229C218.206 96.3454 214.338 105.666 207.463 112.541C200.588 119.416 191.268 123.284 181.545 123.297ZM181.545 51.0673C174.511 51.0595 167.633 53.1382 161.781 57.0404C155.929 60.9426 151.365 66.4929 148.668 72.9891C145.971 79.4854 145.261 86.6356 146.629 93.5353C147.996 100.435 151.38 106.774 156.351 111.751C161.321 116.727 167.657 120.117 174.555 121.492C181.453 122.867 188.604 122.166 195.103 119.476C201.603 116.786 207.158 112.228 211.067 106.381C214.975 100.533 217.062 93.6568 217.062 86.6229C217.051 77.2029 213.307 68.1712 206.65 61.5066C199.993 54.842 190.965 51.0881 181.545 51.0673Z" fill="#37474F"/>
<path d="M219.603 128.516C211.131 128.514 202.85 126 195.807 121.292C188.764 116.584 183.276 109.894 180.035 102.066C176.794 94.2389 175.947 85.6265 177.601 77.3179C179.255 69.0093 183.336 61.3776 189.327 55.388C195.318 49.3983 202.95 45.3196 211.259 43.6676C219.568 42.0156 228.181 42.8644 236.007 46.1068C243.834 49.3492 250.523 54.8396 255.23 61.8836C259.936 68.9276 262.448 77.209 262.448 85.6807C262.435 97.039 257.916 107.928 249.884 115.959C241.851 123.99 230.961 128.506 219.603 128.516ZM219.603 43.9735C211.354 43.9755 203.292 46.4232 196.434 51.0072C189.577 55.5912 184.233 62.1057 181.077 69.7268C177.922 77.348 177.098 85.7336 178.708 93.8233C180.318 101.913 184.291 109.344 190.125 115.176C195.958 121.007 203.389 124.979 211.479 126.587C219.57 128.196 227.955 127.369 235.575 124.212C243.196 121.055 249.709 115.709 254.291 108.851C258.874 101.992 261.32 93.9291 261.32 85.6807C261.307 74.6215 256.907 64.0192 249.086 56.2001C241.265 48.3811 230.662 43.9839 219.603 43.9735Z" fill="#37474F"/>
<path d="M189.659 159.49C175.247 159.49 161.159 155.216 149.176 147.21C137.193 139.203 127.854 127.823 122.338 114.508C116.823 101.193 115.38 86.5419 118.192 72.407C121.004 58.2721 127.943 45.2884 138.134 35.0977C148.325 24.9071 161.309 17.9671 175.443 15.1555C189.578 12.3439 204.229 13.7869 217.544 19.3021C230.859 24.8172 242.239 34.1568 250.246 46.1398C258.253 58.1228 262.526 72.2109 262.526 86.6227C262.506 105.942 254.822 124.464 241.161 138.125C227.5 151.785 208.978 159.469 189.659 159.49ZM189.659 14.8837C175.471 14.8856 161.602 19.0947 149.806 26.9787C138.01 34.8626 128.816 46.0674 123.388 59.1762C117.96 72.2849 116.54 86.7089 119.31 100.624C122.079 114.54 128.912 127.321 138.945 137.353C148.978 147.385 161.761 154.217 175.677 156.984C189.593 159.751 204.016 158.33 217.124 152.9C230.233 147.47 241.436 138.275 249.318 126.478C257.201 114.681 261.408 100.811 261.408 86.6227C261.387 67.601 253.821 49.3645 240.37 35.915C226.918 22.4656 208.681 14.9019 189.659 14.8837Z" fill="#37474F"/>
<path d="M163.454 169.644C149.042 169.644 134.954 165.371 122.971 157.364C110.988 149.357 101.648 137.977 96.1329 124.662C90.6178 111.347 89.1747 96.6962 91.9863 82.5613C94.7979 68.4264 101.738 55.4427 111.929 45.252C122.119 35.0614 135.103 28.1214 149.238 25.3098C163.373 22.4982 178.024 23.9412 191.339 29.4564C204.653 34.9715 216.034 44.3111 224.04 56.2941C232.047 68.2771 236.321 82.3652 236.321 96.777C236.393 106.366 234.557 115.874 230.92 124.747C227.284 133.62 221.919 141.681 215.139 148.462C208.358 155.243 200.296 160.607 191.423 164.244C182.55 167.88 173.043 169.716 163.454 169.644ZM163.454 25.0478C144.574 25.2686 126.542 32.9235 113.27 46.3522C99.9969 59.781 92.5534 77.9009 92.5534 96.7819C92.5534 115.663 99.9969 133.783 113.27 147.212C126.542 160.64 144.574 168.295 163.454 168.516C172.944 168.627 182.363 166.854 191.163 163.298C199.964 159.743 207.972 154.477 214.722 147.805C221.473 141.133 226.832 133.187 230.49 124.429C234.148 115.671 236.031 106.273 236.031 96.7819C236.031 87.2904 234.148 77.8933 230.49 69.1349C226.832 60.3766 221.473 52.4312 214.722 45.759C207.972 39.0869 199.964 33.8206 191.163 30.2655C182.363 26.7103 172.944 24.9368 163.454 25.0478Z" fill="#37474F"/>
<path d="M292.244 129.066C296.571 128.467 300.515 125.014 303.037 118.842C308.07 106.49 305.519 87.9471 297.336 77.41C293.255 72.1414 288.506 69.8848 284.199 70.4735L190.856 83.3065C186.529 83.9049 182.595 87.3585 180.064 93.5297C175.031 105.882 177.582 124.425 185.764 134.962C189.855 140.231 194.594 142.487 198.901 141.899L292.244 129.066Z" fill="#019939"/>
<path opacity="0.1" d="M245.563 104.999L202.217 129.154L201.236 95.4526L184.557 86.6226C182.618 88.6073 181.106 90.9679 180.113 93.559C175.08 105.911 177.631 124.454 185.813 134.991C189.905 140.26 194.643 142.517 198.95 141.928L286.917 129.831L245.563 104.999Z" fill="black"/>
<path opacity="0.2" d="M190.67 85.838C197.842 83.9836 241.236 76.38 266.755 72.8774L190.856 83.3067C186.529 83.9052 182.595 87.3587 180.064 93.5299C176.816 101.516 176.748 112.083 179.299 121.403C176.601 105.205 183.517 87.7217 190.67 85.838Z" fill="white"/>
<path d="M297.327 77.41C293.245 72.1414 288.497 69.8848 284.19 70.4735C279.883 71.0622 275.929 74.5255 273.397 80.6967C268.364 93.0489 270.915 111.602 279.088 122.129C283.179 127.398 287.918 129.664 292.225 129.066C296.532 128.467 300.496 125.014 303.017 118.842C308.06 106.49 305.509 87.9471 297.327 77.41Z" fill="#019939"/>
<path opacity="0.2" d="M297.327 77.41C293.245 72.1414 288.497 69.8848 284.19 70.4735C279.883 71.0622 275.929 74.5255 273.397 80.6967C268.364 93.0489 270.915 111.602 279.088 122.129C283.179 127.398 287.918 129.664 292.225 129.066C296.532 128.467 300.496 125.014 303.017 118.842C308.06 106.49 305.509 87.9471 297.327 77.41Z" fill="black"/>
<path d="M101.143 99.9068L103.017 154.79L149.61 125.73L147.736 70.8462L101.143 99.9068Z" fill="#455A64"/>
<path opacity="0.05" d="M147.736 70.8462L146.127 124.307L103.017 154.79L149.61 125.73L147.736 70.8462Z" fill="white"/>
<path d="M147.736 70.8462L196.203 96.6691L198.077 151.553L149.61 125.73L147.736 70.8462Z" fill="#37474F"/>
<path d="M103.017 154.79L151.484 180.613L198.077 151.552L149.61 125.729L103.017 154.79Z" fill="#263238"/>
<path d="M139.308 173.5L192.436 204.17L298.69 142.831L245.563 112.151L139.308 173.5Z" fill="#019939"/>
<path opacity="0.5" d="M139.308 173.5L192.436 204.17L298.69 142.831L245.563 112.151L139.308 173.5Z" fill="white"/>
<g opacity="0.1">
<path d="M190.964 143.674L286.77 149.718L298.69 142.821L291.008 138.386L209.065 133.226L190.964 143.674Z" fill="white"/>
<path d="M152.553 165.848L142.556 171.626L238.361 177.66L248.359 171.881L152.553 165.848Z" fill="white"/>
<path d="M222.585 125.426L217.052 128.614L281.06 132.647L274.172 128.673L222.585 125.426Z" fill="white"/>
<path d="M215.08 191.102L233.191 180.643L141.702 174.884L164.248 187.893L215.08 191.102Z" fill="white"/>
<path d="M178.19 151.053L172.656 154.241L268.462 160.275L273.995 157.087L178.19 151.053Z" fill="white"/>
</g>
<path d="M139.308 173.5L192.436 204.17V240.452L139.308 209.782V173.5Z" fill="#019939"/>
<path opacity="0.3" d="M139.308 173.5L192.436 204.17V240.452L139.308 209.782V173.5Z" fill="white"/>
<path d="M298.69 142.831V179.112L192.436 240.451V204.17L298.69 142.831Z" fill="#019939"/>
<g opacity="0.15">
<path d="M298.69 142.831V179.112L192.436 240.451V204.17L298.69 142.831Z" fill="white"/>
</g>
<path d="M144.184 146.981C139.494 146.51 134.759 146.762 130.145 147.726C126.448 148.634 122.836 149.862 119.352 151.396C109.175 156.301 101.118 164.725 96.6709 175.111C92.2236 185.496 91.6867 197.141 95.1595 207.891C98.6323 218.642 105.88 227.772 115.562 233.593C125.245 239.414 136.708 241.533 147.831 239.557C158.955 237.582 168.987 231.646 176.074 222.847C183.16 214.048 186.821 202.981 186.38 191.692C185.938 180.403 181.425 169.656 173.674 161.436C165.923 153.217 155.458 148.082 144.214 146.981H144.184Z" fill="#019939"/>
<path opacity="0.15" d="M155.928 224.891C164.925 219.877 160.883 209.448 146.343 205.494C131.803 201.54 116.105 205.082 120.834 218.837C101.114 208.418 96.0117 171.332 114.408 154.211C107.951 158.354 102.614 164.023 98.868 170.718C95.1221 177.412 93.0827 184.926 92.9299 192.596C92.7771 200.266 94.5157 207.855 97.992 214.694C101.468 221.532 106.575 227.409 112.862 231.805C119.149 236.202 126.421 238.982 134.037 239.901C141.653 240.82 149.379 239.848 156.53 237.073C163.682 234.298 170.04 229.804 175.043 223.988C180.046 218.173 183.539 211.214 185.215 203.728C182.791 211.185 173.059 224.224 155.928 224.891Z" fill="black"/>
<path opacity="0.2" d="M178.867 192.524C177.572 195.821 174.373 198.548 170.861 198.411C165.543 198.274 162.433 192.681 159.509 188.247C151.975 176.876 139.338 169.694 126.23 165.858C124.57 165.473 122.988 164.809 121.55 163.895C120.845 163.424 120.287 162.764 119.94 161.99C119.593 161.216 119.471 160.36 119.588 159.52C120.078 157.825 121.143 156.354 122.6 155.36C125.994 153.493 129.74 152.354 133.598 152.014C143.409 151.141 153.682 154.094 161.982 159.284C170.282 164.474 176.699 172.412 179.053 182.007C179.858 185.5 180.152 189.228 178.867 192.524Z" fill="white"/>
<path opacity="0.2" d="M164.013 186.637C164.596 188.542 165.648 190.269 167.074 191.661C167.92 192.534 168.983 193.167 170.154 193.495C182.271 196.439 175.659 167.574 166.544 174.452C165.058 175.709 164.056 177.443 163.709 179.358C163.165 181.768 163.27 184.28 164.013 186.637Z" fill="white"/>
<path d="M358.744 140.074C312.632 220.888 216.326 261.467 125.896 242.109C96.3551 235.752 68.2167 223.223 44.464 205.18C43.8694 204.79 43.4542 204.18 43.3098 203.483C43.1654 202.787 43.3035 202.061 43.6938 201.467C44.0841 200.872 44.6946 200.457 45.391 200.313C46.0875 200.168 46.8127 200.306 47.4073 200.697C72.6254 214.552 100.016 224.017 128.408 228.688C135.109 229.669 142.801 230.65 149.58 231.062C160.197 231.769 170.848 231.788 181.467 231.121C186.559 230.836 192.259 230.071 197.321 229.6C199.941 229.169 205.17 228.335 207.81 227.913C211.243 227.442 219.858 225.362 223.38 224.636C226.804 223.714 230.189 222.674 233.603 221.742C238.558 220.446 243.826 218.317 248.712 216.699C253.451 214.785 258.808 212.715 263.429 210.567L273.034 205.955C279.294 202.59 285.573 199.225 291.528 195.33C294.069 193.78 298.072 191.239 300.456 189.443C302.84 187.648 306.902 185.028 309.159 183.184L317.596 176.532C320.314 174.207 322.953 171.773 325.671 169.419C336.342 159.629 346.256 149.045 355.33 137.758C355.651 137.35 356.114 137.077 356.627 136.996C357.14 136.914 357.665 137.03 358.097 137.319C358.528 137.608 358.835 138.049 358.955 138.554C359.075 139.06 359 139.592 358.744 140.044V140.074Z" fill="#37474F"/>
<path d="M267.971 384.41C267.971 384.41 258.406 377.935 265.685 368.428C266.716 367.084 291.665 341.388 291.665 341.388L264.871 325.916L243.659 361.452L242.345 363.64C242.345 363.64 234.358 381.624 246.328 384.027C252.46 385.244 267.971 384.41 267.971 384.41Z" fill="#FFA8A7"/>
<path d="M233.358 379.926C233.112 381.01 233.201 382.142 233.613 383.174C234.103 384.567 240.883 389.885 242.629 392.151C244.376 394.417 244.591 395.34 246.554 398.45C248.751 401.893 249.948 406.142 259.652 409.536C269.355 412.931 276.017 411.803 280.392 409.929C281.942 409.167 283.287 408.047 284.317 406.662C284.317 406.662 285.896 401.118 282.835 399.882L233.358 379.926Z" fill="#263238"/>
<path d="M260.034 370.87C261.304 371.005 262.545 371.336 263.713 371.852C264.052 371.949 264.356 372.141 264.589 372.405C264.822 372.669 264.974 372.995 265.028 373.343C265.077 374.138 264.783 374.913 264.9 375.707C265.06 376.549 265.394 377.348 265.882 378.052C269.361 383.36 273.598 388.13 278.459 392.21C281.628 395.006 284.768 398.096 284.954 402.58C285.072 405.435 281.413 409.222 268.992 409.526C262.654 409.683 253.058 405.347 250.223 401.354C247.388 397.361 246.191 393.878 243.895 390.954C241.599 388.03 234.613 383.34 233.318 379.926C233.264 377.294 233.776 374.681 234.82 372.264C235.693 369.723 238.989 365.935 239.637 364.317C239.958 363.507 240.503 362.805 241.209 362.295C241.914 361.784 242.751 361.485 243.62 361.432L242.325 363.718C239.087 370.35 245.886 378.023 246.377 377.846C247.044 377.62 247.034 375.315 247.201 374.726C247.702 373.019 248.751 372.342 250.351 371.724C252.792 370.956 255.349 370.624 257.905 370.743C258.617 370.74 259.328 370.782 260.034 370.87Z" fill="#455A64"/>
<path d="M269.119 409.526C262.781 409.683 253.186 405.347 250.35 401.354C249.416 400.029 248.561 398.649 247.79 397.223C248.006 397.468 248.212 397.733 248.398 397.93C248.83 398.361 249.261 398.783 249.713 399.195C251.418 400.893 253.529 402.125 255.845 402.776C257.925 403.218 263.036 404.483 264.675 402.443C265.656 401.285 265.185 399.421 264.194 397.979C263.782 397.37 262.497 395.928 262.497 395.928C264.375 394.334 266.494 393.049 268.776 392.121C273.044 390.571 273.407 391.013 273.407 391.013C274.155 391.843 275.033 392.545 276.007 393.093C276.963 393.614 278.02 393.925 279.107 394.005C279.498 393.999 279.887 393.943 280.265 393.838C283.051 396.095 285.17 398.302 285.082 402.58C284.866 405.425 281.53 409.212 269.119 409.526Z" fill="#37474F"/>
<path d="M270.542 386.716C271.444 387.679 272.091 388.853 272.426 390.13C272.436 390.662 272.502 391.191 272.622 391.709C273.279 393.269 275.281 392.288 275.644 391.013C275.763 390.582 275.8 390.133 275.752 389.688C271.992 386.25 268.694 382.339 265.941 378.052C265.645 377.594 265.389 377.112 265.175 376.61V376.561C265.343 377.722 265.65 378.858 266.088 379.946C267.311 382.364 268.805 384.635 270.542 386.716Z" fill="#37474F"/>
<path d="M240.431 373.451C239.434 371.579 238.982 369.464 239.127 367.348C239.268 366.103 239.517 364.871 239.872 363.669C240.726 361.844 242.207 361.56 243.659 361.432L242.364 363.718C241.677 365.141 241.746 368.928 242.502 371.027C243.255 373.383 244.491 375.555 246.132 377.405C250.606 382.693 251.557 385.195 256.227 389.59C260.897 393.985 265.106 395.477 264.861 396.458C264.616 397.439 262.899 398.42 258.651 395.653C254.402 392.887 248.84 385.96 246.475 382.261C244.111 378.562 242.374 377.414 240.431 373.451Z" fill="#37474F"/>
<path d="M262.193 395.987C262.32 395.987 262.444 395.946 262.546 395.869C266.235 393.181 268.668 392.171 273.809 392.347C273.978 392.354 274.143 392.293 274.267 392.178C274.391 392.063 274.465 391.903 274.471 391.734C274.478 391.565 274.417 391.4 274.302 391.276C274.187 391.152 274.027 391.078 273.858 391.072C268.423 390.895 265.715 391.974 261.79 394.839C261.656 394.941 261.566 395.091 261.54 395.258C261.515 395.424 261.555 395.595 261.653 395.732C261.715 395.815 261.797 395.882 261.891 395.927C261.985 395.971 262.089 395.992 262.193 395.987Z" fill="#263238"/>
<path d="M258.857 392.278C258.99 392.278 259.12 392.237 259.23 392.16C263.262 389.521 266.186 388.707 271.7 388.942C271.785 388.947 271.87 388.936 271.95 388.908C272.031 388.88 272.105 388.837 272.169 388.78C272.233 388.724 272.285 388.655 272.322 388.579C272.359 388.502 272.381 388.419 272.386 388.334C272.392 388.249 272.38 388.164 272.352 388.083C272.324 388.003 272.281 387.928 272.224 387.865C272.168 387.801 272.099 387.749 272.023 387.712C271.946 387.674 271.863 387.652 271.778 387.647C265.96 387.314 262.752 388.275 258.474 391.081C258.401 391.128 258.338 391.189 258.288 391.26C258.239 391.332 258.205 391.413 258.187 391.498C258.17 391.583 258.17 391.671 258.187 391.756C258.204 391.841 258.239 391.922 258.288 391.994C258.354 392.082 258.44 392.154 258.538 392.204C258.637 392.253 258.746 392.279 258.857 392.278Z" fill="#263238"/>
<path d="M255.501 388.56C255.638 388.56 255.773 388.526 255.894 388.462C260.26 385.862 263.664 385.145 269.561 385.518C269.744 385.538 269.927 385.485 270.072 385.372C270.217 385.258 270.311 385.092 270.336 384.91C270.341 384.819 270.328 384.728 270.298 384.642C270.268 384.556 270.221 384.477 270.159 384.409C270.098 384.342 270.024 384.287 269.942 384.248C269.859 384.21 269.77 384.188 269.679 384.184C263.468 383.703 259.75 384.537 255.119 387.294C255.04 387.338 254.972 387.398 254.918 387.47C254.864 387.542 254.826 387.625 254.805 387.713C254.785 387.8 254.783 387.891 254.8 387.98C254.817 388.068 254.852 388.152 254.903 388.226C254.968 388.327 255.056 388.41 255.16 388.468C255.265 388.526 255.382 388.558 255.501 388.56Z" fill="#263238"/>
<path d="M252.136 384.851C252.279 384.853 252.421 384.819 252.548 384.753C257.257 382.202 261.152 381.584 267.422 382.144C267.613 382.172 267.807 382.124 267.963 382.01C268.119 381.896 268.224 381.726 268.256 381.535C268.261 381.44 268.247 381.345 268.216 381.256C268.184 381.166 268.135 381.084 268.071 381.014C268.007 380.943 267.929 380.887 267.843 380.846C267.757 380.806 267.664 380.784 267.569 380.78C260.986 380.162 256.777 380.858 251.763 383.576C251.674 383.616 251.595 383.675 251.532 383.749C251.469 383.823 251.424 383.911 251.399 384.005C251.374 384.099 251.372 384.198 251.39 384.294C251.409 384.389 251.45 384.479 251.508 384.557C251.584 384.65 251.68 384.725 251.788 384.776C251.897 384.827 252.016 384.853 252.136 384.851Z" fill="#263238"/>
<path d="M248.771 381.133C248.923 381.142 249.075 381.112 249.212 381.044C254.255 378.543 258.641 378.013 265.293 378.749C265.49 378.778 265.69 378.732 265.854 378.619C266.018 378.506 266.133 378.335 266.176 378.14C266.187 377.942 266.118 377.747 265.986 377.598C265.854 377.449 265.668 377.358 265.469 377.346C258.494 376.58 253.755 377.159 248.408 379.818C248.317 379.855 248.235 379.912 248.169 379.985C248.103 380.057 248.054 380.144 248.026 380.238C247.998 380.332 247.991 380.432 248.006 380.529C248.021 380.626 248.058 380.718 248.114 380.799C248.19 380.902 248.289 380.986 248.403 381.044C248.517 381.101 248.643 381.132 248.771 381.133Z" fill="#263238"/>
<path d="M247.594 351.729C249.399 355.359 259.995 364.807 272.298 364.209C272.298 364.209 292.902 343.517 304.263 331.567C315.241 320 318.047 312.573 317.243 306.764C316.438 300.956 313.318 294.422 300.113 284.679C284.523 273.151 261.996 259.671 261.996 259.671H215.884C215.884 259.671 209.713 276.909 216.914 288.722C224.116 300.534 232.229 302.889 245.543 308.167C260.623 314.152 268.403 317.272 268.403 317.272C268.403 317.272 266.107 319.538 260.554 329.163C256.159 336.698 247.594 351.729 247.594 351.729Z" fill="#37474F"/>
<path d="M268.148 285.494C267.579 294.383 261.28 303.713 253.559 306.725L268.423 317.302L238.705 305.528V282.541L268.148 285.494Z" fill="#263238"/>
<path d="M268.423 317.302L279.274 321.383L264.91 322.07C265.957 320.393 267.131 318.799 268.423 317.302Z" fill="#263238"/>
<path d="M128.016 294.736C124.954 293.323 122.129 294.137 119.107 296.276C116.085 298.415 113.927 302.516 114.976 308.099C116.026 313.681 117.145 316.644 115.3 321.52C113.456 326.396 110.64 334.098 114.221 341.368C117.802 348.638 123.846 350.581 127.594 351.562C131.341 352.543 136.424 351.189 138.298 349.099L128.016 294.736Z" fill="#263238"/>
<path d="M141.967 300.525C139.661 297.954 134.952 296.09 131.695 295.197C128.437 294.304 123.62 294.344 120.314 297.934C116.389 302.202 116.321 306.627 117.312 311.955C118.303 317.282 117.41 320.785 115.438 326.534C113.466 332.283 113.956 341.712 121.452 346.745C128.948 351.778 135.05 350.885 138.298 349.109C141.545 347.334 142.006 344.979 141.29 342.31C140.574 339.642 138.298 336.296 137.807 332.45C137.601 330.841 137.356 328.339 137.944 326.779C138.533 325.219 140.633 324.425 141.025 322.59C141.055 322.438 141.055 322.281 141.025 322.129C140.917 321.599 140.309 321.363 139.818 321.148C138.219 320.451 139.347 317.164 139.524 315.781C139.799 313.652 140.064 311.523 140.338 309.384C140.662 306.931 141.653 302.987 141.967 300.525Z" fill="#455A64"/>
<path d="M139.387 337.64C138.708 337.436 138.109 337.028 137.67 336.473C136.968 335.429 136.505 334.243 136.316 333C133.458 333.032 130.606 333.261 127.78 333.686C127.594 334.844 127.917 335.462 128.016 337.12C128.034 337.667 127.879 338.205 127.575 338.659C127.27 339.114 126.831 339.461 126.318 339.652C125.393 340.056 124.366 340.169 123.375 339.975C121.961 339.706 120.625 339.126 119.463 338.278C118.301 337.429 117.342 336.334 116.654 335.07C115.563 333.032 114.958 330.768 114.888 328.457C113.603 334.197 114.672 342.291 121.413 346.814C128.899 351.837 135.011 350.954 138.258 349.178C141.506 347.402 141.967 345.048 141.251 342.379C140.735 340.76 140.112 339.177 139.387 337.64Z" fill="#37474F"/>
<path d="M129.595 318.881C128.394 321.9 127.875 325.146 128.074 328.388C128.339 332.833 129.625 334.756 127.917 335.423C126.21 336.09 125.896 334.373 125.631 329.389C125.398 325.467 126.136 321.547 127.78 317.979C128.879 315.132 129.541 312.135 129.742 309.09C129.916 307.29 130.483 305.55 131.401 303.992C132.32 302.434 133.569 301.097 135.06 300.073C135.967 299.458 137.026 299.106 138.12 299.056C139.214 299.006 140.301 299.259 141.261 299.789C141.261 299.789 143.831 301.015 142.242 302.732C141.408 301.28 138.965 300.064 135.757 302.193C134.401 303.16 133.294 304.433 132.525 305.91C131.756 307.387 131.347 309.024 131.332 310.689C131.351 313.26 130.723 315.506 129.595 318.881Z" fill="#37474F"/>
<path d="M127.456 334.51C127.289 334.514 127.127 334.456 127 334.348C126.874 334.239 126.791 334.088 126.77 333.922C126.748 333.757 126.788 333.589 126.882 333.452C126.976 333.314 127.118 333.216 127.28 333.176C130.488 332.303 137.876 331.891 138.876 333.47C138.932 333.545 138.972 333.63 138.994 333.721C139.015 333.812 139.018 333.906 139.001 333.998C138.985 334.09 138.949 334.177 138.897 334.254C138.845 334.332 138.778 334.398 138.699 334.448C138.621 334.498 138.532 334.531 138.44 334.546C138.348 334.56 138.254 334.556 138.164 334.532C138.074 334.508 137.989 334.466 137.916 334.409C137.843 334.351 137.782 334.279 137.738 334.196C137.11 333.667 131.42 333.451 127.643 334.481L127.456 334.51Z" fill="#263238"/>
<path d="M137.915 330.449C137.8 330.449 137.687 330.421 137.585 330.366C137.484 330.311 137.399 330.231 137.336 330.135C136.718 329.605 131.028 329.369 127.24 330.39C127.154 330.414 127.064 330.42 126.975 330.409C126.886 330.397 126.801 330.368 126.723 330.324C126.646 330.279 126.578 330.219 126.523 330.148C126.469 330.077 126.429 329.996 126.406 329.909C126.383 329.823 126.377 329.734 126.388 329.646C126.4 329.558 126.429 329.473 126.473 329.396C126.518 329.319 126.578 329.252 126.649 329.199C126.72 329.145 126.801 329.107 126.887 329.085C130.095 328.222 137.483 327.829 138.484 329.409C138.541 329.485 138.581 329.572 138.601 329.664C138.622 329.757 138.623 329.853 138.603 329.946C138.584 330.039 138.544 330.126 138.488 330.203C138.432 330.28 138.361 330.343 138.278 330.39C138.165 330.444 138.039 330.465 137.915 330.449Z" fill="#263238"/>
<path d="M138.572 326.828C138.443 326.828 138.316 326.791 138.207 326.721C138.097 326.652 138.01 326.553 137.954 326.436C137.405 325.828 131.783 324.886 127.908 325.455C127.819 325.469 127.729 325.465 127.642 325.443C127.555 325.421 127.474 325.382 127.402 325.328C127.331 325.274 127.271 325.206 127.226 325.128C127.182 325.051 127.153 324.965 127.142 324.876C127.12 324.698 127.168 324.519 127.276 324.376C127.384 324.233 127.544 324.137 127.721 324.111C131.008 323.659 138.386 324.199 139.181 325.896C139.22 325.977 139.243 326.064 139.248 326.153C139.253 326.243 139.24 326.332 139.21 326.416C139.18 326.501 139.133 326.578 139.072 326.644C139.012 326.709 138.938 326.762 138.857 326.799C138.766 326.832 138.668 326.843 138.572 326.828Z" fill="#263238"/>
<path d="M129.978 317.684C128.918 319.519 128.997 321.521 130.625 320.432C132.254 319.343 135.737 320.844 140.093 322.58C144.449 324.317 155.398 329.389 155.398 329.389L168.83 306.824C157.341 303.743 154.663 304.616 141.879 301.162C136.149 299.612 132.44 304.331 131.695 308.805C130.949 313.279 130.92 316.046 129.978 317.684Z" fill="#FFA8A7"/>
<path d="M201.795 259.671C196.939 267.824 195.909 274.241 194.927 282.541C193.838 291.773 191.307 310.1 191.307 310.1C183.056 307.069 171.822 304.096 152.475 301.27C152.475 301.27 141.682 307.353 143.753 326.112C143.753 326.112 173.48 343.87 190.218 351.464C207.456 359.313 216.551 357.037 224.057 346.048C230.993 335.884 244.395 305.146 244.395 305.146C256.669 304.371 278.116 281.54 274.005 259.651L201.795 259.671Z" fill="#37474F"/>
<path d="M191.346 310.1C189.826 320.794 190.208 328.064 191.346 334.442C184.861 326.995 187.618 308.805 187.618 308.805C188.972 309.247 190.238 309.688 191.346 310.1Z" fill="#263238"/>
<path d="M279.392 185.106C297.267 182.614 303.066 192.582 304.263 197.096C305.46 201.609 305.293 207.132 296.581 219.769L279.392 185.106Z" fill="#F0F0F0"/>
<path d="M196.733 271.788C199.539 256.701 204.086 241.991 210.282 227.952C217.277 211.783 229.708 195.506 235.673 190.503C235.673 190.503 245.916 189.041 261.349 186.304C276.782 183.566 287.378 185.185 293.039 189.404C298.7 193.623 302.232 199.882 300.623 208.781C299.014 217.68 290.812 230.032 286.142 237.351C281.472 244.67 279.637 249.477 279.039 255.737C278.587 260.437 279.49 263.144 277.969 268.835C261.378 290.93 214.265 286.711 196.733 271.788Z" fill="#FAFAFA"/>
<path d="M275.31 184.95V185.931C282.777 185.931 288.702 187.402 292.44 190.179C298.592 194.761 301.006 200.971 299.632 208.575C298.17 216.659 291.018 227.824 286.289 235.202L285.308 236.782C280.569 244.209 278.675 249.134 278.048 255.61C277.913 257.149 277.867 258.695 277.91 260.24C278.031 262.972 277.743 265.707 277.057 268.354C269.885 277.763 255.865 283.159 238.538 283.159C222.517 283.159 206.632 278.538 197.851 271.386C200.637 256.581 205.107 242.143 211.175 228.354C218.043 212.382 230.159 196.556 236.066 191.464C237.851 191.199 247.643 189.757 261.486 187.304C266.033 186.455 270.646 186.005 275.271 185.96V184.979M275.271 184.979C270.587 185.024 265.915 185.477 261.31 186.333C245.877 189.07 235.634 190.532 235.634 190.532C229.669 195.536 217.238 211.813 210.243 227.981C204.047 242.02 199.5 256.731 196.694 271.818C205.612 279.411 222.203 284.229 238.479 284.229C254.246 284.229 269.777 279.725 277.93 268.864C279.451 263.174 278.548 260.466 278.999 255.766C279.598 249.507 281.432 244.7 286.102 237.38C290.773 230.061 298.975 217.758 300.584 208.81C302.193 199.863 298.671 193.642 293 189.433C289.242 186.637 283.326 184.979 275.271 184.979Z" fill="#E0E0E0"/>
<path d="M259.603 193.966H255.325C258.386 201.638 264.449 212.666 275.732 219.769L276.507 216.404C272.543 213.598 265.842 208.015 259.603 193.966Z" fill="#019939"/>
<path d="M283.915 193.966C284.896 205.151 282.286 214.471 281.099 216.041L282.306 219.867C284.631 216.492 287.378 205.955 286.093 193.966H283.915Z" fill="#019939"/>
<path d="M280.775 223.115C280.775 223.115 285.838 263.183 286.004 267.108C286.171 271.032 279.863 280.49 279.019 280.951C278.175 281.412 272.789 272.062 272.769 268.952C272.749 265.842 277.469 223.017 277.469 223.017L280.775 223.115Z" fill="#019939"/>
<path d="M281.099 216.041C279.548 215.736 277.943 215.862 276.458 216.404C275.565 217.945 275.222 220.329 275.879 221.506C276.537 222.683 277.842 224.449 279.372 224.381C280.903 224.312 282.315 222.36 282.531 220.456C282.796 218.386 281.099 216.041 281.099 216.041Z" fill="#019939"/>
<path opacity="0.2" d="M281.099 216.041C279.548 215.736 277.943 215.862 276.458 216.404C275.565 217.945 275.222 220.329 275.879 221.506C276.537 222.683 277.842 224.449 279.372 224.381C280.903 224.312 282.315 222.36 282.531 220.456C282.796 218.386 281.099 216.041 281.099 216.041Z" fill="white"/>
<path d="M261.634 139.72C254.668 146.441 256.061 155.084 257.709 163.787C259.671 173.706 259.534 176.865 264.91 179.74C266.088 149.159 272.848 187.285 299.171 165.533C303.929 161.609 305.264 148.374 300.388 141.938C293.471 132.852 275.212 127.093 261.634 139.72Z" fill="#37474F"/>
<path d="M257.611 173.421C261.908 175.629 264.175 172.725 264.175 172.725L259.338 183.743C259.338 183.743 256.296 190.562 261.732 194.447C276.811 205.239 272.897 208.938 277.891 213.99C279.853 211.861 280.461 201.658 280.961 198.989L285.308 188.364C287.108 188.571 288.923 188.633 290.733 188.55C295.021 188.295 297.67 185.47 299.357 181.015C302.085 173.863 302.644 162.786 301.163 148.256C296.777 144.135 281.315 142.104 270.748 147.461C270.434 155.909 268.04 157.086 267.756 160.716C267.432 164.788 267.079 165.69 265.793 166.142C264.508 166.593 263.547 164.601 263.135 163.355C262.448 161.275 261.82 159.921 259.877 159.264C257.935 158.607 255.688 158.764 253.657 161.295C250.537 165.229 254.481 171.822 257.611 173.421Z" fill="#FFA8A7"/>
<path d="M285.308 188.364C280.304 187.716 273.476 184.518 270.846 181.633C268.217 178.749 266.775 173.431 266.775 173.431C266.63 176.957 267.635 180.435 269.639 183.34C272.985 188.148 283.983 191.582 283.983 191.582L285.308 188.364Z" fill="#F28F8F"/>
<path d="M283.866 151.876C283.728 151.876 283.571 151.965 283.571 152.092C283.571 152.22 283.699 152.279 283.807 152.328C283.981 152.427 284.148 152.539 284.307 152.661C284.47 152.775 284.607 152.922 284.709 153.093C284.772 153.219 284.812 153.355 284.827 153.495C284.869 153.728 284.892 153.965 284.896 154.202C284.896 154.398 285.063 154.525 285.249 154.368C285.318 154.304 285.368 154.223 285.396 154.133C285.506 153.873 285.55 153.59 285.524 153.309C285.504 153.15 285.461 152.994 285.396 152.848C285.261 152.556 285.045 152.31 284.773 152.137C284.502 151.965 284.187 151.875 283.866 151.876ZM291.558 152.112C291.576 152.035 291.573 151.955 291.55 151.88C291.526 151.805 291.484 151.738 291.426 151.685C291.368 151.632 291.297 151.595 291.22 151.579C291.143 151.563 291.063 151.567 290.989 151.592C290.73 151.716 290.502 151.896 290.321 152.118C290.14 152.34 290.009 152.599 289.939 152.877C289.797 153.251 289.763 153.657 289.841 154.049C289.919 154.441 290.106 154.804 290.38 155.094C290.469 155.173 290.606 155.242 290.704 155.173C290.802 155.104 290.704 154.192 290.753 153.927C290.775 153.582 290.876 153.246 291.047 152.946C291.256 152.693 291.428 152.412 291.558 152.112ZM287.358 150.346C287.34 150.334 287.32 150.327 287.298 150.325C287.277 150.323 287.256 150.326 287.236 150.333C287.216 150.341 287.198 150.353 287.183 150.369C287.169 150.385 287.158 150.404 287.152 150.424C287.127 150.517 287.125 150.615 287.145 150.708C287.166 150.802 287.209 150.89 287.27 150.964C287.368 151.163 287.45 151.37 287.515 151.582C287.65 151.998 287.726 152.43 287.741 152.867C287.758 153.277 287.735 153.688 287.672 154.094C287.613 154.476 287.506 154.849 287.447 155.232C287.447 155.232 287.447 155.379 287.525 155.33C287.825 155.025 288.053 154.657 288.192 154.253C288.331 153.849 288.378 153.419 288.33 152.995C288.322 152.522 288.246 152.053 288.104 151.602C287.992 151.116 287.732 150.676 287.358 150.346Z" fill="#F28F8F"/>
<path d="M276.635 155.418L281.158 153.623C281.386 154.242 281.366 154.925 281.103 155.53C280.84 156.135 280.353 156.615 279.745 156.87C279.446 156.986 279.127 157.041 278.806 157.03C278.485 157.02 278.17 156.944 277.879 156.809C277.589 156.673 277.329 156.48 277.115 156.241C276.901 156.002 276.738 155.722 276.635 155.418Z" fill="#37474F"/>
<path d="M294.216 153.603L298.641 155.732C298.517 156.027 298.335 156.294 298.104 156.516C297.874 156.738 297.601 156.91 297.301 157.023C297.002 157.136 296.683 157.187 296.363 157.172C296.044 157.158 295.731 157.078 295.443 156.939C294.851 156.644 294.395 156.135 294.167 155.514C293.939 154.894 293.957 154.211 294.216 153.603Z" fill="#37474F"/>
<path d="M287.054 157.213L287.555 169.163L294.334 168.182C293.265 164.631 289.752 158.94 287.054 157.213Z" fill="#F28F8F"/>
<path d="M282.158 172.745C281.835 172.917 281.554 173.158 281.334 173.451C280.677 174.373 281.472 174.923 282.315 175.08C283.285 175.247 284.214 175.597 285.053 176.11C285.412 176.408 285.853 176.589 286.318 176.63C286.617 176.602 286.894 176.462 287.093 176.238C287.247 175.995 287.316 175.709 287.29 175.423C287.251 174.844 287.06 174.285 286.736 173.802C286.412 173.32 285.967 172.932 285.445 172.676C284.929 172.435 284.364 172.316 283.794 172.327C283.224 172.339 282.664 172.482 282.158 172.745Z" fill="#B16668"/>
<path d="M285.082 176.11C285.282 176.241 285.488 176.363 285.7 176.473C285.555 175.542 285.102 174.686 284.414 174.042C283.726 173.399 282.842 173.004 281.903 172.921C281.684 173.063 281.492 173.242 281.334 173.451C280.677 174.373 281.472 174.922 282.315 175.079C283.295 175.243 284.234 175.593 285.082 176.11Z" fill="#F28F8F"/>
<path d="M283.012 161.894C283.014 162.312 282.892 162.721 282.661 163.069C282.43 163.418 282.1 163.689 281.714 163.85C281.329 164.011 280.904 164.054 280.493 163.973C280.083 163.892 279.707 163.69 279.411 163.395C279.115 163.099 278.914 162.723 278.833 162.312C278.752 161.902 278.795 161.477 278.956 161.092C279.117 160.706 279.388 160.376 279.737 160.145C280.085 159.914 280.494 159.792 280.912 159.794C281.469 159.794 282.003 160.015 282.397 160.409C282.791 160.803 283.012 161.337 283.012 161.894Z" fill="#263238"/>
<path d="M297.994 161.589C297.996 162.007 297.874 162.416 297.643 162.764C297.412 163.112 297.084 163.384 296.698 163.545C296.313 163.706 295.889 163.749 295.479 163.669C295.069 163.589 294.692 163.389 294.396 163.094C294.1 162.8 293.898 162.424 293.816 162.014C293.734 161.605 293.775 161.18 293.935 160.794C294.094 160.408 294.364 160.078 294.711 159.846C295.058 159.614 295.467 159.49 295.884 159.49C296.161 159.488 296.435 159.542 296.691 159.647C296.947 159.752 297.179 159.906 297.375 160.101C297.571 160.296 297.727 160.528 297.833 160.784C297.939 161.039 297.994 161.313 297.994 161.589Z" fill="#263238"/>
<path d="M277.822 213.981C275.3 210.606 275.094 201.02 273.171 199.264C271.248 197.508 259.936 189.296 259.249 183.988L260.858 180.289C259.495 179.524 257.218 183.92 251.43 188.315C251.43 188.315 250.321 193.77 253.951 200.373C258.239 208.163 262.31 210.989 262.31 210.989C262.31 210.989 268.874 203.777 269.875 203.562C270.876 203.346 274.594 212.588 277.822 213.981Z" fill="#F0F0F0"/>
<path d="M277.822 213.981C279.51 211.518 280.118 200.824 280.657 199.45C281.776 196.556 284.994 189.09 284.994 189.09C285.4 189.462 285.763 189.88 286.073 190.336C290.488 197.096 289.605 206.269 288.035 208.977C286.858 205.847 283.787 201.687 283.13 202.423C282.473 203.159 280.461 212.921 277.822 213.981Z" fill="#F0F0F0"/>
<path d="M169.566 249.792C180.515 243.326 196.174 234.192 196.174 234.192C196.174 234.192 221.614 225.028 227.236 220.702C234.466 215.119 241.354 204.768 234.839 193.643C227.599 190.699 223.635 194.781 207.162 203.63C191.729 211.94 187.854 213.343 181.261 219.093C174.668 224.842 161.805 238.342 158.283 240.373C155.045 242.247 150.719 241.285 147.638 241.187C144.557 241.089 142.006 242.61 139.505 241.923C137.003 241.236 135.58 237.253 133.618 235.487C131.656 233.721 130.194 233.309 129.213 234.015C128.232 234.722 132.293 241.472 132.293 241.472C132.293 241.472 127.319 236.233 125.553 235.183C123.787 234.133 121.717 234.957 121.756 235.929C121.795 236.9 130.047 245.269 131.185 246.603C132.323 247.937 135.158 249.095 139.171 250.253C143.184 251.411 150.12 253.383 154.417 253.608C158.715 253.834 162.6 253.912 169.566 249.792Z" fill="#FFA8A7"/>
<path d="M132.333 241.472C133.559 243.503 134.638 245.543 136.257 246.377C137.876 247.211 139.73 248.094 139.73 248.094C138 247.618 136.318 246.981 134.707 246.191C133.667 245.445 132.333 241.472 132.333 241.472Z" fill="#F28F8F"/>
<path d="M196.399 234.575L230.866 221.28C236.959 216.375 242.06 201.119 235.673 190.503C225.293 190.503 223.233 193.446 210.302 200.569C201.423 205.475 190.915 210.998 190.915 210.998C185.431 213.618 178.641 220.397 173.942 224.969C169.242 229.541 164.543 234.575 164.543 234.575C164.543 234.575 163.375 238.156 167.29 242.423C169.481 244.939 172.577 246.487 175.904 246.731L196.399 234.575Z" fill="#F0F0F0"/>
<path d="M41.2951 50.9982L34.7903 69.2763L0 36.2324L40.7064 101.457L47.2701 82.1289L77.7827 117.881L41.2951 50.9982Z" fill="#F0F0F0"/>
<path d="M35.4967 237.949L43.6498 250.92L6.15161 256.355L66.1565 261.486L58.2586 248.859L94.8148 248.015L35.4967 237.949Z" fill="#F0F0F0"/>
<path d="M320.952 15.7665L327.918 28.4229L349.532 0L327.604 51.8028L320.422 39.8234L302.134 69.247L320.952 15.7665Z" fill="#F0F0F0"/>
<path d="M363.355 206.652L359.941 222.683L400 217.405L340.034 239.509L342.83 226.902L303.429 235.085L363.355 206.652Z" fill="#F0F0F0"/>
<path d="M202.109 117.891C231.258 116.409 243.14 125.131 245.367 136.159C246.347 140.905 245.58 145.845 243.208 150.071L248.967 156.517L237.331 155.703C233.892 157.558 230.205 158.912 226.382 159.725C212.843 161.884 190.807 161.854 179.867 152.857C178.232 151.532 176.821 149.952 175.688 148.178C171.322 141.28 168.987 119.578 202.109 117.891Z" fill="white"/>
<path d="M195.987 133.235C196.109 133.238 196.225 133.287 196.311 133.373C196.397 133.459 196.446 133.575 196.448 133.696V144.783C196.449 144.843 196.437 144.903 196.413 144.959C196.39 145.015 196.355 145.065 196.311 145.107C196.269 145.151 196.219 145.185 196.163 145.209C196.108 145.233 196.048 145.245 195.987 145.244H194.604C194.479 145.243 194.36 145.194 194.27 145.107C194.185 145.02 194.136 144.904 194.133 144.783V140.25H188.953V144.783C188.953 144.843 188.941 144.903 188.918 144.959C188.894 145.015 188.859 145.065 188.815 145.107C188.774 145.151 188.723 145.185 188.668 145.209C188.612 145.233 188.552 145.245 188.492 145.244H187.098C186.978 145.243 186.863 145.198 186.775 145.116C186.73 145.073 186.695 145.021 186.671 144.964C186.648 144.907 186.636 144.845 186.637 144.783V133.696C186.637 133.636 186.649 133.576 186.672 133.52C186.696 133.464 186.731 133.414 186.775 133.373C186.815 133.327 186.865 133.291 186.921 133.268C186.977 133.244 187.038 133.233 187.098 133.235H188.492C188.613 133.238 188.729 133.287 188.815 133.373C188.901 133.459 188.95 133.575 188.953 133.696V138.102H194.133V133.696C194.136 133.573 194.186 133.456 194.274 133.37C194.362 133.283 194.481 133.235 194.604 133.235H195.987Z" fill="#455A64"/>
<path d="M207.123 143.095C207.248 143.096 207.367 143.145 207.456 143.233C207.541 143.319 207.59 143.435 207.594 143.557V144.783C207.59 144.904 207.541 145.02 207.456 145.107C207.367 145.194 207.248 145.243 207.123 145.244H199.588C199.466 145.242 199.35 145.192 199.265 145.106C199.179 145.02 199.129 144.904 199.127 144.783V133.696C199.126 133.636 199.138 133.576 199.162 133.52C199.185 133.464 199.22 133.414 199.264 133.373C199.306 133.329 199.356 133.294 199.412 133.27C199.467 133.247 199.527 133.235 199.588 133.235H206.985C207.046 133.233 207.107 133.244 207.163 133.268C207.219 133.291 207.269 133.327 207.309 133.373C207.356 133.413 207.393 133.462 207.419 133.518C207.444 133.574 207.457 133.635 207.456 133.696V134.913C207.457 134.974 207.444 135.035 207.419 135.091C207.393 135.147 207.356 135.197 207.309 135.237C207.269 135.282 207.219 135.318 207.163 135.342C207.107 135.365 207.046 135.376 206.985 135.374H201.442V138.102H206.613C206.673 138.101 206.733 138.113 206.789 138.137C206.844 138.16 206.895 138.195 206.936 138.239C207.021 138.326 207.071 138.441 207.074 138.563V139.789C207.071 139.911 207.022 140.026 206.936 140.112C206.85 140.198 206.734 140.248 206.613 140.25H201.442V143.095H207.123Z" fill="#455A64"/>
<path d="M217.699 143.095C217.821 143.097 217.937 143.146 218.023 143.233C218.108 143.319 218.157 143.435 218.16 143.557V144.783C218.157 144.904 218.108 145.02 218.023 145.107C217.937 145.193 217.821 145.243 217.699 145.244H210.194C210.069 145.243 209.949 145.194 209.86 145.107C209.775 145.02 209.726 144.904 209.723 144.783V133.696C209.725 133.573 209.776 133.456 209.864 133.37C209.952 133.283 210.07 133.235 210.194 133.235H211.577C211.638 133.233 211.698 133.244 211.754 133.268C211.81 133.291 211.86 133.327 211.901 133.373C211.947 133.413 211.985 133.462 212.01 133.518C212.036 133.574 212.048 133.635 212.048 133.696V143.095H217.699Z" fill="#455A64"/>
<path d="M224.91 133.235C226.066 133.166 227.208 133.514 228.129 134.217C228.871 134.989 229.285 136.02 229.285 137.091C229.285 138.163 228.871 139.193 228.129 139.966C227.212 140.675 226.067 141.025 224.91 140.947H222.163V144.773C222.16 144.895 222.111 145.01 222.026 145.097C221.94 145.184 221.824 145.233 221.702 145.234H220.309C220.249 145.235 220.189 145.223 220.133 145.199C220.077 145.176 220.027 145.141 219.985 145.097C219.941 145.055 219.907 145.005 219.883 144.949C219.859 144.894 219.847 144.834 219.848 144.773V133.687C219.85 133.565 219.9 133.449 219.986 133.363C220.072 133.277 220.188 133.228 220.309 133.226L224.91 133.235ZM222.163 138.808H224.822C225.368 138.834 225.91 138.701 226.382 138.425C226.589 138.27 226.751 138.063 226.854 137.826C226.958 137.589 226.998 137.329 226.971 137.072C226.999 136.818 226.96 136.562 226.856 136.329C226.753 136.097 226.589 135.896 226.382 135.747C225.907 135.481 225.367 135.352 224.822 135.374H222.163V138.808Z" fill="#455A64"/>
<path d="M232.828 142.801C232.951 142.804 233.068 142.855 233.155 142.943C233.241 143.031 233.289 143.149 233.289 143.272V144.783C233.29 144.844 233.278 144.904 233.254 144.959C233.23 145.015 233.196 145.065 233.152 145.107C233.11 145.151 233.06 145.186 233.004 145.209C232.948 145.233 232.888 145.245 232.828 145.244H231.356C231.231 145.243 231.112 145.194 231.023 145.107C230.94 145.019 230.895 144.903 230.895 144.783V143.272C230.892 143.149 230.938 143.029 231.023 142.939C231.112 142.851 231.231 142.802 231.356 142.801H232.828ZM233.211 141.31C233.21 141.435 233.161 141.554 233.073 141.644C232.983 141.728 232.863 141.774 232.74 141.771H231.435C231.315 141.771 231.199 141.726 231.111 141.644C231.024 141.554 230.974 141.435 230.974 141.31V133.696C230.973 133.636 230.985 133.576 231.009 133.52C231.032 133.465 231.067 133.414 231.111 133.373C231.153 133.329 231.203 133.294 231.259 133.27C231.314 133.247 231.374 133.235 231.435 133.235H232.759C232.882 133.235 233.001 133.284 233.089 133.37C233.177 133.456 233.228 133.573 233.23 133.696L233.211 141.31Z" fill="#455A64"/>
</svg>
