<?xml version="1.0" standalone="no"?>
<!DOCTYPE svg PUBLIC "-//W3C//DTD SVG 20010904//EN"
 "http://www.w3.org/TR/2001/REC-SVG-20010904/DTD/svg10.dtd">
<svg version="1.0" xmlns="http://www.w3.org/2000/svg"
 width="2000.000000pt" height="2000.000000pt" viewBox="0 0 2000.000000 2000.000000"
 preserveAspectRatio="xMidYMid meet">

<g transform="translate(0.000000,2000.000000) scale(0.100000,-0.100000)"
fill="#000000" stroke="none">
<path d="M12536 13810 c-73 -12 -204 -47 -225 -61 -13 -9 -12 -9 4 -4 11 4 65
19 120 33 86 22 121 26 255 26 163 1 220 -7 355 -51 283 -91 529 -311 653
-586 137 -302 130 -653 -19 -950 -118 -233 -332 -428 -579 -525 -140 -55 -249
-75 -415 -76 -132 0 -142 -2 -80 -9 96 -11 282 7 391 39 49 14 130 45 180 68
218 103 370 246 492 464 78 138 112 252 137 455 l6 47 903 0 903 0 24 -26 24
-26 0 -3121 0 -3122 -5827 -3 -5828 -2 0 1533 c0 844 3 2251 7 3127 l6 1594
23 23 23 23 2224 0 2225 0 6 -22 c14 -53 5 -182 -18 -276 -36 -140 -39 -186
-22 -280 17 -97 78 -230 154 -336 l49 -69 66 -1 c56 -1 69 -4 82 -23 27 -39
80 -64 127 -61 39 3 45 7 64 45 12 23 25 73 29 110 7 66 9 70 58 116 l52 48 7
-71 c15 -172 143 -308 321 -341 150 -28 323 53 390 181 16 31 16 32 0 10 -34
-50 -119 -126 -164 -147 -189 -89 -405 -14 -500 174 -32 62 -34 74 -34 163 0
89 2 101 34 163 40 80 101 139 179 175 51 24 69 27 162 27 91 0 112 -4 155
-25 49 -24 134 -100 168 -150 17 -25 17 -25 3 5 -63 131 -237 213 -395 185
-152 -27 -280 -144 -312 -286 -11 -48 -18 -59 -61 -89 -45 -33 -48 -34 -43
-13 13 59 25 202 25 298 -1 119 -19 234 -51 326 l-22 62 59 88 c78 116 110
140 212 162 78 16 83 16 138 -3 31 -10 111 -50 178 -88 186 -107 248 -129 383
-135 144 -6 261 19 389 83 49 25 89 45 90 45 0 0 11 -22 24 -50 13 -27 28 -50
34 -50 6 0 29 12 51 25 l40 25 482 0 482 0 4 -32 c2 -18 5 4 5 49 9 437 229
798 607 995 49 26 86 48 82 48 -19 0 -192 -96 -246 -136 -127 -96 -245 -232
-318 -370 l-45 -84 -432 0 -431 0 -20 36 c-50 94 -199 159 -288 125 -23 -9
-24 -9 -14 29 22 80 -39 177 -125 201 -66 18 -189 5 -298 -31 -133 -44 -218
-48 -415 -20 -334 48 -427 17 -580 -190 -26 -36 -66 -84 -89 -107 l-40 -43
-2471 0 c-2228 0 -2477 -2 -2526 -16 -108 -32 -194 -105 -247 -214 l-27 -55
-3 -3692 -2 -3693 -205 0 -205 0 0 -148 c0 -99 5 -167 15 -205 41 -159 151
-279 304 -333 l66 -24 -597 0 -598 0 0 23 c0 12 11 135 25 272 14 138 25 251
25 253 0 1 15 2 33 2 55 0 58 6 55 120 l-3 103 -102 -2 c-59 -1 -103 2 -103 7
0 5 11 17 25 26 14 9 53 51 86 94 34 42 63 78 64 80 2 2 14 -2 26 -9 23 -12
23 -12 6 14 -16 25 -15 28 21 106 30 63 41 78 52 71 31 -20 45 -10 17 13 -27
21 -28 24 -18 67 5 25 13 62 16 83 6 36 8 38 33 33 l27 -6 -26 22 c-22 19 -27
34 -33 93 -3 39 -9 80 -12 91 -4 16 0 23 18 29 l23 8 -25 4 c-21 3 -30 17 -54
80 -18 47 -26 78 -19 80 5 2 19 10 29 18 17 13 15 13 -16 5 -19 -6 -36 -10
-37 -10 -1 0 -16 21 -34 48 -18 26 -43 59 -56 74 l-25 26 26 17 c38 25 32 40
-7 17 l-33 -19 -30 24 c-16 14 -47 36 -69 50 -22 14 -42 27 -44 29 -2 2 4 15
14 30 17 27 7 26 -27 -3 -14 -13 -24 -12 -75 6 -32 11 -69 22 -83 23 -26 3
-28 11 -15 63 10 38 -6 24 -21 -18 l-11 -32 -84 -1 c-46 -1 -103 -6 -126 -12
l-42 -10 -18 52 c-9 28 -19 44 -21 34 -1 -9 3 -31 11 -50 l14 -33 -84 -41 -84
-40 -16 33 c-20 44 -29 36 -10 -10 l15 -35 -69 -68 -68 -68 -23 21 c-52 46
-67 39 -17 -8 l31 -29 -38 -80 c-28 -58 -43 -78 -54 -74 -8 3 -28 7 -45 10
-28 4 -27 3 11 -17 l41 -22 -12 -51 c-7 -28 -16 -72 -20 -98 -6 -47 -6 -47
-48 -50 l-42 -4 41 -8 41 -8 9 -87 9 -86 -45 -12 -45 -12 46 2 46 2 22 -75
c15 -48 19 -76 12 -78 -6 -2 -21 -12 -33 -23 l-23 -19 28 10 c38 13 57 13 57
-2 0 -7 16 -39 35 -71 37 -62 42 -77 24 -77 -15 0 -81 -41 -76 -46 2 -3 26 5
52 16 l47 20 59 -61 c32 -34 59 -63 59 -66 0 -3 -38 -3 -85 -2 l-85 4 0 -106
c0 -119 0 -119 71 -119 24 0 39 -5 39 -12 0 -7 11 -128 25 -268 14 -140 25
-258 25 -262 0 -4 -39 -9 -87 -11 -171 -6 16388 -7 16735 0 l352 6 0 744 0
743 -125 0 c-69 0 -125 4 -125 8 0 22 521 1501 652 1852 113 301 138 407 145
595 3 85 1 161 -5 175 l-9 25 -15 -30 c-39 -75 -150 -419 -218 -674 -65 -246
-213 -603 -618 -1491 -224 -492 -208 -460 -237 -460 -14 0 -25 2 -25 4 0 2 34
94 74 203 152 406 216 668 216 883 0 152 -93 639 -155 809 -35 96 -112 261
-132 283 -25 28 -79 24 -99 -8 -15 -22 -16 -43 -10 -152 3 -70 15 -185 26
-257 108 -714 112 -782 67 -1040 -15 -82 -35 -184 -45 -225 l-19 -75 -7 80
c-3 44 -15 197 -26 340 -23 303 -45 500 -66 604 -37 182 -138 480 -202 596
-23 43 -31 50 -57 50 -29 0 -30 -1 -29 -45 1 -25 20 -191 44 -370 23 -179 43
-364 43 -411 1 -48 4 -86 7 -84 3 2 6 -13 7 -34 l1 -36 -14 40 c-8 22 -12 45
-10 52 3 6 2 13 -3 15 -4 2 -31 72 -60 157 -65 189 -122 323 -196 461 -31 58
-135 260 -230 450 -322 639 -438 796 -510 686 -14 -21 -13 -30 5 -89 11 -36
52 -140 91 -229 203 -465 564 -1444 638 -1728 10 -41 47 -176 80 -299 34 -123
60 -225 58 -228 -5 -5 -259 307 -388 477 -216 283 -371 547 -604 1024 -83 168
-154 304 -160 302 -47 -16 85 -551 220 -886 140 -349 388 -772 679 -1160 l116
-155 -120 -3 -120 -3 0 -744 0 -745 -437 1 -438 0 57 18 c148 48 263 163 308
310 16 51 20 92 20 222 l0 159 -312 2 -313 3 -2 3575 c-1 1966 -3 3627 -5
3690 -3 107 -5 120 -35 181 -39 80 -111 150 -191 187 l-57 27 -1027 3 -1028 2
-26 53 c-190 373 -545 600 -959 612 -77 2 -167 0 -199 -5z m2714 -7635 c0 -22
-4 -25 -40 -25 l-40 0 0 -40 c0 -33 -3 -40 -20 -40 -18 0 -20 7 -20 65 l0 65
60 0 c57 0 60 -1 60 -25z m200 -40 c0 -58 -2 -65 -20 -65 -17 0 -20 7 -20 40
l0 40 -40 0 c-36 0 -40 3 -40 25 0 24 3 25 60 25 l60 0 0 -65z m-773 -17 c-2
-7 -12 -12 -21 -10 -17 3 -46 -14 -46 -27 0 -4 13 -6 29 -3 36 5 58 -26 41
-58 -12 -23 -59 -27 -78 -8 -17 17 -15 78 5 100 18 21 77 25 70 6z m157 -10
c31 -44 7 -108 -39 -108 -27 0 -55 33 -55 65 0 32 28 65 55 65 13 0 31 -10 39
-22z m118 5 c37 -33 11 -113 -37 -113 -13 0 -31 10 -39 22 -44 63 21 141 76
91z m-10528 -9 c22 -9 20 -47 -4 -69 -27 -24 -25 -35 5 -35 14 0 25 -4 25 -10
0 -5 -20 -10 -45 -10 -54 0 -57 12 -14 56 34 36 31 59 -7 50 -23 -6 -32 3 -17
17 8 9 36 9 57 1z m126 -60 c0 -48 -3 -65 -12 -62 -8 3 -14 26 -16 56 -2 29
-7 52 -13 52 -5 0 -9 5 -9 10 0 6 11 10 25 10 24 0 25 -2 25 -66z m86 32 c-14
-19 -26 -37 -26 -40 0 -14 28 -5 34 11 6 14 9 14 26 -5 19 -20 19 -22 3 -42
-21 -24 -33 -26 -33 -5 0 10 -11 15 -35 15 -19 0 -35 4 -35 8 0 16 65 92 78
92 10 0 6 -11 -12 -34z m10094 9 c0 -8 -7 -15 -15 -15 -8 0 -15 7 -15 15 0 8
7 15 15 15 8 0 15 -7 15 -15z m-10240 -20 c0 -8 -7 -15 -15 -15 -8 0 -15 7
-15 15 0 8 7 15 15 15 8 0 15 -7 15 -15z m9960 -25 c0 -20 -7 -20 -3245 -20
-3238 0 -3245 0 -3245 20 0 20 7 20 3245 20 3238 0 3245 0 3245 -20z m720 -45
l0 -45 40 0 c33 0 40 -3 40 -20 0 -18 -7 -20 -60 -20 l-60 0 0 65 c0 58 2 65
20 65 17 0 20 -7 20 -45z m280 -20 l0 -65 -60 0 c-53 0 -60 2 -60 20 0 17 7
20 40 20 l40 0 0 45 c0 38 3 45 20 45 18 0 20 -7 20 -65z m-720 40 c0 -8 -7
-15 -15 -15 -8 0 -15 7 -15 15 0 8 7 15 15 15 8 0 15 -7 15 -15z m-10240 -20
c0 -8 -7 -15 -15 -15 -8 0 -15 7 -15 15 0 8 7 15 15 15 8 0 15 -7 15 -15z"/>
<path d="M14614 6049 c-9 -15 12 -33 30 -26 9 4 16 13 16 22 0 17 -35 21 -46
4z"/>
<path d="M14774 6097 c-3 -9 -4 -28 -2 -44 2 -20 8 -28 23 -28 17 0 20 7 20
40 0 30 -4 41 -18 43 -9 2 -20 -3 -23 -11z"/>
<path d="M14894 6097 c-3 -9 -4 -28 -2 -44 2 -20 8 -28 23 -28 17 0 20 7 20
40 0 30 -4 41 -18 43 -9 2 -20 -3 -23 -11z"/>
<path d="M12190 12857 c-43 -15 -75 -71 -65 -116 9 -42 56 -83 98 -84 116 -3
148 154 40 199 -18 8 -34 14 -35 13 -2 0 -19 -5 -38 -12z"/>
<path d="M12643 12863 c-12 -2 -34 -18 -48 -34 -71 -85 20 -211 119 -164 32
15 66 64 66 95 0 22 -32 81 -49 89 -24 12 -63 18 -88 14z"/>
<path d="M13064 12855 c-115 -49 -62 -216 63 -197 30 4 70 48 78 83 18 79 -66
147 -141 114z"/>
<path d="M11602 12570 c0 -19 2 -27 5 -17 2 9 2 25 0 35 -3 9 -5 1 -5 -18z"/>
<path d="M11615 12490 c9 -64 50 -183 97 -276 l41 -81 -28 -47 c-15 -25 -25
-46 -22 -46 3 0 17 21 33 47 l27 47 -31 60 c-50 97 -72 155 -98 251 -14 52
-22 71 -19 45z"/>
<path d="M4283 12495 c-57 -25 -71 -93 -29 -142 53 -61 156 -21 156 61 0 32
-37 86 -59 86 -5 0 -15 2 -23 5 -7 2 -27 -2 -45 -10z"/>
<path d="M4553 12495 c-57 -24 -71 -93 -30 -141 19 -21 32 -27 67 -27 54 0 90
35 90 87 0 32 -37 86 -59 86 -5 0 -15 2 -23 5 -7 2 -27 -2 -45 -10z"/>
<path d="M4844 12494 c-31 -15 -54 -50 -54 -80 0 -52 69 -104 116 -88 38 14
64 46 64 81 0 47 -16 72 -55 89 -41 17 -33 17 -71 -2z"/>
<path d="M9483 12400 c-70 -14 -163 -75 -163 -106 0 -19 11 -18 134 11 58 14
123 25 143 26 98 3 117 34 38 61 -54 19 -88 20 -152 8z"/>
<path d="M10245 12396 c-38 -16 -65 -42 -65 -62 0 -12 22 -13 137 -9 75 3 139
8 142 11 10 10 -16 39 -50 56 -41 20 -122 22 -164 4z"/>
<path d="M10424 12309 c-119 -15 -235 -101 -289 -214 -24 -51 -29 -73 -29
-145 -1 -47 2 -98 6 -115 4 -16 -19 23 -53 89 -33 65 -57 121 -54 124 3 4 27
-1 53 -10 47 -17 47 -17 23 3 -13 10 -38 19 -57 19 -27 0 -36 6 -49 30 -15 29
-32 42 -22 18 18 -49 17 -55 -8 -66 -20 -9 -26 -8 -34 6 -15 25 -12 3 5 -38 8
-19 13 -25 10 -14 -2 16 4 25 22 33 13 7 26 10 28 9 1 -2 32 -71 67 -153 36
-83 88 -198 116 -257 28 -59 51 -114 51 -122 0 -20 -22 -31 -95 -46 -89 -19
-86 -27 7 -17 136 14 144 35 69 200 -27 59 -48 107 -47 107 2 0 16 -18 31 -40
93 -135 304 -189 457 -118 65 30 135 91 161 140 16 30 16 30 0 8 -195 -279
-613 -193 -673 138 -28 158 54 313 205 388 54 26 70 29 155 29 83 -1 102 -4
153 -29 58 -28 113 -74 156 -131 l22 -30 -18 34 c-60 112 -226 188 -369 170z"/>
<path d="M10294 12160 c-35 -11 -101 -67 -90 -77 3 -3 25 2 48 13 46 21 156
26 217 10 26 -6 32 -5 29 5 -13 40 -137 70 -204 49z"/>
<path d="M9485 12090 c-37 -11 -103 -65 -93 -76 4 -4 27 1 50 12 46 21 156 26
217 10 26 -6 32 -5 29 5 -13 40 -137 70 -203 49z"/>
<path d="M11675 12000 c-9 -16 -13 -30 -11 -30 3 0 12 14 21 30 9 17 13 30 11
30 -3 0 -12 -13 -21 -30z"/>
<path d="M10302 11947 c-45 -48 -17 -117 48 -117 30 0 43 6 59 26 12 15 21 34
21 44 0 10 -9 29 -21 44 -27 34 -77 36 -107 3z"/>
<path d="M9543 11910 c-70 -29 -46 -140 31 -140 34 0 76 41 76 73 0 51 -59 87
-107 67z"/>
<path d="M12000 11839 c-12 -7 -10 -9 7 -9 13 0 44 -15 71 -34 50 -37 220
-121 262 -130 l25 -6 -25 11 c-140 64 -198 93 -247 127 -79 53 -77 52 -93 41z"/>
<path d="M11958 11823 c7 -3 16 -2 19 1 4 3 -2 6 -13 5 -11 0 -14 -3 -6 -6z"/>
<path d="M9912 11783 c-15 -48 -8 -55 8 -8 7 20 10 38 8 41 -3 2 -10 -13 -16
-33z"/>
<path d="M5392 11720 c-31 -13 -75 -14 -158 -6 -89 10 -127 -5 -179 -69 -22
-26 -62 -60 -91 -76 -75 -43 -81 -53 -88 -149 -3 -47 -9 -103 -12 -125 -8 -54
49 -168 86 -173 13 -2 34 -11 46 -19 30 -19 41 -11 54 37 13 49 25 51 44 7 15
-38 57 -74 94 -84 33 -8 95 12 118 39 17 19 16 19 -14 -3 -24 -17 -47 -24 -79
-24 -39 0 -49 5 -79 37 -46 51 -47 102 -3 152 54 62 145 56 187 -12 9 -16 22
-27 27 -25 9 2 85 -150 85 -169 0 -4 -10 -9 -22 -11 l-23 -4 23 -2 c28 -1 37
20 21 50 l-12 23 29 -19 c56 -36 146 -17 175 37 9 17 4 14 -20 -10 -27 -26
-40 -32 -77 -32 -36 0 -51 6 -80 33 -29 27 -35 39 -36 74 0 53 23 90 69 109
41 17 80 12 120 -18 l28 -20 -28 26 c-15 14 -40 29 -55 33 -15 3 -33 12 -40
20 -18 17 -57 17 -72 -2 -11 -13 -8 -15 21 -15 l34 0 -33 -20 c-18 -11 -37
-31 -43 -43 -17 -37 -62 -30 -110 16 -30 28 -49 37 -77 38 -34 2 -34 2 -7 6
41 6 52 19 21 27 -34 8 -111 -22 -83 -33 17 -6 17 -8 -6 -18 -13 -6 -34 -32
-47 -57 -12 -25 -25 -48 -29 -51 -4 -2 -8 35 -7 83 0 53 -5 96 -13 111 -11 21
-10 27 16 59 48 59 80 61 177 13 94 -47 138 -52 218 -21 46 17 54 18 64 6 9
-13 15 -12 42 4 89 54 78 199 -15 202 -27 1 -33 5 -33 23 0 46 -66 69 -128 45z
m-2 -512 c0 -19 -2 -20 -10 -8 -13 19 -13 30 0 30 6 0 10 -10 10 -22z"/>
<path d="M12385 11650 c11 -5 27 -9 35 -9 9 0 8 4 -5 9 -11 5 -27 9 -35 9 -9
0 -8 -4 5 -9z"/>
<path d="M12448 11633 c7 -3 16 -2 19 1 4 3 -2 6 -13 5 -11 0 -14 -3 -6 -6z"/>
<path d="M12493 11623 c9 -2 23 -2 30 0 6 3 -1 5 -18 5 -16 0 -22 -2 -12 -5z"/>
<path d="M9825 11335 c-22 -23 -37 -52 -44 -86 -10 -47 -9 -57 13 -104 33 -73
116 -119 176 -97 21 8 18 10 -25 15 -63 9 -109 45 -131 102 -14 39 -15 52 -5
87 7 23 26 54 42 70 l28 29 107 -57 c59 -32 104 -53 101 -47 -13 21 -184 123
-207 123 -13 0 -37 -15 -55 -35z"/>
<path d="M5444 11264 c-17 -14 -17 -15 -1 -10 10 3 32 6 48 6 18 0 28 4 24 10
-9 15 -49 12 -71 -6z"/>
<path d="M5187 11248 c-15 -11 -11 -13 28 -13 39 0 43 2 28 13 -9 6 -22 12
-28 12 -6 0 -19 -6 -28 -12z"/>
<path d="M5455 11200 c-9 -15 4 -30 26 -30 12 0 19 7 19 20 0 21 -33 29 -45
10z"/>
<path d="M5213 11193 c-21 -8 -15 -43 6 -43 11 0 23 5 27 11 8 14 -17 38 -33
32z"/>
<path d="M6588 11193 c167 -2 437 -2 600 0 163 1 27 2 -303 2 -330 0 -464 -1
-297 -2z"/>
<path d="M6442 11053 c70 -2 187 -2 260 0 73 1 16 3 -127 3 -143 0 -203 -2
-133 -3z"/>
<path d="M5300 11005 c-29 -35 -7 -95 34 -95 19 0 19 1 -4 13 -16 8 -26 23
-28 40 -4 32 17 44 48 27 12 -6 24 -9 27 -7 4 5 -49 37 -60 37 -3 0 -10 -7
-17 -15z"/>
<path d="M10315 10456 c-27 -11 -51 -21 -52 -21 -1 0 7 -66 18 -145 37 -278
26 -352 -76 -505 -42 -64 -85 -110 -190 -201 -147 -129 -141 -119 -185 -292
l-11 -43 -18 23 c-9 13 -88 125 -175 251 -88 125 -165 227 -173 227 -46 0
-162 86 -223 165 -93 121 -153 255 -176 395 l-17 101 -82 -81 -81 -81 -151
-39 c-166 -42 -353 -105 -520 -174 -265 -108 -401 -184 -473 -262 -77 -84
-239 -344 -330 -529 -172 -352 -786 -1719 -866 -1928 -48 -127 -74 -260 -81
-419 -10 -246 39 -384 166 -463 53 -33 60 -35 146 -35 l90 0 -39 23 c-63 35
-81 82 -80 202 1 121 26 294 54 367 39 104 149 216 274 278 58 30 61 30 224
30 l165 0 231 96 c293 123 275 114 281 134 3 10 -13 172 -36 361 l-42 344 17
160 c23 216 53 419 71 482 9 30 15 93 15 155 0 103 1 105 25 116 39 18 63 14
91 -13 17 -17 32 -24 44 -20 28 9 56 -10 69 -47 14 -37 30 -241 31 -368 0 -85
1 -87 104 -344 56 -142 110 -262 118 -267 13 -7 17 8 27 94 36 305 84 489 137
524 31 20 89 12 120 -18 46 -44 49 -110 13 -379 -12 -84 -8 -198 10 -355 15
-122 13 -263 -4 -330 -18 -71 -81 -205 -126 -273 -56 -81 -258 -338 -314 -398
-63 -68 -64 -73 -65 -366 l0 -198 546 0 546 0 -6 24 c-8 34 -26 157 -26 186 0
15 4 20 9 15 12 -12 31 -125 31 -182 l0 -43 1055 0 1055 0 0 159 0 158 -42 28
c-67 44 -265 197 -351 270 -142 122 -205 246 -312 615 -28 98 -71 216 -105
290 -75 162 -101 240 -107 320 -4 57 -2 69 19 100 23 33 27 35 80 35 49 0 60
-5 101 -38 57 -46 126 -150 161 -242 61 -160 80 -196 119 -236 37 -37 44 -40
76 -34 20 4 37 8 37 8 1 1 18 52 38 112 24 73 44 164 59 270 22 152 22 168 10
285 -17 152 -11 347 12 410 18 51 60 100 86 100 17 0 23 -13 63 -125 10 -28
15 -33 15 -18 1 12 15 38 32 58 27 30 38 36 67 33 l35 -3 84 -260 c62 -188 87
-282 93 -340 4 -47 20 -115 39 -165 37 -101 39 -153 17 -445 -8 -104 -17 -233
-20 -286 l-5 -96 128 -46 129 -45 66 24 c206 74 356 46 484 -91 141 -150 251
-391 252 -550 l1 -60 24 29 c48 59 90 288 102 546 7 167 -6 254 -52 357 -31
67 -124 215 -185 293 -25 32 -261 762 -485 1500 -47 157 -104 322 -126 367
-49 102 -155 243 -234 313 -83 73 -173 132 -187 124 -6 -4 -9 -3 -5 2 3 5
-240 53 -564 111 l-570 101 -55 44 c-31 23 -74 57 -97 74 l-42 31 -50 -21z
m98 -219 c3 -51 3 -107 -2 -123 -7 -27 -8 -26 -14 20 -10 69 -9 208 1 202 5
-3 12 -47 15 -99z m607 -116 c-22 -13 -210 -41 -266 -40 l-49 1 35 10 c37 11
215 35 265 37 22 0 26 -2 15 -8z m-2810 -192 c-32 -27 -160 -92 -160 -81 0 9
38 32 119 73 66 34 75 35 41 8z m1011 -176 c48 -70 66 -110 31 -67 -46 57
-140 182 -155 209 -31 52 71 -64 124 -142z m1873 -108 c93 -116 103 -136 28
-57 -67 69 -185 217 -190 235 -5 17 76 -72 162 -178z m837 -18 c64 -127 102
-217 95 -224 -5 -6 -163 313 -171 347 -10 39 8 10 76 -123z m-3366 106 c-14
-59 -152 -359 -161 -351 -8 9 151 378 164 378 2 0 1 -12 -3 -27z m-715 -452
c-19 -11 -124 -31 -164 -31 -47 0 -19 18 44 29 75 12 139 13 120 2z m2626 -68
c15 -27 49 -81 76 -122 27 -40 47 -75 44 -78 -7 -7 -85 96 -112 150 -50 97
-55 130 -8 50z m1430 -303 c-13 -68 -29 -127 -34 -132 -11 -11 10 123 34 217
28 108 28 52 0 -85z m-2723 -63 c81 -102 84 -119 7 -37 -69 72 -160 190 -159
205 0 12 70 -65 152 -168z m839 139 c41 -30 42 -94 3 -126 -25 -21 -82 -18
-106 6 -64 65 31 176 103 120z m-2665 -239 c88 -164 148 -284 157 -317 4 -14
-9 2 -29 35 -55 93 -217 415 -208 415 4 0 40 -60 80 -133z m3725 7 c-36 -86
-91 -193 -92 -177 -1 25 107 259 116 251 2 -3 -9 -36 -24 -74z m1153 -199 c53
-142 96 -277 91 -283 -3 -2 -12 13 -21 34 -23 54 -111 303 -119 339 -14 58 12
11 49 -90z m-1823 48 c-66 -79 -274 -290 -263 -267 14 29 280 314 293 314 5 0
-8 -21 -30 -47z m-1173 -495 c-18 -35 -135 -192 -160 -214 -22 -19 -22 -19
-11 1 6 11 36 56 67 100 89 124 137 176 104 113z m2978 -105 c53 -22 56 -35 6
-21 -49 13 -107 43 -160 81 -68 48 -50 49 34 1 42 -24 96 -52 120 -61z m-4943
-15 c-26 -50 -89 -142 -110 -158 -23 -19 26 69 81 144 43 60 56 66 29 14z
m2741 -64 c24 -10 46 -60 39 -89 -14 -57 -97 -75 -133 -29 -28 35 -26 69 4 99
24 24 57 31 90 19z m-2247 -389 c11 -44 18 -82 16 -84 -11 -12 -47 101 -50
158 -4 73 0 66 34 -74z m5067 -160 c23 -62 23 -67 6 -45 -21 26 -71 141 -71
163 0 22 39 -48 65 -118z m-5765 61 c0 -3 -37 -29 -82 -59 -46 -30 -114 -82
-151 -116 -73 -65 -88 -75 -65 -38 40 60 298 245 298 213z m3380 -308 c133
-156 270 -330 270 -343 -1 -15 -65 59 -223 255 -173 216 -161 200 -151 200 5
0 52 -50 104 -112z m-1025 71 c124 -26 146 -41 33 -23 -108 17 -228 44 -228
51 0 7 76 -4 195 -28z m-742 -276 c25 -60 61 -145 81 -190 19 -46 32 -83 27
-83 -16 0 -161 332 -161 371 0 22 11 2 53 -98z m1349 -40 c26 -29 30 -60 14
-91 -26 -51 -91 -59 -125 -16 -43 54 -10 124 58 124 24 0 44 -7 53 -17z m1178
-339 c-12 -51 -26 -97 -32 -100 -6 -4 -8 1 -5 12 3 11 8 37 12 59 10 63 37
151 42 137 3 -7 -5 -56 -17 -108z"/>
</g>
</svg>
