<svg width="236" height="250" viewBox="0 0 236 250" fill="none" xmlns="http://www.w3.org/2000/svg">
<path d="M140.273 143.339C140.316 143.378 140.358 143.419 140.397 143.462L140.748 143.827L142.102 145.266L147.213 150.756L165.324 170.341H165.115L185.658 146.742L185.8 146.581L185.917 146.76L187.413 149.021L202.956 172.49L202.74 172.453L217.68 160.484L217.766 160.416L217.84 160.496L229.245 173.466L232.324 177.004L233.124 177.931C233.303 178.141 233.389 178.252 233.389 178.252C233.389 178.252 233.284 178.153 233.1 177.956L232.287 177.004L229.146 173.509L217.667 160.632H217.828L202.925 172.681L202.802 172.78L202.71 172.644L187.148 149.212L185.646 146.946H185.898C178.422 155.53 171.39 163.59 165.33 170.544L165.226 170.662L165.121 170.544C157.682 162.429 151.456 155.648 147.09 150.88L142.041 145.321L140.717 143.851C140.575 143.685 140.464 143.561 140.378 143.469C140.292 143.376 140.267 143.345 140.273 143.339Z" fill="#E6E6E6"/>
<path d="M163.2 170.503C163.197 170.932 163.32 171.352 163.556 171.71C163.791 172.069 164.128 172.349 164.522 172.515C164.917 172.68 165.352 172.725 165.771 172.642C166.191 172.559 166.577 172.353 166.88 172.049C167.182 171.746 167.388 171.359 167.47 170.938C167.553 170.517 167.509 170.081 167.343 169.685C167.178 169.29 166.899 168.952 166.541 168.716C166.184 168.48 165.765 168.356 165.337 168.359C164.771 168.363 164.23 168.59 163.83 168.991C163.43 169.392 163.204 169.935 163.2 170.503Z" fill="#E0E0E0"/>
<path d="M200.931 173.077C200.933 173.505 201.062 173.923 201.301 174.277C201.54 174.631 201.879 174.906 202.274 175.067C202.669 175.228 203.103 175.268 203.521 175.182C203.939 175.096 204.321 174.887 204.621 174.582C204.92 174.278 205.123 173.891 205.203 173.471C205.283 173.051 205.237 172.616 205.071 172.222C204.904 171.828 204.625 171.493 204.269 171.258C203.912 171.023 203.494 170.9 203.068 170.903C202.497 170.908 201.952 171.14 201.551 171.547C201.151 171.955 200.927 172.505 200.931 173.077Z" fill="#E0E0E0"/>
<path d="M215.606 161.175C215.609 161.601 215.739 162.017 215.978 162.369C216.217 162.722 216.555 162.995 216.949 163.155C217.343 163.315 217.776 163.354 218.192 163.267C218.608 163.18 218.989 162.971 219.287 162.667C219.585 162.363 219.787 161.978 219.866 161.559C219.945 161.14 219.899 160.707 219.733 160.315C219.567 159.922 219.289 159.588 218.933 159.354C218.578 159.12 218.161 158.997 217.736 159.001C217.167 159.008 216.623 159.24 216.224 159.647C215.824 160.055 215.602 160.604 215.606 161.175Z" fill="#E0E0E0"/>
<path d="M183.626 147.032C183.628 147.46 183.757 147.878 183.996 148.232C184.235 148.586 184.574 148.861 184.969 149.022C185.364 149.184 185.798 149.223 186.216 149.137C186.633 149.051 187.016 148.842 187.316 148.538C187.615 148.233 187.818 147.846 187.898 147.426C187.978 147.006 187.932 146.571 187.766 146.177C187.599 145.783 187.32 145.448 186.963 145.213C186.607 144.978 186.189 144.855 185.762 144.858C185.192 144.863 184.646 145.095 184.246 145.502C183.845 145.91 183.622 146.46 183.626 147.032Z" fill="#E0E0E0"/>
<path d="M231.689 178.314C231.692 178.741 231.821 179.159 232.06 179.513C232.299 179.867 232.638 180.142 233.033 180.304C233.428 180.465 233.862 180.505 234.28 180.418C234.697 180.332 235.08 180.123 235.38 179.819C235.679 179.514 235.882 179.127 235.962 178.707C236.042 178.287 235.996 177.852 235.829 177.458C235.663 177.064 235.384 176.729 235.027 176.494C234.671 176.259 234.253 176.136 233.826 176.14C233.256 176.145 232.71 176.376 232.31 176.784C231.909 177.191 231.686 177.741 231.689 178.314Z" fill="#E0E0E0"/>
<path d="M42.9206 14.7588H29.0835V69.9541H42.9206V14.7588Z" fill="#E6E6E6"/>
<path d="M63.2736 26.7969H49.4365V69.9489H63.2736V26.7969Z" fill="#E6E6E6"/>
<path d="M83.9396 36.6553H70.1025V69.9503H83.9396V36.6553Z" fill="#E6E6E6"/>
<path d="M103.073 50.1807H89.2358V69.9564H103.073V50.1807Z" fill="#E6E6E6"/>
<path d="M91.9948 0.989258C91.9948 0.989258 91.8655 1.15601 91.613 1.45246L90.4615 2.78031L86.0831 7.78291L70.2939 25.6934L70.2077 25.7861L70.1092 25.712L59.8068 17.7943H60.0162L45.6064 36.1124L45.4339 36.3348L45.3293 36.4706L45.1999 36.3533L25.796 19.1654H26.0115C18.394 29.1953 11.9404 37.7614 7.3219 43.8201L1.94594 50.867L0.511118 52.7198L0.135477 53.1954C0.0935507 53.2515 0.0483103 53.3052 0 53.3559C0.0349805 53.2957 0.074076 53.2379 0.117004 53.183L0.474166 52.6889L1.87204 50.7929L7.17411 43.6966L25.7714 18.9554L25.8699 18.8257L25.9869 18.9307L45.4155 36.0754H45.1815L45.3539 35.853L59.7822 17.5472L59.8745 17.4299L59.9915 17.5225L70.2754 25.434H70.0907L85.9599 7.66556C87.8751 5.53483 89.3776 3.86112 90.406 2.72473L91.5822 1.42776C91.8532 1.11895 91.9948 0.989258 91.9948 0.989258Z" fill="#E6E6E6"/>
<path d="M89.7105 13.7911C89.7056 13.6974 89.716 13.6035 89.7413 13.5132L89.8953 12.7227C90.0554 11.9877 90.2709 11.0119 90.5111 9.81991C91.0591 7.34949 91.835 3.97737 92.728 0.197633L92.925 0.382914L92.2292 0.599075C88.3681 1.79105 84.8703 2.84716 82.3332 3.60063L79.3219 4.47146L78.4968 4.69379C78.4021 4.72918 78.3021 4.74798 78.2012 4.74938C78.2895 4.70125 78.3823 4.66195 78.4783 4.63203L79.285 4.35411L82.2655 3.38447C84.7841 2.57541 88.2757 1.48225 92.1183 0.29645L92.8142 0.0864642L93.0851 0L93.0174 0.27792C92.1614 4.07619 91.3794 7.43596 90.7636 9.87549C90.4618 11.0551 90.2155 12.0248 90.0369 12.7535C89.9507 13.0562 89.8768 13.3156 89.8214 13.5255C89.7976 13.619 89.7603 13.7085 89.7105 13.7911Z" fill="#E6E6E6"/>
<path d="M198.868 94.3153C201.617 94.2705 204.318 95.0444 206.629 96.5391C208.94 98.0338 210.758 100.182 211.851 102.713C212.945 105.243 213.266 108.042 212.774 110.756C212.281 113.469 210.998 115.975 209.085 117.957C207.173 119.939 204.718 121.308 202.03 121.89C199.342 122.472 196.542 122.242 193.984 121.229C191.427 120.216 189.226 118.464 187.661 116.197C186.096 113.929 185.236 111.247 185.191 108.489C185.135 104.792 186.543 101.223 189.107 98.5662C191.671 95.9091 195.181 94.3803 198.868 94.3153ZM199.2 114.931C200.515 114.906 201.792 114.492 202.872 113.739C203.952 112.986 204.784 111.93 205.266 110.702C205.747 109.475 205.854 108.133 205.575 106.844C205.295 105.556 204.641 104.379 203.695 103.463C202.75 102.547 201.554 101.933 200.26 101.698C198.967 101.464 197.633 101.619 196.427 102.144C195.221 102.669 194.197 103.541 193.485 104.65C192.773 105.758 192.405 107.054 192.426 108.372C192.441 109.249 192.629 110.114 192.977 110.918C193.326 111.722 193.829 112.45 194.458 113.059C195.087 113.668 195.83 114.147 196.644 114.468C197.457 114.789 198.326 114.947 199.2 114.931Z" fill="#E0E0E0"/>
<path d="M198.843 92.5788C202.99 92.5193 206.991 94.1112 209.969 97.0055C212.947 99.8998 214.659 103.86 214.731 108.019L205.247 108.266C205.186 104.134 202.396 102.454 199.089 102.244C198.277 102.196 197.463 102.316 196.699 102.598C195.935 102.88 195.237 103.318 194.65 103.883C194.063 104.449 193.599 105.13 193.287 105.885C192.976 106.639 192.823 107.45 192.839 108.266L183.454 108.519C183.39 104.359 184.974 100.344 187.86 97.3554C190.745 94.3666 194.695 92.6486 198.843 92.5788Z" fill="#F0F0F0"/>
<path d="M86.2737 155.766C91.0609 150.728 97.6286 147.776 104.564 147.545C111.499 147.314 118.248 149.822 123.357 154.531C125.868 156.851 127.894 159.648 129.318 162.759C130.742 165.871 131.537 169.234 131.655 172.656C131.774 176.078 131.214 179.489 130.009 182.692C128.803 185.895 126.976 188.826 124.632 191.315C119.845 196.353 113.277 199.305 106.342 199.536C99.4069 199.767 92.6583 197.259 87.5485 192.55C85.0383 190.23 83.0123 187.433 81.5879 184.322C80.1635 181.211 79.369 177.847 79.2504 174.425C79.1319 171.004 79.6916 167.593 80.8972 164.39C82.1028 161.187 83.9303 158.255 86.2737 155.766ZM114.601 182.039C115.724 180.849 116.6 179.447 117.178 177.915C117.756 176.382 118.024 174.749 117.967 173.112C117.91 171.474 117.528 169.864 116.845 168.376C116.161 166.888 115.189 165.551 113.985 164.443C111.539 162.195 108.31 160.999 104.994 161.115C101.678 161.23 98.5403 162.648 96.2559 165.061C95.1324 166.251 94.2562 167.653 93.6783 169.185C93.1003 170.718 92.8322 172.35 92.8895 173.988C92.9468 175.626 93.3284 177.235 94.0121 178.724C94.6958 180.212 95.6678 181.549 96.8717 182.656C99.3175 184.91 102.549 186.109 105.869 185.993C109.188 185.878 112.329 184.457 114.613 182.039H114.601Z" fill="#F5F5F5"/>
<path d="M86.2737 155.766C91.0608 150.728 97.6285 147.776 104.564 147.545C111.499 147.314 118.247 149.822 123.357 154.531L114.009 164.462C111.564 162.213 108.335 161.018 105.019 161.133C101.703 161.249 98.5649 162.666 96.2805 165.079C95.157 166.269 94.2808 167.671 93.7028 169.204C93.1249 170.736 92.8567 172.369 92.9141 174.007C92.9714 175.644 93.353 177.254 94.0366 178.742C94.7203 180.23 95.6924 181.567 96.8963 182.675L87.5361 192.569C85.024 190.248 82.9967 187.449 81.5717 184.336C80.1467 181.222 79.3524 177.856 79.235 174.432C79.1175 171.008 79.6793 167.595 80.8876 164.391C82.0958 161.187 83.9266 158.255 86.2737 155.766Z" fill="#E0E0E0"/>
<path d="M122.286 150.263C135.218 162.263 136.788 181.761 124.687 194.631L111.552 183.274C117.335 177.128 118.591 168.921 112.402 163.183L122.286 150.263Z" fill="#EBEBEB"/>
<path d="M110.185 184.089L117.987 199.566C121.213 198.38 124.121 196.458 126.479 193.952L112.464 182.601L110.185 184.089Z" fill="#E0E0E0"/>
<path d="M139.62 41.2263C139.507 34.2889 141.447 27.4734 145.196 21.6423C148.946 15.8111 154.335 11.2262 160.683 8.46755C167.031 5.70892 174.052 4.90052 180.858 6.14463C187.664 7.38874 193.949 10.6295 198.918 15.4568C203.888 20.2841 207.318 26.4812 208.774 33.264C210.231 40.0468 209.649 47.1106 207.103 53.5617C204.556 60.0129 200.159 65.5615 194.467 69.5056C188.775 73.4498 182.045 75.6123 175.128 75.7195C165.863 75.8517 156.924 72.2956 150.268 65.8303C143.613 59.365 139.784 50.5176 139.62 41.2263ZM191.305 40.3925C191.251 37.0768 190.218 33.8515 188.336 31.1246C186.454 28.3977 183.809 26.2916 180.734 25.0725C177.659 23.8535 174.293 23.5763 171.06 24.276C167.828 24.9757 164.876 26.6208 162.576 29.0034C160.276 31.386 158.732 34.399 158.14 37.6616C157.547 40.9241 157.932 44.2896 159.247 47.3325C160.561 50.3753 162.746 52.959 165.524 54.7567C168.303 56.5545 171.551 57.4856 174.857 57.4323C179.289 57.3559 183.511 55.5188 186.595 52.3242C189.678 49.1296 191.372 44.8384 191.305 40.3925Z" fill="#FAFAFA"/>
<path d="M139.621 41.2263C139.481 31.9283 143.025 22.9545 149.475 16.2745C155.926 9.59456 164.755 5.75431 174.026 5.59668L174.321 23.8963C169.887 23.9676 165.663 25.8025 162.577 28.9975C159.492 32.1925 157.799 36.4858 157.87 40.9329C157.941 45.3801 159.771 49.6168 162.956 52.711C166.142 55.8052 170.423 57.5035 174.857 57.4322L175.128 75.7195C165.862 75.855 156.921 72.2999 150.265 65.8339C143.609 59.3679 139.781 50.5186 139.621 41.2263Z" fill="#E0E0E0"/>
<path d="M170.885 2.77708C193.442 2.41269 211.442 19.8909 211.799 42.5137L190.449 42.8596C190.277 32.0392 182.031 25.227 171.249 25.4061L170.885 2.77708Z" fill="#F0F0F0"/>
<path d="M212.078 249.839C212.078 249.925 166.034 249.999 109.239 249.999C52.443 249.999 6.39941 249.925 6.39941 249.839C6.39941 249.752 52.4307 249.672 109.239 249.672C166.046 249.672 212.078 249.746 212.078 249.839Z" fill="#263238"/>
<path d="M69.5 164.203L183.608 163.382V164.988L69.5 166.013V164.203Z" fill="#263238"/>
<path d="M67.0117 47.853L69.6104 165.161L183.608 164.271V45.8828L67.0117 47.853Z" fill="white"/>
<path d="M67.0121 47.8511L183.608 45.7451H183.75V45.8872C183.75 79.7751 183.75 119.765 183.75 162.429V164.436H183.59L69.5923 165.307H69.4569V165.171C67.9851 94.8632 67.0244 49.0617 66.9937 47.8573C66.9937 49.0431 68.0898 94.8632 69.7278 165.159L69.5923 165.023L183.59 164.115L183.43 164.276V162.423C183.43 119.759 183.43 79.7689 183.43 45.881L183.571 46.023L67.0121 47.8511Z" fill="#263238"/>
<path d="M66.5557 48.6368L184.106 47.9636L184.254 43.0166L66.5557 43.7515V48.6368Z" fill="#263238"/>
<path d="M122.828 168.358C122.631 168.358 122.422 167.438 122.366 166.289C122.311 165.141 122.434 164.202 122.631 164.19C122.828 164.177 123.038 165.104 123.093 166.252C123.148 167.401 123.031 168.358 122.828 168.358Z" fill="#263238"/>
<path d="M122.785 167.514C122.785 167.47 122.982 167.458 123.29 167.582C123.476 167.66 123.65 167.764 123.807 167.89C124.019 168.061 124.197 168.271 124.331 168.508C124.514 168.836 124.605 169.207 124.597 169.583C124.588 169.959 124.479 170.326 124.282 170.645C124.163 170.838 124.013 171.009 123.838 171.151C123.656 171.299 123.447 171.41 123.222 171.479C122.746 171.611 122.24 171.574 121.788 171.374C121.559 171.272 121.35 171.129 121.172 170.954C120.994 170.778 120.854 170.568 120.759 170.336C120.589 169.915 120.552 169.451 120.655 169.008C120.73 168.639 120.908 168.299 121.167 168.026C121.426 167.753 121.756 167.558 122.12 167.464C122.586 167.337 123.082 167.38 123.518 167.588C123.814 167.736 123.924 167.89 123.9 167.928C123.875 167.965 123.709 167.928 123.426 167.853C123.04 167.781 122.642 167.815 122.274 167.952C122.037 168.045 121.826 168.193 121.658 168.385C121.466 168.61 121.341 168.886 121.296 169.179C121.251 169.473 121.289 169.773 121.406 170.046C121.54 170.339 121.78 170.571 122.077 170.694C122.373 170.827 122.705 170.855 123.019 170.775C123.308 170.7 123.558 170.519 123.721 170.268C123.882 170.032 123.977 169.757 123.998 169.472C124.017 169.342 124.017 169.211 123.998 169.082C123.978 168.961 123.943 168.843 123.894 168.73C123.736 168.367 123.488 168.05 123.173 167.81C122.945 167.65 122.785 167.563 122.785 167.514Z" fill="#263238"/>
<path d="M139.744 112.046C139.744 112.046 139.744 112.046 139.671 112.046H139.461L138.648 112.083L135.514 112.219L123.986 112.652C114.25 113.01 100.795 113.485 85.9417 113.998L80.8306 114.171H80.7136V114.054C79.679 100.423 78.743 88.2068 78.0964 79.4244C77.7762 75.0395 77.5237 71.5129 77.3451 69.0857C77.2651 67.8505 77.1973 66.9303 77.1542 66.2942C77.1542 65.973 77.1173 65.7322 77.1111 65.5654C77.105 65.3986 77.1111 65.4233 77.1111 65.3801C77.1111 65.3369 77.1111 65.3184 77.1111 65.3184C77.114 65.3388 77.114 65.3596 77.1111 65.3801C77.1111 65.4233 77.1111 65.4851 77.1111 65.5654C77.1111 65.6457 77.1481 65.973 77.1789 66.288C77.2281 66.9056 77.3082 67.8629 77.4129 69.0796C77.6038 71.5068 77.887 75.0333 78.2381 79.4059C78.9278 88.1636 79.8761 100.349 80.923 114.035L80.7998 113.924L85.911 113.745C100.764 113.238 114.238 112.787 123.955 112.479L135.489 112.12L138.624 112.034H139.437H139.72L139.744 112.046Z" fill="#455A64"/>
<path d="M98.4663 61.5201V63.095L114.711 62.3168V60.9951L98.4663 61.5201Z" fill="#263238"/>
<path d="M86.17 110.699H91.8169L90.9301 95.3271H85.394L86.17 110.699Z" fill="#019939"/>
<path d="M96.4038 110.706H102.045L101.164 89.2197H95.6279L96.4038 110.706Z" fill="#019939"/>
<path d="M105.986 110.022H111.633L110.746 81.8896H105.216L105.986 110.022Z" fill="#019939"/>
<path d="M127.97 108.929H133.611L132.73 70.5879H127.194L127.97 108.929Z" fill="#019939"/>
<path d="M117.274 109.056H122.915L122.028 76.0635H116.498L117.274 109.056Z" fill="#019939"/>
<path d="M82.6227 91.3453C82.4749 91.1167 92.5618 84.3725 105.143 76.2819C117.723 68.1913 128.057 61.8176 128.204 62.077C128.352 62.3364 118.265 69.0497 105.678 77.1404C93.0913 85.231 82.7582 91.5738 82.6227 91.3453Z" fill="#019939"/>
<path d="M122.619 62.0498C122.569 61.7781 126.221 60.864 130.79 59.9994L131.948 59.7832L131.289 60.7652L131.252 60.8208C128.641 64.7117 126.326 67.7441 126.11 67.6144C125.895 67.4847 127.822 64.1867 130.421 60.2896L130.458 60.2341L130.963 60.9999C126.4 61.8337 122.668 62.3154 122.619 62.0498Z" fill="#019939"/>
<path d="M85.394 115.895H91.2934L91.4782 116.944H85.394V115.895Z" fill="#263238"/>
<path d="M95.8374 115.462H101.737L101.922 116.512H95.8374V115.462Z" fill="#263238"/>
<path d="M106.59 115.152H112.49L112.674 116.202H106.59V115.152Z" fill="#263238"/>
<path d="M116.664 114.899H122.563L122.748 115.956H116.664V114.899Z" fill="#263238"/>
<path d="M129.146 114.529H135.045L135.23 115.585H129.146V114.529Z" fill="#263238"/>
<path d="M155.608 156.389C166.008 156.389 174.439 147.933 174.439 137.503C174.439 127.072 166.008 118.616 155.608 118.616C145.207 118.616 136.776 127.072 136.776 137.503C136.776 147.933 145.207 156.389 155.608 156.389Z" fill="#019939"/>
<path opacity="0.3" d="M155.608 156.389C166.008 156.389 174.439 147.933 174.439 137.503C174.439 127.072 166.008 118.616 155.608 118.616C145.207 118.616 136.776 127.072 136.776 137.503C136.776 147.933 145.207 156.389 155.608 156.389Z" fill="black"/>
<path d="M155.607 137.478L137.238 141.622C134.282 128.035 145.206 118.592 155.607 118.592" fill="#019939"/>
<path d="M155.632 137.478L155.509 118.592C169.377 118.592 176.249 131.308 174.032 141.499L155.632 137.478Z" fill="#019939"/>
<path d="M155.632 137.478L155.509 118.592C169.377 118.592 176.249 131.308 174.032 141.499L155.632 137.478Z" fill="#019939"/>
<path opacity="0.1" d="M155.632 137.478L155.509 118.592C169.377 118.592 176.249 131.308 174.032 141.499L155.632 137.478Z" fill="black"/>
<path d="M174.925 92.7831C174.559 92.5378 174.169 92.3308 173.761 92.1655C172.624 91.8166 171.404 91.8513 170.288 92.2643C168.847 92.7152 167.418 93.8639 166.033 95.3029C164.647 96.742 163.163 98.4836 160.995 99.5026C159.95 100.024 158.772 100.22 157.615 100.065C156.57 99.8473 155.561 99.4857 154.616 98.99C153.783 98.5554 152.894 98.2415 151.974 98.0575C151.174 97.9314 150.354 98.0342 149.609 98.3539C148.513 98.8204 147.617 99.6604 147.078 100.726C146.905 101.126 146.763 101.539 146.653 101.961C146.673 101.514 146.779 101.075 146.967 100.67C147.483 99.5453 148.389 98.6474 149.517 98.1439C150.289 97.7991 151.142 97.6771 151.98 97.7919C152.931 97.9688 153.851 98.2808 154.714 98.7183C155.635 99.1974 156.617 99.5465 157.633 99.7559C158.729 99.8926 159.84 99.7036 160.829 99.2124C162.911 98.2366 164.37 96.5073 165.792 95.093C167.215 93.6786 168.687 92.4867 170.183 92.0482C171.346 91.6415 172.611 91.6415 173.773 92.0482C174.083 92.168 174.376 92.3301 174.642 92.5299C174.746 92.6023 174.841 92.6873 174.925 92.7831Z" fill="#263238"/>
<path d="M176.52 104.987C176.52 105.079 169.832 105.147 161.587 105.147C153.341 105.147 146.653 105.079 146.653 104.987C146.653 104.894 153.341 104.826 161.587 104.826C169.832 104.826 176.52 104.9 176.52 104.987Z" fill="#263238"/>
<path d="M174.857 104.987C174.771 104.987 174.697 101.17 174.697 96.4575C174.697 91.7452 174.771 87.9346 174.857 87.9346C174.944 87.9346 175.018 91.7514 175.018 96.4575C175.018 101.164 174.95 104.987 174.857 104.987Z" fill="#263238"/>
<path d="M149.664 97.8042C149.664 97.8042 149.621 97.7424 149.664 97.6312C149.693 97.5533 149.738 97.4824 149.796 97.4237C149.855 97.3651 149.925 97.3199 150.003 97.2916C150.12 97.2396 150.249 97.2208 150.376 97.2372C150.503 97.2535 150.623 97.3043 150.724 97.3842C150.832 97.5063 150.896 97.6617 150.905 97.825C150.914 97.9883 150.868 98.1499 150.773 98.2833C150.679 98.4167 150.542 98.514 150.386 98.5594C150.229 98.6047 150.061 98.5954 149.911 98.5329C149.805 98.4694 149.717 98.3787 149.658 98.2702C149.598 98.1616 149.569 98.0392 149.572 97.9153C149.571 97.833 149.586 97.7513 149.617 97.6749C149.647 97.5986 149.693 97.5291 149.751 97.4707C149.843 97.3966 149.911 97.3966 149.917 97.4089C149.923 97.4213 149.751 97.588 149.794 97.903C149.802 97.984 149.83 98.0619 149.873 98.1305C149.917 98.1991 149.976 98.2565 150.046 98.2983C150.133 98.3201 150.224 98.3153 150.307 98.2846C150.391 98.2538 150.463 98.1985 150.515 98.1258C150.567 98.0532 150.596 97.9665 150.598 97.8772C150.6 97.7879 150.575 97.7 150.527 97.6251C150.465 97.5742 150.391 97.5392 150.313 97.523C150.235 97.5069 150.154 97.5101 150.077 97.5324C149.763 97.5818 149.707 97.8165 149.664 97.8042Z" fill="#263238"/>
<path d="M169.802 91.6108C169.802 91.6108 169.802 91.5367 169.913 91.4749C170.056 91.4027 170.222 91.3894 170.374 91.4378C170.496 91.471 170.606 91.5368 170.693 91.6283C170.78 91.7197 170.84 91.8333 170.867 91.9566C170.877 92.1159 170.832 92.2737 170.741 92.4047C170.65 92.5356 170.518 92.632 170.366 92.6784C170.214 92.7248 170.05 92.7184 169.902 92.6603C169.754 92.6022 169.63 92.4957 169.549 92.3581C169.505 92.239 169.494 92.1101 169.516 91.9851C169.539 91.86 169.595 91.7435 169.679 91.6478C169.783 91.5244 169.931 91.4468 170.091 91.4317C170.202 91.4317 170.257 91.4687 170.251 91.4873C170.245 91.5058 170.017 91.5181 169.863 91.7837C169.821 91.8498 169.794 91.925 169.786 92.0033C169.777 92.0816 169.787 92.1607 169.814 92.2346C169.868 92.3012 169.941 92.3502 170.023 92.3752C170.105 92.4002 170.193 92.4001 170.275 92.3749C170.357 92.3497 170.429 92.3006 170.483 92.2337C170.537 92.1669 170.57 92.0855 170.578 91.9999C170.561 91.923 170.527 91.8511 170.478 91.7899C170.429 91.7287 170.366 91.6801 170.294 91.6478C170.023 91.512 169.833 91.654 169.802 91.6108Z" fill="#263238"/>
<path d="M174.327 71.394C174.327 71.4804 167.849 71.5545 159.862 71.5545C151.875 71.5545 145.397 71.4804 145.397 71.394C145.397 71.3075 151.869 71.2334 159.862 71.2334C167.855 71.2334 174.327 71.3199 174.327 71.394Z" fill="#263238"/>
<path d="M174.327 75.4409C174.327 75.5335 167.849 75.6014 159.862 75.6014C151.875 75.6014 145.397 75.5335 145.397 75.4409C145.397 75.3482 151.869 75.2803 159.862 75.2803C167.855 75.2803 174.327 75.3544 174.327 75.4409Z" fill="#263238"/>
<path d="M174.327 79.4731C174.327 79.5595 167.849 79.6336 159.862 79.6336C151.875 79.6336 145.397 79.5595 145.397 79.4731C145.397 79.3866 151.869 79.3125 159.862 79.3125C167.855 79.3125 174.327 79.3804 174.327 79.4731Z" fill="#263238"/>
<path d="M174.327 83.4995C174.327 83.5921 167.849 83.66 159.862 83.66C151.875 83.66 145.397 83.5921 145.397 83.4995C145.397 83.4068 151.869 83.3389 159.862 83.3389C167.855 83.3389 174.327 83.413 174.327 83.4995Z" fill="#263238"/>
<path d="M160.792 64.041H145.397V65.3442H160.792V64.041Z" fill="#263238"/>
<path d="M97.2418 128.74H81.8467V130.043H97.2418V128.74Z" fill="#263238"/>
<path d="M123.974 136.294C123.974 136.387 114.632 136.455 103.11 136.455C91.5886 136.455 82.2407 136.387 82.2407 136.294C82.2407 136.202 91.5825 136.134 103.11 136.134C114.638 136.134 123.974 136.208 123.974 136.294Z" fill="#263238"/>
<path d="M124.221 139.949C124.221 140.035 114.713 140.109 102.988 140.109C91.2629 140.109 81.7549 140.035 81.7549 139.949C81.7549 139.862 91.2567 139.788 102.988 139.788C114.719 139.788 124.221 139.875 124.221 139.949Z" fill="#263238"/>
<path d="M124.706 143.397C124.706 143.483 115.143 143.557 103.35 143.557C91.5576 143.557 81.9941 143.483 81.9941 143.397C81.9941 143.31 91.5576 143.236 103.35 143.236C115.143 143.236 124.706 143.304 124.706 143.397Z" fill="#263238"/>
<path d="M104.206 147.064C104.206 147.15 99.28 147.224 93.2205 147.224C87.161 147.224 82.2407 147.15 82.2407 147.064C82.2407 146.977 87.1671 146.903 93.2205 146.903C99.2738 146.903 104.206 146.977 104.206 147.064Z" fill="#263238"/>
<path d="M37.1455 247.043V241.484L26.72 241.392L26.6338 249.563L27.2496 249.606C30.1254 249.785 41.8811 250.31 43.8085 249.742C45.9885 249.099 37.1455 247.043 37.1455 247.043Z" fill="#019939"/>
<path d="M44.0846 249.226C44.0846 249.325 40.1866 249.405 35.3772 249.405C30.5678 249.405 26.6636 249.325 26.6636 249.226C26.6636 249.127 30.5678 249.047 35.3772 249.047C40.1866 249.047 44.0846 249.127 44.0846 249.226Z" fill="#263238"/>
<path d="M37.3305 248.184C37.2443 248.134 37.3305 247.832 37.5399 247.566C37.7493 247.3 38.0387 247.128 38.1003 247.195C38.1618 247.263 38.0264 247.517 37.8232 247.813C37.6199 248.11 37.4167 248.233 37.3305 248.184Z" fill="#263238"/>
<path d="M37.9954 248.548C37.9031 248.511 37.9523 248.178 38.1556 247.832C38.3588 247.486 38.6297 247.276 38.7036 247.338C38.7775 247.4 38.6544 247.69 38.4635 248.011C38.2726 248.332 38.0878 248.585 37.9954 248.548Z" fill="#263238"/>
<path d="M29.7981 249.191C29.755 249.222 29.5949 249.074 29.3671 248.827C29.0897 248.504 28.7825 248.208 28.4495 247.944C28.1174 247.699 27.7304 247.54 27.3226 247.481C27.0085 247.437 26.8053 247.481 26.7868 247.431C26.7684 247.382 26.9654 247.252 27.3287 247.227C27.8075 247.214 28.2767 247.364 28.6589 247.654C29.0231 247.934 29.3322 248.279 29.5703 248.673C29.7612 248.963 29.8474 249.161 29.7981 249.191Z" fill="#263238"/>
<path d="M37.3612 247.134C37.4105 247.214 37.2258 247.412 36.9302 247.517C36.6346 247.622 36.3698 247.585 36.3575 247.486C36.3451 247.387 36.5484 247.276 36.8132 247.183C37.078 247.09 37.3058 247.047 37.3612 247.134Z" fill="#263238"/>
<path d="M37.1891 246.59C37.1891 246.689 36.9182 246.775 36.5733 246.781C36.2285 246.788 35.9575 246.707 35.9575 246.609C35.9575 246.51 36.2408 246.429 36.5733 246.423C36.9059 246.417 37.1891 246.491 37.1891 246.59Z" fill="#019939"/>
<path d="M44.0846 249.226C44.0846 249.325 40.1866 249.405 35.3772 249.405C30.5678 249.405 26.6636 249.325 26.6636 249.226C26.6636 249.127 30.5678 249.047 35.3772 249.047C40.1866 249.047 44.0846 249.127 44.0846 249.226Z" fill="#263238"/>
<path d="M37.3305 248.184C37.2443 248.134 37.3305 247.832 37.5399 247.566C37.7493 247.3 38.0387 247.128 38.1003 247.195C38.1618 247.263 38.0264 247.517 37.8232 247.813C37.6199 248.11 37.4167 248.233 37.3305 248.184Z" fill="#263238"/>
<path d="M37.9954 248.548C37.9031 248.511 37.9523 248.178 38.1556 247.832C38.3588 247.486 38.6297 247.276 38.7036 247.338C38.7775 247.4 38.6544 247.69 38.4635 248.011C38.2726 248.332 38.0878 248.585 37.9954 248.548Z" fill="#263238"/>
<path d="M29.7981 249.191C29.755 249.222 29.5949 249.074 29.3671 248.827C29.0897 248.504 28.7825 248.208 28.4495 247.944C28.1174 247.699 27.7304 247.54 27.3226 247.481C27.0085 247.437 26.8053 247.481 26.7868 247.431C26.7684 247.382 26.9654 247.252 27.3287 247.227C27.8075 247.214 28.2767 247.364 28.6589 247.654C29.0231 247.934 29.3322 248.279 29.5703 248.673C29.7612 248.963 29.8474 249.161 29.7981 249.191Z" fill="#263238"/>
<path d="M37.3612 247.134C37.4105 247.214 37.2258 247.412 36.9302 247.517C36.6346 247.622 36.3698 247.585 36.3575 247.486C36.3451 247.387 36.5484 247.276 36.8132 247.183C37.078 247.09 37.3058 247.047 37.3612 247.134Z" fill="#263238"/>
<path d="M37.1891 246.59C37.1891 246.689 36.9182 246.775 36.5733 246.781C36.2285 246.788 35.9575 246.707 35.9575 246.609C35.9575 246.51 36.2408 246.429 36.5733 246.423C36.9059 246.417 37.1891 246.491 37.1891 246.59Z" fill="#263238"/>
<path d="M48.1423 245.063L49.7866 239.733L39.8475 236.571L37.3843 244.347L38.0001 244.582C40.6911 245.607 51.7694 249.597 53.777 249.627C55.9815 249.652 48.1423 245.063 48.1423 245.063Z" fill="#019939"/>
<path d="M54.1289 249.21C54.1289 249.309 50.3479 248.228 45.754 246.795C41.1601 245.362 37.4591 244.133 37.4899 244.041C37.5207 243.948 41.2648 245.029 45.8649 246.456C50.4649 247.882 54.1597 249.117 54.1289 249.21Z" fill="#263238"/>
<path d="M47.9832 246.207C47.9155 246.132 48.0756 245.873 48.3712 245.657C48.6667 245.441 48.987 245.385 49.0177 245.472C49.0485 245.558 48.8515 245.756 48.5805 245.953C48.3096 246.151 48.0509 246.274 47.9832 246.207Z" fill="#263238"/>
<path d="M48.5066 246.757C48.4327 246.696 48.5743 246.387 48.8761 246.14C49.1778 245.893 49.4919 245.751 49.5473 245.831C49.6027 245.911 49.3933 246.152 49.1162 246.405C48.8391 246.659 48.5867 246.795 48.5066 246.757Z" fill="#263238"/>
<path d="M40.5005 244.942C40.4512 244.942 40.3465 244.775 40.2049 244.466C40.0358 244.077 39.8295 243.705 39.5891 243.355C39.3446 243.023 39.0234 242.756 38.6531 242.577C38.3637 242.447 38.1543 242.422 38.1543 242.373C38.1543 242.323 38.376 242.249 38.7331 242.336C39.1925 242.466 39.594 242.75 39.8724 243.139C40.1361 243.512 40.3301 243.931 40.4451 244.374C40.5251 244.707 40.5436 244.942 40.5005 244.942Z" fill="#455A64"/>
<path d="M48.3222 245.212C48.3222 245.304 48.1128 245.44 47.7987 245.453C47.4847 245.465 47.2384 245.348 47.2568 245.249C47.2753 245.15 47.5093 245.107 47.7864 245.094C48.0635 245.082 48.2729 245.113 48.3222 245.212Z" fill="#263238"/>
<path d="M48.3218 244.651C48.3218 244.743 48.0139 244.743 47.6752 244.651C47.3365 244.558 47.0964 244.391 47.1272 244.299C47.158 244.206 47.4535 244.212 47.7738 244.299C48.094 244.385 48.3465 244.552 48.3218 244.651Z" fill="#263238"/>
<path d="M55.2182 136.633L41.5351 135.577L20.8071 133.891L23.1225 245.56L41.1225 245.325C41.1225 245.325 41.1225 244.09 41.0794 241.903L51.6342 244.8C51.6342 244.8 61.9181 209.955 65.4221 195.657C68.3471 183.744 55.2182 136.633 55.2182 136.633ZM40.8823 224.561C40.6114 198.782 40.2973 154.945 40.6729 149.584C40.6729 149.584 50.6982 188.178 50.7906 191.223C50.8522 193.063 45.2668 210.875 40.8823 224.561Z" fill="#455A64"/>
<path d="M41.222 241.093C41.222 241.192 37.1946 241.272 32.2313 241.272C27.2679 241.272 23.2344 241.192 23.2344 241.093C23.2344 240.994 27.2617 240.914 32.2313 240.914C37.2008 240.914 41.222 240.994 41.222 241.093Z" fill="#455A64"/>
<path d="M41.061 237.078C41.6241 237.212 42.1758 237.39 42.7114 237.609L46.8311 239.048L50.9508 240.493C51.5335 240.661 52.0985 240.884 52.6381 241.161C52.0366 241.077 51.4446 240.934 50.8708 240.734C49.7993 240.419 48.3275 239.95 46.7141 239.388C45.1007 238.826 43.6351 238.27 42.6252 237.844C42.0709 237.663 41.5445 237.405 41.061 237.078Z" fill="#455A64"/>
<path d="M57.553 190.876C56.4397 191.137 55.3027 191.281 54.1599 191.309C53.0265 191.454 51.8811 191.481 50.7422 191.389C51.8548 191.124 52.9921 190.977 54.1353 190.95C55.2687 190.805 56.4143 190.781 57.553 190.876Z" fill="#455A64"/>
<path d="M56.3769 192.902C55.4917 192.827 54.6201 192.636 53.7843 192.334C52.9146 192.143 52.0739 191.838 51.2842 191.426C52.1719 191.493 53.0463 191.682 53.8829 191.988C55.2869 192.395 56.4077 192.803 56.3769 192.902Z" fill="#455A64"/>
<path d="M42.3304 135.718C42.4131 136.423 42.444 137.133 42.4227 137.842C42.4227 139.158 42.4227 140.974 42.4227 142.981C42.4227 143.975 42.4227 144.926 42.3858 145.803C42.4083 146.593 42.2613 147.379 41.9547 148.107C41.7363 148.603 41.3872 149.03 40.9448 149.342C40.794 149.468 40.6139 149.553 40.4214 149.589C40.4214 149.589 40.5938 149.478 40.8709 149.243C41.2598 148.909 41.5619 148.485 41.7515 148.008C42.0083 147.301 42.1234 146.549 42.0902 145.797C42.0902 144.914 42.0902 143.944 42.0902 142.968C42.0902 140.961 42.1395 139.145 42.1764 137.836C42.1745 137.127 42.2259 136.419 42.3304 135.718Z" fill="#455A64"/>
<path d="M32.0273 135.087C32.0339 135.177 32.0339 135.268 32.0273 135.359C32.0273 135.556 32.0273 135.822 32.0273 136.162C32.0273 136.878 31.9719 137.916 31.9287 139.25C31.8425 141.936 31.7194 145.796 31.5654 150.558C31.276 160.106 30.9804 173.304 30.9065 187.874C30.8326 202.443 30.9989 215.666 31.1898 225.208C31.2945 229.969 31.3745 233.854 31.4361 236.516C31.4361 237.844 31.4854 238.875 31.5038 239.604C31.5038 239.944 31.5038 240.222 31.5038 240.407C31.5105 240.497 31.5105 240.588 31.5038 240.679C31.4972 240.588 31.4972 240.497 31.5038 240.407C31.5038 240.216 31.5038 239.95 31.4607 239.61C31.4607 238.888 31.393 237.856 31.3376 236.522C31.2329 233.854 31.1097 229.988 30.9866 225.214C30.7341 215.66 30.537 202.461 30.6109 187.874C30.6848 173.286 31.0174 160.081 31.3622 150.552C31.5346 145.778 31.6947 141.905 31.8302 139.243C31.898 137.922 31.9534 136.89 31.9903 136.155C31.9903 135.816 32.0273 135.538 32.0396 135.352C32.0291 135.264 32.025 135.176 32.0273 135.087Z" fill="#455A64"/>
<path d="M50.7351 137.898C50.7725 137.98 50.8034 138.065 50.8275 138.152C50.8829 138.337 50.963 138.584 51.0615 138.905C51.2586 139.566 51.5726 140.542 51.9175 141.814C52.6257 144.352 53.5802 148.04 54.6455 152.628C55.7108 157.217 56.8932 162.689 58.1248 168.791C59.3564 174.893 60.6557 181.612 61.8196 188.703C61.9674 189.592 62.1029 190.475 62.2199 191.358C62.2199 191.593 62.263 191.834 62.263 192.062L62.1521 192.717C62.0721 193.156 62.0105 193.594 61.912 194.02C61.561 195.737 61.1668 197.417 60.7419 199.06C59.9045 202.345 59.0177 205.489 58.1433 208.478C56.4067 214.457 54.7317 219.805 53.3092 224.295C51.8867 228.785 50.6982 232.398 49.8607 234.893L48.8877 237.765L48.6229 238.512C48.6 238.598 48.5669 238.681 48.5244 238.759C48.5405 238.671 48.5631 238.585 48.5922 238.5C48.6537 238.315 48.7276 238.068 48.8262 237.747L49.7437 234.856L53.0937 224.227C54.4854 219.731 56.1357 214.376 57.86 208.398C58.7221 205.409 59.6027 202.259 60.4402 198.98C60.8589 197.343 61.2531 195.669 61.6041 193.958C61.7026 193.532 61.758 193.1 61.8319 192.668L61.9428 192.019C61.9428 191.809 61.912 191.605 61.8997 191.402C61.7827 190.531 61.6533 189.648 61.5055 188.764C60.3355 181.68 59.0423 174.961 57.8107 168.859C56.5791 162.757 55.4645 157.242 54.43 152.678C53.3954 148.114 52.4656 144.389 51.7943 141.845C51.4741 140.573 51.1785 139.591 50.9999 138.924L50.7967 138.164C50.7665 138.078 50.7458 137.989 50.7351 137.898Z" fill="#455A64"/>
<path d="M40.8279 222.294C40.8775 222.581 40.8961 222.873 40.8834 223.165C40.8834 223.782 40.8834 224.591 40.9141 225.549C40.9141 227.618 40.988 230.366 41.0312 233.398C41.0743 236.431 41.1913 239.179 41.2467 241.248C41.2467 242.206 41.2959 243.008 41.3144 243.632C41.3422 243.922 41.3422 244.213 41.3144 244.503C41.2465 244.22 41.2093 243.93 41.2036 243.638C41.1543 243.076 41.0989 242.267 41.0373 241.261C40.9141 239.253 40.7971 236.474 40.7294 233.405C40.6617 230.335 40.674 227.556 40.7294 225.549C40.7294 224.542 40.7725 223.696 40.7971 223.165C40.7847 222.874 40.795 222.583 40.8279 222.294Z" fill="#455A64"/>
<path d="M55.2182 136.633L41.5351 135.577L20.8071 133.891L23.1225 245.56L41.1225 245.325C41.1225 245.325 41.1225 244.09 41.0794 241.903L51.6342 244.8C51.6342 244.8 61.9181 209.955 65.4221 195.657C68.3471 183.744 55.2182 136.633 55.2182 136.633ZM40.8823 224.561C40.6114 198.782 40.2973 154.945 40.6729 149.584C40.6729 149.584 50.6982 188.178 50.7906 191.223C50.8522 193.063 45.2668 210.875 40.8823 224.561Z" fill="#263238"/>
<path d="M41.222 241.093C41.222 241.192 37.1946 241.272 32.2313 241.272C27.2679 241.272 23.2344 241.192 23.2344 241.093C23.2344 240.994 27.2617 240.914 32.2313 240.914C37.2008 240.914 41.222 240.994 41.222 241.093Z" fill="#455A64"/>
<path d="M41.061 237.078C41.6241 237.212 42.1758 237.39 42.7114 237.609L46.8311 239.048L50.9508 240.493C51.5335 240.661 52.0985 240.884 52.6381 241.161C52.0366 241.077 51.4446 240.934 50.8708 240.734C49.7993 240.419 48.3275 239.95 46.7141 239.388C45.1007 238.826 43.6351 238.27 42.6252 237.844C42.0709 237.663 41.5445 237.405 41.061 237.078Z" fill="#455A64"/>
<path d="M57.553 190.876C56.4397 191.137 55.3027 191.281 54.1599 191.309C53.0265 191.454 51.8811 191.481 50.7422 191.389C51.8548 191.124 52.9921 190.977 54.1353 190.95C55.2687 190.805 56.4143 190.781 57.553 190.876Z" fill="#455A64"/>
<path d="M56.3769 192.902C55.4917 192.827 54.6201 192.636 53.7843 192.334C52.9146 192.143 52.0739 191.838 51.2842 191.426C52.1719 191.493 53.0463 191.682 53.8829 191.988C55.2869 192.395 56.4077 192.803 56.3769 192.902Z" fill="#455A64"/>
<path d="M42.3304 135.718C42.4131 136.423 42.444 137.133 42.4227 137.842C42.4227 139.158 42.4227 140.974 42.4227 142.981C42.4227 143.975 42.4227 144.926 42.3858 145.803C42.4083 146.593 42.2613 147.379 41.9547 148.107C41.7363 148.603 41.3872 149.03 40.9448 149.342C40.794 149.468 40.6139 149.553 40.4214 149.589C40.4214 149.589 40.5938 149.478 40.8709 149.243C41.2598 148.909 41.5619 148.485 41.7515 148.008C42.0083 147.301 42.1234 146.549 42.0902 145.797C42.0902 144.914 42.0902 143.944 42.0902 142.968C42.0902 140.961 42.1395 139.145 42.1764 137.836C42.1745 137.127 42.2259 136.419 42.3304 135.718Z" fill="#455A64"/>
<path d="M32.0273 135.087C32.0339 135.177 32.0339 135.268 32.0273 135.359C32.0273 135.556 32.0273 135.822 32.0273 136.162C32.0273 136.878 31.9719 137.916 31.9287 139.25C31.8425 141.936 31.7194 145.796 31.5654 150.558C31.276 160.106 30.9804 173.304 30.9065 187.874C30.8326 202.443 30.9989 215.666 31.1898 225.208C31.2945 229.969 31.3745 233.854 31.4361 236.516C31.4361 237.844 31.4854 238.875 31.5038 239.604C31.5038 239.944 31.5038 240.222 31.5038 240.407C31.5105 240.497 31.5105 240.588 31.5038 240.679C31.4972 240.588 31.4972 240.497 31.5038 240.407C31.5038 240.216 31.5038 239.95 31.4607 239.61C31.4607 238.888 31.393 237.856 31.3376 236.522C31.2329 233.854 31.1097 229.988 30.9866 225.214C30.7341 215.66 30.537 202.461 30.6109 187.874C30.6848 173.286 31.0174 160.081 31.3622 150.552C31.5346 145.778 31.6947 141.905 31.8302 139.243C31.898 137.922 31.9534 136.89 31.9903 136.155C31.9903 135.816 32.0273 135.538 32.0396 135.352C32.0291 135.264 32.025 135.176 32.0273 135.087Z" fill="#455A64"/>
<path d="M50.7351 137.898C50.7725 137.98 50.8034 138.065 50.8275 138.152C50.8829 138.337 50.963 138.584 51.0615 138.905C51.2586 139.566 51.5726 140.542 51.9175 141.814C52.6257 144.352 53.5802 148.04 54.6455 152.628C55.7108 157.217 56.8932 162.689 58.1248 168.791C59.3564 174.893 60.6557 181.612 61.8196 188.703C61.9674 189.592 62.1029 190.475 62.2199 191.358C62.2199 191.593 62.263 191.834 62.263 192.062L62.1521 192.717C62.0721 193.156 62.0105 193.594 61.912 194.02C61.561 195.737 61.1668 197.417 60.7419 199.06C59.9045 202.345 59.0177 205.489 58.1433 208.478C56.4067 214.457 54.7317 219.805 53.3092 224.295C51.8867 228.785 50.6982 232.398 49.8607 234.893L48.8877 237.765L48.6229 238.512C48.6 238.598 48.5669 238.681 48.5244 238.759C48.5405 238.671 48.5631 238.585 48.5922 238.5C48.6537 238.315 48.7276 238.068 48.8262 237.747L49.7437 234.856L53.0937 224.227C54.4854 219.731 56.1357 214.376 57.86 208.398C58.7221 205.409 59.6027 202.259 60.4402 198.98C60.8589 197.343 61.2531 195.669 61.6041 193.958C61.7026 193.532 61.758 193.1 61.8319 192.668L61.9428 192.019C61.9428 191.809 61.912 191.605 61.8997 191.402C61.7827 190.531 61.6533 189.648 61.5055 188.764C60.3355 181.68 59.0423 174.961 57.8107 168.859C56.5791 162.757 55.4645 157.242 54.43 152.678C53.3954 148.114 52.4656 144.389 51.7943 141.845C51.4741 140.573 51.1785 139.591 50.9999 138.924L50.7967 138.164C50.7665 138.078 50.7458 137.989 50.7351 137.898Z" fill="#455A64"/>
<path d="M40.8279 222.294C40.8775 222.581 40.8961 222.873 40.8834 223.165C40.8834 223.782 40.8834 224.591 40.9141 225.549C40.9141 227.618 40.988 230.366 41.0312 233.398C41.0743 236.431 41.1913 239.179 41.2467 241.248C41.2467 242.206 41.2959 243.008 41.3144 243.632C41.3422 243.922 41.3422 244.213 41.3144 244.503C41.2465 244.22 41.2093 243.93 41.2036 243.638C41.1543 243.076 41.0989 242.267 41.0373 241.261C40.9141 239.253 40.7971 236.474 40.7294 233.405C40.6617 230.335 40.674 227.556 40.7294 225.549C40.7294 224.542 40.7725 223.696 40.7971 223.165C40.7847 222.874 40.795 222.583 40.8279 222.294Z" fill="#455A64"/>
<path d="M31.6454 83.0338L42.1141 83.812C42.2557 82.5768 42.4589 77.8768 42.4589 77.8768C42.4589 77.8768 46.8249 77.4754 47.1452 73.1398C47.4654 68.8042 47.3299 58.7928 47.3299 58.7928C44.9365 57.5796 42.2634 57.0298 39.587 57.2003C36.9107 57.3708 34.3284 58.2553 32.1073 59.7625L31.436 60.2195L31.6454 83.0338Z" fill="#E5BAAB"/>
<path d="M45.8402 66.1875C45.7573 66.0999 45.7018 65.9899 45.6805 65.871C45.6593 65.752 45.6733 65.6295 45.7208 65.5185C45.7684 65.4075 45.8473 65.3129 45.9479 65.2464C46.0484 65.18 46.1662 65.1445 46.2867 65.1445C46.4071 65.1445 46.525 65.18 46.6255 65.2464C46.7261 65.3129 46.805 65.4075 46.8526 65.5185C46.9001 65.6295 46.9141 65.752 46.8929 65.871C46.8716 65.9899 46.8161 66.0999 46.7332 66.1875C46.6756 66.2482 46.6064 66.2966 46.5296 66.3297C46.4529 66.3627 46.3702 66.3797 46.2867 66.3797C46.2032 66.3797 46.1205 66.3627 46.0438 66.3297C45.967 66.2966 45.8978 66.2482 45.8402 66.1875Z" fill="#263238"/>
<path d="M46.9485 65.2623C46.8746 65.3364 46.4743 64.9844 45.877 64.9411C45.2797 64.8979 44.8301 65.182 44.7685 65.1017C44.707 65.0214 44.8117 64.935 45.0149 64.8053C45.2769 64.6327 45.5895 64.5543 45.9016 64.5829C46.2161 64.6018 46.5153 64.7257 46.7514 64.935C46.93 65.0894 46.9854 65.2191 46.9485 65.2623Z" fill="#263238"/>
<path d="M40.0523 65.3611C40.1498 65.4325 40.2242 65.5311 40.2663 65.6446C40.3083 65.7582 40.3162 65.8816 40.2889 65.9996C40.2615 66.1175 40.2002 66.2248 40.1126 66.3081C40.0249 66.3914 39.9147 66.447 39.7958 66.468C39.6769 66.489 39.5544 66.4745 39.4437 66.4262C39.3329 66.378 39.2387 66.2981 39.1729 66.1966C39.107 66.0951 39.0724 65.9764 39.0733 65.8553C39.0741 65.7342 39.1105 65.616 39.1778 65.5155C39.224 65.4464 39.2837 65.3875 39.3532 65.3421C39.4227 65.2968 39.5006 65.266 39.5823 65.2515C39.6639 65.2371 39.7476 65.2394 39.8284 65.2582C39.9092 65.277 39.9853 65.312 40.0523 65.3611Z" fill="#263238"/>
<path d="M40.4466 65.3923C40.3727 65.4602 39.9724 65.1082 39.3751 65.0649C38.7777 65.0217 38.3282 65.312 38.2666 65.2317C38.205 65.1514 38.3097 65.0587 38.5068 64.929C38.7738 64.7627 39.0862 64.6849 39.3997 64.7067C39.7133 64.7296 40.0112 64.853 40.2495 65.0587C40.4281 65.2193 40.4835 65.3614 40.4466 65.3923Z" fill="#263238"/>
<path d="M42.5332 70.4675C42.8482 70.3698 43.1765 70.3219 43.5062 70.3254C43.6663 70.3254 43.7956 70.2945 43.8141 70.2081C43.8297 70.0486 43.7998 69.888 43.7279 69.7449L43.3338 68.5097C42.9546 67.4536 42.6762 66.3638 42.5024 65.2549C42.9796 66.2689 43.361 67.3255 43.6417 68.4108L44.0112 69.6461C44.1001 69.8504 44.1174 70.079 44.0604 70.2945C44.0345 70.3523 43.9954 70.4032 43.9461 70.4429C43.8969 70.4826 43.839 70.5101 43.7771 70.523C43.6893 70.5345 43.6003 70.5345 43.5124 70.523C43.1851 70.5571 42.8545 70.5383 42.5332 70.4675Z" fill="#263238"/>
<path d="M40.5567 71.0039C39.9409 70.5963 42.2071 72.0229 43.4264 72.0415C43.2049 72.3424 42.888 72.5589 42.5277 72.6554C42.1674 72.7519 41.7851 72.7227 41.4435 72.5726C40.1749 72.0106 40.5567 71.0039 40.5567 71.0039Z" fill="white"/>
<path d="M42.4358 77.8178C40.4362 77.7331 38.507 77.0538 36.8936 75.8662C36.8936 75.8662 38.0328 79.0716 42.3742 78.9542L42.4358 77.8178Z" fill="#D78776"/>
<path d="M32.2624 64.0691C32.1639 64.032 29.0479 63.6244 29.3435 67.3177C29.6391 71.0109 33.26 69.4855 33.2538 69.3805C33.2477 69.2755 32.2624 64.0691 32.2624 64.0691Z" fill="#E5BAAB"/>
<path d="M31.9913 68.1771C31.9913 68.1771 31.9359 68.2265 31.8312 68.2883C31.6829 68.3645 31.5115 68.3822 31.3509 68.3377C31.1015 68.2043 30.8917 68.0073 30.7425 67.7665C30.5933 67.5258 30.51 67.2499 30.5011 66.9666C30.4671 66.6513 30.505 66.3325 30.6119 66.034C30.6365 65.9159 30.6891 65.8054 30.7652 65.7119C30.8413 65.6184 30.9387 65.5446 31.0491 65.4967C31.1219 65.4732 31.2004 65.4751 31.2719 65.502C31.3435 65.5289 31.4039 65.5793 31.4432 65.6449C31.4987 65.7438 31.4863 65.8179 31.5048 65.824C31.5233 65.8302 31.5787 65.7561 31.5048 65.6079C31.4791 65.5172 31.4225 65.4385 31.3447 65.3856C31.2355 65.3204 31.1059 65.2983 30.9814 65.3238C30.8347 65.3654 30.7011 65.4441 30.5933 65.5522C30.4855 65.6603 30.4071 65.7943 30.3656 65.9414C30.2328 66.2721 30.1841 66.6308 30.224 66.9851C30.2308 67.3151 30.3351 67.6356 30.5236 67.906C30.7122 68.1765 30.9765 68.3847 31.2831 68.5045C31.3841 68.5257 31.4885 68.524 31.5886 68.4994C31.6888 68.4748 31.7822 68.428 31.862 68.3624C31.9913 68.2698 32.0098 68.1833 31.9913 68.1771Z" fill="#D78776"/>
<path d="M47.6078 57.2333C47.8571 57.2267 48.1014 57.1626 48.322 57.046C48.5426 56.9295 48.7335 56.7636 48.88 56.5613C49.0265 56.3589 49.1246 56.1254 49.1667 55.879C49.2088 55.6325 49.1939 55.3797 49.123 55.1399C49.0521 54.9002 48.9272 54.68 48.7579 54.4964C48.5886 54.3128 48.3795 54.1707 48.1467 54.0812C47.914 53.9916 47.6638 53.9569 47.4155 53.9798C47.1672 54.0027 46.9275 54.0826 46.7149 54.2132C47.2299 53.7845 47.6495 53.2522 47.9465 52.6507C48.0902 52.3473 48.1377 52.0071 48.0826 51.6758C48.0276 51.3445 47.8726 51.0381 47.6386 50.7979C47.3676 50.618 47.0541 50.5131 46.7298 50.4936C46.4054 50.474 46.0817 50.5407 45.7912 50.6867C44.8737 51.082 44.147 51.8602 43.2048 52.1875C42.2626 52.5148 41.2096 52.3543 40.1997 52.3975C39.0665 52.4178 37.9689 52.7984 37.0653 53.4845C36.2952 54.0913 35.7969 54.9798 35.6797 55.9549C35.5587 55.7882 35.4248 55.6313 35.2794 55.4855C34.8005 54.9122 34.1544 54.504 33.432 54.3182C33.3889 54.3985 34.2326 54.8679 35.0393 55.7078C35.2589 55.9186 35.4646 56.1435 35.6551 56.381C34.251 56.2081 32.7054 56.1958 31.5969 57.0728C31.1479 57.4742 30.793 57.9703 30.5577 58.5256C30.3224 59.0808 30.2125 59.6814 30.236 60.2843C30.236 61.4824 30.7287 62.625 31.0797 63.7738C31.1646 64.0992 31.3109 64.4053 31.5107 64.6755L32.0403 67.7635L33.9678 67.7264L33.8446 61.2478C33.8446 61.2478 33.6476 58.518 35.9876 58.7773C38.3277 59.0367 41.5298 61.6616 46.0745 60.9945C46.8202 60.9528 47.5466 60.7417 48.199 60.3769C48.5147 60.1763 48.7714 59.8949 48.9424 59.5615C49.1135 59.2282 49.1927 58.8552 49.172 58.4809C49.1271 58.1085 48.9379 57.7687 48.6451 57.5352C48.3524 57.3017 47.9797 57.1933 47.6078 57.2333Z" fill="#263238"/>
<path d="M86.7723 89.2046L87.0556 87.2407C87.3451 86.1663 87.5266 85.0656 87.5975 83.955C87.6439 83.4029 87.5939 82.847 87.4497 82.3122C87.3045 81.639 87.0639 80.9901 86.7354 80.3853C86.3782 79.8603 86.8462 79.1501 87.3512 79.3662C87.8561 79.5824 88.9092 80.9782 89.2478 82.9915C89.5865 85.0049 91.1692 82.2134 91.7603 81.2067C92.3515 80.2 94.3405 77.1675 94.7962 77.1058C95.4613 77.0131 95.683 77.7234 95.061 78.7054C94.4391 79.6874 92.801 82.8063 93.3491 83.0904C93.7594 83.0246 94.1789 83.0457 94.5807 83.1521C94.6455 83.1712 94.7028 83.2099 94.7447 83.263C94.7866 83.3161 94.8111 83.381 94.8147 83.4486C94.8124 83.7601 94.8455 84.0709 94.9132 84.375C94.9132 84.375 95.7199 84.1897 95.8862 84.5417C95.9986 84.9033 96.0507 85.281 96.0402 85.6596C96.0402 85.6596 96.656 85.4496 96.9515 85.6596C97.5674 86.1599 96.7791 87.0183 96.7791 87.0183C94.9659 89.1875 93.0181 91.24 90.9475 93.1635L86.7046 89.0626" fill="#E5BAAB"/>
<path d="M94.6675 84.5135C94.4865 84.8952 94.243 85.2438 93.9471 85.5449C93.7007 85.8413 93.3928 86.1624 93.0295 86.5515C92.84 86.7537 92.6341 86.9396 92.4137 87.1074C92.278 87.2156 92.1142 87.2824 91.9417 87.2999C91.7692 87.3174 91.5953 87.2849 91.4407 87.2062C91.3564 87.1566 91.2851 87.0877 91.2326 87.005C91.1801 86.9223 91.1481 86.8282 91.139 86.7306C91.1266 86.5566 91.1651 86.3828 91.2498 86.2304C91.4016 86.001 91.5661 85.7804 91.7425 85.5696C92.0565 85.1743 92.3152 84.8037 92.5307 84.4826C92.7375 84.1194 92.9744 83.7744 93.2389 83.4512C93.1363 83.862 92.9611 84.2511 92.7216 84.5999C92.4979 84.997 92.2512 85.3806 91.9826 85.7487C91.8192 85.9457 91.667 86.1519 91.527 86.3663C91.4161 86.5701 91.4223 86.8233 91.6009 86.9159C91.7014 86.9585 91.8114 86.9734 91.9196 86.9593C92.0278 86.9452 92.1303 86.9025 92.2167 86.8356C92.4211 86.6805 92.6145 86.5112 92.7955 86.3292C93.165 85.9833 93.4852 85.656 93.75 85.3781C94.0258 85.0594 94.3332 84.7697 94.6675 84.5135Z" fill="#D78776"/>
<path d="M95.7448 85.7774C95.5636 86.107 95.3307 86.4052 95.0551 86.6606C94.777 86.9595 94.4742 87.2343 94.1499 87.482C93.9552 87.6297 93.7493 87.7619 93.5341 87.8773C93.4062 87.9416 93.269 87.9854 93.1276 88.007C93.042 88.021 92.9544 88.0166 92.8706 87.9943C92.7867 87.9719 92.7086 87.9321 92.6411 87.8773C92.5274 87.7594 92.4556 87.6072 92.4366 87.4442C92.4177 87.2813 92.4528 87.1166 92.5365 86.9756C92.6611 86.7555 92.8076 86.5486 92.9737 86.358C93.2446 86.043 93.4971 85.7404 93.7496 85.4378C94.1991 84.919 94.4947 84.6163 94.5317 84.6411C94.3691 84.9802 94.162 85.2959 93.9159 85.5798L93.2262 86.5618C93.0807 86.7366 92.9489 86.9224 92.832 87.1177C92.7845 87.1964 92.7626 87.288 92.7692 87.3799C92.7758 87.4717 92.8107 87.5592 92.869 87.6303C92.9798 87.7352 93.2138 87.692 93.4171 87.5932C93.6192 87.4882 93.8146 87.3707 94.0021 87.2412C94.322 87.0122 94.6284 86.7648 94.9196 86.5C95.1644 86.2264 95.4415 85.9838 95.7448 85.7774Z" fill="#D78776"/>
<path d="M95.9977 87.5446C96.0285 87.5446 95.9977 87.8225 95.7083 88.1622C95.6206 88.2674 95.5127 88.3538 95.391 88.4164C95.2694 88.479 95.1365 88.5165 95.0001 88.5266C94.8238 88.5281 94.6522 88.4693 94.5137 88.3599C94.4373 88.2957 94.3761 88.2153 94.3346 88.1245C94.2931 88.0337 94.2722 87.9348 94.2735 87.8349C94.3223 87.5201 94.4494 87.2228 94.643 86.9702C94.7729 86.7664 94.9148 86.5705 95.0679 86.3835C95.3327 86.0624 95.5236 85.8956 95.5605 85.9265C95.5975 85.9574 95.462 86.1674 95.2526 86.5441C95.1295 86.7603 95.0063 86.9579 94.8955 87.1617C94.7471 87.3796 94.6444 87.6254 94.5937 87.8843C94.5985 87.9892 94.6434 88.0881 94.7191 88.1606C94.7948 88.2331 94.8955 88.2735 95.0001 88.2734C95.2045 88.2669 95.3995 88.1856 95.5482 88.0449C95.8253 87.7484 95.9546 87.5199 95.9977 87.5446Z" fill="#D78776"/>
<path d="M86.3104 86.6558C86.3104 86.6558 70.1579 102.596 67.8917 102.714C65.3054 102.837 57.3492 91.5225 57.3492 91.5225C52.2565 83.6419 45.5381 82.3696 43.0872 82.172V81.1962L31.0482 80.208C31.0482 80.208 31.0482 81.2456 31.0482 82.1535H25.7339C25.7339 82.1535 16.1889 81.715 14.7603 94.5735L21.6203 100.015L24.4345 110.514C25.4136 114.17 21.9159 119.994 20.2471 129.425C19.9897 130.997 20.2513 132.611 20.9922 134.02L55.7543 138.028L53.9068 111.372L53.3465 105.196C56.21 109.118 61.3519 114.664 67.6516 114.541C78.3973 114.337 93.3244 91.6893 93.3244 91.6893L86.3104 86.6558Z" fill="#E0E0E0"/>
<path d="M39.0363 81.0225C39.096 81.5705 39.096 82.1234 39.0363 82.6715C38.9465 84.0435 38.7613 85.4076 38.4821 86.7538L38.439 86.9576L38.2542 86.8588C37.8355 86.6365 37.3983 86.4018 36.9549 86.1424C35.2306 85.1234 33.7589 84.0734 32.6443 83.3447C32.0426 82.9774 31.4627 82.5753 30.9077 82.1403C31.092 82.1943 31.2681 82.2733 31.4311 82.375C31.7514 82.5541 32.2132 82.8135 32.7674 83.1532C33.8882 83.8326 35.3784 84.8578 37.0781 85.8645C37.5091 86.1177 37.9402 86.3586 38.3589 86.5809L38.1311 86.6859C38.4882 85.0925 38.6607 83.6658 38.79 82.6529C38.8391 82.1049 38.9214 81.5604 39.0363 81.0225Z" fill="#FAFAFA"/>
<path d="M43.1252 82.2391C43.0478 82.7697 42.9326 83.2939 42.7803 83.8079C42.6633 84.2958 42.5402 84.8763 42.3308 85.5063C42.2218 85.8393 42.0922 86.1652 41.9428 86.4821C41.8998 86.5957 41.8222 86.6929 41.7211 86.76C41.651 86.8032 41.5684 86.8212 41.4867 86.8111C41.405 86.801 41.3292 86.7634 41.2716 86.7044C41.1562 86.5338 41.0631 86.3491 40.9945 86.1548C40.3787 84.7528 39.8922 83.4805 39.535 82.5479C39.3104 82.0594 39.139 81.5479 39.0239 81.0225C39.3116 81.4767 39.5529 81.9588 39.7444 82.4615C40.157 83.3694 40.7051 84.6293 41.2901 86.0312C41.3469 86.1872 41.4169 86.3381 41.4995 86.4821C41.5302 86.4821 41.4995 86.4821 41.5549 86.4821C41.6012 86.4444 41.6373 86.3955 41.6596 86.34C41.8069 86.0362 41.9385 85.7249 42.0537 85.4075C42.2692 84.7899 42.417 84.2217 42.5586 83.7461C42.6811 83.2211 42.8716 82.7145 43.1252 82.2391Z" fill="#FAFAFA"/>
<path d="M40.883 125.373C40.8535 125.229 40.837 125.082 40.8337 124.935C40.8337 124.614 40.8091 124.202 40.7598 123.699C40.7105 122.563 40.6366 120.988 40.5504 119.055C40.4026 115.102 40.1933 109.698 39.9716 103.732C39.7499 97.7663 39.6083 92.3622 39.4851 88.4095C39.442 86.4703 39.405 84.8954 39.3743 83.759C39.3743 83.2402 39.3743 82.8202 39.3743 82.5238C39.3583 82.376 39.3583 82.2269 39.3743 82.0791C39.4026 82.2235 39.4171 82.3704 39.4174 82.5176C39.4174 82.8387 39.4666 83.2587 39.4974 83.7528C39.5467 84.883 39.6206 86.4579 39.7068 88.391C39.8546 92.3437 40.0578 97.7477 40.2856 103.714C40.5135 109.68 40.6428 115.084 40.7721 119.043C40.8152 120.976 40.8522 122.551 40.883 123.687C40.883 124.212 40.883 124.632 40.883 124.953C40.8975 125.093 40.8975 125.234 40.883 125.373Z" fill="#F5F5F5"/>
<path d="M38.6899 84.9261L39.6999 87.7176L40.5681 84.7223L39.2195 81.7207L38.6899 84.9261Z" fill="#019939"/>
<path d="M39.8853 86.8828L39.2202 118.307L43.9496 128.225L45.8155 117.065L39.8853 86.8828Z" fill="#019939"/>
<path d="M68.0646 106.599C68.0646 106.599 68.0646 106.692 68.0646 106.846L68.0276 107.081L67.9229 106.846C67.6846 106.221 67.5474 105.562 67.5165 104.894C67.4147 104.149 67.5037 103.39 67.7752 102.689C67.8675 102.689 67.7752 103.678 67.8367 104.876C67.886 105.728 68.0215 106.457 68.0646 106.809H67.9229C67.9784 106.642 68.0399 106.599 68.0646 106.599Z" fill="#FAFAFA"/>
<path d="M69.4508 106.493C68.9915 106.01 68.65 105.426 68.4532 104.789C68.1569 104.2 67.9949 103.552 67.979 102.893C68.2925 103.467 68.5483 104.071 68.7426 104.696C69.0363 105.271 69.2735 105.872 69.4508 106.493Z" fill="#FAFAFA"/>
<path d="M92.3157 93.189C90.9839 92.4824 89.7039 91.6816 88.4854 90.7927C87.2087 89.9935 85.9904 89.1039 84.8398 88.1309C86.1711 88.8431 87.451 89.6479 88.6701 90.5395C89.9465 91.3348 91.1647 92.2202 92.3157 93.189Z" fill="#FAFAFA"/>
<path d="M25.1743 98.2342C25.1743 98.2342 22.6126 116.145 23.8257 117.145C30.5257 122.796 39.8366 125.761 43.162 126.693C43.6484 126.576 44.215 126.422 44.8677 126.212C45.4336 126.031 45.9646 125.756 46.438 125.396C47.0426 124.971 47.5855 124.464 48.0514 123.89C48.1218 123.766 48.2286 123.668 48.3571 123.608C48.4856 123.548 48.6294 123.53 48.7687 123.556C48.9079 123.582 49.0358 123.65 49.1345 123.752C49.2333 123.854 49.2981 123.984 49.32 124.124C49.3508 124.742 48.3655 126.329 46.5119 127.49C46.5119 127.49 50.7794 134.376 52.1404 135C53.5013 135.624 57.3932 137.378 56.7343 137.712C56.0753 138.045 51.3398 136.668 51.3398 136.668L41.7333 134.092C41.7333 134.092 9.95786 129.096 12.0701 114.477C13.3694 105.516 14.7858 97.4437 15.2969 95.3994L25.1743 98.2342Z" fill="#E5BAAB"/>
<path d="M14.7614 94.5674L11.941 114.09C11.2821 120.099 15.2971 124.873 20.6977 127.56C28.9187 131.642 41.1239 134.557 41.0192 134.539C40.9145 134.52 41.8444 125.824 41.8444 125.824C41.8444 125.824 24.7312 118.413 24.1955 115.202C23.6597 111.99 26.3692 98.6497 26.3692 98.6497L14.7614 94.5674Z" fill="#E0E0E0"/>
<path d="M40.9939 134.539C40.9875 134.488 40.9875 134.436 40.9939 134.385C40.9939 134.261 40.9939 134.113 41.0247 133.934C41.0555 133.508 41.0986 132.933 41.1602 132.198C41.2895 130.667 41.4804 128.493 41.7083 125.818L41.776 125.93L33.1548 121.748L30.6915 120.513C29.8602 120.069 29.0227 119.581 28.1914 119.043C27.3479 118.497 26.5377 117.901 25.7651 117.258C25.3772 116.931 24.9892 116.585 24.6197 116.221C24.4114 116.037 24.2436 115.812 24.1271 115.56C24.0618 115.438 24.0141 115.307 23.9854 115.171C23.945 115.042 23.9162 114.91 23.8992 114.776C23.6221 112.639 24.1887 110.625 24.515 108.705C24.8414 106.784 25.1678 104.912 25.4757 103.146C26.0915 99.6011 26.6519 96.4143 27.1199 93.7215C27.3726 92.5286 27.5169 91.3152 27.5509 90.0962C27.5628 89.1789 27.3736 88.2702 26.9967 87.4343C26.755 86.9069 26.4118 86.4326 25.9868 86.0385C25.6912 85.7729 25.5126 85.6679 25.5188 85.6494C25.702 85.7419 25.8736 85.8559 26.0299 85.9891C26.4821 86.3716 26.8492 86.845 27.1076 87.3787C27.5118 88.2273 27.7221 89.1557 27.7234 90.0962C27.7096 91.3265 27.5797 92.5528 27.3354 93.7586C26.8859 96.4575 26.3501 99.6505 25.759 103.202C25.4572 104.974 25.1432 106.839 24.8168 108.76C24.7367 109.242 24.6505 109.73 24.5643 110.224C24.4781 110.718 24.3857 111.2 24.318 111.694C24.1561 112.692 24.1291 113.708 24.2379 114.714C24.2574 114.837 24.2842 114.958 24.318 115.078C24.3422 115.197 24.3837 115.311 24.4411 115.418C24.5426 115.636 24.6896 115.83 24.8722 115.986C25.2355 116.344 25.6112 116.684 25.993 117.005C26.7553 117.642 27.5552 118.232 28.3884 118.772C29.2075 119.309 30.0326 119.791 30.8517 120.235L33.3149 121.47L41.8684 125.744L41.9361 125.781V125.855C41.659 128.53 41.4373 130.697 41.2834 132.229C41.1971 132.958 41.1356 133.538 41.0863 133.958C41.0617 134.14 41.0432 134.288 41.0309 134.403C41.023 134.449 41.0106 134.495 40.9939 134.539Z" fill="#FAFAFA"/>
<path d="M39.4047 124.632C39.423 125.079 39.3878 125.527 39.3 125.966C39.1953 126.781 39.0229 127.905 38.7951 129.14C38.5672 130.376 38.3086 131.487 38.0992 132.284C38.0147 132.723 37.8718 133.149 37.6743 133.55C37.6958 133.104 37.7639 132.661 37.8775 132.228C38.0582 131.298 38.2634 130.248 38.4933 129.079C38.7088 127.58 39.0132 126.095 39.4047 124.632Z" fill="#FAFAFA"/>
<path d="M40.9934 134.537C40.8908 134.536 40.789 134.52 40.6916 134.487L39.848 134.283L36.769 133.468C34.1641 132.764 30.5432 131.838 26.6636 130.411C24.838 129.742 23.0603 128.947 21.3431 128.033C19.9402 127.285 18.6014 126.421 17.3404 125.452C16.4895 124.798 15.6868 124.084 14.9387 123.315C14.6739 123.043 14.483 122.827 14.3229 122.697C14.2496 122.624 14.1874 122.541 14.1382 122.45C14.1382 122.45 14.4461 122.74 15.0003 123.253C15.7811 123.982 16.6035 124.665 17.4635 125.297C18.737 126.216 20.0747 127.042 21.4662 127.768C23.1791 128.66 24.9482 129.44 26.7621 130.102C30.6171 131.523 34.2318 132.48 36.8182 133.246L39.8972 134.154L40.7286 134.419C40.8215 134.447 40.9105 134.486 40.9934 134.537Z" fill="#FAFAFA"/>
<path d="M41.2038 126.719C41.2075 126.829 41.1783 126.938 41.1199 127.032C41.0616 127.126 40.9767 127.2 40.8762 127.245C40.7757 127.29 40.664 127.304 40.5555 127.285C40.447 127.266 40.3465 127.216 40.2669 127.139C40.1873 127.063 40.1322 126.965 40.1086 126.857C40.085 126.749 40.0939 126.636 40.1343 126.534C40.1747 126.431 40.2447 126.342 40.3354 126.28C40.4261 126.217 40.5333 126.183 40.6435 126.182C40.7884 126.18 40.9282 126.235 41.0329 126.336C41.1377 126.436 41.199 126.574 41.2038 126.719Z" fill="#FAFAFA"/>
</svg>
