<svg width="72" height="72" viewBox="0 0 72 72" fill="none" xmlns="http://www.w3.org/2000/svg">
<rect width="72" height="72" rx="16" fill="#F5FFEB"/>
<path fill-rule="evenodd" clip-rule="evenodd" d="M32.2986 48.0891C31.7184 47.8755 31.0665 48.0399 30.6569 48.503C29.4385 49.8806 27.3768 50.7167 24.4103 50.9477C25.7739 48.2487 26.5003 46.1903 26.5789 44.6788C26.5972 44.3268 26.491 43.9796 26.2788 43.6981C24.7985 41.7338 24 39.4216 24 37C24 30.3874 29.9555 25 37.5 25C45.0445 25 51 30.3874 51 37C51 43.6126 45.0445 49 37.5 49C35.6817 49 33.9249 48.6877 32.2986 48.0891ZM22.2836 53.7217C22.6528 53.9172 23.0665 54.0133 23.4841 54.0006C27.2688 53.8855 30.187 52.9767 32.1806 51.2137C33.8737 51.7321 35.664 52 37.5 52C46.638 52 54 45.3402 54 37C54 28.6598 46.638 22 37.5 22C28.362 22 21 28.6598 21 37C21 39.8798 21.8867 42.6375 23.5243 45.0069C23.314 46.1856 22.5697 48.0332 21.2819 50.4655C20.6594 51.6413 21.1078 53.0991 22.2836 53.7217ZM37.5 45.8009C38.4941 45.8009 39.3 44.995 39.3 44.0009C39.3 43.0067 38.4941 42.2009 37.5 42.2009C36.5059 42.2009 35.7 43.0067 35.7 44.0009C35.7 44.995 36.5059 45.8009 37.5 45.8009ZM35.803 32.9748C35.9918 32.2413 36.6594 31.7009 37.4495 31.7009C38.3884 31.7009 39.1495 32.462 39.1495 33.4009C39.1495 34.1286 38.8824 34.4451 38.1761 35.1044L38.0636 35.2088C37.3352 35.8838 36.2338 36.9044 35.9646 38.7888C35.8475 39.6089 36.4173 40.3687 37.2374 40.4859C38.0575 40.603 38.8173 40.0332 38.9345 39.2131C39.051 38.3973 39.4449 38.0238 40.223 37.2975C41.0167 36.5567 42.1495 35.4732 42.1495 33.4009C42.1495 30.8052 40.0453 28.7009 37.4495 28.7009C35.2575 28.7009 33.4193 30.2002 32.8977 32.227C32.6912 33.0293 33.1742 33.8471 33.9764 34.0536C34.7787 34.2601 35.5965 33.7771 35.803 32.9748Z" fill="#019939"/>
</svg>
