<svg width="400" height="387" viewBox="0 0 400 387" fill="none" xmlns="http://www.w3.org/2000/svg">
<path d="M22.7983 168.931L50.76 178.834L43.7112 182.924L24.1648 194.09L17.8771 197.697L22.7983 168.931Z" fill="#EBEBEB"/>
<path d="M144.557 322.431L161.975 314.534L124.059 249.928L106.977 265.124L76.9141 212.418L60.3775 223.618L33.471 175.106L23.594 179.284L56.4423 244.686L75.0978 228.539L103.414 287.36L120.34 269.007L144.557 322.431Z" fill="#EBEBEB"/>
<path d="M395.632 248.457C394.935 253.2 392.846 257.629 389.629 261.183C386.412 264.737 382.213 267.257 377.564 268.423C372.914 269.589 368.023 269.349 363.51 267.733C358.997 266.117 355.065 263.198 352.212 259.346C349.359 255.493 347.714 250.881 347.484 246.093C347.255 241.305 348.452 236.556 350.923 232.449C353.394 228.341 357.029 225.06 361.367 223.019C365.705 220.979 370.55 220.272 375.29 220.988C381.625 221.945 387.322 225.373 391.135 230.521C394.947 235.67 396.564 242.119 395.632 248.457Z" fill="#F5F5F5"/>
<path d="M389.933 247.6C389.399 251.21 387.807 254.58 385.357 257.284C382.907 259.989 379.71 261.905 376.17 262.791C372.63 263.678 368.907 263.494 365.472 262.263C362.037 261.032 359.044 258.81 356.873 255.877C354.701 252.945 353.449 249.434 353.274 245.789C353.098 242.145 354.009 238.53 355.889 235.403C357.769 232.275 360.535 229.776 363.836 228.222C367.137 226.667 370.826 226.127 374.434 226.67C376.826 227.026 379.125 227.85 381.198 229.095C383.272 230.34 385.08 231.981 386.519 233.925C387.958 235.868 389 238.076 389.586 240.423C390.172 242.769 390.29 245.208 389.933 247.6Z" fill="#EBEBEB"/>
<path d="M390.019 247.055C389.889 246.307 389.837 245.548 389.864 244.789C389.747 242.767 389.321 240.775 388.601 238.882C388.098 237.59 387.455 236.357 386.681 235.206C385.795 233.894 384.743 232.702 383.55 231.66C382.909 231.09 382.224 230.573 381.5 230.112C380.757 229.622 379.976 229.191 379.165 228.823C378.326 228.439 377.459 228.121 376.57 227.872C375.657 227.62 374.726 227.435 373.785 227.319C372.841 227.208 371.89 227.171 370.94 227.206C370.017 227.246 369.097 227.353 368.19 227.526C367.307 227.692 366.439 227.929 365.595 228.235C364.786 228.516 364 228.857 363.242 229.256C361.84 229.995 360.538 230.91 359.368 231.98C358.35 232.92 357.437 233.967 356.643 235.102C355.506 236.776 354.631 238.614 354.049 240.551C353.9 241.296 353.674 242.024 353.374 242.722C353.258 241.954 353.305 241.17 353.513 240.422C353.913 238.341 354.696 236.353 355.822 234.558C356.6 233.301 357.523 232.14 358.572 231.098C359.782 229.91 361.15 228.894 362.637 228.08C363.439 227.632 364.275 227.248 365.137 226.929C366.038 226.594 366.963 226.328 367.904 226.134C368.879 225.933 369.868 225.811 370.862 225.77C372.906 225.683 374.95 225.925 376.916 226.488C377.87 226.765 378.801 227.115 379.701 227.535C380.573 227.942 381.411 228.416 382.209 228.953C382.973 229.475 383.695 230.053 384.372 230.683C386.726 232.818 388.492 235.522 389.5 238.536C390.169 240.547 390.462 242.664 390.365 244.781C390.41 245.555 390.292 246.33 390.019 247.055Z" fill="#E0E0E0"/>
<path d="M372.125 256.051L371.701 259.234L368.856 258.844L369.279 255.748C366.764 255.326 364.417 254.205 362.507 252.514L364.54 249.262C366.017 250.621 367.824 251.572 369.781 252.021L370.421 247.281C367.368 246.087 363.995 244.557 364.54 240.492C364.946 237.482 367.489 235.19 372.047 235.302L372.471 232.146L375.316 232.535L374.901 235.631C376.917 236.019 378.812 236.881 380.428 238.148L378.534 241.452C377.304 240.494 375.896 239.791 374.391 239.385L373.733 244.211C376.787 245.378 380.116 246.9 379.571 250.905C379.174 253.845 376.665 256.111 372.125 256.051ZM370.992 243.078L371.537 239.039C369.98 239.177 369.271 239.903 369.15 240.855C369.029 241.806 369.79 242.533 370.992 243.104V243.078ZM374.953 250.585C375.083 249.59 374.33 248.942 373.171 248.345L372.635 252.271C374.097 252.176 374.823 251.519 374.953 250.611V250.585Z" fill="#E0E0E0"/>
<path d="M378.075 58.3904C377.464 62.5158 375.643 66.3673 372.843 69.4574C370.042 72.5475 366.387 74.7373 362.342 75.7496C358.296 76.762 354.041 76.5514 350.115 75.1445C346.189 73.7376 342.769 71.1976 340.287 67.8461C337.805 64.4945 336.373 60.482 336.173 56.3164C335.972 52.1508 337.012 48.0193 339.16 44.4448C341.309 40.8704 344.469 38.0136 348.242 36.236C352.014 34.4585 356.23 33.8401 360.354 34.4591C363.089 34.8661 365.717 35.8082 368.088 37.2313C370.459 38.6544 372.527 40.5308 374.173 42.7532C375.818 44.9756 377.01 47.5004 377.68 50.1835C378.349 52.8666 378.484 55.6553 378.075 58.3904Z" fill="#F5F5F5"/>
<path d="M373.119 57.6464C372.657 60.7918 371.273 63.7293 369.141 66.0875C367.009 68.4458 364.225 70.1186 361.142 70.8944C358.059 71.6703 354.815 71.5142 351.821 70.4461C348.827 69.3779 346.217 67.4456 344.321 64.8936C342.425 62.3417 341.329 59.2848 341.171 56.1096C341.013 52.9345 341.8 49.7838 343.433 47.0562C345.066 44.3286 347.472 42.1467 350.345 40.7864C353.218 39.4262 356.431 38.9488 359.575 39.4147C361.663 39.7205 363.669 40.4349 365.48 41.5171C367.291 42.5993 368.871 44.028 370.129 45.7215C371.387 47.4149 372.299 49.3399 372.812 51.3861C373.325 53.4324 373.429 55.5597 373.119 57.6464Z" fill="#EBEBEB"/>
<path d="M373.189 57.1449C373.076 56.494 373.029 55.8332 373.05 55.1729C372.959 53.3963 372.588 51.6451 371.952 49.9836C371.516 48.8583 370.956 47.785 370.283 46.7836C369.505 45.6407 368.587 44.6003 367.55 43.6873C366.992 43.1941 366.396 42.7458 365.768 42.3467C365.122 41.9178 364.442 41.5418 363.735 41.2224C363.006 40.8773 362.251 40.5882 361.478 40.3575C360.681 40.1381 359.868 39.9763 359.048 39.8732C358.223 39.7858 357.394 39.7541 356.566 39.778C355.764 39.8107 354.966 39.9062 354.178 40.0634C353.413 40.2037 352.66 40.4091 351.93 40.6775C351.228 40.9129 350.546 41.2021 349.889 41.5424C348.666 42.182 347.532 42.9787 346.516 43.9122C345.628 44.7305 344.833 45.6441 344.146 46.6365C343.143 48.0902 342.376 49.6925 341.871 51.3848C341.74 52.0316 341.543 52.6633 341.283 53.2702C341.183 52.6003 341.224 51.9167 341.404 51.2637C341.755 49.4544 342.436 47.7248 343.411 46.1609C344.09 45.0758 344.894 44.0743 345.806 43.177C346.864 42.1533 348.057 41.2801 349.352 40.5824C350.05 40.1891 350.779 39.8536 351.532 39.5791C352.313 39.2837 353.117 39.0523 353.936 38.8872C354.792 38.7133 355.659 38.6063 356.531 38.5672C357.423 38.5344 358.316 38.5662 359.203 38.6623C360.081 38.7747 360.948 38.954 361.798 39.1985C362.633 39.4223 363.448 39.7115 364.237 40.0634C364.993 40.4153 365.72 40.829 366.408 41.3002C367.077 41.7431 367.71 42.2376 368.302 42.7792C369.392 43.7742 370.344 44.9117 371.13 46.1609C371.81 47.2455 372.358 48.4067 372.765 49.6204C373.349 51.369 373.607 53.21 373.526 55.0519C373.57 55.7659 373.454 56.4808 373.189 57.1449Z" fill="#E0E0E0"/>
<path d="M357.603 64.998L357.231 67.7743L354.758 67.437L355.121 64.7385C352.926 64.39 350.873 63.4309 349.197 61.9709L350.97 59.1341C352.258 60.3171 353.832 61.1455 355.536 61.5385L356.09 57.4043C353.435 56.3665 350.494 55.0345 350.97 51.4972C351.324 48.9025 353.564 46.8787 357.508 46.9652L357.88 44.2148L360.354 44.5521L359.99 47.2506C361.748 47.5841 363.4 48.3345 364.808 49.4387L363.165 52.3188C362.102 51.4707 360.882 50.8416 359.575 50.4679L359.004 54.6799C361.668 55.6918 364.557 57.0238 364.09 60.5092C363.735 63.0866 361.556 65.0585 357.603 64.998ZM356.609 53.7545L357.084 50.2344C355.735 50.3555 355.121 51.0042 355.009 51.8172C354.896 52.6302 355.571 53.2356 356.609 53.7286V53.7545ZM360.068 60.293C360.189 59.4281 359.532 58.8573 358.52 58.347L358.053 61.8066C359.324 61.6336 359.956 61.106 360.06 60.2411L360.068 60.293Z" fill="#E0E0E0"/>
<path d="M130.71 31.6997C132.552 38.4137 132.361 45.5235 130.161 52.1289C127.961 58.7344 123.851 64.5387 118.35 68.807C112.85 73.0752 106.207 75.6156 99.2617 76.1066C92.3168 76.5975 85.3823 75.0169 79.3361 71.5649C73.2899 68.1129 68.4038 62.9446 65.2963 56.7143C62.1888 50.484 60.9996 43.4718 61.8793 36.5653C62.759 29.6588 65.6679 23.1686 70.238 17.9162C74.808 12.6638 80.8337 8.88532 87.5522 7.05912C92.0038 5.8432 96.6514 5.51602 101.23 6.09628C105.808 6.67654 110.227 8.15286 114.234 10.441C118.242 12.729 121.76 15.7841 124.586 19.4317C127.413 23.0793 129.494 27.2479 130.71 31.6997Z" fill="#F5F5F5"/>
<path d="M122.597 33.8709C124.003 38.9882 123.858 44.4074 122.182 49.4424C120.505 54.4774 117.373 58.9017 113.18 62.1549C108.987 65.4082 103.924 67.3441 98.63 67.7175C93.3364 68.0909 88.051 66.885 83.4433 64.2525C78.8355 61.62 75.1125 57.6794 72.7459 52.9295C70.3793 48.1797 69.4754 42.8344 70.1488 37.5706C70.8221 32.3067 73.0424 27.361 76.5285 23.3599C80.0146 19.3588 84.6096 16.4822 89.7316 15.0943C96.5794 13.2389 103.883 14.1732 110.044 17.6927C116.204 21.2121 120.718 27.0296 122.597 33.8709Z" fill="#EBEBEB"/>
<path d="M122.407 33.0579C122.251 33.1098 121.836 32.0027 120.876 30.1346C119.539 27.5228 117.806 25.1334 115.739 23.0512C112.682 19.9727 108.921 17.6867 104.781 16.3916C103.597 16.0111 102.385 15.7219 101.157 15.5267C99.8792 15.3102 98.5865 15.1945 97.2907 15.1807C95.9486 15.1619 94.607 15.2458 93.2777 15.4316C91.9118 15.6198 90.5618 15.9089 89.2387 16.2964C87.9255 16.7253 86.645 17.2485 85.4072 17.8619C84.2042 18.4506 83.0477 19.1301 81.9477 19.8944C80.8835 20.6324 79.8773 21.4506 78.9379 22.342C78.031 23.1937 77.187 24.11 76.4124 25.0837C74.9759 26.8884 73.7782 28.8709 72.8491 30.9822C72.0407 32.8269 71.4402 34.756 71.0588 36.7336C70.5125 39.6278 70.4191 42.5893 70.782 45.5122C71.0329 47.5966 71.3096 48.7469 71.1539 48.7901C70.9983 48.8334 70.5053 47.7523 69.995 45.6506C69.3018 42.6503 69.1756 39.5468 69.6231 36.5001C69.9269 34.3835 70.4814 32.3105 71.275 30.3249C72.1968 28.0363 73.4246 25.8833 74.9248 23.9247C75.7292 22.8585 76.6171 21.8578 77.58 20.9322C78.5748 19.9552 79.648 19.0614 80.7888 18.2597C81.9689 17.4188 83.2156 16.6754 84.5164 16.037C87.1922 14.7123 90.0672 13.8358 93.0269 13.4423C94.4596 13.2465 95.9056 13.1655 97.3513 13.2002C98.7473 13.2264 100.139 13.3682 101.511 13.6239C102.826 13.8544 104.121 14.184 105.386 14.6099C107.717 15.3911 109.931 16.4851 111.968 17.8619C113.738 19.0626 115.358 20.4708 116.794 22.0566C118.867 24.3314 120.5 26.9706 121.611 29.8405C122.364 31.8384 122.519 33.0233 122.407 33.0579Z" fill="#E0E0E0"/>
<path d="M103.881 55.5444L105.17 60.0331L101.165 61.1834L99.9113 56.859C95.8723 57.7239 91.7122 57.6115 89.0052 56.5217L89.8095 50.9951C92.5671 51.9306 95.5199 52.1362 98.3805 51.5919L96.4604 44.8977C91.7036 45.0966 86.3067 45.0361 84.6548 39.3105C83.4353 35.0553 85.4764 30.5233 91.5739 27.9806L90.2938 23.5351L94.2982 22.3848L95.5523 26.7092C98.4653 26.0432 101.495 26.0787 104.391 26.813L103.812 32.3223C101.61 31.7676 99.3199 31.6559 97.0745 31.9936L99.0378 38.8089C103.786 38.5754 109.096 38.6532 110.722 44.3009C111.968 48.487 109.953 52.9757 103.881 55.5444ZM94.7826 38.9819L93.1912 33.2909C91.202 34.3807 90.7003 35.7818 91.0809 37.1051C91.4614 38.4284 92.8625 38.9213 94.7826 38.9819ZM104.435 46.6534C104.037 45.2523 102.653 44.8285 100.759 44.7161L102.342 50.2513C104.244 49.2308 104.824 47.9421 104.435 46.6534Z" fill="#E0E0E0"/>
<path d="M52.4292 90.9956C51.6276 95.2748 49.5744 99.2199 46.5297 102.332C43.485 105.444 39.5855 107.582 35.3249 108.477C31.0642 109.372 26.6339 108.982 22.5946 107.358C18.5553 105.734 15.0886 102.948 12.6332 99.353C10.1779 95.7578 8.84434 91.5151 8.80128 87.1617C8.75822 82.8083 10.0076 78.54 12.3913 74.897C14.7751 71.2539 18.186 68.3999 22.1924 66.6962C26.1987 64.9925 30.6205 64.5156 34.898 65.3259C37.7349 65.8598 40.4387 66.9474 42.8552 68.5265C45.2716 70.1056 47.3533 72.1453 48.9813 74.5291C50.6093 76.9128 51.7517 79.594 52.3433 82.4193C52.9349 85.2447 52.9641 88.159 52.4292 90.9956Z" fill="#F5F5F5"/>
<path d="M47.2918 90.0188C46.6811 93.2804 45.1164 96.2875 42.7959 98.6595C40.4754 101.032 37.5034 102.662 34.256 103.344C31.0086 104.026 27.6317 103.73 24.5529 102.492C21.4741 101.254 18.8317 99.131 16.9601 96.3908C15.0885 93.6507 14.0719 90.4169 14.0389 87.0987C14.006 83.7806 14.9582 80.5273 16.775 77.7505C18.5918 74.9737 21.1915 72.7984 24.2451 71.4997C27.2988 70.2011 30.669 69.8375 33.9294 70.4551C38.2956 71.2775 42.1563 73.8007 44.6622 77.4696C47.1682 81.1385 48.1141 85.6525 47.2918 90.0188Z" fill="#EBEBEB"/>
<path d="M47.3524 89.4995C47.2582 88.8175 47.2379 88.1274 47.2918 87.441C47.2584 85.5978 46.9374 83.7711 46.3404 82.0269C45.4726 79.4608 43.9876 77.1471 42.016 75.2894C41.4544 74.7485 40.8498 74.2539 40.2084 73.8105C39.55 73.3419 38.856 72.9255 38.1327 72.565C37.3832 72.1853 36.6054 71.8643 35.8062 71.605C34.9825 71.3444 34.1415 71.1421 33.2894 70.9996C32.4301 70.8731 31.5632 70.8066 30.6947 70.8007C29.8578 70.8053 29.0223 70.8718 28.1952 70.9996C27.3924 71.1238 26.6002 71.3089 25.8254 71.5531C25.0844 71.7879 24.3617 72.077 23.6632 72.418C21.2141 73.5849 19.0858 75.3303 17.462 77.5035C16.3622 78.9801 15.5012 80.6203 14.9106 82.3642C14.7443 83.034 14.5126 83.6858 14.2187 84.3102C14.1489 83.5984 14.2406 82.88 14.4868 82.2085C14.9205 80.3349 15.6976 78.5578 16.7787 76.9673C17.5211 75.8594 18.392 74.8433 19.3734 73.9402C20.5168 72.9089 21.7939 72.0362 23.1702 71.3456C23.916 70.9643 24.6911 70.6433 25.4881 70.3855C26.3147 70.1101 27.1621 69.9019 28.0222 69.7628C28.9166 69.6104 29.822 69.5323 30.7293 69.5293C31.6619 69.5359 32.5927 69.6111 33.5142 69.7542C34.4347 69.9048 35.3425 70.1245 36.23 70.4115C37.0811 70.7041 37.9082 71.0626 38.7035 71.4839C39.479 71.884 40.2221 72.3438 40.9263 72.8591C41.6013 73.3518 42.2401 73.8923 42.8377 74.4764C44.9062 76.4996 46.4167 79.0231 47.2226 81.802C47.7664 83.6497 47.96 85.5828 47.7934 87.5016C47.7835 88.1906 47.6334 88.8703 47.3524 89.4995Z" fill="#E0E0E0"/>
<path d="M30.8158 97.076L30.3142 99.9561L27.7195 99.5064L28.2038 96.7041C25.9262 96.2399 23.8269 95.1393 22.1497 93.53L24.1129 90.65C25.4089 91.9335 27.0148 92.8601 28.7747 93.3397L29.5271 89.0153C26.7941 87.8218 23.7756 86.3169 24.4157 82.6411C24.8913 79.9167 27.2784 77.9275 31.4212 78.1697L31.9142 75.3242L34.5088 75.7653L34.0245 78.5675C35.8441 78.9919 37.5368 79.8427 38.963 81.0497L37.1294 83.9817C36.0404 83.0705 34.7826 82.3828 33.4277 81.9579L32.6666 86.2823C35.3997 87.4499 38.3749 88.9461 37.7349 92.57C37.2938 95.3203 34.9326 97.2923 30.8158 97.076ZM30.2277 85.2704L30.8677 81.6206C29.4493 81.6984 28.7833 82.3471 28.6276 83.1947C28.472 84.0422 29.1898 84.7169 30.2277 85.2704ZM33.5661 92.2413C33.7218 91.3765 33.0645 90.7278 32.0266 90.1483L31.4039 93.6943C32.7445 93.6251 33.4191 93.0543 33.5661 92.2413Z" fill="#E0E0E0"/>
<path d="M396.082 284.911L375.074 284.15L378.663 288.682L388.627 301.128L391.827 305.15L396.082 284.911Z" fill="#F5F5F5"/>
<path d="M275.837 354.327L266.419 344.588L308.244 311.896L315.544 326.357L349.084 299.468L357.067 311.152L387.442 286.2L392.865 291.528L354.17 326.071L346.083 310.564L312.085 341.942L305.719 325.44L275.837 354.327Z" fill="#F5F5F5"/>
<path d="M356.15 97.8809L328.085 112.826L336.215 116.043L358.702 124.761L365.941 127.581L356.15 97.8809Z" fill="#E0E0E0"/>
<path d="M251.525 279.939L231.806 274.352L261.714 199.842L282.237 213.222L305.71 152.585L325.015 161.822L345.815 106.132L356.955 108.977L332.539 183.53L310.199 169.381L289.546 236.228L268.685 219.466L251.525 279.939Z" fill="#E0E0E0"/>
<path d="M397.129 385.852C397.129 385.982 308.227 386.085 198.577 386.085C88.9273 386.085 0 385.982 0 385.852C0 385.722 88.8841 385.627 198.577 385.627C308.27 385.627 397.129 385.731 397.129 385.852Z" fill="#263238"/>
<path d="M231.054 385.653H252.39V350.738H231.054V385.653Z" fill="#019939"/>
<path d="M317.084 385.653H338.42V326.417H317.084V385.653Z" fill="#019939"/>
<path d="M360.103 385.645H381.44V364.126H360.103V385.645Z" fill="#019939"/>
<path d="M274.064 385.645H295.401V334.141H274.064V385.645Z" fill="#019939"/>
<path d="M188.034 385.653H209.371V321.479H188.034V385.653Z" fill="#019939"/>
<path d="M145.024 385.645H166.36V303.091H145.024V385.645Z" fill="#019939"/>
<path d="M102.013 385.653H123.35L123.35 282.637H102.013L102.013 385.653Z" fill="#019939"/>
<path d="M58.985 385.645H80.3217L80.3217 254.874H58.985L58.985 385.645Z" fill="#019939"/>
<path d="M15.9744 385.645H37.3111L37.3111 213.74H15.9744L15.9744 385.645Z" fill="#019939"/>
<path d="M344.137 362.509C340.648 355.893 335.476 350.314 329.142 346.336C322.808 342.357 315.538 340.12 308.063 339.849C317.101 329.842 318.883 314.361 313.667 301.924C308.452 289.487 296.975 280.206 284.088 276.211C271.202 272.215 257.113 273.149 244.304 277.283C245.8 267.562 236.07 257.849 226.349 259.363C228.284 258.038 229.651 256.036 230.18 253.751C230.708 251.467 230.36 249.067 229.204 247.027C228.049 244.987 226.169 243.455 223.937 242.735C221.706 242.015 219.286 242.158 217.155 243.137L217.734 171.811H175.355L175.926 243.103C173.781 242.027 171.305 241.816 169.009 242.514C166.714 243.212 164.774 244.765 163.59 246.852C162.407 248.939 162.07 251.401 162.65 253.73C163.23 256.058 164.682 258.074 166.706 259.363C156.985 257.849 147.255 267.562 148.743 277.283C135.908 273.149 121.81 272.206 108.958 276.211C96.1059 280.215 84.5424 289.478 79.3531 301.924C74.1638 314.369 75.8935 329.842 84.9662 339.849C77.4905 340.12 70.2185 342.358 63.8835 346.336C57.5485 350.314 52.3745 355.893 48.8832 362.509C44.9393 370.223 44.5588 381.614 52.239 385.644H340.781C348.453 381.614 348.09 370.223 344.137 362.509Z" fill="#EBEBEB"/>
<path d="M52.213 385.644L51.1838 385.03C50.1914 384.365 49.3149 383.541 48.5892 382.591C47.4577 381.006 46.6926 379.189 46.3491 377.272C45.8766 374.641 45.9089 371.943 46.4442 369.324C47.0753 366.012 48.3253 362.849 50.1287 360.001C52.2254 356.552 54.8224 353.433 57.8348 350.746C61.3024 347.61 65.2577 345.06 69.5453 343.196L71.2751 342.461L73.074 341.829C73.681 341.611 74.2988 341.423 74.9249 341.267C75.5562 341.094 76.1789 340.895 76.8276 340.757C79.4796 340.161 82.1808 339.811 84.897 339.71L84.7932 339.935C82.0642 336.852 79.9321 333.289 78.5055 329.427C76.5305 323.963 75.8311 318.12 76.4607 312.344C77.0903 306.568 79.0322 301.013 82.138 296.103C83.4585 293.945 84.9818 291.918 86.6873 290.049C93.9853 282.072 103.661 276.662 114.277 274.619C119.893 273.51 125.634 273.172 131.341 273.616C137.256 274.094 143.095 275.255 148.743 277.076L148.483 277.3C148.148 274.951 148.403 272.555 149.227 270.329C150.091 268.022 151.423 265.918 153.139 264.149C154.855 262.381 156.918 260.987 159.199 260.055C161.578 259.094 164.169 258.787 166.706 259.164L166.551 259.544C164.579 258.186 163.188 256.139 162.651 253.806C162.114 251.473 162.471 249.024 163.651 246.941C164.831 244.858 166.748 243.292 169.025 242.553C171.302 241.814 173.773 241.954 175.952 242.947L175.649 243.146C175.459 220.443 175.269 196.503 175.07 171.854V171.629H217.899V171.811C217.7 196.399 217.501 220.244 217.319 243.103L217.017 242.904C219.195 241.911 221.666 241.771 223.943 242.51C226.22 243.249 228.138 244.814 229.318 246.897C230.497 248.98 230.854 251.43 230.317 253.763C229.781 256.096 228.389 258.143 226.418 259.501L226.262 259.121C228.757 258.753 231.306 259.051 233.648 259.985C235.937 260.904 238.011 262.288 239.737 264.049C241.464 265.81 242.807 267.91 243.681 270.217C244.54 272.479 244.808 274.923 244.459 277.318L244.2 277.093C249.847 275.272 255.687 274.111 261.601 273.633C267.3 273.191 273.031 273.526 278.64 274.628C289.245 276.668 298.914 282.062 306.221 290.014C307.924 291.887 309.45 293.914 310.779 296.068C312.093 298.142 313.206 300.337 314.1 302.624C314.973 304.848 315.63 307.151 316.063 309.5C316.479 311.783 316.696 314.098 316.712 316.419C316.722 320.841 315.961 325.231 314.463 329.392C313.034 333.272 310.893 336.851 308.149 339.944L308.054 339.719C310.773 339.819 313.477 340.17 316.132 340.766C316.772 340.913 317.404 341.111 318.035 341.276C318.662 341.433 319.279 341.624 319.886 341.847L321.693 342.478L323.423 343.213C327.718 345.078 331.679 347.631 335.151 350.772C338.157 353.466 340.75 356.587 342.848 360.035C344.645 362.886 345.892 366.049 346.524 369.359C347.05 371.977 347.077 374.67 346.602 377.298C346.255 379.212 345.49 381.025 344.362 382.609C343.639 383.558 342.762 384.38 341.767 385.039C341.093 385.454 340.738 385.653 340.738 385.653L341.75 385.004C342.715 384.332 343.564 383.508 344.267 382.565C345.375 380.982 346.122 379.176 346.455 377.272C346.912 374.659 346.874 371.983 346.343 369.385C345.704 366.094 344.455 362.952 342.658 360.122C340.561 356.699 337.97 353.604 334.969 350.937C331.51 347.819 327.567 345.287 323.293 343.438L321.564 342.712L319.765 342.089C319.161 341.867 318.546 341.677 317.923 341.518C317.291 341.354 316.668 341.163 316.028 341.016C313.39 340.431 310.703 340.086 308.002 339.987H307.717L307.907 339.771C310.617 336.7 312.732 333.151 314.143 329.306C315.626 325.169 316.375 320.805 316.357 316.41C316.333 314.113 316.116 311.822 315.708 309.561C315.275 307.231 314.618 304.948 313.745 302.745C312.856 300.477 311.753 298.3 310.45 296.241C309.133 294.129 307.628 292.14 305.953 290.3C298.693 282.412 289.091 277.066 278.562 275.052C272.984 273.96 267.285 273.631 261.619 274.074C255.739 274.557 249.934 275.717 244.321 277.534L244.01 277.629L244.053 277.309C244.393 274.976 244.131 272.594 243.292 270.39C242.432 268.15 241.118 266.112 239.433 264.403C237.749 262.695 235.729 261.352 233.501 260.461C231.227 259.545 228.75 259.246 226.323 259.596L225.415 259.743L226.176 259.216C228.048 257.913 229.366 255.958 229.872 253.734C230.377 251.51 230.034 249.177 228.909 247.193C227.785 245.208 225.959 243.716 223.791 243.007C221.623 242.299 219.269 242.425 217.19 243.362L216.887 243.501V243.163C217.068 220.322 217.25 196.46 217.449 171.871L217.674 172.096H175.355L175.58 171.871C175.77 196.52 175.961 220.452 176.142 243.163V243.501L175.831 243.362C173.762 242.461 171.433 242.355 169.292 243.066C167.15 243.777 165.346 245.254 164.228 247.214C163.109 249.174 162.754 251.478 163.23 253.683C163.707 255.889 164.982 257.841 166.81 259.164L167.571 259.691L166.654 259.544C164.202 259.182 161.697 259.48 159.398 260.409C157.14 261.325 155.1 262.707 153.413 264.466C150.066 267.925 148.224 272.716 148.924 277.205L148.976 277.525L148.665 277.43C143.053 275.61 137.248 274.449 131.367 273.971C125.698 273.532 119.996 273.86 114.415 274.948C103.861 276.983 94.2432 282.366 86.99 290.3C85.3019 292.152 83.7878 294.155 82.4666 296.285C81.1599 298.339 80.059 300.518 79.1801 302.788C75.8621 311.3 75.733 320.724 78.8168 329.323C80.2317 333.154 82.3429 336.691 85.044 339.754L85.2343 339.97H84.9402C82.2449 340.069 79.5643 340.414 76.9314 340.999C76.2914 341.137 75.6687 341.336 75.0373 341.501C74.4059 341.665 73.8005 341.838 73.1951 342.063L71.4048 342.686L69.675 343.412C65.4024 345.255 61.4587 347.782 57.9991 350.893C55.0009 353.565 52.4078 356.659 50.3016 360.078C48.5066 362.91 47.2542 366.051 46.6086 369.341C46.0746 371.943 46.0335 374.621 46.4875 377.238C46.8169 379.145 47.5642 380.955 48.6756 382.539C49.3762 383.489 50.2296 384.317 51.2011 384.987L52.213 385.644Z" fill="#263238"/>
<path d="M141.521 74.1129L194.893 11.9883L246.18 74.1129H226.167V175.443H164.034V74.2253L141.521 74.1129Z" fill="#019939"/>
<path d="M395.018 175.07L357.232 186.686L366.408 192.472L391.827 208.29L400 213.402L395.018 175.07Z" fill="#019939"/>
<path d="M224.498 371.719L201.725 360.337L255.737 276.859L277.671 297.884L320.569 229.731L341.984 245.446L380.462 182.682L393.401 188.727L346.083 273.538L322.117 251.163L281.191 327.506L259.655 302.312L224.498 371.719Z" fill="#019939"/>
<g opacity="0.3">
<path d="M246.786 350.201C241.597 346.741 234.902 346.395 228.805 347.606C226.79 348.004 224.558 348.523 222.794 347.476C221.03 346.43 220.442 344.233 219.75 342.287C216.186 332.497 206.413 325.785 196.13 324.073C185.846 322.36 177.595 323.208 168.28 327.852C161.722 330.954 156.127 335.775 152.09 341.803C150.697 343.887 148.163 348.134 148.163 348.134C146.304 349.5 143.839 349.595 141.556 349.967C136.838 350.816 132.468 353.017 128.978 356.303C125.488 359.588 123.028 363.818 121.897 368.476L252.546 366.409C255.002 360.666 251.967 353.634 246.786 350.201Z" fill="black"/>
</g>
<path d="M114.744 377.03C118.826 362.56 134.922 352.631 149.685 355.485C152.79 339.745 167.848 327.247 183.926 327.117C200.004 326.988 215.261 339.226 218.617 354.941C227.482 352.899 237.013 351.386 245.48 354.716C253.947 358.045 260.425 367.974 256.922 376.338" fill="#EBEBEB"/>
<path d="M256.922 376.372C256.922 376.372 256.922 376.286 256.992 376.121C257.061 375.957 257.121 375.715 257.216 375.403C257.361 375.012 257.462 374.606 257.519 374.193C257.651 373.645 257.729 373.086 257.753 372.523C257.943 368.803 256.829 365.133 254.604 362.145C253.088 360.005 251.188 358.167 249 356.722C246.41 355.059 243.508 353.941 240.472 353.435C237.028 352.863 233.522 352.758 230.05 353.124C226.212 353.548 222.407 354.23 218.66 355.165H218.461V354.966C216.913 348.293 213.44 342.221 208.472 337.504C203.055 332.264 196.148 328.832 188.7 327.679C183.993 326.998 179.192 327.385 174.655 328.812C166.198 331.484 158.968 337.08 154.261 344.596C152.19 347.949 150.726 351.641 149.936 355.502V355.684H149.746C146.59 355.105 143.359 355.064 140.189 355.563C138.726 355.786 137.281 356.112 135.865 356.54L133.849 357.241C133.175 357.457 132.569 357.794 131.938 358.054C130.753 358.6 129.598 359.21 128.478 359.879L126.93 360.917L126.169 361.427L125.477 361.98L124.128 363.062C123.696 363.416 123.315 363.823 122.917 364.186C122.519 364.549 122.139 364.912 121.793 365.293L120.807 366.417C118.836 368.705 117.22 371.277 116.015 374.046C115.6 375.006 115.384 375.775 115.151 376.277C114.917 376.779 114.865 377.047 114.865 377.047C114.865 377.047 115.142 375.966 115.877 374.002C117.047 371.202 118.64 368.597 120.599 366.279L121.594 365.129C121.94 364.748 122.338 364.393 122.718 364.013C123.099 363.632 123.488 363.234 123.929 362.871L125.278 361.773C125.512 361.583 125.737 361.392 125.979 361.211L126.731 360.692L128.297 359.637C129.432 358.953 130.605 358.332 131.808 357.777C132.44 357.509 133.054 357.163 133.728 356.912L135.769 356.194C137.205 355.755 138.67 355.42 140.154 355.191C143.365 354.668 146.641 354.697 149.841 355.278L149.616 355.433C150.409 351.519 151.891 347.776 153.993 344.38C156.267 340.715 159.162 337.472 162.546 334.797C166.108 331.96 170.155 329.792 174.49 328.397C179.092 326.95 183.961 326.559 188.735 327.255C196.273 328.416 203.264 331.892 208.74 337.201C213.763 341.987 217.27 348.144 218.824 354.906L218.573 354.75C222.345 353.84 226.174 353.184 230.033 352.787C233.539 352.426 237.077 352.545 240.55 353.141C243.634 353.66 246.578 354.808 249.199 356.514C251.406 357.99 253.318 359.864 254.838 362.041C257.07 365.072 258.16 368.793 257.917 372.549C257.879 373.118 257.789 373.683 257.649 374.236C257.576 374.641 257.463 375.038 257.312 375.421C257.199 375.723 257.113 375.957 257.052 376.139C257.019 376.222 256.975 376.3 256.922 376.372Z" fill="#263238"/>
<path d="M175.58 154.391C176.134 189.134 148.449 217.848 113.871 218.393C79.2925 218.938 50.7341 191.14 50.1546 156.398C49.5751 121.656 77.2773 92.9414 111.855 92.3965C146.433 91.8517 175.026 119.658 175.58 154.391ZM82.8818 155.888C83.0056 161.811 84.8811 167.564 88.2716 172.422C91.6621 177.28 96.4157 181.025 101.932 183.184C107.449 185.343 113.482 185.82 119.269 184.554C125.057 183.288 130.339 180.336 134.451 176.07C138.562 171.805 141.317 166.417 142.37 160.587C143.422 154.757 142.723 148.746 140.363 143.312C138.002 137.879 134.084 133.266 129.105 130.057C124.125 126.847 118.306 125.185 112.383 125.279C104.414 125.432 96.8308 128.741 91.2994 134.48C85.768 140.219 82.7405 147.918 82.8818 155.888Z" fill="#E0E0E0"/>
<path d="M175.58 154.391C176.134 189.134 148.449 217.848 113.871 218.393L113.343 185.527C121.332 185.4 128.944 182.104 134.503 176.365C140.063 170.625 143.114 162.913 142.987 154.923C142.86 146.934 139.564 139.322 133.824 133.763C128.085 128.204 120.372 125.152 112.383 125.279L111.855 92.4139C146.433 91.8431 175.018 119.658 175.58 154.391Z" fill="#455A64"/>
<path d="M113.447 218.843L112.911 185.112H113.343C119.204 184.992 124.899 183.14 129.71 179.79C134.521 176.44 138.233 171.741 140.379 166.286C142.526 160.83 143.01 154.862 141.771 149.132C140.532 143.401 137.625 138.166 133.417 134.084C130.642 131.366 127.354 129.226 123.744 127.789C120.135 126.351 116.276 125.646 112.392 125.712H111.959L111.414 91.9818H111.847C128.627 91.7669 144.806 98.2173 156.836 109.918C168.865 121.618 175.762 137.613 176.012 154.392C176.566 189.376 148.699 218.289 113.879 218.852L113.447 218.843ZM113.784 185.977L114.294 217.978C148.44 217.191 175.701 188.762 175.148 154.409C174.902 137.934 168.16 122.222 156.39 110.692C144.62 99.1615 128.773 92.745 112.296 92.838L112.807 124.839C120.784 124.905 128.419 128.088 134.081 133.708C139.744 139.327 142.985 146.937 143.112 154.914C143.24 162.89 140.244 170.6 134.764 176.398C129.284 182.196 121.755 185.621 113.784 185.943V185.977Z" fill="#455A64"/>
<path d="M119.501 223.462C79.0504 224.119 46.7729 192.724 46.1242 152.074L84.4126 151.46C84.724 170.894 99.5135 183.123 118.852 182.812L119.501 223.462Z" fill="#019939"/>
<path d="M68.1096 152.783C68.3518 152.947 64.7365 158.63 60.0316 165.454C55.3266 172.278 51.3049 177.692 51.0627 177.562C50.8206 177.432 54.4444 171.715 59.1494 164.883C63.8544 158.05 67.8761 152.575 68.1096 152.783Z" fill="#263238"/>
<path d="M84.7673 155.94C85.0094 156.113 79.6558 164.303 72.8146 174.241C65.9733 184.178 60.2132 192.092 59.971 191.928C59.7289 191.763 65.0825 183.573 71.9324 173.636C78.7823 163.698 84.5424 155.776 84.7673 155.94Z" fill="#263238"/>
<path d="M92.8625 172.97C93.1134 173.134 88.2873 180.555 82.1034 189.532C75.9195 198.51 70.7042 205.654 70.4621 205.489C70.2199 205.325 75.0373 197.904 81.2212 188.927C87.4051 179.949 92.6204 172.797 92.8625 172.97Z" fill="#263238"/>
<path d="M106.96 182.388C107.202 182.552 102.385 189.964 96.201 198.95C90.0171 207.937 84.8018 215.054 84.5424 214.907C84.2829 214.76 89.1176 207.322 95.3102 198.336C101.503 189.35 106.718 182.189 106.96 182.388Z" fill="#263238"/>
<path d="M119.034 194.297C119.285 194.47 115.341 200.602 110.247 208.005C105.153 215.409 100.811 221.307 100.569 221.108C100.327 220.91 104.262 214.803 109.365 207.4C114.467 199.997 118.792 194.167 119.034 194.297Z" fill="#263238"/>
<path d="M318.718 34.432C318.718 34.432 322.498 25.7313 322.679 24.3648C322.861 22.9982 322.489 19.9798 321.512 19.1755C321.106 18.7827 320.584 18.5297 320.024 18.4535C319.465 18.3773 318.895 18.4817 318.398 18.7517C318.337 18.2037 318.103 17.6894 317.73 17.2835C317.356 16.8776 316.864 16.6012 316.323 16.4943C316.107 16.4186 315.876 16.3963 315.65 16.4295C315.424 16.4626 315.21 16.5502 315.025 16.6846C314.841 16.8191 314.691 16.9964 314.59 17.2013C314.489 17.4062 314.44 17.6325 314.446 17.8608C314.458 17.4714 314.334 17.0899 314.093 16.7831C313.853 16.4764 313.512 16.2639 313.131 16.183C312.63 16.1037 312.118 16.1792 311.661 16.3992C311.661 16.3992 309.819 14.7559 308.582 15.7765C307.345 16.797 308.772 32.6503 308.772 32.6503L318.718 34.432Z" fill="#FFBF9D"/>
<path d="M308.547 30.8339C308.547 30.8339 305.174 25.0305 305.191 23.4478C305.209 21.8651 307.103 18.2585 308.158 17.8261C309.213 17.3936 313.347 16.4336 313.347 16.4336C313.347 16.4336 315.077 18.0336 312.526 19.6164L309.637 21.3202C309.637 21.3202 314.273 22.8683 314.126 27.6079" fill="#FFBF9D"/>
<path d="M314.126 27.565C314.052 26.8207 313.907 26.0851 313.693 25.3682C313.388 24.5751 312.926 23.8515 312.335 23.2406C311.555 22.4541 310.614 21.8462 309.576 21.459L309.187 21.3119L309.542 21.113L312.482 19.3832C312.984 19.101 313.382 18.6642 313.615 18.1378C313.698 17.8668 313.703 17.578 313.63 17.3043C313.556 17.0306 313.407 16.783 313.2 16.5897L313.399 16.6416L311.176 17.1691L309.447 17.6275C309.161 17.714 308.876 17.7919 308.582 17.887C308.449 17.9279 308.319 17.977 308.193 18.034C308.085 18.0965 307.984 18.1689 307.89 18.2503C307.166 19.0498 306.582 19.9648 306.16 20.9573C305.936 21.4116 305.748 21.883 305.598 22.3671C305.439 22.8011 305.377 23.2645 305.416 23.725C305.622 24.5622 305.911 25.3765 306.281 26.1553C306.939 27.6169 307.544 28.7499 307.95 29.5716C308.177 29.9788 308.377 30.4006 308.547 30.8343C308.257 30.47 308.002 30.079 307.786 29.6667C307.336 28.8883 306.688 27.7553 305.987 26.2937C305.582 25.4976 305.266 24.6594 305.044 23.7942C304.982 23.278 305.038 22.7544 305.209 22.2633C305.366 21.7593 305.553 21.2654 305.771 20.7844C306.218 19.7332 306.845 18.7675 307.622 17.9302C307.745 17.8186 307.881 17.7228 308.028 17.6448C308.169 17.579 308.313 17.5213 308.461 17.4719C308.746 17.3767 309.04 17.2902 309.326 17.2124C309.902 17.0509 310.479 16.8953 311.055 16.7454L313.295 16.2178H313.416L313.494 16.2956C313.765 16.5483 313.958 16.8727 314.052 17.231C314.145 17.5893 314.135 17.9668 314.022 18.3194C313.75 18.9368 313.286 19.4496 312.699 19.7811L309.715 21.4417V21.0957C310.798 21.5174 311.773 22.1764 312.569 23.0244C313.179 23.6756 313.639 24.4518 313.918 25.2991C314.016 25.6091 314.086 25.9276 314.126 26.2504C314.17 26.487 314.187 26.7278 314.178 26.9683C314.186 27.1686 314.169 27.3692 314.126 27.565Z" fill="#FF9A6C"/>
<path d="M314.1 17.9736C313.634 19.6614 313.467 21.4177 313.607 23.1629C313.606 23.7501 313.804 24.3203 314.169 24.7803C314.372 24.9766 314.62 25.1203 314.891 25.1987C315.163 25.2771 315.449 25.2879 315.726 25.23C316.284 25.096 316.788 24.7942 317.17 24.3651" fill="#FFBF9D"/>
<path d="M317.196 24.434C317.196 24.434 316.919 25.0308 315.959 25.3768C315.671 25.4701 315.364 25.4953 315.064 25.4503C314.764 25.4053 314.478 25.2913 314.23 25.1173C313.962 24.865 313.751 24.5587 313.611 24.2187C313.471 23.8788 313.405 23.5129 313.417 23.1454C313.207 21.3819 313.458 19.5943 314.143 17.9561C313.903 19.6574 313.81 21.3762 313.866 23.0935C313.853 23.4006 313.901 23.7073 314.008 23.9954C314.115 24.2836 314.278 24.5474 314.489 24.7713C314.689 24.916 314.917 25.0164 315.159 25.0656C315.4 25.1148 315.65 25.1118 315.89 25.0567C316.348 24.9004 316.786 24.6914 317.196 24.434Z" fill="#FF9A6C"/>
<path d="M310.389 21.1045C310.17 21.7112 310.122 22.3665 310.251 22.9986C310.251 23.4054 310.379 23.802 310.617 24.1324C310.854 24.4629 311.189 24.7106 311.574 24.8408C312.232 24.9965 313.079 24.1229 313.468 23.2062" fill="#FFBF9D"/>
<path d="M313.468 23.206C313.512 23.206 313.468 23.6384 313.062 24.1833C312.843 24.5153 312.546 24.7885 312.197 24.979C311.944 25.0787 311.663 25.0787 311.41 24.979C311.15 24.8927 310.916 24.7442 310.727 24.5466C310.381 24.1812 310.163 23.7141 310.104 23.2146C310.084 22.8343 310.084 22.4533 310.104 22.073C310.104 21.3897 310.424 21.0438 310.459 21.0697C310.493 21.0957 310.381 21.4762 310.459 22.073L310.58 23.1541C310.651 23.5585 310.837 23.9338 311.116 24.2352C311.258 24.3786 311.429 24.4906 311.618 24.5638C311.775 24.6287 311.953 24.6287 312.111 24.5638C312.42 24.4234 312.694 24.2167 312.915 23.9584C313.226 23.5346 313.399 23.18 313.468 23.206Z" fill="#FF9A6C"/>
<path d="M318.71 18.8291C317.758 19.8621 317.067 21.1075 316.694 22.4616C316.551 22.7985 316.502 23.1678 316.553 23.5303C316.603 23.8927 316.751 24.2348 316.98 24.52C317.299 24.7333 317.677 24.8406 318.061 24.8267C318.444 24.8127 318.813 24.6782 319.116 24.4422C319.611 24.1316 320.037 23.7226 320.367 23.2405C320.697 22.7585 320.925 22.2137 321.036 21.64" fill="#FFBF9D"/>
<path d="M321.036 21.64C321.058 22.2633 320.862 22.8748 320.483 23.3697C320.117 23.9449 319.615 24.4203 319.021 24.7536C318.655 24.9548 318.245 25.0646 317.827 25.0736C317.585 25.0783 317.346 25.0222 317.132 24.9104C316.917 24.7985 316.734 24.6346 316.599 24.4336C316.364 24.035 316.276 23.5671 316.348 23.1103C316.397 22.7168 316.493 22.3307 316.634 21.96C316.852 21.3508 317.142 20.77 317.499 20.2302C317.789 19.6957 318.201 19.2366 318.701 18.8896C318.753 18.9415 318.294 19.4518 317.767 20.3945C317.46 20.9442 317.211 21.5238 317.023 22.1243C316.899 22.4676 316.817 22.8249 316.781 23.1881C316.728 23.5446 316.792 23.9085 316.963 24.226C317.352 24.84 318.243 24.719 318.822 24.4163C319.368 24.1288 319.841 23.7206 320.206 23.2227C320.528 22.7202 320.806 22.1907 321.036 21.64Z" fill="#FF9A6C"/>
<path d="M271.764 90.1566C271.764 90.1566 276.451 85.097 278.302 83.964C280.153 82.831 292.348 68.2923 293.637 64.4695C294.925 60.6467 306.887 29.9347 306.61 30.3499C306.333 30.765 321.797 33.5932 321.797 33.5932C321.797 33.5932 310.338 69.0534 308.936 73.0665C306.411 80.4093 293.896 95.2767 286.769 104.202C283.725 107.999 279.522 120.159 279.522 120.159L271.764 90.1566Z" fill="#263238"/>
<path d="M282.938 109.227C282.706 108.317 282.558 107.388 282.497 106.451C282.298 104.721 282.116 102.334 282.073 99.6875C282.03 97.041 282.125 94.6366 282.263 92.9069C282.299 91.9675 282.414 91.0329 282.609 90.1133C282.676 91.0491 282.676 91.9884 282.609 92.9242C282.549 94.6539 282.506 97.041 282.549 99.6789C282.592 102.317 282.722 104.695 282.843 106.425C282.943 107.356 282.974 108.292 282.938 109.227Z" fill="#455A64"/>
<path d="M205.626 289.745L199.036 303.177L198.171 306.463C198.171 306.463 202.573 326.416 199.823 328.388L180.207 296.725L185.258 293.542L191.546 280.119L205.626 289.745Z" fill="#455A64"/>
<path d="M180.259 296.725L182.741 295.298L200.618 326.191C200.618 326.191 200.912 327.965 199.875 328.388L180.259 296.725Z" fill="#263238"/>
<path d="M198.707 306.879C198.551 306.966 198.006 306.239 197.064 305.764C196.121 305.288 195.256 305.279 195.23 305.098C195.204 304.916 196.19 304.622 197.315 305.21C198.439 305.798 198.845 306.827 198.707 306.879Z" fill="#263238"/>
<path d="M199.451 311.056C199.33 311.177 198.664 310.667 197.721 310.52C196.778 310.373 195.991 310.641 195.939 310.52C195.888 310.399 196.623 309.742 197.79 309.941C198.958 310.139 199.572 310.918 199.451 311.056Z" fill="#263238"/>
<path d="M196.856 315.243C196.735 315.122 197.34 314.447 198.387 314.378C199.433 314.309 200.195 314.801 200.117 314.94C200.039 315.078 199.33 314.94 198.473 315C197.617 315.061 196.977 315.381 196.856 315.243Z" fill="#263238"/>
<path d="M272.845 190.932C272.205 192.454 239.114 243.111 232.325 248.741C225.536 254.372 202.365 300.574 202.365 300.574C202.365 300.574 183.433 291.397 183.009 292.392C182.586 293.386 196.285 259.777 204.458 245.973C212.632 232.17 216.446 226.834 216.446 226.834L232.706 183.477C232.706 183.477 233.043 169.198 235.127 163.645C237.212 158.093 243.335 153.267 243.335 153.267L272.845 190.932Z" fill="#263238"/>
<path d="M243.041 252.149L225.441 253.411C225.441 253.411 220.926 272.69 217.657 273.261L213.782 237.368L241.112 234.22L243.041 252.149Z" fill="#455A64"/>
<path d="M225.726 242.151C225.606 241.811 225.358 241.531 225.036 241.37C224.713 241.208 224.34 241.179 223.996 241.286C223.674 241.426 223.414 241.68 223.268 241.999C223.121 242.318 223.097 242.681 223.2 243.016C223.337 243.36 223.597 243.64 223.931 243.801C224.264 243.961 224.646 243.99 224.999 243.881C225.326 243.698 225.571 243.399 225.688 243.044C225.805 242.688 225.785 242.302 225.631 241.961" fill="#E0E0E0"/>
<path d="M213.825 237.368L216.593 237.169L219.265 271.652C219.265 271.652 218.781 273.321 217.7 273.261L213.825 237.368Z" fill="#263238"/>
<path d="M225.683 253.974C225.51 253.974 225.345 253.109 224.714 252.313C224.083 251.518 223.339 251.129 223.391 250.956C223.443 250.783 224.429 250.956 225.172 251.933C225.916 252.91 225.838 253.974 225.683 253.974Z" fill="#263238"/>
<path d="M224.654 257.901C224.498 257.952 224.135 257.226 223.365 256.707C222.595 256.188 221.834 256.102 221.825 255.929C221.817 255.756 222.742 255.539 223.685 256.197C224.628 256.854 224.766 257.875 224.654 257.901Z" fill="#263238"/>
<path d="M220.571 260.504C220.519 260.348 221.324 260.011 222.301 260.365C223.278 260.72 223.702 261.49 223.572 261.585C223.443 261.68 222.906 261.222 222.111 260.945C221.315 260.668 220.606 260.677 220.571 260.504Z" fill="#263238"/>
<path d="M229.653 253.213C229.497 253.161 229.653 252.348 229.471 251.345C229.289 250.342 228.917 249.615 229.047 249.511C229.177 249.408 229.86 250.082 230.042 251.241C230.223 252.4 229.843 253.282 229.653 253.213Z" fill="#263238"/>
<path d="M227.629 177.648C227.629 177.648 227.585 194.53 235.248 200.23C242.911 205.929 269.48 227.379 269.48 227.379L227.058 234.626L230.232 254.294C230.232 254.294 287.496 248.516 294.501 246.173C301.507 243.829 306.549 231.971 301.066 223.686C298.307 219.551 269.8 179.023 269.8 179.023L268.936 168.151L233 170.417L227.629 177.648Z" fill="#263238"/>
<path d="M230.232 254.294C230.195 254.184 230.169 254.071 230.154 253.956C230.102 253.697 230.042 253.36 229.964 252.936C229.8 252.01 229.575 250.704 229.289 249.026C228.718 245.567 227.897 240.689 226.894 234.652V234.488H227.058L265.787 227.811L269.463 227.18L269.359 227.577C263.383 222.639 257.701 217.986 252.52 213.808L245.151 207.927C242.842 206.102 240.619 204.468 238.786 202.738C235.871 200.072 233.331 197.023 231.235 193.674C230.669 192.765 230.158 191.824 229.704 190.854C229.54 190.526 229.436 190.266 229.367 190.093C229.325 190.009 229.296 189.918 229.281 189.825C229.332 189.904 229.375 189.988 229.41 190.076C229.488 190.249 229.609 190.5 229.782 190.82C230.265 191.766 230.796 192.687 231.374 193.579C233.516 196.874 236.077 199.878 238.993 202.513C240.827 204.2 243.05 205.808 245.367 207.633C247.685 209.458 250.176 211.404 252.771 213.48C257.96 217.648 263.668 222.284 269.645 227.223L270.025 227.534L269.541 227.612L265.865 228.243L227.118 234.808L227.257 234.618C228.2 240.672 228.987 245.584 229.497 249.009C229.748 250.696 229.947 252.01 230.085 252.936C230.146 253.368 230.189 253.705 230.223 253.965C230.238 254.074 230.241 254.184 230.232 254.294Z" fill="#455A64"/>
<path d="M280.923 228.598C280.923 228.728 278.406 227.993 275.258 227.664C272.11 227.335 269.524 227.517 269.515 227.379C270.061 227.21 270.63 227.126 271.202 227.128C272.568 227.044 273.94 227.075 275.301 227.223C276.665 227.36 278.013 227.618 279.331 227.993C279.892 228.106 280.429 228.31 280.923 228.598Z" fill="#455A64"/>
<path d="M254.734 36.0229C254.992 35.2526 255.48 34.5804 256.133 34.0975C256.786 33.6147 257.572 33.3448 258.384 33.3245C259.2 32.439 260.29 31.853 261.478 31.6601C262.667 31.4672 263.886 31.6787 264.94 32.2607C265.569 31.7275 266.324 31.3654 267.134 31.2091C267.943 31.0528 268.779 31.1077 269.562 31.3684C270.344 31.6291 271.046 32.0869 271.599 32.6976C272.153 33.3084 272.54 34.0515 272.724 34.8553C273.521 34.5928 274.379 34.5806 275.183 34.8202C275.987 35.0599 276.698 35.5399 277.221 36.1959C277.722 36.8726 278.006 37.6855 278.036 38.5271C278.065 39.3688 277.838 40.1995 277.385 40.9095C278.337 41.0369 279.208 41.5133 279.828 42.2461C280.449 42.979 280.775 43.9162 280.744 44.8759C280.713 45.8357 280.326 46.7497 279.659 47.4406C278.992 48.1316 278.093 48.5503 277.135 48.6156L256.248 40.3473C255.58 39.8704 255.077 39.199 254.806 38.4249C254.535 37.6507 254.51 36.8118 254.734 36.0229Z" fill="#263238"/>
<path d="M277.844 49.0487C276.786 45.0712 274.275 41.6353 270.806 39.4205C267.337 37.2056 263.164 36.373 259.11 37.0874L258.246 37.2344C249.363 39.3966 248.04 48.2271 250.462 57.1267L257.355 90.5112L273.874 100.328L275.863 93.0367V81.1532C275.863 81.1532 284.253 78.2385 282.782 69.5378C282.047 65.2912 279.885 56.7808 277.844 49.0487Z" fill="#FFBF9D"/>
<path d="M275.907 81.0839C271.897 81.8127 267.762 81.3713 263.997 79.8125C263.997 79.8125 267.379 86.057 275.846 83.7045L275.907 81.0839Z" fill="#FF9A6C"/>
<path d="M276.771 57.2299C276.835 57.5508 276.771 57.884 276.591 58.1575C276.411 58.4311 276.131 58.6229 275.811 58.6915C275.658 58.733 275.498 58.7435 275.34 58.7223C275.183 58.7012 275.031 58.6488 274.894 58.5682C274.757 58.4876 274.638 58.3806 274.543 58.2532C274.448 58.1259 274.379 57.9809 274.341 57.8267C274.277 57.5047 274.341 57.1704 274.521 56.8954C274.7 56.6205 274.98 56.427 275.301 56.3564C275.455 56.315 275.616 56.3048 275.774 56.3266C275.932 56.3483 276.083 56.4014 276.221 56.4829C276.358 56.5643 276.477 56.6723 276.572 56.8006C276.666 56.9289 276.734 57.0749 276.771 57.2299Z" fill="#263238"/>
<path d="M276.936 54.0561C276.806 54.2463 275.751 53.7187 274.428 53.9696C273.104 54.2204 272.222 55.0507 272.075 54.9209C271.928 54.7912 272.075 54.5404 272.464 54.1512C272.961 53.6444 273.606 53.3083 274.306 53.1912C274.996 53.0624 275.709 53.1594 276.339 53.4679C276.806 53.7015 276.996 53.9696 276.936 54.0561Z" fill="#263238"/>
<path d="M265.191 59.8426C265.255 60.1645 265.19 60.4989 265.011 60.7738C264.831 61.0487 264.551 61.2423 264.231 61.3129C264.077 61.3532 263.917 61.3628 263.76 61.341C263.603 61.3193 263.452 61.2668 263.315 61.1864C263.179 61.106 263.059 60.9994 262.964 60.8727C262.869 60.7459 262.8 60.6016 262.76 60.448C262.696 60.1271 262.761 59.7939 262.941 59.5203C263.12 59.2468 263.4 59.055 263.72 58.9863C263.873 58.9447 264.033 58.9339 264.19 58.9545C264.347 58.9751 264.498 59.0268 264.635 59.1065C264.772 59.1862 264.891 59.2923 264.987 59.4187C265.082 59.545 265.151 59.6891 265.191 59.8426Z" fill="#263238"/>
<path d="M264.213 56.1748C264.084 56.3651 263.028 55.8462 261.705 56.0883C260.382 56.3305 259.526 57.1781 259.353 57.0397C259.18 56.9013 259.353 56.6592 259.733 56.27C260.237 55.7672 260.883 55.432 261.584 55.3099C262.274 55.1818 262.986 55.2788 263.617 55.5867C264.084 55.8289 264.274 56.0883 264.213 56.1748Z" fill="#263238"/>
<path d="M270.371 65.2737C271.029 64.9226 271.73 64.658 272.456 64.4866C272.793 64.3915 273.096 64.2704 273.113 64.0283C273.081 63.671 272.939 63.3325 272.706 63.0596L271.227 60.6466C269.169 57.187 267.612 54.3502 267.768 54.2637C267.924 54.1772 269.688 56.9103 271.746 60.3179C272.248 61.1828 272.732 61.9785 273.182 62.7569C273.471 63.1295 273.621 63.5914 273.606 64.0628C273.578 64.1912 273.522 64.3117 273.441 64.4151C273.36 64.5185 273.257 64.6021 273.139 64.6596C272.961 64.7474 272.772 64.8114 272.577 64.8499C271.861 65.0796 271.121 65.2219 270.371 65.2737Z" fill="#263238"/>
<path d="M266.635 66.9086C266.851 66.8567 267.119 68.3011 268.538 69.1054C269.956 69.9097 271.461 69.4686 271.504 69.6676C271.548 69.8665 271.219 70.0135 270.57 70.1519C269.728 70.3143 268.856 70.1766 268.105 69.7627C267.385 69.3556 266.849 68.6865 266.609 67.8946C266.445 67.2978 266.54 66.9172 266.635 66.9086Z" fill="#263238"/>
<path d="M263.573 52.3615C263.478 52.742 262.276 52.6382 260.892 52.915C259.508 53.1917 258.401 53.6847 258.202 53.3647C258.107 53.2177 258.28 52.8544 258.713 52.4998C259.268 52.0377 259.932 51.7251 260.641 51.5917C261.351 51.4489 262.087 51.5028 262.769 51.7474C263.297 51.9117 263.573 52.1885 263.573 52.3615Z" fill="#263238"/>
<path d="M275.967 50.4583C275.82 50.8129 274.843 50.7437 273.753 51.0204C272.663 51.2972 271.816 51.7556 271.522 51.4961C271.392 51.375 271.452 51.0377 271.781 50.6312C272.222 50.1449 272.8 49.8025 273.438 49.6483C274.077 49.4941 274.747 49.5352 275.362 49.7664C275.82 50.0085 276.028 50.2853 275.967 50.4583Z" fill="#263238"/>
<path d="M276.287 45.2173C276.287 45.2173 273.026 40.1923 270.19 39.4053C266.73 38.4366 266.03 42.1729 262.864 41.8702C259.699 41.5675 256.429 40.6421 253.774 43.5394C250.877 46.7135 252.78 48.2184 253.273 52.1104C255.262 67.8772 253.273 72.8157 251.093 65.6026C250.859 64.8155 248.498 64.5734 247.564 61.2263C246.336 56.9019 245.195 51.5655 245.61 48.253C245.956 45.4595 247.115 43.3664 249.441 40.8669C253.1 36.9144 258.912 35.7901 262.933 35.47C266.955 35.15 275.414 38.3501 276.287 45.2173Z" fill="#263238"/>
<path d="M252.693 65.0657C252.625 64.7503 252.494 64.4518 252.308 64.1884C252.122 63.925 251.884 63.7021 251.609 63.5332C251.334 63.3642 251.028 63.2527 250.709 63.2055C250.39 63.1582 250.064 63.1761 249.752 63.2581C248.17 63.6992 246.544 64.9878 247.253 68.2744C248.524 74.1729 254.172 71.6907 254.129 71.5177C254.085 71.3447 253.247 67.5306 252.693 65.0657Z" fill="#FFBF9D"/>
<path d="M252.373 69.5725C252.373 69.5725 252.287 69.6676 252.131 69.7887C251.909 69.9424 251.636 70.0043 251.37 69.9617C250.943 69.7981 250.568 69.5248 250.281 69.1694C249.993 68.8141 249.805 68.3892 249.735 67.9379C249.62 67.4312 249.62 66.905 249.735 66.3984C249.75 66.2032 249.812 66.0145 249.916 65.8487C250.02 65.6829 250.163 65.545 250.332 65.447C250.444 65.3914 250.571 65.3765 250.693 65.4049C250.815 65.4333 250.922 65.5033 250.998 65.6027C251.11 65.7497 251.102 65.8708 251.128 65.8794C251.154 65.8881 251.231 65.7497 251.128 65.5162C251.063 65.3777 250.953 65.265 250.816 65.1962C250.722 65.1569 250.62 65.1367 250.518 65.1367C250.415 65.1367 250.314 65.1569 250.219 65.1962C249.991 65.2983 249.792 65.4565 249.641 65.6561C249.489 65.8556 249.391 66.0901 249.355 66.3378C249.215 66.9059 249.215 67.4995 249.355 68.0676C249.439 68.5987 249.677 69.0934 250.04 69.4902C250.403 69.8869 250.874 70.1682 251.396 70.299C251.558 70.3055 251.719 70.2763 251.869 70.2135C252.018 70.1507 252.152 70.0559 252.261 69.9357C252.39 69.7541 252.399 69.5811 252.373 69.5725Z" fill="#FF9A6C"/>
<path d="M249.623 53.745C250.454 54.2059 251.388 54.4498 252.338 54.4542C252.808 54.4389 253.256 54.256 253.602 53.9387C253.947 53.6214 254.168 53.1906 254.224 52.7245C254.224 52.3007 254.034 51.8596 254.224 51.4704C254.414 51.0812 255.089 51.0466 255.599 51.012C256.481 50.9197 257.303 50.5244 257.926 49.8935C258.549 49.2627 258.934 48.4353 259.015 47.5525C259.331 47.7988 259.728 47.917 260.128 47.8833C260.527 47.8496 260.899 47.6666 261.169 47.3708C261.692 46.7589 262.128 46.0779 262.466 45.347C262.635 44.9824 262.892 44.6653 263.214 44.4239C263.535 44.1824 263.911 44.0242 264.308 43.9632C264.749 44.0321 265.196 44.0495 265.64 44.0151C266.401 43.8075 266.618 42.8216 266.592 42.0259C266.566 41.2302 266.497 40.2961 267.076 39.7772C267.701 39.3827 268.447 39.2261 269.178 39.3361C269.904 39.3361 270.795 38.9728 270.856 38.2377C270.852 38.0442 270.809 37.8536 270.73 37.6768C270.651 37.5001 270.538 37.3409 270.397 37.2085C269.79 36.5766 268.985 36.1699 268.116 36.0552C267.247 35.9405 266.365 36.1245 265.614 36.5771C265.153 35.6394 264.422 34.861 263.515 34.3418C262.608 33.8227 261.567 33.5866 260.524 33.6637C259.482 33.7409 258.487 34.1278 257.666 34.7749C256.846 35.4219 256.237 36.2995 255.919 37.295C255.189 36.8351 254.359 36.5597 253.499 36.4922C252.639 36.4248 251.776 36.5675 250.984 36.9079C250.191 37.2484 249.493 37.7764 248.95 38.4465C248.408 39.1166 248.036 39.9087 247.867 40.7545C247.11 40.7056 246.354 40.8763 245.692 41.246C245.029 41.6157 244.487 42.1688 244.131 42.8389C243.793 43.5204 243.656 44.2839 243.736 45.0404C243.815 45.7968 244.108 46.515 244.58 47.1114C244.08 47.4857 243.682 47.9816 243.427 48.5521C243.171 49.1227 243.065 49.749 243.119 50.372C243.318 51.6001 244.727 52.612 245.852 52.1018C245.729 52.622 245.796 53.1688 246.04 53.6443C246.284 54.1198 246.69 54.4928 247.184 54.6964C247.701 54.8625 248.26 54.8338 248.758 54.6155C249.255 54.3972 249.655 54.0045 249.882 53.5115" fill="#263238"/>
<path d="M245.411 52.1276C245.425 52.3385 245.485 52.5439 245.585 52.7303C245.684 52.9166 245.823 53.0797 245.99 53.2087C246.349 53.5303 246.815 53.7062 247.296 53.7017C247.605 53.6948 247.908 53.6199 248.185 53.4824C248.461 53.3448 248.704 53.148 248.896 52.906H248.637C249.05 53.4101 249.544 53.8426 250.098 54.186C250.466 54.4187 250.873 54.5801 251.301 54.6617C251.703 54.7339 252.118 54.698 252.503 54.5579C252.842 54.4697 253.157 54.3076 253.426 54.0833C253.695 53.8591 253.912 53.5781 254.06 53.2606C254.227 52.8397 254.312 52.3904 254.31 51.9373C254.31 51.6173 254.31 51.4443 254.267 51.4443C254.214 51.5979 254.182 51.7579 254.172 51.92C254.128 52.3451 254.014 52.7601 253.835 53.1482C253.663 53.4412 253.432 53.695 253.156 53.8932C252.88 54.0913 252.566 54.2295 252.233 54.2988C251.901 54.3681 251.558 54.3669 251.226 54.2953C250.894 54.2237 250.58 54.0834 250.306 53.8833C249.77 53.563 249.286 53.1636 248.87 52.6984L248.732 52.5427L248.611 52.7071C248.451 52.9145 248.249 53.0852 248.018 53.2075C247.786 53.3299 247.531 53.4011 247.27 53.4163C246.849 53.4389 246.433 53.3067 246.103 53.0444C245.813 52.7877 245.578 52.4761 245.411 52.1276Z" fill="#455A64"/>
<path d="M254.12 36.551C254.12 36.551 254.284 36.551 254.561 36.6288C254.97 36.72 255.342 36.9343 255.625 37.2429L255.711 37.3467L255.772 37.217C256.334 36.0815 257.173 35.1059 258.211 34.3801C258.875 33.9063 259.633 33.5817 260.434 33.4288C261.306 33.2724 262.204 33.3622 263.028 33.6882C263.68 33.9454 264.269 34.3374 264.758 34.8385C265.212 35.3096 265.547 35.8818 265.735 36.5078L265.787 36.698L265.96 36.6116C266.659 36.2721 267.456 36.1918 268.208 36.3851C268.961 36.5784 269.62 37.0325 270.069 37.6667C270.419 38.1869 270.652 38.7772 270.752 39.3965C270.788 39.2312 270.788 39.0601 270.752 38.8948C270.673 38.4304 270.496 37.9881 270.233 37.5975C269.839 36.9772 269.253 36.5032 268.564 36.2483C268.123 36.0856 267.655 36.0118 267.186 36.0311C266.717 36.0504 266.256 36.1624 265.831 36.3607L266.047 36.4645C265.858 35.7792 265.502 35.1519 265.009 34.6396C264.413 34.0232 263.674 33.5628 262.858 33.2989C262.042 33.035 261.174 32.9756 260.33 33.1261C259.488 33.298 258.693 33.6458 257.995 34.1466C256.928 34.9124 256.088 35.9524 255.564 37.1564H255.72C255.399 36.8374 254.983 36.6311 254.535 36.5683C254.276 36.4905 254.12 36.5337 254.12 36.551Z" fill="#455A64"/>
<path d="M263.98 180.727C264.801 180.796 267.612 181.79 271.262 175.036C274.912 168.281 278.415 143.269 278.415 143.269L263.98 180.727Z" fill="#E0E0E0"/>
<path d="M279.729 133.625L280.144 109.452L275.284 90.9519C275.284 90.9519 271.885 85.6242 268.174 82.9171C265.778 81.0823 263.041 79.7417 260.122 78.9732L254.553 77.624L253.956 82.2425L270.12 100.786L279.729 133.625Z" fill="#E0E0E0"/>
<path d="M254.06 79.2676C254.06 79.2676 267.361 80.4092 273.796 96.4874C277.256 105.136 279.357 128.272 279.764 131.887C280.17 135.502 278.812 143.797 276.348 154.971C275.863 157.142 274.125 162.85 269.385 176.697C264.308 191.504 260.261 202.436 260.261 202.436L217.726 186.003L238.881 148.899C238.881 148.899 237.765 137.466 237.817 136.376C238.224 127.874 236.572 123.091 239.382 106.754C240.209 101.87 241.923 97.1799 244.442 92.9154C247.123 88.4094 249.104 87.0602 253.653 83.6698L254.06 79.2676Z" fill="#263238"/>
<path d="M258.609 180.615L259.733 171.646L239.452 163.421L235.75 171.992L258.609 180.615Z" fill="#263238"/>
<path d="M258.609 180.614L258.15 180.416L256.853 179.897L252.07 178.028L235.828 171.81L235.958 172.104L239.106 164.848L239.668 163.533L239.365 163.663L259.673 171.81L259.577 171.646C259.275 174.37 259.024 176.593 258.851 178.176C258.773 178.928 258.713 179.525 258.661 179.983C258.609 180.442 258.6 180.623 258.609 180.632C258.659 180.442 258.693 180.248 258.713 180.052C258.782 179.611 258.868 179.032 258.972 178.323C259.197 176.714 259.508 174.465 259.889 171.698V171.576L259.776 171.533L239.521 163.239L239.356 163.161L239.27 163.369C239.088 163.801 238.898 164.234 238.708 164.675C237.618 167.2 236.563 169.648 235.577 171.948L235.482 172.165L235.698 172.242L252.183 178.348L256.948 180.078L258.211 180.528C258.341 180.569 258.474 180.598 258.609 180.614Z" fill="#455A64"/>
<path d="M275.422 157.972C275.409 158.051 275.389 158.129 275.362 158.205L275.154 158.871L274.289 161.466C273.537 163.723 272.473 166.932 271.15 170.876L260.641 201.873L260.416 202.53L260.339 202.755L260.122 202.669L230.042 190.967L220.969 187.378L218.513 186.383L217.882 186.115L217.665 186.003L217.899 186.072L218.547 186.297L221.03 187.213L230.154 190.673L260.278 202.262L259.984 202.401C260.062 202.193 260.131 201.968 260.209 201.743C264.36 189.635 268.123 178.738 270.856 170.781C272.222 166.854 273.338 163.663 274.125 161.414L275.076 158.837C275.171 158.568 275.258 158.352 275.318 158.179C275.379 158.006 275.414 157.972 275.422 157.972Z" fill="#455A64"/>
<path d="M212.9 205.333C212.9 205.333 217.925 188.961 222.206 187.845C226.487 186.73 232.143 186.557 233.138 189.35C234.362 192.872 234.919 196.591 234.781 200.317C234.492 203.747 233.928 207.148 233.095 210.488L228.727 209.13C228.727 209.13 232.187 192.507 231.261 189.783C230.336 187.058 223.123 187.716 221.799 190.544C220.476 193.372 216.273 206.371 216.273 206.371L212.9 205.333Z" fill="#455A64"/>
<path d="M192.826 225.935C194.357 219.076 197.937 203.993 199.52 197.393C199.727 196.524 200.262 195.769 201.013 195.285C201.764 194.801 202.674 194.627 203.55 194.799L244.546 202.877C245.426 203.051 246.204 203.561 246.716 204.299C247.228 205.036 247.433 205.944 247.288 206.829L242.66 235.319C242.586 235.774 242.422 236.211 242.177 236.602C241.931 236.993 241.61 237.332 241.232 237.597C240.854 237.862 240.427 238.049 239.976 238.146C239.524 238.244 239.058 238.25 238.604 238.164L195.576 230.095C195.118 230.011 194.682 229.835 194.293 229.578C193.905 229.321 193.572 228.989 193.315 228.6C193.059 228.212 192.883 227.775 192.799 227.317C192.715 226.859 192.724 226.389 192.826 225.935Z" fill="#455A64"/>
<path d="M243.067 213.377L243.015 213.679C242.972 213.895 242.92 214.207 242.842 214.596C242.686 215.418 242.453 216.603 242.15 218.133L239.555 231.202L239.348 232.257C239.3 232.639 239.144 232.999 238.898 233.295C238.638 233.597 238.291 233.812 237.904 233.909C237.513 233.988 237.109 233.97 236.727 233.857L232.04 232.949L221.661 230.951L210.236 228.728L204.182 227.552L201.094 226.947L200.316 226.799C200.041 226.761 199.771 226.691 199.511 226.592C199.244 226.474 199.006 226.297 198.817 226.074C198.628 225.85 198.493 225.587 198.422 225.303C198.374 225.058 198.374 224.805 198.422 224.559C198.422 224.309 198.517 224.101 198.56 223.876L198.845 222.536L199.416 219.88C199.788 218.151 200.16 216.421 200.523 214.691C201.261 211.272 201.968 207.983 202.642 204.823V204.676H202.789C214.439 207.66 224.515 209.787 231.659 211.197C235.24 211.898 238.085 212.425 240.031 212.78L242.28 213.195L242.842 213.307L243.032 213.351H242.825L242.245 213.264L240.014 212.901C238.059 212.572 235.214 212.079 231.633 211.396C224.463 210.047 214.379 207.936 202.711 204.987L202.893 204.875C202.227 208.032 201.518 211.335 200.791 214.752C200.428 216.481 200.056 218.211 199.684 219.941C199.494 220.806 199.304 221.671 199.114 222.596L198.828 223.928C198.689 224.343 198.653 224.785 198.724 225.217C198.786 225.453 198.9 225.672 199.057 225.859C199.214 226.046 199.411 226.196 199.632 226.298C199.872 226.389 200.122 226.45 200.376 226.479L201.155 226.635L204.242 227.241L210.296 228.417L221.73 230.657L232.109 232.689L236.796 233.615C237.145 233.717 237.512 233.735 237.869 233.667C238.205 233.585 238.507 233.4 238.734 233.139C238.953 232.872 239.091 232.548 239.132 232.205C239.209 231.85 239.279 231.504 239.348 231.167C240.481 225.684 241.406 221.256 242.038 218.194C242.366 216.663 242.617 215.47 242.79 214.648C242.877 214.25 242.946 213.939 242.989 213.714C243.032 213.489 243.067 213.377 243.067 213.377Z" fill="#263238"/>
<path d="M227.784 229.316C227.784 229.316 228.035 229.359 228.52 229.359C229.221 229.337 229.902 229.115 230.483 228.719C230.933 228.396 231.307 227.979 231.578 227.496C231.85 227.014 232.014 226.478 232.057 225.926C232.308 224.637 232.602 223.175 232.922 221.558C233.086 220.745 233.25 219.898 233.423 219.015C233.674 218.133 233.584 217.189 233.173 216.369C232.948 215.944 232.637 215.571 232.261 215.274C231.884 214.976 231.449 214.76 230.984 214.639C229.999 214.423 228.935 214.224 227.871 214.008L213.955 211.223C213.37 211.106 212.764 211.143 212.198 211.329C211.631 211.516 211.122 211.845 210.72 212.287C210.322 212.717 210.044 213.245 209.916 213.817L209.553 215.547L208.861 219.007C208.751 219.583 208.639 220.137 208.523 220.667C208.401 221.198 208.308 221.735 208.247 222.276C208.219 222.788 208.306 223.299 208.5 223.773C208.695 224.247 208.992 224.672 209.371 225.018C209.737 225.344 210.167 225.591 210.634 225.744C211.083 225.882 211.594 225.96 212.061 226.064L217.345 227.145L224.999 228.737L227.075 229.186L227.611 229.307L227.793 229.359H227.603L227.058 229.264L224.974 228.875L217.302 227.379L212 226.298C211.525 226.194 211.049 226.133 210.539 225.986C210.034 225.825 209.571 225.557 209.181 225.199C208.768 224.829 208.442 224.372 208.228 223.86C208.014 223.348 207.917 222.795 207.944 222.241C208.008 221.686 208.103 221.134 208.229 220.589C208.342 220.045 208.446 219.491 208.558 218.929C208.783 217.813 209.016 216.672 209.25 215.469C209.362 214.89 209.483 214.302 209.605 213.74C209.746 213.119 210.044 212.544 210.469 212.07C210.908 211.59 211.463 211.23 212.081 211.025C212.699 210.821 213.359 210.779 213.998 210.903L227.914 213.714C228.978 213.938 230.016 214.129 231.036 214.362C231.541 214.498 232.011 214.738 232.416 215.067C232.821 215.397 233.153 215.808 233.389 216.274C233.821 217.149 233.91 218.155 233.64 219.093C233.458 219.958 233.285 220.823 233.121 221.627C232.792 223.236 232.489 224.698 232.256 225.952C232.187 226.272 232.126 226.583 232.04 226.886C231.946 227.168 231.818 227.439 231.659 227.69C231.386 228.138 231.017 228.519 230.578 228.806C229.976 229.205 229.268 229.416 228.545 229.411C228.289 229.415 228.032 229.383 227.784 229.316Z" fill="#263238"/>
<g opacity="0.3">
<path d="M199.39 226.419C210.926 232.46 223.977 234.994 236.935 233.71L199.39 226.419Z" fill="black"/>
</g>
<path d="M225.138 217.874L220.329 216.905C220.148 216.869 219.977 216.797 219.824 216.695C219.671 216.592 219.539 216.46 219.437 216.307C219.335 216.153 219.264 215.981 219.229 215.801C219.194 215.62 219.194 215.434 219.231 215.253C219.306 214.891 219.52 214.573 219.828 214.368C220.135 214.162 220.511 214.086 220.874 214.155L225.709 215.132C225.889 215.167 226.061 215.238 226.214 215.339C226.367 215.441 226.498 215.572 226.6 215.725C226.702 215.878 226.773 216.049 226.808 216.229C226.844 216.41 226.844 216.595 226.807 216.775C226.772 216.958 226.701 217.132 226.597 217.287C226.494 217.442 226.36 217.575 226.205 217.677C226.049 217.78 225.874 217.85 225.691 217.884C225.508 217.917 225.32 217.914 225.138 217.874Z" fill="#E0E0E0"/>
<path d="M232.818 184.169C233.453 185.133 233.97 186.17 234.358 187.257C234.532 189.203 234.567 191.16 234.461 193.112C234.461 193.112 233.449 193.622 232.628 190.906C232.195 189.601 231.885 188.257 231.702 186.893L232.818 184.169Z" fill="#FFBF9D"/>
<path d="M232.688 192.861L232.879 184.29L229.575 177.951L219.092 177.752L218.72 188.131C218.72 188.131 220.26 192.585 220.995 193.424C221.73 194.263 223.2 193.64 223.2 193.64C223.988 194.885 226.167 194.427 226.167 194.427C227.231 195.698 228.891 194.505 228.891 194.505C228.891 194.505 230.344 195.837 231.01 195.75C231.29 195.683 231.54 195.525 231.72 195.3C232.327 194.631 232.671 193.765 232.688 192.861Z" fill="#FFBF9D"/>
<path d="M222.396 191.426C222.491 191.426 222.742 191.85 222.941 192.446C223.14 193.043 223.235 193.562 223.131 193.597C223.028 193.631 222.785 193.164 222.586 192.567C222.388 191.971 222.292 191.46 222.396 191.426Z" fill="#FF9A6C"/>
<path d="M225.112 191.296C225.374 191.795 225.558 192.332 225.657 192.887C225.873 193.409 226.01 193.96 226.063 194.522C225.669 194.097 225.402 193.569 225.294 193C225.071 192.461 225.008 191.87 225.112 191.296Z" fill="#FF9A6C"/>
<path d="M228.208 191.572C228.321 191.572 228.398 192.23 228.554 193.017C228.71 193.804 228.857 194.444 228.753 194.487C228.649 194.53 228.329 193.916 228.174 193.086C228.018 192.256 228.113 191.572 228.208 191.572Z" fill="#FF9A6C"/>
<path d="M232.757 186.98C232.928 188.058 232.977 189.152 232.905 190.241C232.951 191.328 232.873 192.416 232.671 193.484C232.446 191.32 232.475 189.138 232.757 186.98Z" fill="#FF9A6C"/>
<path d="M222.241 189.704C222.241 189.704 222.241 189.86 222.016 189.972C221.767 190.116 221.475 190.162 221.194 190.102C220.91 190.045 220.658 189.884 220.485 189.652C220.355 189.479 220.346 189.332 220.39 189.315C220.433 189.298 220.77 189.635 221.255 189.73C221.739 189.825 222.18 189.618 222.241 189.704Z" fill="#FF9A6C"/>
<path d="M225.406 190.223C225.406 190.223 225.345 190.379 225.138 190.482C224.864 190.594 224.564 190.624 224.273 190.569C223.973 190.514 223.697 190.366 223.486 190.145C223.33 189.964 223.296 189.825 223.33 189.791C223.365 189.756 223.771 190.093 224.342 190.197C224.913 190.301 225.354 190.128 225.406 190.223Z" fill="#FF9A6C"/>
<path d="M231.469 189.592C231.469 189.54 231.711 189.817 231.469 190.189C231.137 190.556 230.674 190.777 230.18 190.803C229.703 190.847 229.225 190.738 228.814 190.492C228.511 190.293 228.39 190.094 228.424 190.059C228.971 190.293 229.559 190.417 230.154 190.422C230.558 190.4 230.946 190.258 231.27 190.016C231.469 189.817 231.417 189.61 231.469 189.592Z" fill="#FF9A6C"/>
<path d="M264.101 108.977C259.984 113.301 234.418 138.383 234.418 138.383C234.418 138.383 232.939 178.946 232.195 179.119C231.452 179.292 216.757 178.09 216.757 178.09C216.757 178.09 214.699 135.088 216.411 130.184C218.124 125.28 239.988 96.6089 240.464 96.0121C240.939 95.4153 243.447 91.0304 251.811 88.8768C261.61 86.3686 265.727 91.065 267.379 95.8824C268.797 100.034 266.09 106.486 264.784 108.216C264.572 108.483 264.344 108.737 264.101 108.977Z" fill="#263238"/>
<path d="M264.101 108.976C264.101 108.976 264.222 108.803 264.481 108.5C264.859 108.046 265.178 107.546 265.433 107.013C266.462 104.982 267.165 102.802 267.517 100.552C267.808 98.9421 267.702 97.2853 267.206 95.726C266.586 93.877 265.526 92.206 264.118 90.8567C263.314 90.1346 262.397 89.5502 261.402 89.127C260.337 88.7022 259.215 88.437 258.073 88.3399C255.565 88.2286 253.058 88.5654 250.669 89.3345C248.01 90.0966 245.525 91.3686 243.352 93.0795C242.225 94.018 241.237 95.1131 240.42 96.3314L237.627 100.025C233.882 105.015 229.903 110.403 225.812 116.068C223.78 118.922 221.696 121.863 219.689 124.924C218.649 126.447 217.705 128.033 216.861 129.673C216.774 129.889 216.662 130.088 216.584 130.304L216.454 130.97C216.348 131.422 216.282 131.882 216.256 132.345L216.134 133.755L216.065 135.173C215.797 142.793 216.013 150.741 216.23 158.802C216.428 165.375 216.679 171.818 216.965 178.063L216.757 177.855L224.654 178.478L228.528 178.746L230.44 178.859L231.391 178.902H232.057C232.255 177.679 232.391 176.446 232.463 175.209C232.541 173.963 232.628 172.735 232.706 171.507C232.844 169.062 232.977 166.658 233.103 164.294C233.579 154.849 233.968 146.131 234.236 138.347V138.278V138.226L255.98 116.812L261.939 110.983L263.495 109.469C263.85 109.132 264.04 108.967 264.04 108.967C264.04 108.967 263.876 109.158 263.53 109.504L262.008 111.052L256.118 116.95L234.496 138.477L234.548 138.356C234.271 146.14 233.934 154.849 233.475 164.303C233.354 166.661 233.227 169.065 233.095 171.516C233.008 172.744 232.93 173.981 232.853 175.226C232.785 176.496 232.643 177.761 232.429 179.014C232.408 179.083 232.376 179.147 232.334 179.205C232.296 179.255 232.24 179.289 232.178 179.3H232.109H231.832H231.348L230.388 179.256L228.468 179.144L224.593 178.876L216.697 178.262H216.498V178.063C216.212 171.81 215.961 165.366 215.763 158.785C215.546 150.689 215.33 142.784 215.607 135.13L215.676 133.703L215.806 132.276C215.834 131.796 215.9 131.319 216.005 130.849L216.16 130.14C216.243 129.913 216.338 129.69 216.446 129.474C217.297 127.812 218.253 126.206 219.309 124.665C221.332 121.586 223.417 118.654 225.458 115.8C229.557 110.1 233.553 104.755 237.315 99.7737L240.1 96.1066C240.55 95.5271 240.965 94.8871 241.493 94.3768C241.988 93.8251 242.526 93.3132 243.101 92.846C247.395 89.5899 252.678 87.9103 258.064 88.0891C259.237 88.2032 260.386 88.4949 261.472 88.954C262.492 89.3845 263.431 89.9871 264.248 90.7357C265.679 92.1139 266.751 93.8212 267.37 95.7087C267.87 97.3034 267.968 98.9969 267.656 100.639C267.284 102.901 266.548 105.089 265.476 107.117C265.209 107.647 264.875 108.141 264.481 108.587C264.248 108.829 264.101 108.976 264.101 108.976Z" fill="#455A64"/>
<path d="M278.605 127.537C278.523 127.386 278.464 127.222 278.432 127.053C278.32 126.69 278.181 126.188 278.008 125.643C277.636 124.363 277.143 122.581 276.512 120.402C275.267 115.896 273.563 109.712 271.651 102.775V102.68L271.703 102.594C272.179 101.85 272.689 101.054 273.208 100.259L273.597 99.6446L273.77 99.9906L270.908 99.7224H270.76L270.709 99.5754C270.198 97.961 269.606 96.3733 268.936 94.8185C268.343 93.375 267.595 92.0004 266.704 90.719C265.809 89.6594 264.709 88.7916 263.47 88.1676C262.328 87.5189 261.229 86.9741 260.226 86.4984C258.202 85.547 256.55 84.8551 255.409 84.3794L254.103 83.8345C253.945 83.7827 253.795 83.7131 253.653 83.627C253.817 83.6473 253.977 83.691 254.129 83.7567C254.44 83.8605 254.89 84.0161 255.469 84.2324C256.628 84.6562 258.306 85.3048 260.347 86.2216C261.368 86.6886 262.475 87.2162 263.642 87.8562C264.933 88.4837 266.084 89.3664 267.024 90.4509C267.947 91.7455 268.719 93.1412 269.325 94.611C270.011 96.1791 270.618 97.7812 271.141 99.4111L270.942 99.2554L273.814 99.5149H274.177L273.978 99.8262L273.589 100.44L272.075 102.775V102.594C273.935 109.556 275.587 115.74 276.789 120.263C277.36 122.46 277.818 124.251 278.155 125.539C278.294 126.127 278.415 126.603 278.501 126.975C278.562 127.156 278.597 127.346 278.605 127.537Z" fill="#455A64"/>
<path d="M275.621 101.694C270.605 104.652 266.531 104.634 258.159 103.925C252.356 103.432 247.27 101.771 241.45 101.59C233.06 101.339 226.747 103.899 219.136 107.359L213.497 114.018L224.074 117.218C231.223 113.544 239.205 111.792 247.236 112.133C260.209 112.842 272.386 109.305 276.694 106.009L278.173 101.91L277.61 99.7649L275.829 99.6006L275.621 101.694Z" fill="#019939"/>
<path d="M275.621 101.694C275.621 101.694 275.621 101.512 275.621 101.158C275.621 100.803 275.69 100.293 275.751 99.6269V99.5664H275.803L277.584 99.7134H277.636V99.7653C277.801 100.388 278 101.106 278.216 101.902C277.801 103.104 277.308 104.496 276.771 106.018C275.505 106.94 274.128 107.699 272.672 108.276C271.006 108.982 269.296 109.577 267.552 110.057C261.075 111.817 254.364 112.561 247.659 112.263C245.094 112.134 242.523 112.215 239.971 112.505C237.278 112.822 234.618 113.375 232.022 114.157C229.307 114.944 226.676 115.999 224.169 117.305H224.083H223.996L217.821 115.593L213.41 114.235L213.081 114.14L213.298 113.88L218.937 107.212H218.98C222.613 105.488 226.371 104.042 230.223 102.888C233.785 101.859 237.484 101.383 241.19 101.478C244.495 101.643 247.781 102.077 251.015 102.775C253.799 103.345 256.615 103.746 259.448 103.977C261.761 104.202 264.086 104.301 266.41 104.271C268.149 104.246 269.876 103.991 271.547 103.51C272.592 103.195 273.608 102.79 274.583 102.299L275.327 101.91L275.595 101.781C275.595 101.781 275.526 101.841 275.362 101.936C275.197 102.031 274.946 102.187 274.618 102.369C273.653 102.898 272.639 103.332 271.591 103.666C269.908 104.187 268.162 104.478 266.401 104.531C264.069 104.583 261.736 104.505 259.413 104.297C256.57 104.09 253.742 103.705 250.946 103.147C247.726 102.474 244.458 102.057 241.173 101.902C237.506 101.818 233.848 102.299 230.327 103.329C226.512 104.491 222.788 105.937 219.187 107.653L219.265 107.593L213.635 114.261L213.531 113.898L217.916 115.229L224.109 117.098H223.936C226.481 115.753 229.155 114.669 231.919 113.863C234.538 113.08 237.221 112.528 239.936 112.211C242.52 111.925 245.124 111.85 247.72 111.986C254.38 112.301 261.048 111.589 267.491 109.876C269.224 109.407 270.925 108.829 272.585 108.146C274.023 107.582 275.388 106.847 276.65 105.958V106.01L278.155 101.91V101.962L277.619 99.8172L277.68 99.8778L275.898 99.6875H275.958L275.777 101.236C275.682 101.53 275.621 101.694 275.621 101.694Z" fill="#263238"/>
<path d="M255.789 155.671C255.789 155.784 251.923 154.521 247.253 152.852C244.405 151.916 241.608 150.834 238.872 149.609C238.915 149.496 242.738 150.759 247.409 152.428C250.256 153.364 253.054 154.446 255.789 155.671Z" fill="#455A64"/>
</svg>
